<svg xmlns="http://www.w3.org/2000/svg" width="13" height="13" viewBox="0 0 13 13">
    <path fill="#444B5A" fill-rule="evenodd" d="M6.5 0C10.102 0 13 2.898 13 6.5S10.102 13 6.5 13A6.484 6.484 0 0 1 0 6.5C0 2.898 2.898 0 6.5 0zm.18 3.28a.864.864 0 0 0-.88.88c0 .498.382.88.88.88.5 0 .88-.382.88-.88a.864.864 0 0 0-.88-.88zm1.468 6.16v-.586c0-.176-.147-.323-.294-.323-.176 0-.293-.117-.293-.264V5.92c0-.176-.147-.323-.294-.323h-1.76c-.176 0-.293.176-.293.323v.587c0 .176.146.264.293.264.176 0 .293.176.293.323v1.173c0 .176-.146.264-.293.264-.176 0-.293.176-.293.323v.587c0 .176.146.264.293.264h2.347c.176 0 .294-.117.294-.264z"/>
</svg>
