<?xml version="1.0" encoding="UTF-8"?>
<svg width="129px" height="133px" viewBox="0 0 129 133" version="1.1" xmlns="http://www.w3.org/2000/svg" xmlns:xlink="http://www.w3.org/1999/xlink">
    <!-- Generator: Sketch 49.3 (51167) - http://www.bohemiancoding.com/sketch -->
    <title>Shape</title>
    <desc>Created with Sketch.</desc>
    <defs></defs>
    <g id="Page-1" stroke="none" stroke-width="1" fill="none" fill-rule="evenodd" opacity="0.04">
        <g id="Artboard-Copy-10" transform="translate(-1032.000000, -243.000000)" fill="#040000" fill-rule="nonzero">
            <path d="M1130.72473,356.62673 L1130.72473,261.711858 L1113.89737,261.711858 C1111.09926,269.544485 1104.08112,273.234351 1096.13731,273.234351 C1088.1935,273.234351 1081.17888,269.544485 1078.37725,261.711858 L1062.018,261.711858 L1062.018,357.090158 L1078.82072,357.093668 C1081.62235,353.410824 1088.1759,346.41026 1096.12675,346.41026 C1104.03184,346.41026 1110.96904,352.761323 1113.37999,357.037495 L1130.72473,357.090158 L1130.72473,356.62673 Z M1135.93027,362.064982 L1107.33326,362.064982 C1107.33326,358.554167 1102.56768,351.97139 1096.40832,351.97139 C1090.24897,351.97139 1085.33556,358.115316 1085.33556,362.064982 L1057.17851,362.064982 L1057.17851,256.740545 L1085.33556,256.740545 C1085.33556,264.201025 1090.17505,267.71184 1096.33441,267.71184 C1102.49377,267.71184 1107.33326,264.201026 1107.33326,256.740545 L1135.93027,256.740545 L1135.93027,362.064982 Z M1069.93717,324.762577 L1080.49607,324.762577 L1080.49607,330.906503 L1069.93717,330.906503 L1069.93717,324.762577 Z M1091.05496,324.762577 L1101.61386,324.762577 L1101.61386,330.906503 L1091.05496,330.906503 L1091.05496,324.762577 Z M1112.17275,324.762577 L1122.73165,324.762577 L1122.73165,330.906503 L1112.17275,330.906503 L1112.17275,324.762577 Z" id="Shape" transform="translate(1096.554387, 309.402763) rotate(39.000000) translate(-1096.554387, -309.402763) "></path>
        </g>
    </g>
</svg>