<?xml version="1.0" encoding="UTF-8"?>
<svg width="266px" height="157px" viewBox="0 0 266 157" version="1.1" xmlns="http://www.w3.org/2000/svg" xmlns:xlink="http://www.w3.org/1999/xlink">
    <!-- Generator: Sketch 49.3 (51167) - http://www.bohemiancoding.com/sketch -->
    <title>Group 5</title>
    <desc>Created with Sketch.</desc>
    <defs>
        <linearGradient x1="50%" y1="0%" x2="50%" y2="100%" id="linearGradient-1">
            <stop stop-color="#F7D24C" offset="0%"></stop>
            <stop stop-color="#EE9E26" offset="100%"></stop>
        </linearGradient>
        <path d="M0,121.204032 L0,2 C-1.3527075e-16,0.8954305 0.8954305,2.02906125e-16 2,0 L264,0 C265.104569,-2.02906125e-16 266,0.8954305 266,2 L266,120.748879 C262.46819,122.137681 260,125.309426 260,129 C260,132.690574 262.46819,135.862319 266,137.251121 L266,189 C266,190.104569 265.104569,191 264,191 L254.759957,191 C254.917367,190.515335 255,190.013699 255,189.5 C255,185.357864 249.627417,182 243,182 C236.372583,182 231,185.357864 231,189.5 C231,190.013699 231.082633,190.515335 231.240043,191 L224.759957,191 C224.917367,190.515335 225,190.013699 225,189.5 C225,185.357864 219.627417,182 213,182 C206.372583,182 201,185.357864 201,189.5 C201,190.013699 201.082633,190.515335 201.240043,191 L194.759957,191 C194.917367,190.515335 195,190.013699 195,189.5 C195,185.357864 189.627417,182 183,182 C176.372583,182 171,185.357864 171,189.5 C171,190.013699 171.082633,190.515335 171.240043,191 L162.759957,191 C162.917367,190.515335 163,190.013699 163,189.5 C163,185.357864 157.627417,182 151,182 C144.372583,182 139,185.357864 139,189.5 C139,190.013699 139.082633,190.515335 139.240043,191 L130.759957,191 C130.917367,190.515335 131,190.013699 131,189.5 C131,185.357864 125.627417,182 119,182 C112.372583,182 107,185.357864 107,189.5 C107,190.013699 107.082633,190.515335 107.240043,191 L99.7599565,191 C99.9173674,190.515335 100,190.013699 100,189.5 C100,185.357864 94.627417,182 88,182 C81.372583,182 76,185.357864 76,189.5 C76,190.013699 76.0826326,190.515335 76.2400435,191 L67.7599565,191 C67.9173674,190.515335 68,190.013699 68,189.5 C68,185.357864 62.627417,182 56,182 C49.372583,182 44,185.357864 44,189.5 C44,190.013699 44.0826326,190.515335 44.2400435,191 L34.7599565,191 C34.9173674,190.515335 35,190.013699 35,189.5 C35,185.357864 29.627417,182 23,182 C16.372583,182 11,185.357864 11,189.5 C11,190.013699 11.0826326,190.515335 11.2400435,191 L2,191 C0.8954305,191 1.3527075e-16,190.104569 0,189 L0,136.79596 C2.98900685,135.239818 5,132.331271 5,129 C5,125.66873 2.9890081,122.760184 2.78416831e-06,121.204041 Z" id="path-2"></path>
    </defs>
    <g id="Page-1" stroke="none" stroke-width="1" fill="none" fill-rule="evenodd">
        <g id="Artboard-Copy-8" transform="translate(-1061.000000, 0.000000)">
            <g id="已预订" transform="translate(1061.000000, -34.000000)">
                <g id="Group-5">
                    <mask id="mask-3" fill="white">
                        <use xlink:href="#path-2"></use>
                    </mask>
                    <use id="Combined-Shape" fill="url(#linearGradient-1)" xlink:href="#path-2"></use>
                    <path d="M15.5,129.5 L250.5,129.5" id="Line-5" stroke="#FFFFFF" opacity="0.349999994" stroke-linecap="square" stroke-dasharray="5" mask="url(#mask-3)"></path>
                </g>
            </g>
        </g>
    </g>
</svg>