<?xml version="1.0" encoding="UTF-8"?>
<svg width="498px" height="266px" viewBox="0 0 498 266" version="1.1" xmlns="http://www.w3.org/2000/svg" xmlns:xlink="http://www.w3.org/1999/xlink">
    <!-- Generator: Sketch 49.3 (51167) - http://www.bohemiancoding.com/sketch -->
    <title>赛道图-15公里</title>
    <desc>Created with Sketch.</desc>
    <defs>
        <linearGradient x1="93.3287766%" y1="65.787035%" x2="5.42357003%" y2="42.1422691%" id="linearGradient-1">
            <stop stop-color="#EC3389" offset="0%"></stop>
            <stop stop-color="#FE74B4" offset="100%"></stop>
        </linearGradient>
        <linearGradient x1="38.7139678%" y1="-10.0638216%" x2="50%" y2="100%" id="linearGradient-2">
            <stop stop-color="#7ECDFF" offset="0%"></stop>
            <stop stop-color="#9ED9FF" offset="15.4065038%"></stop>
            <stop stop-color="#25AAFF" offset="75.2573847%"></stop>
            <stop stop-color="#00609E" offset="100%"></stop>
        </linearGradient>
        <linearGradient x1="38.7139678%" y1="-10.0638216%" x2="50%" y2="100%" id="linearGradient-3">
            <stop stop-color="#F9D65F" offset="0%"></stop>
            <stop stop-color="#FFE69B" offset="15.4065038%"></stop>
            <stop stop-color="#FFB82B" offset="75.2573847%"></stop>
            <stop stop-color="#F1AD31" offset="100%"></stop>
        </linearGradient>
        <linearGradient x1="50%" y1="0%" x2="50%" y2="100%" id="linearGradient-4">
            <stop stop-color="#81B2FF" offset="0%"></stop>
            <stop stop-color="#1F6DFF" offset="100%"></stop>
        </linearGradient>
    </defs>
    <g id="Page-1" stroke="none" stroke-width="1" fill="none" fill-rule="evenodd">
        <g id="Artboard-Copy-5" transform="translate(-646.000000, -1282.000000)">
            <g id="赛道图-15公里" transform="translate(647.000000, 1279.000000)">
                <path d="M6.22528274,86.8216613 C12.8741123,88.800671 17.5837,92.1649875 20.3540456,96.9146108 C24.5095641,104.039046 38.6383271,96.9146108 46.1182604,96.9146108 C53.5981937,96.9146108 56.9226085,93.4513438 67.7269566,93.4513438 C78.5313047,93.4513438 72.7135788,89.196473 86.011238,86.8216613 C99.3088972,84.4468497 92.6600676,76.1350089 102.633312,76.1350089 C112.606556,76.1350089 114.268764,69.0105739 120.917593,66.0420594 C127.566423,63.0735448 120.917593,64.2609507 130.890838,60.6987332 C140.864082,57.1365157 138.370771,48.8246749 152.499534,48.8246749 C166.628297,48.8246749 161.641675,45.2624575 166.628297,41.70024 C171.614919,38.1380225 204.859067,19.7332322 224.805556,25.6702614 C244.752045,31.6072905 252.231978,34.575805 252.231978,38.1380225 C252.231978,41.70024 277.165089,44.0750516 278.827296,48.8246749 C280.489504,53.5742982 278.827296,59.1069532 282.151711,60.6987332 C285.476126,62.2905132 292.124956,67.4445106 299.604889,62.2905132 C307.084822,57.1365157 307.084822,56.7321415 313.733652,59.5113274 C320.382481,62.2905132 312.902548,63.8822932 329.524622,62.2905132 C346.146696,60.6987332 341.991178,60.9137786 343.653385,62.2905132 C345.315592,63.6672477 353.626629,65.0439823 356.119941,63.6672477 C358.613252,62.2905132 361.106563,58.9176244 366.093185,63.6672477 C371.079807,68.416871 367.755392,70.1979798 375.235326,71.9790885 C382.715259,73.7601972 388.532985,76.1350089 391.026296,80.2909293 C393.519607,84.4468497 400.99954,82.6657409 396.012918,86.8216613 C391.026296,90.9775817 386.039674,90.9775817 386.039674,94.5397992 C386.039674,98.1020166 381.884155,95.727205 375.235326,96.9146108 C368.586496,98.1020166 366.093185,95.727205 360.275459,98.6957196 C354.457733,101.664234 353.626629,99.8831254 346.9778,102.257937 C340.32897,104.632749 336.173452,106.413857 333.680141,106.413857 C331.18683,106.413857 322.044689,107.00756 322.044689,108.194966 C322.044689,109.382372 318.720274,110.569778 318.720274,112.944589 C318.720274,115.319401 318.720274,116.506807 318.720274,119.475321 C318.720274,122.443836 320.382481,127.787162 322.044689,130.755677 C323.706896,133.724191 326.200207,134.911597 327.862415,137.880112 C329.524622,140.848626 329.524622,142.036032 329.524622,144.410844 C329.524622,146.785655 330.355726,148.566764 333.680141,150.941576 C337.004555,153.316387 337.004555,159.84712 340.32897,162.815634 C343.653385,165.784149 340.32897,168.15896 343.653385,171.127475 C346.9778,174.095989 356.951044,175.283395 360.275459,174.095989 C363.599874,172.908584 362.76877,171.721178 375.235326,169.346366 C387.701881,166.971554 388.532985,166.377852 393.519607,164.00304 C398.506229,161.628228 394.350711,157.472308 402.661748,158.659714 C410.972785,159.84712 414.2972,155.097496 419.283822,158.066011 C424.270444,161.034525 420.114925,165.190446 416.790511,168.15896 C413.466096,171.127475 409.310577,166.377852 409.310577,175.877098 C409.310577,182.209929 409.310577,184.782642 409.310577,183.595236 C410.418716,185.970048 410.69575,188.344859 410.141681,190.719671 C409.310577,194.281888 410.141681,199.625215 410.972785,201.406323 C411.803888,203.187432 415.959407,204.968541 417.621614,208.530758 C418.729753,210.90557 418.175684,214.467787 415.959407,219.217411 L405.986163,229.904063 C402.107679,231.487271 398.783264,232.278875 396.012918,232.278875 C391.8574,232.278875 390.195192,229.904063 386.039674,232.278875 C383.269328,233.862083 375.789395,233.862083 363.599874,232.278875 C359.72139,232.674677 356.67401,234.257884 354.457733,237.028498 C352.241457,239.799112 349.194076,243.955032 345.315592,249.496259 C343.653385,251.871071 341.991178,253.256378 340.32897,253.65218 C337.835659,254.245883 339.497867,259.589209 335.342348,259.589209 C331.18683,259.589209 323.706896,262.557723 322.044689,265.526238 C320.936551,267.505248 313.179583,268.296851 298.773785,267.90105 C285.476126,267.109446 278.273227,266.317842 277.165089,265.526238 C275.502882,264.338832 258.049704,255.433288 249.738667,255.433288 C244.197976,255.433288 240.042457,252.860576 237.272111,247.715151 C233.393627,245.340339 228.961074,245.340339 223.974452,247.715151 C216.494519,251.277368 218.98783,242.965527 221.481141,239.997013 C223.143349,238.018003 223.974452,232.080974 223.974452,222.185925 C226.190729,213.478283 225.359625,210.509768 221.481141,213.280382 C215.663415,217.436302 214.001208,219.811114 209.014586,219.217411 C204.027963,218.623708 192.392512,218.030005 185.743682,208.530758 C179.094852,199.031512 169.952712,193.094483 168.290504,193.094483 C166.628297,193.094483 164.134986,186.563751 164.134986,183.595236 C164.134986,181.616226 162.195744,176.470801 158.31726,168.15896 C158.871329,164.596743 158.040225,162.02403 155.823949,160.440822 C152.499534,158.066011 149.175119,150.941576 145.019601,149.75417 C140.864082,148.566764 139.201875,142.571688 130.890838,144.410844 C125.350146,145.636948 119.255386,147.418057 112.606556,149.75417 C108.728072,150.545774 105.680692,149.377717 103.464416,146.25 C98.4777935,147.002906 93.2141367,147.379358 87.6734454,147.379358 C83.2408923,147.379358 80.4705466,147.379358 79.3624084,147.379358 C77.700201,147.379358 76.0379936,152.722685 72.7135788,153.91009 C69.389164,155.097496 57.7537122,155.097496 56.0915048,153.91009 C54.4292974,152.722685 49.4426752,154.503793 47.7804678,150.941576 C46.1182604,147.379358 32.8206012,141.442329 32.8206012,140.848626 C32.8206012,140.254923 17.0296308,131.34938 14.5363197,127.193459 C12.0430086,123.037539 0.407556842,108.788669 0.407556842,107.601263 C0.407556842,106.413857 1.23866054,96.8156603 1.23866054,95.1335021 C1.23866054,94.0120632 2.90086794,91.2414497 6.22528274,86.8216613 Z" id="Path-12" stroke="url(#linearGradient-1)" stroke-width="2" stroke-dasharray="3"></path>
                <path d="M46.256,69.136 L46.352,69.772 L40.316,70.888 L40.316,75.736 C40.316,76.06 40.46,76.228 40.772,76.228 L44.348,76.228 C44.66,76.228 44.888,76.132 45.02,75.952 C45.152,75.748 45.236,75.064 45.284,73.888 L45.908,74.092 C45.836,75.388 45.716,76.18 45.524,76.468 C45.332,76.732 44.972,76.864 44.468,76.864 L40.616,76.864 C39.98,76.864 39.668,76.516 39.668,75.832 L39.668,71.008 L35.684,71.74 L35.588,71.104 L39.668,70.348 L39.668,66.292 L40.316,66.292 L40.316,70.228 L46.256,69.136 Z M53.48,66.412 L53.804,66.952 C52.292,67.432 50.276,67.684 47.78,67.684 L47.576,67.108 C49.976,67.096 51.944,66.868 53.48,66.412 Z M52.988,67.888 L53.54,68.032 C53.3,68.98 53,69.808 52.628,70.528 L52.1,70.348 C52.436,69.7 52.724,68.872 52.988,67.888 Z M57.2,66.136 L57.62,66.604 C56.756,67.732 55.676,68.656 54.356,69.4 L54.056,68.8 C55.328,68.128 56.372,67.24 57.2,66.136 Z M57.728,69.412 L58.148,69.892 C57.212,71.068 56.012,72.064 54.548,72.856 L54.26,72.256 C55.652,71.536 56.816,70.588 57.728,69.412 Z M58.076,72.736 L58.508,73.216 C57.38,74.788 55.952,76.096 54.224,77.128 L53.924,76.504 C55.604,75.556 56.984,74.296 58.076,72.736 Z M47.948,71.776 L50.648,71.776 L50.648,70.48 L51.296,70.48 L51.296,71.776 L53.744,71.776 L53.744,72.4 L51.296,72.4 L51.296,73.276 C52.064,73.732 52.856,74.272 53.66,74.872 L53.276,75.436 C52.508,74.764 51.848,74.248 51.296,73.888 L51.296,77.164 L50.648,77.164 L50.648,73.168 C49.904,74.44 48.992,75.508 47.936,76.348 L47.564,75.784 C48.812,74.848 49.784,73.72 50.504,72.4 L47.948,72.4 L47.948,71.776 Z M50.624,68.068 C50.936,68.716 51.176,69.316 51.344,69.856 L50.78,70.06 C50.588,69.436 50.336,68.836 50.048,68.236 L50.624,68.068 Z M48.464,68.308 C48.824,68.92 49.136,69.628 49.4,70.42 L48.872,70.552 C48.62,69.832 48.308,69.148 47.936,68.476 L48.464,68.308 Z M68.672,76.984 L66.524,76.984 C65.84,76.984 65.504,76.612 65.504,75.88 L65.504,73.768 C64.928,74.056 64.328,74.332 63.704,74.596 L63.332,74.056 C64.112,73.744 64.832,73.408 65.504,73.06 L65.504,69.496 L66.14,69.496 L66.14,72.712 C67.52,71.92 68.66,71.032 69.56,70.06 L70.016,70.54 C68.924,71.644 67.628,72.604 66.14,73.432 L66.14,75.736 C66.14,76.168 66.332,76.396 66.716,76.396 L68.54,76.396 C68.9,76.396 69.14,76.312 69.284,76.144 C69.476,75.916 69.596,75.268 69.668,74.212 L70.28,74.416 C70.184,75.616 70.016,76.36 69.752,76.648 C69.524,76.864 69.164,76.984 68.672,76.984 Z M61.7,72.316 C61.148,72.976 60.524,73.588 59.816,74.14 L59.624,73.504 C61.064,72.304 62.108,70.936 62.744,69.412 L63.332,69.688 C63.056,70.312 62.732,70.9 62.348,71.452 L62.348,77.212 L61.7,77.212 L61.7,72.316 Z M59.864,67.384 L62.528,67.384 L62.528,66.196 L63.164,66.196 L63.164,67.384 L66.848,67.384 L66.848,66.196 L67.484,66.196 L67.484,67.384 L70.148,67.384 L70.148,68.008 L67.484,68.008 L67.484,69.16 L66.848,69.16 L66.848,68.008 L63.164,68.008 L63.164,69.16 L62.528,69.16 L62.528,68.008 L59.864,68.008 L59.864,67.384 Z M81.488,67.096 L81.488,76.984 L80.84,76.984 L80.84,76 L73.184,76 L73.184,77.02 L72.548,77.02 L72.548,67.096 L81.488,67.096 Z M73.184,75.376 L76.712,75.376 L76.712,71.788 L73.184,71.788 L73.184,75.376 Z M77.348,75.376 L80.84,75.376 L80.84,71.788 L77.348,71.788 L77.348,75.376 Z M73.184,71.176 L76.712,71.176 L76.712,67.708 L73.184,67.708 L73.184,71.176 Z M77.348,67.708 L77.348,71.176 L80.84,71.176 L80.84,67.708 L77.348,67.708 Z" id="七彩花田" fill="#FFFFFF" opacity="0.600000024"></path>
                <path d="M236.696,126.456 L241.712,126.456 L241.856,125.172 L242.516,125.268 C242.468,125.688 242.432,126.084 242.384,126.456 L247.304,126.456 L247.304,127.08 L242.288,127.08 C242.204,127.56 242.12,128.016 242.036,128.436 L246.632,128.436 L246.632,135.084 C246.632,135.744 246.308,136.08 245.66,136.08 L244.46,136.08 L244.28,135.444 L245.444,135.468 C245.804,135.468 245.984,135.288 245.984,134.94 L245.984,129.06 L238.028,129.06 L238.028,136.164 L237.392,136.164 L237.392,128.436 L241.376,128.436 C241.472,127.98 241.556,127.536 241.628,127.08 L236.696,127.08 L236.696,126.456 Z M240.548,129.564 C240.812,129.996 241.064,130.524 241.292,131.136 L242.66,131.136 C242.972,130.62 243.236,130.068 243.464,129.492 L244.052,129.708 C243.824,130.236 243.572,130.716 243.284,131.136 L244.82,131.136 L244.82,131.724 L242.324,131.724 L242.324,133.164 L245.192,133.164 L245.192,133.74 L242.324,133.74 L242.324,135.984 L241.676,135.984 L241.676,133.74 L238.82,133.74 L238.82,133.164 L241.676,133.164 L241.676,131.724 L239.216,131.724 L239.216,131.136 L240.656,131.136 C240.476,130.656 240.248,130.2 239.96,129.78 L240.548,129.564 Z M251.828,127.692 C252.98,128.556 254.036,129.432 255.008,130.296 C255.752,129.372 256.376,128.316 256.892,127.116 L257.48,127.428 C256.916,128.7 256.256,129.804 255.5,130.74 C256.484,131.64 257.384,132.54 258.188,133.44 L257.696,133.932 C256.94,133.044 256.064,132.144 255.08,131.232 C254,132.42 252.752,133.32 251.324,133.932 L250.952,133.344 C252.344,132.768 253.556,131.916 254.588,130.788 C253.604,129.924 252.536,129.036 251.36,128.136 L251.828,127.692 Z M249.512,125.736 L258.956,125.736 L258.956,126.36 L250.148,126.36 L250.148,135.036 L259.292,135.036 L259.292,135.66 L249.512,135.66 L249.512,125.736 Z M268.112,127.62 C267.8,128.412 267.404,129.096 266.948,129.648 L266.54,129.144 C267.32,128.148 267.848,126.804 268.124,125.112 L268.76,125.232 C268.652,125.856 268.508,126.444 268.34,126.972 L271.46,126.972 L271.46,127.62 L268.112,127.62 Z M261.092,125.424 C261.788,125.964 262.364,126.504 262.832,127.044 L262.364,127.512 C261.932,126.984 261.368,126.432 260.648,125.856 L261.092,125.424 Z M261.02,128.46 C261.74,129.012 262.352,129.564 262.844,130.14 L262.376,130.596 C261.92,130.056 261.32,129.492 260.576,128.892 L261.02,128.46 Z M262.136,131.604 L262.712,131.82 C262.232,133.308 261.716,134.712 261.152,136.008 L260.552,135.744 C261.164,134.4 261.692,133.02 262.136,131.604 Z M264.044,127.812 L263.012,127.812 L263.012,127.176 L264.8,127.176 C264.632,126.48 264.44,125.832 264.236,125.256 L264.896,125.148 C265.088,125.736 265.268,126.408 265.436,127.176 L266.876,127.176 L266.876,127.812 L264.68,127.812 L264.68,128.724 C264.68,129.084 264.668,129.432 264.656,129.768 L266.636,129.768 C266.636,132.468 266.576,134.136 266.468,134.784 C266.396,135.576 266.036,135.972 265.4,135.972 C265.232,135.972 264.944,135.96 264.524,135.936 L264.38,135.36 C264.74,135.384 265.064,135.396 265.34,135.396 C265.64,135.396 265.82,135.12 265.868,134.58 C265.952,134.1 266,132.708 266.024,130.392 L264.62,130.392 C264.44,132.936 263.9,134.856 263,136.152 L262.508,135.72 C263.516,134.268 264.02,131.94 264.044,128.724 L264.044,127.812 Z M267.896,129.096 L271.052,129.096 L271.052,129.684 C270.668,130.2 270.236,130.704 269.756,131.196 L269.756,132.072 L271.496,132.072 L271.496,132.672 L269.756,132.672 L269.756,134.988 C269.756,135.66 269.468,136.008 268.904,136.008 L267.884,136.008 L267.716,135.396 C268.016,135.408 268.34,135.42 268.688,135.42 C268.976,135.42 269.132,135.192 269.132,134.76 L269.132,132.672 L267.2,132.672 L267.2,132.072 L269.132,132.072 L269.132,131.088 C269.684,130.488 270.092,130.02 270.332,129.684 L267.896,129.684 L267.896,129.096 Z M281.456,132.552 L281.456,136.2 L280.82,136.2 L280.82,135.66 L275.408,135.66 L275.408,136.2 L274.772,136.2 L274.772,132.552 L281.456,132.552 Z M275.408,135.06 L280.82,135.06 L280.82,133.14 L275.408,133.14 L275.408,135.06 Z M276.596,127.128 L277.232,127.284 C277.04,127.596 276.824,127.896 276.608,128.172 L281.132,128.172 L281.132,128.712 C280.592,129.432 279.824,130.08 278.84,130.632 C280.208,131.22 281.756,131.58 283.472,131.724 L283.316,132.324 C281.396,132.156 279.68,131.712 278.18,130.968 C276.752,131.64 274.952,132.18 272.78,132.576 L272.528,131.976 C274.544,131.64 276.212,131.196 277.532,130.62 C276.836,130.224 276.2,129.768 275.6,129.252 C275.12,129.684 274.604,130.08 274.028,130.44 L273.62,129.948 C274.868,129.204 275.864,128.256 276.596,127.128 Z M278.18,130.32 C279.092,129.864 279.824,129.336 280.364,128.748 L276.104,128.748 C276.068,128.784 276.032,128.82 275.996,128.868 C276.668,129.444 277.388,129.924 278.18,130.32 Z M282.8,126.204 L282.8,128.352 L282.14,128.352 L282.14,126.792 L273.86,126.792 L273.86,128.352 L273.2,128.352 L273.2,126.204 L277.688,126.204 C277.544,125.856 277.376,125.544 277.196,125.256 L277.904,125.136 C278.072,125.448 278.216,125.808 278.36,126.204 L282.8,126.204 Z M289.664,125.172 L290.336,125.172 L290.336,127.392 L294.68,127.392 L294.68,132.912 L294.02,132.912 L294.02,132.108 L290.336,132.108 L290.336,136.26 L289.664,136.26 L289.664,132.108 L285.992,132.108 L285.992,132.912 L285.332,132.912 L285.332,127.392 L289.664,127.392 L289.664,125.172 Z M285.992,131.472 L289.664,131.472 L289.664,128.04 L285.992,128.04 L285.992,131.472 Z M290.336,131.472 L294.02,131.472 L294.02,128.04 L290.336,128.04 L290.336,131.472 Z M303.512,135.78 L300.812,135.78 C300.044,135.78 299.672,135.42 299.672,134.7 L299.672,127.74 L300.332,127.74 L300.332,134.556 C300.332,134.94 300.548,135.132 301.004,135.132 L303.38,135.132 C303.716,135.132 303.944,135.012 304.076,134.784 C304.244,134.484 304.364,133.608 304.424,132.144 L305.036,132.348 C304.964,133.956 304.796,134.94 304.544,135.324 C304.328,135.624 303.992,135.78 303.512,135.78 Z M297.932,129.072 L298.568,129.204 C298.22,131.196 297.728,132.924 297.092,134.388 L296.528,134.028 C297.164,132.564 297.632,130.908 297.932,129.072 Z M305.408,128.664 C306.224,130.188 306.944,131.82 307.544,133.548 L306.944,133.812 C306.296,131.952 305.564,130.308 304.772,128.88 L305.408,128.664 Z M301.04,125.316 C302.192,126.456 303.068,127.452 303.68,128.304 L303.128,128.676 C302.492,127.764 301.616,126.756 300.5,125.652 L301.04,125.316 Z" id="南区游客中心" fill="#FFFFFF" opacity="0.600000024"></path>
                <path d="M315.004,40.632 C315.004,42.996 314.944,44.424 314.836,44.928 C314.716,45.42 314.224,45.672 313.372,45.672 L313.288,45.672 L313.096,45.048 C313.252,45.048 313.384,45.06 313.504,45.06 C313.9,45.06 314.152,44.916 314.248,44.628 C314.32,44.352 314.368,43.308 314.38,41.484 L312.388,42.096 L312.388,46.728 L311.764,46.728 L311.764,42.288 L309.796,42.9 L309.796,47.748 C309.796,48.144 310,48.348 310.432,48.348 L313.912,48.348 C314.2,48.348 314.404,48.264 314.524,48.096 C314.68,47.88 314.788,47.256 314.836,46.224 L315.436,46.416 C315.364,47.616 315.22,48.348 314.98,48.624 C314.788,48.84 314.476,48.96 314.044,48.96 L310.24,48.96 C309.508,48.96 309.148,48.6 309.148,47.88 L309.148,43.104 L308.032,43.44 L308.032,42.792 L309.148,42.456 L309.148,39.444 L309.796,39.444 L309.796,42.252 L311.764,41.64 L311.764,38.232 L312.388,38.232 L312.388,41.448 L315.004,40.632 Z M308.2,45.756 L308.2,46.416 C307.096,46.92 305.896,47.34 304.624,47.676 L304.456,47.016 C304.996,46.896 305.524,46.764 306.052,46.596 L306.052,42.132 L304.6,42.132 L304.6,41.484 L306.052,41.484 L306.052,38.328 L306.688,38.328 L306.688,41.484 L308.02,41.484 L308.02,42.132 L306.688,42.132 L306.688,46.38 C307.204,46.2 307.708,45.996 308.2,45.756 Z M318.616,40.992 L322.708,40.992 C322.768,40.596 322.816,40.2 322.864,39.804 L323.5,39.888 C323.464,40.272 323.416,40.644 323.368,40.992 L327.268,40.992 L327.268,41.616 L323.26,41.616 C323.164,42.072 323.068,42.516 322.96,42.924 L326.092,42.924 L326.092,46.944 L325.456,46.944 L325.456,43.548 L320.524,43.548 L320.524,47.016 L319.888,47.016 L319.888,42.924 L322.288,42.924 C322.408,42.492 322.504,42.06 322.6,41.616 L318.616,41.616 L318.616,40.992 Z M326.404,38.352 L326.716,38.928 C324.28,39.336 321.544,39.576 318.508,39.624 L318.508,42.756 C318.448,45.372 317.932,47.472 316.948,49.032 L316.492,48.552 C317.344,47.16 317.8,45.228 317.872,42.756 L317.872,39.06 C321.016,39.024 323.86,38.784 326.404,38.352 Z M323.632,46.74 C324.964,47.244 326.176,47.868 327.28,48.6 L326.92,49.164 C325.744,48.348 324.532,47.7 323.296,47.232 L323.632,46.74 Z M322.888,44.088 L323.512,44.124 C323.368,45.54 322.936,46.632 322.216,47.388 C321.484,48.132 320.356,48.732 318.844,49.164 L318.508,48.576 C319.948,48.192 321.004,47.664 321.676,46.992 C322.336,46.32 322.744,45.36 322.888,44.088 Z M332.104,38.352 L332.716,38.592 C331.792,41.112 330.58,43.044 329.092,44.364 L328.588,43.92 C330.136,42.552 331.312,40.692 332.104,38.352 Z M335.884,44.712 C336.856,46.02 337.696,47.412 338.416,48.888 L337.816,49.164 C337.624,48.756 337.432,48.372 337.24,48.012 C335.104,48.348 332.692,48.6 330.028,48.768 L329.908,48.144 C330.952,47.448 332.164,45.504 333.556,42.3 L334.192,42.504 C333.112,44.976 332.044,46.836 330.964,48.096 C333.124,47.952 335.104,47.736 336.928,47.448 C336.4,46.512 335.86,45.672 335.284,44.904 L335.884,44.712 Z M335.716,38.268 C336.424,40.548 337.66,42.42 339.436,43.86 L338.992,44.388 C337.168,42.888 335.884,40.956 335.164,38.58 L335.716,38.268 Z M350.812,38.832 L350.812,49.176 L350.164,49.176 L350.164,48.648 L341.836,48.648 L341.836,49.176 L341.188,49.176 L341.188,38.832 L350.812,38.832 Z M341.836,48.06 L350.164,48.06 L350.164,39.432 L341.836,39.432 L341.836,48.06 Z M343.516,40.716 L348.496,40.716 L348.496,41.304 L343.516,41.304 L343.516,40.716 Z M342.82,42.768 L349.18,42.768 L349.18,43.356 L347.188,43.356 L347.188,45.996 C347.188,46.308 347.332,46.476 347.62,46.476 L348.172,46.476 C348.364,46.476 348.496,46.44 348.592,46.38 C348.748,46.284 348.844,45.828 348.892,45.036 L349.444,45.216 C349.372,46.08 349.252,46.608 349.084,46.8 C348.928,46.944 348.664,47.028 348.304,47.028 L347.44,47.028 C347.164,47.028 346.948,46.944 346.804,46.788 C346.648,46.608 346.576,46.392 346.576,46.128 L346.576,43.356 L345.268,43.356 C345.16,44.364 344.92,45.144 344.56,45.708 C344.152,46.308 343.528,46.788 342.688,47.148 L342.388,46.62 C343.144,46.308 343.696,45.888 344.056,45.348 C344.368,44.868 344.572,44.196 344.668,43.356 L342.82,43.356 L342.82,42.768 Z" id="地质公园" fill="#FFFFFF" opacity="0.600000024"></path>
                <path d="M320.924,217.992 C321.68,218.916 322.364,219.792 322.988,220.632 C323.528,219.684 323.948,218.652 324.248,217.536 L324.896,217.656 C324.524,218.976 324.032,220.164 323.42,221.22 C324.176,222.276 324.812,223.26 325.34,224.16 L324.764,224.568 C324.26,223.68 323.684,222.78 323.036,221.844 C322.28,222.972 321.368,223.944 320.288,224.76 L319.844,224.22 C320.948,223.38 321.872,222.384 322.616,221.244 C321.944,220.308 321.2,219.336 320.384,218.328 L320.924,217.992 Z M319.004,215.748 L326.6,215.748 L326.6,220.488 C326.6,222.552 326.672,223.872 326.84,224.46 C326.984,225.024 327.176,225.312 327.404,225.312 C327.596,225.3 327.764,224.7 327.896,223.5 L328.472,223.776 C328.352,224.664 328.196,225.276 328.016,225.636 C327.848,225.912 327.668,226.056 327.464,226.056 C326.936,226.056 326.552,225.672 326.312,224.928 C326.06,224.196 325.94,222.72 325.94,220.488 L325.94,216.384 L319.652,216.384 L319.652,220.332 C319.628,222.648 319.136,224.592 318.188,226.152 L317.648,225.72 C318.512,224.292 318.956,222.492 319.004,220.332 L319.004,215.748 Z M330.092,216.84 L332.96,216.84 C333.2,216.3 333.44,215.748 333.656,215.172 L334.304,215.316 C334.1,215.844 333.884,216.36 333.656,216.84 L339.896,216.84 L339.896,217.488 L333.332,217.488 C332.756,218.592 332.108,219.564 331.4,220.404 L334.82,220.404 L334.82,218.52 L335.48,218.52 L335.48,220.404 L339.248,220.404 L339.248,221.004 L335.48,221.004 L335.48,222.948 L340.112,222.948 L340.112,223.596 L335.48,223.596 L335.48,226.248 L334.82,226.248 L334.82,223.596 L329.9,223.596 L329.9,222.948 L334.82,222.948 L334.82,221.004 L330.716,221.004 L330.572,220.404 C331.34,219.612 332.024,218.64 332.636,217.488 L330.092,217.488 L330.092,216.84 Z M346.652,217.656 L348.944,217.656 L348.944,215.232 L349.592,215.232 L349.592,217.656 L352.184,217.656 L352.184,218.292 L349.868,218.292 C350.468,220.332 351.344,222.024 352.484,223.356 L352.064,223.932 C351.068,222.612 350.24,220.86 349.592,218.7 L349.592,226.128 L348.944,226.128 L348.944,218.676 C348.248,220.908 347.36,222.684 346.256,224.004 L345.884,223.392 C347.06,222.132 347.984,220.428 348.656,218.292 L346.652,218.292 L346.652,217.656 Z M341.828,217.656 L343.772,217.656 L343.772,215.232 L344.42,215.232 L344.42,217.656 L346.148,217.656 L346.148,218.292 L344.42,218.292 L344.42,219.072 C345.092,219.696 345.764,220.404 346.436,221.22 L346.052,221.772 C345.416,220.884 344.876,220.188 344.42,219.684 L344.42,226.128 L343.772,226.128 L343.772,219.54 C343.316,220.908 342.668,222.144 341.84,223.224 L341.552,222.528 C342.584,221.28 343.316,219.876 343.748,218.292 L341.828,218.292 L341.828,217.656 Z" id="风车林" fill="#FFFFFF" opacity="0.600000024"></path>
                <path d="M111.092,175.484 L113.012,175.484 C113.36,175.028 113.696,174.5 114.02,173.9 L112.184,173.9 C111.728,174.656 111.2,175.304 110.576,175.844 L110.432,175.196 C111.296,174.404 111.932,173.384 112.364,172.112 L112.94,172.304 C112.796,172.664 112.652,173.012 112.496,173.324 L114.692,173.324 L114.692,173.804 C114.356,174.476 114.008,175.028 113.672,175.484 L115.028,175.484 L115.028,180.524 L111.092,180.524 L111.092,175.484 Z M114.452,179.972 L114.452,178.244 L113.336,178.244 L113.336,179.972 L114.452,179.972 Z M112.808,179.972 L112.808,178.244 L111.692,178.244 L111.692,179.972 L112.808,179.972 Z M111.692,177.728 L112.808,177.728 L112.808,176.036 L111.692,176.036 L111.692,177.728 Z M113.336,176.036 L113.336,177.728 L114.452,177.728 L114.452,176.036 L113.336,176.036 Z M115.388,181.316 L115.388,181.928 C113.984,182.276 112.388,182.552 110.612,182.768 L110.516,182.144 C112.376,181.928 113.996,181.652 115.388,181.316 Z M118.172,175.04 L115.76,175.04 L115.76,174.416 L118.952,174.416 C119.336,173.732 119.672,173 119.96,172.208 L120.572,172.424 C120.272,173.18 119.936,173.84 119.576,174.416 L121.208,174.416 L121.208,175.04 L118.82,175.04 L118.82,176.996 L120.836,176.996 L120.836,177.62 L118.82,177.62 L118.82,179.636 L121.436,179.636 L121.436,180.248 L118.82,180.248 L118.82,183.284 L118.172,183.284 L118.172,180.248 L115.568,180.248 L115.568,179.636 L118.172,179.636 L118.172,177.62 L116.132,177.62 L116.132,176.996 L118.172,176.996 L118.172,175.04 Z M116.84,172.268 C117.224,172.844 117.584,173.468 117.92,174.14 L117.392,174.392 C117.056,173.696 116.684,173.084 116.3,172.532 L116.84,172.268 Z M119.672,196.984 L117.524,196.984 C116.84,196.984 116.504,196.612 116.504,195.88 L116.504,193.768 C115.928,194.056 115.328,194.332 114.704,194.596 L114.332,194.056 C115.112,193.744 115.832,193.408 116.504,193.06 L116.504,189.496 L117.14,189.496 L117.14,192.712 C118.52,191.92 119.66,191.032 120.56,190.06 L121.016,190.54 C119.924,191.644 118.628,192.604 117.14,193.432 L117.14,195.736 C117.14,196.168 117.332,196.396 117.716,196.396 L119.54,196.396 C119.9,196.396 120.14,196.312 120.284,196.144 C120.476,195.916 120.596,195.268 120.668,194.212 L121.28,194.416 C121.184,195.616 121.016,196.36 120.752,196.648 C120.524,196.864 120.164,196.984 119.672,196.984 Z M112.7,192.316 C112.148,192.976 111.524,193.588 110.816,194.14 L110.624,193.504 C112.064,192.304 113.108,190.936 113.744,189.412 L114.332,189.688 C114.056,190.312 113.732,190.9 113.348,191.452 L113.348,197.212 L112.7,197.212 L112.7,192.316 Z M110.864,187.384 L113.528,187.384 L113.528,186.196 L114.164,186.196 L114.164,187.384 L117.848,187.384 L117.848,186.196 L118.484,186.196 L118.484,187.384 L121.148,187.384 L121.148,188.008 L118.484,188.008 L118.484,189.16 L117.848,189.16 L117.848,188.008 L114.164,188.008 L114.164,189.16 L113.528,189.16 L113.528,188.008 L110.864,188.008 L110.864,187.384 Z M112.292,203.232 L119.72,203.232 L119.72,207.432 L116.312,207.432 L116.312,208.668 L121.268,208.668 L121.268,209.28 L116.312,209.28 L116.312,211.2 L115.664,211.2 L115.664,209.28 L110.72,209.28 L110.72,208.668 L115.664,208.668 L115.664,207.432 L112.292,207.432 L112.292,203.232 Z M119.108,206.856 L119.108,205.56 L112.904,205.56 L112.904,206.856 L119.108,206.856 Z M112.904,205.008 L119.108,205.008 L119.108,203.796 L112.904,203.796 L112.904,205.008 Z M110.828,201.228 L113.648,201.228 L113.648,200.244 L114.296,200.244 L114.296,201.228 L117.704,201.228 L117.704,200.244 L118.352,200.244 L118.352,201.228 L121.172,201.228 L121.172,201.828 L118.352,201.828 L118.352,202.86 L117.704,202.86 L117.704,201.828 L114.296,201.828 L114.296,202.86 L113.648,202.86 L113.648,201.828 L110.828,201.828 L110.828,201.228 Z M113.672,216.704 L116.228,216.704 C116.372,216.296 116.48,215.864 116.54,215.42 L112.172,215.42 L112.172,219.5 C112.136,221.84 111.752,223.724 111.032,225.152 L110.54,224.708 C111.164,223.46 111.488,221.72 111.524,219.5 L111.524,214.784 L121.172,214.784 L121.172,215.42 L117.188,215.42 C117.116,215.876 117.008,216.296 116.864,216.704 L120.26,216.704 L120.26,221.156 L117.404,221.156 L117.404,224.312 C117.404,224.852 117.116,225.128 116.564,225.128 L115.352,225.128 L115.208,224.504 C115.604,224.528 115.976,224.552 116.336,224.552 C116.6,224.552 116.744,224.42 116.744,224.156 L116.744,221.156 L113.672,221.156 L113.672,216.704 Z M119.624,220.556 L119.624,219.2 L114.308,219.2 L114.308,220.556 L119.624,220.556 Z M114.308,218.636 L119.624,218.636 L119.624,217.292 L114.308,217.292 L114.308,218.636 Z M114.596,221.84 L115.172,222.128 C114.62,223.136 113.972,224.024 113.216,224.768 L112.688,224.384 C113.432,223.664 114.068,222.824 114.596,221.84 Z M119.24,221.84 C120.092,222.824 120.752,223.688 121.208,224.432 L120.668,224.816 C120.2,224.024 119.552,223.136 118.712,222.176 L119.24,221.84 Z" id="鲜花草原" fill="#FFFFFF" opacity="0.600000024"></path>
                <g id="01-copy-7" transform="translate(75.000000, 200.000000)">
                    <path d="M125.5,20 C126.137293,16.2461801 126.779268,13.7770443 127.425926,12.5925926 C129.323439,9.11701178 132,10 132,6.37362637 C132,2.85356973 129.089851,0 125.5,0 C121.910149,0 119,2.85356973 119,6.37362637 C119,10 122.063973,8.88888889 123.59596,12.5925926 C124.165304,13.9690292 124.799984,16.438165 125.5,20 Z" id="Oval-9-Copy-2" fill="url(#linearGradient-2)"></path>
                    <path d="M80.56,9.86 L78.52,9.86 L78.52,9.4 C78.52,8.933331 78.4100011,8.5300017 78.19,8.19 C77.9699989,7.8499983 77.6000026,7.68 77.08,7.68 C76.7999986,7.68 76.5733342,7.7333328 76.4,7.84 C76.2266658,7.9466672 76.0866672,8.0799992 75.98,8.24 C75.8733328,8.4133342 75.8000002,8.6099989 75.76,8.83 C75.7199998,9.0500011 75.7,9.2799988 75.7,9.52 C75.7,9.8000014 75.7099999,10.0333324 75.73,10.22 C75.7500001,10.4066676 75.7999996,10.5733326 75.88,10.72 C75.9600004,10.8666674 76.0766659,10.9933328 76.23,11.1 C76.3833341,11.2066672 76.593332,11.3133328 76.86,11.42 L78.42,12.04 C78.8733356,12.2133342 79.2399986,12.4166655 79.52,12.65 C79.8000014,12.8833345 80.0199992,13.1533318 80.18,13.46 C80.3266674,13.7800016 80.4266664,14.1433313 80.48,14.55 C80.5333336,14.9566687 80.56,15.4199974 80.56,15.94 C80.56,16.540003 80.5000006,17.0966641 80.38,17.61 C80.2599994,18.1233359 80.066668,18.5599982 79.8,18.92 C79.5199986,19.2933352 79.1533356,19.5866656 78.7,19.8 C78.2466644,20.0133344 77.6933366,20.12 77.04,20.12 C76.5466642,20.12 76.0866688,20.0333342 75.66,19.86 C75.2333312,19.6866658 74.8666682,19.4466682 74.56,19.14 C74.2533318,18.8333318 74.0100009,18.4766687 73.83,18.07 C73.6499991,17.6633313 73.56,17.2200024 73.56,16.74 L73.56,15.98 L75.6,15.98 L75.6,16.62 C75.6,16.9933352 75.7099989,17.3299985 75.93,17.63 C76.1500011,17.9300015 76.5199974,18.08 77.04,18.08 C77.3866684,18.08 77.6566657,18.0300005 77.85,17.93 C78.0433343,17.8299995 78.1933328,17.6866676 78.3,17.5 C78.4066672,17.3133324 78.4699999,17.0900013 78.49,16.83 C78.5100001,16.5699987 78.52,16.2800016 78.52,15.96 C78.52,15.5866648 78.5066668,15.2800012 78.48,15.04 C78.4533332,14.7999988 78.4000004,14.6066674 78.32,14.46 C78.2266662,14.3133326 78.1033341,14.1933338 77.95,14.1 C77.7966659,14.0066662 77.5933346,13.9066672 77.34,13.8 L75.88,13.2 C74.9999956,12.8399982 74.4100015,12.3633363 74.11,11.77 C73.8099985,11.1766637 73.66,10.4333378 73.66,9.54 C73.66,9.006664 73.7333326,8.5000024 73.88,8.02 C74.0266674,7.5399976 74.2466652,7.1266684 74.54,6.78 C74.8200014,6.4333316 75.1766645,6.1566677 75.61,5.95 C76.0433355,5.7433323 76.559997,5.64 77.16,5.64 C77.6666692,5.64 78.1299979,5.7333324 78.55,5.92 C78.9700021,6.1066676 79.3333318,6.3533318 79.64,6.66 C80.2533364,7.3000032 80.56,8.0333292 80.56,8.86 L80.56,9.86 Z M82.08,20 L82.08,5.76 L85.14,5.76 C85.7000028,5.76 86.1933312,5.8333326 86.62,5.98 C87.0466688,6.1266674 87.4333316,6.3866648 87.78,6.76 C88.1266684,7.1333352 88.366666,7.5699975 88.5,8.07 C88.633334,8.5700025 88.7,9.2466624 88.7,10.1 C88.7,10.7400032 88.6633337,11.2799978 88.59,11.72 C88.5166663,12.1600022 88.3600012,12.5733314 88.12,12.96 C87.8399986,13.426669 87.466669,13.7899987 87,14.05 C86.533331,14.3100013 85.9200038,14.44 85.16,14.44 L84.12,14.44 L84.12,20 L82.08,20 Z M84.12,7.68 L84.12,12.52 L85.1,12.52 C85.5133354,12.52 85.8333322,12.4600006 86.06,12.34 C86.2866678,12.2199994 86.4533328,12.0533344 86.56,11.84 C86.6666672,11.639999 86.7299999,11.3933348 86.75,11.1 C86.7700001,10.8066652 86.78,10.4800018 86.78,10.12 C86.78,9.786665 86.7733334,9.4700015 86.76,9.17 C86.7466666,8.8699985 86.6866672,8.6066678 86.58,8.38 C86.4733328,8.1533322 86.3133344,7.9800006 86.1,7.86 C85.8866656,7.7399994 85.580002,7.68 85.18,7.68 L84.12,7.68 Z M92.36,20 L92.36,7.92 L90.32,9.42 L90.32,7.26 L92.36,5.76 L94.4,5.76 L94.4,20 L92.36,20 Z" id="SP1" fill="#FFFFFF"></path>
                    <path d="M70.392,42 L70.392,40.304 L67.144,40.304 L67.144,38.768 L69.496,30.608 L71.224,30.608 L68.776,38.768 L70.392,38.768 L70.392,35.52 L72.024,35.52 L72.024,38.768 L72.808,38.768 L72.808,40.304 L72.024,40.304 L72.024,42 L70.392,42 Z M73.624,42 L73.624,40.368 L75.256,40.368 L75.256,42 L73.624,42 Z M80.744,30.608 L78.888,35.392 L78.92,35.424 C78.9733336,35.3813331 79.0559994,35.3466668 79.168,35.32 C79.2800006,35.2933332 79.4266658,35.28 79.608,35.28 C79.8960014,35.28 80.1626654,35.3493326 80.408,35.488 C80.6533346,35.6266674 80.8453326,35.8026656 80.984,36.016 C81.058667,36.1333339 81.1173331,36.2506661 81.16,36.368 C81.2026669,36.4853339 81.2399998,36.639999 81.272,36.832 C81.2933334,37.024001 81.3093333,37.2666652 81.32,37.56 C81.3306667,37.8533348 81.336,38.2239978 81.336,38.672 C81.336,39.0453352 81.3306667,39.3519988 81.32,39.592 C81.3093333,39.8320012 81.2933334,40.0319992 81.272,40.192 C81.2399998,40.3626675 81.2000002,40.5066661 81.152,40.624 C81.1039998,40.7413339 81.042667,40.8639994 80.968,40.992 C80.7546656,41.3440018 80.4693351,41.615999 80.112,41.808 C79.7546649,42.000001 79.3520022,42.096 78.904,42.096 C78.4559978,42.096 78.0560018,41.9973343 77.704,41.8 C77.3519982,41.6026657 77.0693344,41.333335 76.856,40.992 C76.7706662,40.8639994 76.7040002,40.7413339 76.656,40.624 C76.6079998,40.5066661 76.5733334,40.3626675 76.552,40.192 C76.5199998,40.0319992 76.4986667,39.8320012 76.488,39.592 C76.4773333,39.3519988 76.472,39.0453352 76.472,38.672 C76.472,38.3199982 76.4773333,38.0293345 76.488,37.8 C76.4986667,37.5706655 76.5146666,37.3706675 76.536,37.2 C76.5573334,37.0399992 76.5893331,36.893334 76.632,36.76 C76.6746669,36.626666 76.7226664,36.4853341 76.776,36.336 L78.92,30.608 L80.744,30.608 Z M79.704,37.536 C79.704,37.2906654 79.6240008,37.0933341 79.464,36.944 C79.3039992,36.7946659 79.1173344,36.72 78.904,36.72 C78.6906656,36.72 78.5040008,36.7946659 78.344,36.944 C78.1839992,37.0933341 78.104,37.2906654 78.104,37.536 L78.104,39.648 C78.104,39.8933346 78.1839992,40.0906659 78.344,40.24 C78.5040008,40.3893341 78.6906656,40.464 78.904,40.464 C79.1173344,40.464 79.3039992,40.3893341 79.464,40.24 C79.6240008,40.0906659 79.704,39.8933346 79.704,39.648 L79.704,37.536 Z M82.648,42 L82.648,30.608 L84.28,30.608 L84.28,35.808 L84.312,35.808 L86.696,30.608 L88.328,30.608 L86.104,35.168 L88.744,42 L87.016,42 L85.16,36.944 L84.28,38.592 L84.28,42 L82.648,42 Z M89.464,42 L89.464,30.608 L91.032,30.608 L93.128,36.64 L93.16,36.64 L95.24,30.608 L96.824,30.608 L96.824,42 L95.192,42 L95.192,35.072 L95.16,35.072 L93.544,39.968 L92.728,39.968 L91.128,35.072 L91.096,35.072 L91.096,42 L89.464,42 Z" id="4.6KM" fill="#FFFFFF"></path>
                    <path d="M2.847,34.162 C2.405,35.02 1.911,35.787 1.391,36.45 L0.546,35.436 C1.482,34.318 2.275,32.771 2.951,30.769 L4.121,31.042 C3.887,31.731 3.653,32.368 3.406,32.966 L6.188,32.966 L6.188,30.314 L7.423,30.314 L7.423,32.966 L11.661,32.966 L11.661,34.162 L7.423,34.162 L7.423,37.139 L12.402,37.139 L12.402,38.348 L7.423,38.348 L7.423,42.274 L6.188,42.274 L6.188,38.348 L0.728,38.348 L0.728,37.139 L6.188,37.139 L6.188,34.162 L2.847,34.162 Z M15.496,30.925 L23.569,30.925 L23.569,39.102 L15.496,39.102 L15.496,30.925 Z M22.334,37.919 L22.334,35.462 L16.744,35.462 L16.744,37.919 L22.334,37.919 Z M16.744,34.383 L22.334,34.383 L22.334,32.108 L16.744,32.108 L16.744,34.383 Z M13.715,40.714 L25.298,40.714 L25.298,41.923 L13.715,41.923 L13.715,40.714 Z M27.651,30.366 C28.587,31.042 29.367,31.705 30.004,32.368 L29.133,33.239 C28.574,32.615 27.794,31.939 26.793,31.211 L27.651,30.366 Z M27.43,33.551 C28.288,34.188 29.016,34.838 29.601,35.488 L28.743,36.346 C28.223,35.748 27.495,35.098 26.559,34.396 L27.43,33.551 Z M28.704,36.983 L29.783,37.399 C29.224,39.089 28.6,40.675 27.924,42.17 L26.702,41.624 C27.469,40.116 28.132,38.569 28.704,36.983 Z M38.051,32.121 C38.051,36.801 37.986,39.7 37.856,40.792 C37.713,41.806 37.089,42.313 35.984,42.313 C35.62,42.313 35.022,42.287 34.177,42.248 L33.878,41.104 C34.606,41.143 35.23,41.169 35.776,41.169 C36.296,41.169 36.582,40.857 36.66,40.233 C36.738,39.557 36.79,37.243 36.816,33.317 L32.123,33.317 C31.629,34.253 31.031,35.085 30.316,35.826 L29.536,34.799 C30.732,33.551 31.538,32.03 31.967,30.223 L33.189,30.379 C33.046,30.977 32.864,31.562 32.656,32.121 L38.051,32.121 Z M34.619,36.216 C35.178,37.191 35.711,38.257 36.231,39.401 L35.152,39.947 C35.022,39.622 34.905,39.31 34.788,39.024 C33.527,39.284 32.136,39.492 30.602,39.635 L30.394,38.53 C30.992,38.309 31.824,36.879 32.89,34.253 L34.034,34.643 C33.332,36.164 32.63,37.438 31.902,38.465 C32.76,38.374 33.579,38.231 34.359,38.049 C34.125,37.555 33.891,37.087 33.657,36.671 L34.619,36.216 Z M44.785,33.447 C44.213,32.394 43.511,31.575 42.692,30.99 L43.719,30.34 C44.811,31.107 45.773,32.563 46.618,34.721 C47.853,37.763 49.452,39.908 51.428,41.182 L50.661,42.157 C48.62,40.935 46.917,38.595 45.539,35.124 C45.5,35.033 45.474,34.955 45.448,34.877 C44.564,38.023 42.809,40.454 40.183,42.17 L39.442,41.117 C42.146,39.336 43.927,36.775 44.785,33.447 Z M63.362,31.796 L63.362,42.131 L62.101,42.131 L62.101,41.39 L54.899,41.39 L54.899,42.131 L53.651,42.131 L53.651,31.796 L63.362,31.796 Z M54.899,40.181 L62.101,40.181 L62.101,33.005 L54.899,33.005 L54.899,40.181 Z" id="牛旦沟入口" fill="#FFFFFF"></path>
                </g>
                <g id="01-copy-5" transform="translate(397.000000, 195.000000)">
                    <path d="M6.5,36 C7.13729258,32.2461801 7.77926788,29.7770443 8.42592593,28.5925926 C10.3234387,25.1170118 13,26 13,22.3736264 C13,18.8535697 10.0898509,16 6.5,16 C2.91014913,16 1.40101848e-16,18.8535697 0,22.3736264 C0,26 3.06397306,24.8888889 4.5959596,28.5925926 C5.16530383,29.9690292 5.79998397,32.438165 6.5,36 Z" id="Oval-9-Copy-2" fill="url(#linearGradient-3)"></path>
                    <path d="M36.44,9.94 L36.44,10.82 C36.44,11.2600022 36.3566675,11.6766647 36.19,12.07 C36.0233325,12.4633353 35.7933348,12.8133318 35.5,13.12 C35.2066652,13.4266682 34.8633353,13.6699991 34.47,13.85 C34.0766647,14.0300009 33.6533356,14.12 33.2,14.12 C32.8133314,14.12 32.420002,14.0666672 32.02,13.96 C31.619998,13.8533328 31.2600016,13.666668 30.94,13.4 C30.6199984,13.133332 30.3566677,12.7900021 30.15,12.37 C29.9433323,11.9499979 29.84,11.4133366 29.84,10.76 L29.84,2.92 C29.84,2.453331 29.9199992,2.020002 30.08,1.62 C30.2400008,1.219998 30.4666652,0.8733348 30.76,0.58 C31.0533348,0.2866652 31.4033313,0.0566675 31.81,-0.11 C32.2166687,-0.2766675 32.6666642,-0.36 33.16,-0.36 C34.1200048,-0.36 34.899997,-0.0466698 35.5,0.58 C35.7933348,0.8866682 36.0233325,1.2499979 36.19,1.67 C36.3566675,2.0900021 36.44,2.5466642 36.44,3.04 L36.44,3.84 L34.4,3.84 L34.4,3.16 C34.4,2.759998 34.2866678,2.4133348 34.06,2.12 C33.8333322,1.8266652 33.5266686,1.68 33.14,1.68 C32.6333308,1.68 32.2966675,1.8366651 32.13,2.15 C31.9633325,2.4633349 31.88,2.8599976 31.88,3.34 L31.88,10.62 C31.88,11.0333354 31.9699991,11.3799986 32.15,11.66 C32.3300009,11.9400014 32.653331,12.08 33.12,12.08 C33.253334,12.08 33.3966659,12.0566669 33.55,12.01 C33.7033341,11.9633331 33.846666,11.8866672 33.98,11.78 C34.1000006,11.6733328 34.1999996,11.5266676 34.28,11.34 C34.3600004,11.1533324 34.4,10.9200014 34.4,10.64 L34.4,9.94 L36.44,9.94 Z M38.1,14 L38.1,-0.24 L41.16,-0.24 C41.7200028,-0.24 42.2133312,-0.1666674 42.64,-0.02 C43.0666688,0.1266674 43.4533316,0.3866648 43.8,0.76 C44.1466684,1.1333352 44.386666,1.5699975 44.52,2.07 C44.653334,2.5700025 44.72,3.2466624 44.72,4.1 C44.72,4.7400032 44.6833337,5.2799978 44.61,5.72 C44.5366663,6.1600022 44.3800012,6.5733314 44.14,6.96 C43.8599986,7.426669 43.486669,7.7899987 43.02,8.05 C42.553331,8.3100013 41.9400038,8.44 41.18,8.44 L40.14,8.44 L40.14,14 L38.1,14 Z M40.14,1.68 L40.14,6.52 L41.12,6.52 C41.5333354,6.52 41.8533322,6.4600006 42.08,6.34 C42.3066678,6.2199994 42.4733328,6.0533344 42.58,5.84 C42.6866672,5.639999 42.7499999,5.3933348 42.77,5.1 C42.7900001,4.8066652 42.8,4.4800018 42.8,4.12 C42.8,3.786665 42.7933334,3.4700015 42.78,3.17 C42.7666666,2.8699985 42.7066672,2.6066678 42.6,2.38 C42.4933328,2.1533322 42.3333344,1.9800006 42.12,1.86 C41.9066656,1.7399994 41.600002,1.68 41.2,1.68 L40.14,1.68 Z M48.38,14 L48.38,1.92 L46.34,3.42 L46.34,1.26 L48.38,-0.24 L50.42,-0.24 L50.42,14 L48.38,14 Z" id="CP1" fill="#FFFFFF"></path>
                    <path d="M70.544,36 L70.544,34.464 L73.488,28.912 C73.6373341,28.6346653 73.7226666,28.392001 73.744,28.184 C73.7653334,27.975999 73.776,27.7173349 73.776,27.408 C73.776,27.2693326 73.7733334,27.1226674 73.768,26.968 C73.7626666,26.8133326 73.7333336,26.6773339 73.68,26.56 C73.6266664,26.4426661 73.5466672,26.3440004 73.44,26.264 C73.3333328,26.1839996 73.1786677,26.144 72.976,26.144 C72.7306654,26.144 72.5360007,26.2133326 72.392,26.352 C72.2479993,26.4906674 72.176,26.693332 72.176,26.96 L72.176,27.888 L70.544,27.888 L70.544,26.992 C70.544,26.650665 70.6079994,26.3306682 70.736,26.032 C70.8640006,25.7333318 71.0399989,25.4720011 71.264,25.248 C71.4773344,25.0239989 71.7333318,24.845334 72.032,24.712 C72.3306682,24.578666 72.650665,24.512 72.992,24.512 C73.4186688,24.512 73.7839985,24.5893326 74.088,24.744 C74.3920015,24.8986674 74.6453323,25.109332 74.848,25.376 C75.040001,25.642668 75.1813329,25.946665 75.272,26.288 C75.3626671,26.629335 75.408,26.9919981 75.408,27.376 C75.408,27.6533347 75.4026667,27.8853324 75.392,28.072 C75.3813333,28.2586676 75.3600002,28.4373325 75.328,28.608 C75.2959998,28.7786675 75.242667,28.9493325 75.168,29.12 C75.093333,29.2906675 74.9920006,29.4986654 74.864,29.744 L72.464,34.368 L75.408,34.368 L75.408,36 L70.544,36 Z M76.624,36 L76.624,34.368 L78.256,34.368 L78.256,36 L76.624,36 Z M81.408,29.408 C81.8986691,29.408 82.2373324,29.3493339 82.424,29.232 C82.6106676,29.1146661 82.704,28.8426688 82.704,28.416 L82.704,26.944 C82.704,26.7093322 82.6320007,26.5173341 82.488,26.368 C82.3439993,26.2186659 82.1493346,26.144 81.904,26.144 C81.6159986,26.144 81.4106673,26.2346658 81.288,26.416 C81.1653327,26.5973342 81.104,26.7733325 81.104,26.944 L81.104,27.872 L79.472,27.872 L79.472,26.928 C79.472,26.5973317 79.5359994,26.2826682 79.664,25.984 C79.7920006,25.6853318 79.9679989,25.4293344 80.192,25.216 C80.4160011,25.0026656 80.6773318,24.8320006 80.976,24.704 C81.2746682,24.5759994 81.594665,24.512 81.936,24.512 C82.3840022,24.512 82.7546652,24.5999991 83.048,24.776 C83.3413348,24.9520009 83.5626659,25.1306658 83.712,25.312 C83.8186672,25.4400006 83.9119996,25.5679994 83.992,25.696 C84.0720004,25.8240006 84.1386664,25.9786658 84.192,26.16 C84.2880005,26.5120018 84.336,27.0346632 84.336,27.728 C84.336,28.1226686 84.3280001,28.4426654 84.312,28.688 C84.2959999,28.9333346 84.2560003,29.1359992 84.192,29.296 C84.117333,29.4666675 84.013334,29.6106661 83.88,29.728 C83.746666,29.8453339 83.5626678,29.9733326 83.328,30.112 C83.5840013,30.2720008 83.778666,30.4213326 83.912,30.56 C84.045334,30.6986674 84.1439997,30.8586658 84.208,31.04 C84.2720003,31.232001 84.3093333,31.4586654 84.32,31.72 C84.3306667,31.9813346 84.336,32.3146646 84.336,32.72 C84.336,33.0933352 84.3280001,33.4026654 84.312,33.648 C84.2959999,33.8933346 84.2720002,34.0959992 84.24,34.256 C84.2079998,34.4266675 84.1653336,34.5706661 84.112,34.688 C84.0586664,34.8053339 83.9893338,34.9279994 83.904,35.056 C83.7013323,35.3546682 83.4426682,35.6026657 83.128,35.8 C82.8133318,35.9973343 82.4000026,36.096 81.888,36.096 C81.6319987,36.096 81.3600014,36.0533338 81.072,35.968 C80.7839986,35.8826662 80.5226678,35.744001 80.288,35.552 C80.0533322,35.359999 79.8586674,35.1093349 79.704,34.8 C79.5493326,34.4906651 79.472,34.1120022 79.472,33.664 L79.472,32.736 L81.104,32.736 L81.104,33.584 C81.104,33.8400013 81.1759993,34.0506658 81.32,34.216 C81.4640007,34.3813342 81.6586654,34.464 81.904,34.464 C82.1493346,34.464 82.3439993,34.3813342 82.488,34.216 C82.6320007,34.0506658 82.704,33.8293347 82.704,33.552 L82.704,31.92 C82.704,31.4719978 82.6186675,31.1786674 82.448,31.04 C82.3519995,30.9546662 82.2213342,30.9013334 82.056,30.88 C81.8906658,30.8586666 81.674668,30.848 81.408,30.848 L81.408,29.408 Z M85.648,36 L85.648,24.608 L87.28,24.608 L87.28,29.808 L87.312,29.808 L89.696,24.608 L91.328,24.608 L89.104,29.168 L91.744,36 L90.016,36 L88.16,30.944 L87.28,32.592 L87.28,36 L85.648,36 Z M92.464,36 L92.464,24.608 L94.032,24.608 L96.128,30.64 L96.16,30.64 L98.24,24.608 L99.824,24.608 L99.824,36 L98.192,36 L98.192,29.072 L98.16,29.072 L96.544,33.968 L95.728,33.968 L94.128,29.072 L94.096,29.072 L94.096,36 L92.464,36 Z" id="2.3KM" fill="#FFFFFF"></path>
                    <path d="M33.537,27.265 C34.226,28.123 34.863,28.942 35.448,29.722 C35.916,28.838 36.28,27.889 36.566,26.875 L37.788,27.083 C37.398,28.487 36.891,29.735 36.267,30.84 C37.021,31.932 37.671,32.933 38.204,33.843 L37.086,34.61 C36.618,33.778 36.098,32.92 35.5,32.036 C34.72,33.115 33.81,34.051 32.77,34.831 L31.938,33.778 C33.043,32.946 33.979,31.984 34.733,30.892 C34.057,29.93 33.329,28.929 32.523,27.889 L33.537,27.265 Z M30.937,24.782 L39.582,24.782 L39.582,30.099 C39.582,32.088 39.634,33.362 39.764,33.921 C39.868,34.467 39.998,34.753 40.154,34.753 C40.271,34.753 40.375,34.233 40.453,33.206 L41.558,33.739 C41.389,34.727 41.207,35.403 41.012,35.741 C40.791,36.053 40.544,36.222 40.284,36.222 C39.608,36.222 39.114,35.806 38.802,34.987 C38.477,34.181 38.321,32.556 38.321,30.099 L38.321,25.978 L32.172,25.978 L32.172,29.93 C32.146,32.478 31.613,34.623 30.586,36.352 L29.546,35.507 C30.43,34.025 30.898,32.166 30.937,29.93 L30.937,24.782 Z M43.079,25.913 L46.082,25.913 C46.316,25.38 46.55,24.821 46.771,24.249 L48.006,24.522 C47.811,25.016 47.616,25.471 47.421,25.913 L53.908,25.913 L53.908,27.109 L46.836,27.109 C46.316,28.097 45.744,28.968 45.133,29.748 L48.032,29.748 L48.032,28.006 L49.293,28.006 L49.293,29.748 L53.206,29.748 L53.206,30.879 L49.293,30.879 L49.293,32.53 L54.103,32.53 L54.103,33.726 L49.293,33.726 L49.293,36.417 L48.032,36.417 L48.032,33.726 L42.91,33.726 L42.91,32.53 L48.032,32.53 L48.032,30.879 L43.846,30.879 L43.56,29.748 C44.249,29.046 44.886,28.175 45.471,27.109 L43.079,27.109 L43.079,25.913 Z M61.058,26.797 L63.32,26.797 L63.32,24.353 L64.555,24.353 L64.555,26.797 L67.194,26.797 L67.194,27.98 L64.685,27.98 C65.361,29.956 66.336,31.62 67.61,32.959 L66.791,34.077 C65.933,32.907 65.192,31.425 64.555,29.644 L64.555,36.287 L63.32,36.287 L63.32,29.683 C62.618,31.503 61.799,32.998 60.85,34.168 L60.135,32.998 C61.422,31.737 62.449,30.06 63.203,27.98 L61.058,27.98 L61.058,26.797 Z M55.832,26.797 L57.743,26.797 L57.743,24.353 L58.978,24.353 L58.978,26.797 L60.642,26.797 L60.642,27.98 L58.978,27.98 L58.978,28.578 C59.654,29.189 60.343,29.878 61.045,30.645 L60.317,31.724 C59.797,30.944 59.355,30.294 58.978,29.787 L58.978,36.287 L57.743,36.287 L57.743,29.956 C57.301,31.204 56.729,32.348 56.027,33.375 L55.494,32.01 C56.495,30.827 57.223,29.488 57.678,27.98 L55.832,27.98 L55.832,26.797 Z" id="风车林" fill="#FFFFFF"></path>
                </g>
                <g id="01-copy-3" transform="translate(370.000000, 45.000000)">
                    <path d="M6.35714286,26.2272727 C6.980429,22.4307958 7.60829496,19.9336016 8.24074074,18.7356902 C10.09655,15.2206142 12.7142857,16.1136364 12.7142857,12.4460539 C12.7142857,8.88599666 9.86809591,6 6.35714286,6 C2.8461898,6 1.37022687e-16,8.88599666 0,12.4460539 C0,16.1136364 2.996633,14.989899 4.49494949,18.7356902 C5.05178067,20.1277682 5.67251179,22.6249623 6.35714286,26.2272727 Z" id="Oval-9-Copy-2" fill="url(#linearGradient-3)"></path>
                    <path d="M43.44,35.94 L43.44,36.82 C43.44,37.2600022 43.3566675,37.6766647 43.19,38.07 C43.0233325,38.4633353 42.7933348,38.8133318 42.5,39.12 C42.2066652,39.4266682 41.8633353,39.6699991 41.47,39.85 C41.0766647,40.0300009 40.6533356,40.12 40.2,40.12 C39.8133314,40.12 39.420002,40.0666672 39.02,39.96 C38.619998,39.8533328 38.2600016,39.666668 37.94,39.4 C37.6199984,39.133332 37.3566677,38.7900021 37.15,38.37 C36.9433323,37.9499979 36.84,37.4133366 36.84,36.76 L36.84,28.92 C36.84,28.453331 36.9199992,28.020002 37.08,27.62 C37.2400008,27.219998 37.4666652,26.8733348 37.76,26.58 C38.0533348,26.2866652 38.4033313,26.0566675 38.81,25.89 C39.2166687,25.7233325 39.6666642,25.64 40.16,25.64 C41.1200048,25.64 41.899997,25.9533302 42.5,26.58 C42.7933348,26.8866682 43.0233325,27.2499979 43.19,27.67 C43.3566675,28.0900021 43.44,28.5466642 43.44,29.04 L43.44,29.84 L41.4,29.84 L41.4,29.16 C41.4,28.759998 41.2866678,28.4133348 41.06,28.12 C40.8333322,27.8266652 40.5266686,27.68 40.14,27.68 C39.6333308,27.68 39.2966675,27.8366651 39.13,28.15 C38.9633325,28.4633349 38.88,28.8599976 38.88,29.34 L38.88,36.62 C38.88,37.0333354 38.9699991,37.3799986 39.15,37.66 C39.3300009,37.9400014 39.653331,38.08 40.12,38.08 C40.253334,38.08 40.3966659,38.0566669 40.55,38.01 C40.7033341,37.9633331 40.846666,37.8866672 40.98,37.78 C41.1000006,37.6733328 41.1999996,37.5266676 41.28,37.34 C41.3600004,37.1533324 41.4,36.9200014 41.4,36.64 L41.4,35.94 L43.44,35.94 Z M45.1,40 L45.1,25.76 L48.16,25.76 C48.7200028,25.76 49.2133312,25.8333326 49.64,25.98 C50.0666688,26.1266674 50.4533316,26.3866648 50.8,26.76 C51.1466684,27.1333352 51.386666,27.5699975 51.52,28.07 C51.653334,28.5700025 51.72,29.2466624 51.72,30.1 C51.72,30.7400032 51.6833337,31.2799978 51.61,31.72 C51.5366663,32.1600022 51.3800012,32.5733314 51.14,32.96 C50.8599986,33.426669 50.486669,33.7899987 50.02,34.05 C49.553331,34.3100013 48.9400038,34.44 48.18,34.44 L47.14,34.44 L47.14,40 L45.1,40 Z M47.14,27.68 L47.14,32.52 L48.12,32.52 C48.5333354,32.52 48.8533322,32.4600006 49.08,32.34 C49.3066678,32.2199994 49.4733328,32.0533344 49.58,31.84 C49.6866672,31.639999 49.7499999,31.3933348 49.77,31.1 C49.7900001,30.8066652 49.8,30.4800018 49.8,30.12 C49.8,29.786665 49.7933334,29.4700015 49.78,29.17 C49.7666666,28.8699985 49.7066672,28.6066678 49.6,28.38 C49.4933328,28.1533322 49.3333344,27.9800006 49.12,27.86 C48.9066656,27.7399994 48.600002,27.68 48.2,27.68 L47.14,27.68 Z M55.38,31.76 C55.9933364,31.76 56.4166655,31.6866674 56.65,31.54 C56.8833345,31.3933326 57,31.053336 57,30.52 L57,28.68 C57,28.3866652 56.9100009,28.1466676 56.73,27.96 C56.5499991,27.7733324 56.3066682,27.68 56,27.68 C55.6399982,27.68 55.3833341,27.7933322 55.23,28.02 C55.0766659,28.2466678 55,28.4666656 55,28.68 L55,29.84 L52.96,29.84 L52.96,28.66 C52.96,28.2466646 53.0399992,27.8533352 53.2,27.48 C53.3600008,27.1066648 53.5799986,26.786668 53.86,26.52 C54.1400014,26.253332 54.4666648,26.0400008 54.84,25.88 C55.2133352,25.7199992 55.6133312,25.64 56.04,25.64 C56.6000028,25.64 57.0633315,25.7499989 57.43,25.97 C57.7966685,26.1900011 58.0733324,26.4133322 58.26,26.64 C58.393334,26.8000008 58.5099995,26.9599992 58.61,27.12 C58.7100005,27.2800008 58.793333,27.4733322 58.86,27.7 C58.9800006,28.1400022 59.04,28.793329 59.04,29.66 C59.04,30.1533358 59.0300001,30.5533318 59.01,30.86 C58.9899999,31.1666682 58.9400004,31.419999 58.86,31.62 C58.7666662,31.8333344 58.6366675,32.0133326 58.47,32.16 C58.3033325,32.3066674 58.0733348,32.4666658 57.78,32.64 C58.1000016,32.840001 58.3433325,33.0266658 58.51,33.2 C58.6766675,33.3733342 58.7999996,33.5733322 58.88,33.8 C58.9600004,34.0400012 59.0066666,34.3233317 59.02,34.65 C59.0333334,34.9766683 59.04,35.3933308 59.04,35.9 C59.04,36.366669 59.0300001,36.7533318 59.01,37.06 C58.9899999,37.3666682 58.9600002,37.619999 58.92,37.82 C58.8799998,38.0333344 58.826667,38.2133326 58.76,38.36 C58.693333,38.5066674 58.6066672,38.6599992 58.5,38.82 C58.2466654,39.1933352 57.9233353,39.5033321 57.53,39.75 C57.1366647,39.9966679 56.6200032,40.12 55.98,40.12 C55.6599984,40.12 55.3200018,40.0666672 54.96,39.96 C54.5999982,39.8533328 54.2733348,39.6800012 53.98,39.44 C53.6866652,39.1999988 53.4433343,38.8866686 53.25,38.5 C53.0566657,38.1133314 52.96,37.6400028 52.96,37.08 L52.96,35.92 L55,35.92 L55,36.98 C55,37.3000016 55.0899991,37.5633323 55.27,37.77 C55.4500009,37.9766677 55.6933318,38.08 56,38.08 C56.3066682,38.08 56.5499991,37.9766677 56.73,37.77 C56.9100009,37.5633323 57,37.2866684 57,36.94 L57,34.9 C57,34.3399972 56.8933344,33.9733342 56.68,33.8 C56.5599994,33.6933328 56.3966677,33.6266668 56.19,33.6 C55.9833323,33.5733332 55.713335,33.56 55.38,33.56 L55.38,31.76 Z" id="CP3" fill="#FFFFFF"></path>
                    <path d="M87.48,15 L87.48,5.336 L85.848,6.536 L85.848,4.808 L87.48,3.608 L89.112,3.608 L89.112,15 L87.48,15 Z M91.496,15 L91.496,13.464 L94.44,7.912 C94.5893341,7.63466528 94.6746666,7.39200104 94.696,7.184 C94.7173334,6.97599896 94.728,6.71733488 94.728,6.408 C94.728,6.26933264 94.7253334,6.12266744 94.72,5.968 C94.7146666,5.81333256 94.6853336,5.67733392 94.632,5.56 C94.5786664,5.44266608 94.4986672,5.3440004 94.392,5.264 C94.2853328,5.1839996 94.1306677,5.144 93.928,5.144 C93.6826654,5.144 93.4880007,5.21333264 93.344,5.352 C93.1999993,5.49066736 93.128,5.693332 93.128,5.96 L93.128,6.888 L91.496,6.888 L91.496,5.992 C91.496,5.65066496 91.5599994,5.33066816 91.688,5.032 C91.8160006,4.73333184 91.9919989,4.47200112 92.216,4.248 C92.4293344,4.02399888 92.6853318,3.845334 92.984,3.712 C93.2826682,3.578666 93.602665,3.512 93.944,3.512 C94.3706688,3.512 94.7359985,3.58933256 95.04,3.744 C95.3440015,3.89866744 95.5973323,4.109332 95.8,4.376 C95.992001,4.642668 96.1333329,4.94666496 96.224,5.288 C96.3146671,5.62933504 96.36,5.99199808 96.36,6.376 C96.36,6.65333472 96.3546667,6.8853324 96.344,7.072 C96.3333333,7.2586676 96.3120002,7.43733248 96.28,7.608 C96.2479998,7.77866752 96.194667,7.94933248 96.12,8.12 C96.045333,8.29066752 95.9440006,8.49866544 95.816,8.744 L93.416,13.368 L96.36,13.368 L96.36,15 L91.496,15 Z M97.576,15 L97.576,13.368 L99.208,13.368 L99.208,15 L97.576,15 Z M103.272,15 L103.272,13.304 L100.024,13.304 L100.024,11.768 L102.376,3.608 L104.104,3.608 L101.656,11.768 L103.272,11.768 L103.272,8.52 L104.904,8.52 L104.904,11.768 L105.688,11.768 L105.688,13.304 L104.904,13.304 L104.904,15 L103.272,15 Z M106.6,15 L106.6,3.608 L108.232,3.608 L108.232,8.808 L108.264,8.808 L110.648,3.608 L112.28,3.608 L110.056,8.168 L112.696,15 L110.968,15 L109.112,9.944 L108.232,11.592 L108.232,15 L106.6,15 Z M113.416,15 L113.416,3.608 L114.984,3.608 L117.08,9.64 L117.112,9.64 L119.192,3.608 L120.776,3.608 L120.776,15 L119.144,15 L119.144,8.072 L119.112,8.072 L117.496,12.968 L116.68,12.968 L115.08,8.072 L115.048,8.072 L115.048,15 L113.416,15 Z" id="12.4KM" fill="#FFFFFF"></path>
                    <path d="M32.443,4.38 L34.978,4.38 L34.978,3.366 L36.174,3.366 L36.174,4.38 L38.774,4.38 L38.774,3.353 L39.97,3.353 L39.97,4.38 L42.609,4.38 L42.609,5.472 L39.97,5.472 L39.97,6.382 L43.298,6.382 L43.298,7.487 L38.098,7.487 L38.098,8.254 L41.894,8.254 L41.894,13.012 L39.255,13.012 C40.737,13.363 42.089,13.792 43.311,14.312 L42.661,15.326 C41.322,14.702 39.957,14.221 38.566,13.857 L39.138,13.012 L35.706,13.012 L36.304,13.714 C35.186,14.364 33.821,14.91 32.209,15.339 L31.702,14.26 C33.145,13.935 34.354,13.519 35.342,13.012 L33.106,13.012 L33.106,8.254 L36.902,8.254 L36.902,7.487 L31.715,7.487 L31.715,6.382 L34.978,6.382 L34.978,5.472 L32.443,5.472 L32.443,4.38 Z M38.774,6.382 L38.774,5.472 L36.174,5.472 L36.174,6.382 L38.774,6.382 Z M40.711,11.972 L40.711,11.114 L38.098,11.114 L38.098,11.972 L40.711,11.972 Z M36.902,11.972 L36.902,11.114 L34.289,11.114 L34.289,11.972 L36.902,11.972 Z M34.289,10.113 L36.902,10.113 L36.902,9.281 L34.289,9.281 L34.289,10.113 Z M38.098,9.281 L38.098,10.113 L40.711,10.113 L40.711,9.281 L38.098,9.281 Z M54.53,15.144 L52.125,15.144 C51.215,15.144 50.773,14.676 50.773,13.74 L50.773,11.959 C50.292,12.18 49.798,12.388 49.304,12.596 L48.615,11.569 C49.395,11.257 50.11,10.945 50.773,10.62 L50.773,6.941 L52.008,6.941 L52.008,9.944 C53.308,9.164 54.387,8.306 55.232,7.37 L56.103,8.254 C54.933,9.424 53.568,10.451 52.008,11.322 L52.008,13.467 C52.008,13.844 52.151,14.039 52.463,14.039 L54.296,14.039 C54.595,14.039 54.816,13.935 54.946,13.753 C55.102,13.558 55.219,12.973 55.284,11.985 L56.454,12.349 C56.324,13.701 56.116,14.52 55.817,14.78 C55.531,15.014 55.102,15.144 54.53,15.144 Z M46.652,10.672 C46.132,11.218 45.573,11.751 44.949,12.245 L44.572,11.01 C46.028,9.788 47.094,8.371 47.783,6.759 L48.888,7.279 C48.615,7.916 48.29,8.527 47.9,9.112 L47.9,15.378 L46.652,15.378 L46.652,10.672 Z M44.858,4.419 L47.562,4.419 L47.562,3.314 L48.771,3.314 L48.771,4.419 L52.242,4.419 L52.242,3.314 L53.451,3.314 L53.451,4.419 L56.155,4.419 L56.155,5.589 L53.451,5.589 L53.451,6.603 L52.242,6.603 L52.242,5.589 L48.771,5.589 L48.771,6.603 L47.562,6.603 L47.562,5.589 L44.858,5.589 L44.858,4.419 Z M58.651,3.366 C59.587,4.042 60.367,4.705 61.004,5.368 L60.133,6.239 C59.574,5.615 58.794,4.939 57.793,4.211 L58.651,3.366 Z M58.43,6.551 C59.288,7.188 60.016,7.838 60.601,8.488 L59.743,9.346 C59.223,8.748 58.495,8.098 57.559,7.396 L58.43,6.551 Z M59.704,9.983 L60.783,10.399 C60.224,12.089 59.6,13.675 58.924,15.17 L57.702,14.624 C58.469,13.116 59.132,11.569 59.704,9.983 Z M69.051,5.121 C69.051,9.801 68.986,12.7 68.856,13.792 C68.713,14.806 68.089,15.313 66.984,15.313 C66.62,15.313 66.022,15.287 65.177,15.248 L64.878,14.104 C65.606,14.143 66.23,14.169 66.776,14.169 C67.296,14.169 67.582,13.857 67.66,13.233 C67.738,12.557 67.79,10.243 67.816,6.317 L63.123,6.317 C62.629,7.253 62.031,8.085 61.316,8.826 L60.536,7.799 C61.732,6.551 62.538,5.03 62.967,3.223 L64.189,3.379 C64.046,3.977 63.864,4.562 63.656,5.121 L69.051,5.121 Z M65.619,9.216 C66.178,10.191 66.711,11.257 67.231,12.401 L66.152,12.947 C66.022,12.622 65.905,12.31 65.788,12.024 C64.527,12.284 63.136,12.492 61.602,12.635 L61.394,11.53 C61.992,11.309 62.824,9.879 63.89,7.253 L65.034,7.643 C64.332,9.164 63.63,10.438 62.902,11.465 C63.76,11.374 64.579,11.231 65.359,11.049 C65.125,10.555 64.891,10.087 64.657,9.671 L65.619,9.216 Z M77.332,12.388 C77.956,13.194 78.424,13.909 78.749,14.507 L77.774,15.196 C77.449,14.52 77.007,13.779 76.435,12.96 L77.332,12.388 Z M75.07,10.555 L75.07,13.61 C75.46,13.506 75.85,13.376 76.24,13.246 L76.461,14.39 C75.681,14.624 74.745,14.858 73.666,15.092 L73.393,13.987 C73.705,13.909 73.861,13.753 73.861,13.532 L73.861,6.837 C76.357,6.707 78.723,6.434 80.959,6.018 L81.583,7.045 C80.647,7.214 79.659,7.37 78.645,7.5 C78.71,8.202 78.788,8.826 78.879,9.385 L81.947,9.385 L81.947,10.555 L79.074,10.555 C79.126,10.828 79.191,11.075 79.256,11.309 C79.49,12.141 79.763,12.791 80.088,13.259 C80.4,13.675 80.673,13.896 80.907,13.896 C81.063,13.87 81.232,13.285 81.401,12.154 L82.415,12.83 C81.999,14.416 81.544,15.209 81.024,15.209 C80.582,15.209 80.14,14.949 79.672,14.442 C79.178,13.922 78.736,13.155 78.359,12.167 C78.203,11.738 78.047,11.205 77.917,10.555 L75.07,10.555 Z M77.449,7.63 C76.669,7.708 75.876,7.773 75.07,7.825 L75.07,9.385 L77.709,9.385 C77.618,8.826 77.527,8.241 77.449,7.63 Z M77.007,3.288 C77.189,3.626 77.384,3.99 77.566,4.406 L82.298,4.406 L82.298,5.602 L72.782,5.602 L72.782,8.41 C72.73,11.27 72.301,13.558 71.482,15.274 L70.546,14.442 C71.196,12.999 71.534,10.984 71.56,8.41 L71.56,4.406 L76.292,4.406 C76.11,4.068 75.928,3.769 75.72,3.496 L77.007,3.288 Z" id="黄花沟底" fill="#FFFFFF"></path>
                </g>
                <g id="01-copy-6" transform="translate(221.000000, 0.000000)">
                    <path d="M6.35714286,24.2272727 C6.980429,20.4307958 7.60829496,17.9336016 8.24074074,16.7356902 C10.09655,13.2206142 12.7142857,14.1136364 12.7142857,10.4460539 C12.7142857,6.88599666 9.86809591,4 6.35714286,4 C2.8461898,4 1.37022687e-16,6.88599666 0,10.4460539 C0,14.1136364 2.996633,12.989899 4.49494949,16.7356902 C5.05178067,18.1277682 5.67251179,20.6249623 6.35714286,24.2272727 Z" id="Oval-9-Copy-2" fill="url(#linearGradient-2)"></path>
                    <path d="M40.56,29.86 L38.52,29.86 L38.52,29.4 C38.52,28.933331 38.4100011,28.5300017 38.19,28.19 C37.9699989,27.8499983 37.6000026,27.68 37.08,27.68 C36.7999986,27.68 36.5733342,27.7333328 36.4,27.84 C36.2266658,27.9466672 36.0866672,28.0799992 35.98,28.24 C35.8733328,28.4133342 35.8000002,28.6099989 35.76,28.83 C35.7199998,29.0500011 35.7,29.2799988 35.7,29.52 C35.7,29.8000014 35.7099999,30.0333324 35.73,30.22 C35.7500001,30.4066676 35.7999996,30.5733326 35.88,30.72 C35.9600004,30.8666674 36.0766659,30.9933328 36.23,31.1 C36.3833341,31.2066672 36.593332,31.3133328 36.86,31.42 L38.42,32.04 C38.8733356,32.2133342 39.2399986,32.4166655 39.52,32.65 C39.8000014,32.8833345 40.0199992,33.1533318 40.18,33.46 C40.3266674,33.7800016 40.4266664,34.1433313 40.48,34.55 C40.5333336,34.9566687 40.56,35.4199974 40.56,35.94 C40.56,36.540003 40.5000006,37.0966641 40.38,37.61 C40.2599994,38.1233359 40.066668,38.5599982 39.8,38.92 C39.5199986,39.2933352 39.1533356,39.5866656 38.7,39.8 C38.2466644,40.0133344 37.6933366,40.12 37.04,40.12 C36.5466642,40.12 36.0866688,40.0333342 35.66,39.86 C35.2333312,39.6866658 34.8666682,39.4466682 34.56,39.14 C34.2533318,38.8333318 34.0100009,38.4766687 33.83,38.07 C33.6499991,37.6633313 33.56,37.2200024 33.56,36.74 L33.56,35.98 L35.6,35.98 L35.6,36.62 C35.6,36.9933352 35.7099989,37.3299985 35.93,37.63 C36.1500011,37.9300015 36.5199974,38.08 37.04,38.08 C37.3866684,38.08 37.6566657,38.0300005 37.85,37.93 C38.0433343,37.8299995 38.1933328,37.6866676 38.3,37.5 C38.4066672,37.3133324 38.4699999,37.0900013 38.49,36.83 C38.5100001,36.5699987 38.52,36.2800016 38.52,35.96 C38.52,35.5866648 38.5066668,35.2800012 38.48,35.04 C38.4533332,34.7999988 38.4000004,34.6066674 38.32,34.46 C38.2266662,34.3133326 38.1033341,34.1933338 37.95,34.1 C37.7966659,34.0066662 37.5933346,33.9066672 37.34,33.8 L35.88,33.2 C34.9999956,32.8399982 34.4100015,32.3633363 34.11,31.77 C33.8099985,31.1766637 33.66,30.4333378 33.66,29.54 C33.66,29.006664 33.7333326,28.5000024 33.88,28.02 C34.0266674,27.5399976 34.2466652,27.1266684 34.54,26.78 C34.8200014,26.4333316 35.1766645,26.1566677 35.61,25.95 C36.0433355,25.7433323 36.559997,25.64 37.16,25.64 C37.6666692,25.64 38.1299979,25.7333324 38.55,25.92 C38.9700021,26.1066676 39.3333318,26.3533318 39.64,26.66 C40.2533364,27.3000032 40.56,28.0333292 40.56,28.86 L40.56,29.86 Z M42.08,40 L42.08,25.76 L45.14,25.76 C45.7000028,25.76 46.1933312,25.8333326 46.62,25.98 C47.0466688,26.1266674 47.4333316,26.3866648 47.78,26.76 C48.1266684,27.1333352 48.366666,27.5699975 48.5,28.07 C48.633334,28.5700025 48.7,29.2466624 48.7,30.1 C48.7,30.7400032 48.6633337,31.2799978 48.59,31.72 C48.5166663,32.1600022 48.3600012,32.5733314 48.12,32.96 C47.8399986,33.426669 47.466669,33.7899987 47,34.05 C46.533331,34.3100013 45.9200038,34.44 45.16,34.44 L44.12,34.44 L44.12,40 L42.08,40 Z M44.12,27.68 L44.12,32.52 L45.1,32.52 C45.5133354,32.52 45.8333322,32.4600006 46.06,32.34 C46.2866678,32.2199994 46.4533328,32.0533344 46.56,31.84 C46.6666672,31.639999 46.7299999,31.3933348 46.75,31.1 C46.7700001,30.8066652 46.78,30.4800018 46.78,30.12 C46.78,29.786665 46.7733334,29.4700015 46.76,29.17 C46.7466666,28.8699985 46.6866672,28.6066678 46.58,28.38 C46.4733328,28.1533322 46.3133344,27.9800006 46.1,27.86 C45.8866656,27.7399994 45.580002,27.68 45.18,27.68 L44.12,27.68 Z M49.94,40 L49.94,38.08 L53.62,31.14 C53.8066676,30.7933316 53.9133332,30.4900013 53.94,30.23 C53.9666668,29.9699987 53.98,29.6466686 53.98,29.26 C53.98,29.0866658 53.9766667,28.9033343 53.97,28.71 C53.9633333,28.5166657 53.926667,28.3466674 53.86,28.2 C53.793333,28.0533326 53.693334,27.9300005 53.56,27.83 C53.426666,27.7299995 53.2333346,27.68 52.98,27.68 C52.6733318,27.68 52.4300009,27.7666658 52.25,27.94 C52.0699991,28.1133342 51.98,28.366665 51.98,28.7 L51.98,29.86 L49.94,29.86 L49.94,28.74 C49.94,28.3133312 50.0199992,27.9133352 50.18,27.54 C50.3400008,27.1666648 50.5599986,26.8400014 50.84,26.56 C51.106668,26.2799986 51.4266648,26.0566675 51.8,25.89 C52.1733352,25.7233325 52.5733312,25.64 53,25.64 C53.533336,25.64 53.9899981,25.7366657 54.37,25.93 C54.7500019,26.1233343 55.0666654,26.386665 55.32,26.72 C55.5600012,27.053335 55.7366661,27.4333312 55.85,27.86 C55.9633339,28.2866688 56.02,28.7399976 56.02,29.22 C56.02,29.5666684 56.0133334,29.8566655 56,30.09 C55.9866666,30.3233345 55.9600002,30.5466656 55.92,30.76 C55.8799998,30.9733344 55.8133338,31.1866656 55.72,31.4 C55.6266662,31.6133344 55.5000008,31.8733318 55.34,32.18 L52.34,37.96 L56.02,37.96 L56.02,40 L49.94,40 Z" id="SP2" fill="#FFFFFF"></path>
                    <path d="M76.48,15 L76.48,5.336 L74.848,6.536 L74.848,4.808 L76.48,3.608 L78.112,3.608 L78.112,15 L76.48,15 Z M80.496,5.96 C80.496,5.57599808 80.562666,5.23466816 80.696,4.936 C80.829334,4.63733184 81.0079989,4.3813344 81.232,4.168 C81.4560011,3.9546656 81.7146652,3.79200056 82.008,3.68 C82.3013348,3.56799944 82.6079984,3.512 82.928,3.512 C83.2480016,3.512 83.5546652,3.56799944 83.848,3.68 C84.1413348,3.79200056 84.3999989,3.9546656 84.624,4.168 C84.8480011,4.3813344 85.026666,4.63733184 85.16,4.936 C85.293334,5.23466816 85.36,5.57599808 85.36,5.96 L85.36,12.648 C85.36,13.0320019 85.293334,13.3733318 85.16,13.672 C85.026666,13.9706682 84.8480011,14.2266656 84.624,14.44 C84.3999989,14.6533344 84.1413348,14.8159994 83.848,14.928 C83.5546652,15.0400006 83.2480016,15.096 82.928,15.096 C82.6079984,15.096 82.3013348,15.0400006 82.008,14.928 C81.7146652,14.8159994 81.4560011,14.6533344 81.232,14.44 C81.0079989,14.2266656 80.829334,13.9706682 80.696,13.672 C80.562666,13.3733318 80.496,13.0320019 80.496,12.648 L80.496,5.96 Z M82.128,12.648 C82.128,12.8826678 82.2026659,13.0773326 82.352,13.232 C82.5013341,13.3866674 82.6933322,13.464 82.928,13.464 C83.1626678,13.464 83.3546659,13.3866674 83.504,13.232 C83.6533341,13.0773326 83.728,12.8826678 83.728,12.648 L83.728,5.96 C83.728,5.72533216 83.6533341,5.53066744 83.504,5.376 C83.3546659,5.22133256 83.1626678,5.144 82.928,5.144 C82.6933322,5.144 82.5013341,5.22133256 82.352,5.376 C82.2026659,5.53066744 82.128,5.72533216 82.128,5.96 L82.128,12.648 Z M86.576,15 L86.576,13.368 L88.208,13.368 L88.208,15 L86.576,15 Z M94.288,3.608 L94.288,5.144 L91.056,5.144 L91.056,8.216 C91.2053341,8.06666592 91.3973322,7.94133384 91.632,7.84 C91.8666678,7.73866616 92.1279986,7.688 92.416,7.688 C92.9706694,7.688 93.4213316,7.85599832 93.768,8.192 C94.1146684,8.52800168 94.288,9.03199664 94.288,9.704 L94.288,12.648 C94.288,13.0320019 94.221334,13.3733318 94.088,13.672 C93.954666,13.9706682 93.7760011,14.2266656 93.552,14.44 C93.3279989,14.6533344 93.0693348,14.8159994 92.776,14.928 C92.4826652,15.0400006 92.1760016,15.096 91.856,15.096 C91.5359984,15.096 91.2293348,15.0400006 90.936,14.928 C90.6426652,14.8159994 90.3840011,14.6533344 90.16,14.44 C89.9359989,14.2266656 89.757334,13.9706682 89.624,13.672 C89.490666,13.3733318 89.424,13.0320019 89.424,12.648 L89.424,12.168 L91.056,12.168 L91.056,12.584 C91.056,12.8613347 91.1333326,13.0773326 91.288,13.232 C91.4426674,13.3866674 91.6426654,13.464 91.888,13.464 C92.1333346,13.464 92.322666,13.3893341 92.456,13.24 C92.589334,13.0906659 92.656,12.882668 92.656,12.616 L92.656,9.944 C92.656,9.71999888 92.5840007,9.5280008 92.44,9.368 C92.2959993,9.2079992 92.1120011,9.128 91.888,9.128 C91.7493326,9.128 91.6320005,9.15199976 91.536,9.2 C91.4399995,9.24800024 91.3600003,9.30399968 91.296,9.368 C91.2319997,9.43200032 91.1840002,9.50133296 91.152,9.576 C91.0986664,9.67200048 91.0666667,9.73066656 91.056,9.752 L89.616,9.752 L89.616,3.608 L94.288,3.608 Z M95.6,15 L95.6,3.608 L97.232,3.608 L97.232,8.808 L97.264,8.808 L99.648,3.608 L101.28,3.608 L99.056,8.168 L101.696,15 L99.968,15 L98.112,9.944 L97.232,11.592 L97.232,15 L95.6,15 Z M102.416,15 L102.416,3.608 L103.984,3.608 L106.08,9.64 L106.112,9.64 L108.192,3.608 L109.776,3.608 L109.776,15 L108.144,15 L108.144,8.072 L108.112,8.072 L106.496,12.968 L105.68,12.968 L104.08,8.072 L104.048,8.072 L104.048,15 L102.416,15 Z" id="10.5KM" fill="#FFFFFF"></path>
                    <path d="M44.453,3.353 L45.051,4.367 C43.049,4.757 40.41,4.965 37.121,4.965 L36.757,3.886 C39.812,3.886 42.373,3.704 44.453,3.353 Z M36.796,11.53 L40.137,11.53 C40.137,11.296 40.15,11.023 40.163,10.698 C39.318,10.75 38.421,10.789 37.472,10.841 L37.186,10.022 C37.992,9.814 38.876,9.424 39.851,8.826 C39.175,8.852 38.382,8.891 37.472,8.917 L37.316,8.02 C37.667,7.994 37.979,7.89 38.252,7.695 C38.603,7.461 39.032,7.097 39.552,6.577 L40.618,6.98 C40.15,7.396 39.669,7.747 39.175,8.059 C39.851,8.033 40.501,7.994 41.125,7.968 C41.567,7.63 42.035,7.266 42.529,6.876 L43.608,7.396 C42.256,8.436 41.034,9.255 39.929,9.853 C41.125,9.749 42.204,9.645 43.166,9.541 C42.984,9.242 42.802,8.969 42.62,8.709 L43.647,8.215 C44.167,8.943 44.661,9.762 45.129,10.659 L44.063,11.192 C43.92,10.906 43.777,10.646 43.647,10.386 C42.971,10.464 42.217,10.529 41.385,10.607 C41.372,11.023 41.359,11.322 41.333,11.53 L45.09,11.53 L45.09,12.648 L41.879,12.648 C42.529,13.454 43.686,14 45.376,14.286 L44.752,15.365 C42.802,14.91 41.502,14.091 40.865,12.921 C40.189,14.117 38.876,14.949 36.939,15.417 L36.289,14.338 C38.031,14.052 39.175,13.48 39.747,12.648 L36.796,12.648 L36.796,11.53 Z M43.608,4.757 L44.752,5.069 C44.544,5.849 44.271,6.538 43.933,7.136 L42.828,6.746 C43.127,6.226 43.387,5.563 43.608,4.757 Z M41.294,5.069 C41.437,5.537 41.567,6.07 41.671,6.655 L40.579,6.785 C40.449,6.174 40.319,5.654 40.189,5.212 L41.294,5.069 Z M38.304,5.173 C38.616,5.654 38.902,6.174 39.136,6.72 L38.096,7.162 C37.836,6.564 37.55,6.031 37.264,5.589 L38.304,5.173 Z M34.625,3.366 C35.457,3.964 36.146,4.575 36.718,5.186 L35.834,6.057 C35.327,5.485 34.625,4.874 33.741,4.211 L34.625,3.366 Z M34.391,6.616 C35.184,7.24 35.86,7.851 36.406,8.475 L35.509,9.359 C35.041,8.761 34.378,8.137 33.52,7.474 L34.391,6.616 Z M35.444,9.957 L36.523,10.386 C36.003,12.102 35.444,13.727 34.82,15.261 L33.663,14.754 C34.352,13.194 34.95,11.595 35.444,9.957 Z M50.537,6.265 C51.226,7.123 51.863,7.942 52.448,8.722 C52.916,7.838 53.28,6.889 53.566,5.875 L54.788,6.083 C54.398,7.487 53.891,8.735 53.267,9.84 C54.021,10.932 54.671,11.933 55.204,12.843 L54.086,13.61 C53.618,12.778 53.098,11.92 52.5,11.036 C51.72,12.115 50.81,13.051 49.77,13.831 L48.938,12.778 C50.043,11.946 50.979,10.984 51.733,9.892 C51.057,8.93 50.329,7.929 49.523,6.889 L50.537,6.265 Z M47.937,3.782 L56.582,3.782 L56.582,9.099 C56.582,11.088 56.634,12.362 56.764,12.921 C56.868,13.467 56.998,13.753 57.154,13.753 C57.271,13.753 57.375,13.233 57.453,12.206 L58.558,12.739 C58.389,13.727 58.207,14.403 58.012,14.741 C57.791,15.053 57.544,15.222 57.284,15.222 C56.608,15.222 56.114,14.806 55.802,13.987 C55.477,13.181 55.321,11.556 55.321,9.099 L55.321,4.978 L49.172,4.978 L49.172,8.93 C49.146,11.478 48.613,13.623 47.586,15.352 L46.546,14.507 C47.43,13.025 47.898,11.166 47.937,8.93 L47.937,3.782 Z M63.16,10.867 C62.848,10.971 62.523,11.062 62.211,11.14 L61.639,10.126 C62.731,9.892 63.693,9.554 64.551,9.125 C64.161,8.865 63.836,8.592 63.563,8.319 C63.29,8.605 63.017,8.878 62.731,9.112 L62.016,8.228 C62.848,7.604 63.576,6.733 64.174,5.641 L65.214,5.862 C65.11,6.07 65.006,6.278 64.902,6.46 L68.204,6.46 L68.204,7.318 C67.736,7.981 67.177,8.566 66.553,9.073 C67.346,9.398 68.269,9.684 69.309,9.918 L68.789,11.01 C67.541,10.646 66.475,10.23 65.591,9.762 C64.902,10.178 64.135,10.529 63.303,10.815 L67.905,10.815 L67.905,14.507 L63.16,14.507 L63.16,10.867 Z M66.787,13.454 L66.787,11.855 L64.291,11.855 L64.291,13.454 L66.787,13.454 Z M65.487,8.566 C65.981,8.241 66.423,7.877 66.826,7.461 L64.252,7.461 C64.226,7.5 64.187,7.539 64.161,7.591 C64.512,7.955 64.954,8.28 65.487,8.566 Z M69.452,15.3 L68.633,15.3 L68.321,14.143 L69.205,14.169 C69.517,14.169 69.673,13.935 69.673,13.493 L69.673,5.082 L64.785,5.082 L64.785,3.938 L70.869,3.938 L70.869,13.844 C70.869,14.806 70.388,15.3 69.452,15.3 Z M60.157,5.368 L61.353,5.368 L61.353,15.352 L60.157,15.352 L60.157,5.368 Z M62.289,3.21 C62.835,3.847 63.303,4.536 63.706,5.29 L62.614,5.862 C62.172,5.056 61.691,4.328 61.171,3.704 L62.289,3.21 Z" id="溪风阁" fill="#FFFFFF"></path>
                </g>
                <g id="01-copy-4" transform="translate(2.000000, 11.000000)">
                    <path d="M6.35714286,76.2272727 C6.980429,72.4307958 7.60829496,69.9336016 8.24074074,68.7356902 C10.09655,65.2206142 12.7142857,66.1136364 12.7142857,62.4460539 C12.7142857,58.8859967 9.86809591,56 6.35714286,56 C2.8461898,56 1.37022687e-16,58.8859967 0,62.4460539 C0,66.1136364 2.996633,64.989899 4.49494949,68.7356902 C5.05178067,70.1277682 5.67251179,72.6249623 6.35714286,76.2272727 Z" id="Oval-9-Copy-2" fill="url(#linearGradient-3)"></path>
                    <path d="M8.44,35.94 L8.44,36.82 C8.44,37.2600022 8.3566675,37.6766647 8.19,38.07 C8.0233325,38.4633353 7.7933348,38.8133318 7.5,39.12 C7.2066652,39.4266682 6.8633353,39.6699991 6.47,39.85 C6.0766647,40.0300009 5.6533356,40.12 5.2,40.12 C4.8133314,40.12 4.420002,40.0666672 4.02,39.96 C3.619998,39.8533328 3.2600016,39.666668 2.94,39.4 C2.6199984,39.133332 2.3566677,38.7900021 2.15,38.37 C1.9433323,37.9499979 1.84,37.4133366 1.84,36.76 L1.84,28.92 C1.84,28.453331 1.9199992,28.020002 2.08,27.62 C2.2400008,27.219998 2.4666652,26.8733348 2.76,26.58 C3.0533348,26.2866652 3.4033313,26.0566675 3.81,25.89 C4.2166687,25.7233325 4.6666642,25.64 5.16,25.64 C6.1200048,25.64 6.899997,25.9533302 7.5,26.58 C7.7933348,26.8866682 8.0233325,27.2499979 8.19,27.67 C8.3566675,28.0900021 8.44,28.5466642 8.44,29.04 L8.44,29.84 L6.4,29.84 L6.4,29.16 C6.4,28.759998 6.2866678,28.4133348 6.06,28.12 C5.8333322,27.8266652 5.5266686,27.68 5.14,27.68 C4.6333308,27.68 4.2966675,27.8366651 4.13,28.15 C3.9633325,28.4633349 3.88,28.8599976 3.88,29.34 L3.88,36.62 C3.88,37.0333354 3.9699991,37.3799986 4.15,37.66 C4.3300009,37.9400014 4.653331,38.08 5.12,38.08 C5.253334,38.08 5.3966659,38.0566669 5.55,38.01 C5.7033341,37.9633331 5.846666,37.8866672 5.98,37.78 C6.1000006,37.6733328 6.1999996,37.5266676 6.28,37.34 C6.3600004,37.1533324 6.4,36.9200014 6.4,36.64 L6.4,35.94 L8.44,35.94 Z M10.1,40 L10.1,25.76 L13.16,25.76 C13.7200028,25.76 14.2133312,25.8333326 14.64,25.98 C15.0666688,26.1266674 15.4533316,26.3866648 15.8,26.76 C16.1466684,27.1333352 16.386666,27.5699975 16.52,28.07 C16.653334,28.5700025 16.72,29.2466624 16.72,30.1 C16.72,30.7400032 16.6833337,31.2799978 16.61,31.72 C16.5366663,32.1600022 16.3800012,32.5733314 16.14,32.96 C15.8599986,33.426669 15.486669,33.7899987 15.02,34.05 C14.553331,34.3100013 13.9400038,34.44 13.18,34.44 L12.14,34.44 L12.14,40 L10.1,40 Z M12.14,27.68 L12.14,32.52 L13.12,32.52 C13.5333354,32.52 13.8533322,32.4600006 14.08,32.34 C14.3066678,32.2199994 14.4733328,32.0533344 14.58,31.84 C14.6866672,31.639999 14.7499999,31.3933348 14.77,31.1 C14.7900001,30.8066652 14.8,30.4800018 14.8,30.12 C14.8,29.786665 14.7933334,29.4700015 14.78,29.17 C14.7666666,28.8699985 14.7066672,28.6066678 14.6,28.38 C14.4933328,28.1533322 14.3333344,27.9800006 14.12,27.86 C13.9066656,27.7399994 13.600002,27.68 13.2,27.68 L12.14,27.68 Z M17.96,40 L17.96,38.08 L21.64,31.14 C21.8266676,30.7933316 21.9333332,30.4900013 21.96,30.23 C21.9866668,29.9699987 22,29.6466686 22,29.26 C22,29.0866658 21.9966667,28.9033343 21.99,28.71 C21.9833333,28.5166657 21.946667,28.3466674 21.88,28.2 C21.813333,28.0533326 21.713334,27.9300005 21.58,27.83 C21.446666,27.7299995 21.2533346,27.68 21,27.68 C20.6933318,27.68 20.4500009,27.7666658 20.27,27.94 C20.0899991,28.1133342 20,28.366665 20,28.7 L20,29.86 L17.96,29.86 L17.96,28.74 C17.96,28.3133312 18.0399992,27.9133352 18.2,27.54 C18.3600008,27.1666648 18.5799986,26.8400014 18.86,26.56 C19.126668,26.2799986 19.4466648,26.0566675 19.82,25.89 C20.1933352,25.7233325 20.5933312,25.64 21.02,25.64 C21.553336,25.64 22.0099981,25.7366657 22.39,25.93 C22.7700019,26.1233343 23.0866654,26.386665 23.34,26.72 C23.5800012,27.053335 23.7566661,27.4333312 23.87,27.86 C23.9833339,28.2866688 24.04,28.7399976 24.04,29.22 C24.04,29.5666684 24.0333334,29.8566655 24.02,30.09 C24.0066666,30.3233345 23.9800002,30.5466656 23.94,30.76 C23.8999998,30.9733344 23.8333338,31.1866656 23.74,31.4 C23.6466662,31.6133344 23.5200008,31.8733318 23.36,32.18 L20.36,37.96 L24.04,37.96 L24.04,40 L17.96,40 Z" id="CP2" fill="#FFFFFF"></path>
                    <path d="M42.912,15 L45.776,5.144 L43.984,5.144 L43.984,6.456 L42.544,6.456 L42.544,3.608 L47.408,3.608 L47.408,5.24 L44.64,15 L42.912,15 Z M48.624,15 L48.624,13.368 L50.256,13.368 L50.256,15 L48.624,15 Z M52.064,15 L53.92,10.216 L53.888,10.184 C53.8346664,10.2266669 53.7520006,10.2613332 53.64,10.288 C53.5279994,10.3146668 53.3813342,10.328 53.2,10.328 C52.9119986,10.328 52.6453346,10.2586674 52.4,10.12 C52.1546654,9.98133264 51.9626674,9.8053344 51.824,9.592 C51.749333,9.4853328 51.6906669,9.37066728 51.648,9.248 C51.6053331,9.12533272 51.5733334,8.96800096 51.552,8.776 C51.5199998,8.58399904 51.4986667,8.3413348 51.488,8.048 C51.4773333,7.7546652 51.472,7.38400224 51.472,6.936 C51.472,6.5626648 51.4773333,6.2560012 51.488,6.016 C51.4986667,5.7759988 51.5199998,5.57066752 51.552,5.4 C51.5733334,5.2399992 51.6079998,5.10133392 51.656,4.984 C51.7040002,4.86666608 51.765333,4.74400064 51.84,4.616 C52.0533344,4.26399824 52.3386649,3.99200096 52.696,3.8 C53.0533351,3.60799904 53.4559978,3.512 53.904,3.512 C54.3520022,3.512 54.7519982,3.61066568 55.104,3.808 C55.4560018,4.00533432 55.7386656,4.27466496 55.952,4.616 C56.026667,4.74400064 56.0906664,4.86666608 56.144,4.984 C56.1973336,5.10133392 56.2399998,5.2399992 56.272,5.4 C56.2933334,5.57066752 56.3093333,5.7759988 56.32,6.016 C56.3306667,6.2560012 56.336,6.5626648 56.336,6.936 C56.336,7.28800176 56.3306667,7.57866552 56.32,7.808 C56.3093333,8.03733448 56.2933334,8.2319992 56.272,8.392 C56.2399998,8.56266752 56.2053335,8.714666 56.168,8.848 C56.1306665,8.981334 56.0853336,9.12266592 56.032,9.272 L53.888,15 L52.064,15 Z M53.104,8.072 C53.104,8.31733456 53.1839992,8.51466592 53.344,8.664 C53.5040008,8.81333408 53.6906656,8.888 53.904,8.888 C54.1173344,8.888 54.3039992,8.81333408 54.464,8.664 C54.6240008,8.51466592 54.704,8.31733456 54.704,8.072 L54.704,5.96 C54.704,5.71466544 54.6240008,5.51733408 54.464,5.368 C54.3039992,5.21866592 54.1173344,5.144 53.904,5.144 C53.6906656,5.144 53.5040008,5.21866592 53.344,5.368 C53.1839992,5.51733408 53.104,5.71466544 53.104,5.96 L53.104,8.072 Z M57.648,15 L57.648,3.608 L59.28,3.608 L59.28,8.808 L59.312,8.808 L61.696,3.608 L63.328,3.608 L61.104,8.168 L63.744,15 L62.016,15 L60.16,9.944 L59.28,11.592 L59.28,15 L57.648,15 Z M64.464,15 L64.464,3.608 L66.032,3.608 L68.128,9.64 L68.16,9.64 L70.24,3.608 L71.824,3.608 L71.824,15 L70.192,15 L70.192,8.072 L70.16,8.072 L68.544,12.968 L67.728,12.968 L66.128,8.072 L66.096,8.072 L66.096,15 L64.464,15 Z" id="7.9KM" fill="#FFFFFF"></path>
                    <path d="M12.96,4.081 L12.96,15.144 L11.699,15.144 L11.699,14.481 L3.301,14.481 L3.301,15.144 L2.04,15.144 L2.04,4.081 L12.96,4.081 Z M3.301,13.376 L11.699,13.376 L11.699,11.335 L9.658,11.335 C8.735,11.335 8.28,10.893 8.28,10.035 L8.28,5.199 L6.681,5.199 L6.681,7.851 C6.655,9.697 5.914,11.049 4.484,11.907 L3.47,11.01 C4.77,10.347 5.433,9.294 5.459,7.851 L5.459,5.199 L3.301,5.199 L3.301,13.376 Z M9.502,5.199 L9.502,9.736 C9.502,10.048 9.671,10.204 10.022,10.204 L11.699,10.204 L11.699,5.199 L9.502,5.199 Z M24.933,9.697 C25.661,10.815 26.207,11.803 26.597,12.648 L25.648,13.324 C25.245,12.427 24.712,11.452 24.036,10.386 C24.01,11.036 23.971,11.621 23.932,12.141 C23.815,13.233 23.633,14 23.373,14.429 C23.113,14.845 22.697,15.079 22.138,15.118 L20.032,15.118 L19.72,13.948 C20.357,13.974 20.968,13.987 21.54,13.987 C22.034,13.987 22.372,13.675 22.528,13.051 C22.684,12.427 22.801,11.062 22.853,8.982 L20.487,8.982 C20.344,10.555 19.98,11.842 19.382,12.843 C18.68,13.961 17.562,14.819 16.002,15.417 L15.3,14.312 C16.821,13.701 17.861,12.921 18.407,11.985 C18.849,11.179 19.122,10.178 19.226,8.982 L15.82,8.982 L15.82,7.786 L19.291,7.786 L19.291,6.681 L20.539,6.681 L20.539,7.786 L24.14,7.786 C24.114,8.696 24.075,9.515 24.049,10.256 L24.933,9.697 Z M16.327,9.827 L17.419,10.256 C16.951,11.504 16.34,12.453 15.573,13.116 L14.637,12.31 C15.391,11.686 15.963,10.854 16.327,9.827 Z M14.806,4.614 L17.614,4.614 L17.614,3.405 L18.875,3.405 L18.875,4.614 L21.995,4.614 L21.995,3.405 L23.256,3.405 L23.256,4.614 L26.194,4.614 L26.194,5.797 L23.256,5.797 L23.256,6.824 L21.995,6.824 L21.995,5.797 L18.875,5.797 L18.875,6.811 L17.614,6.811 L17.614,5.797 L14.806,5.797 L14.806,4.614 Z M27.858,5.849 L32.837,5.849 L32.837,3.353 L34.111,3.353 L34.111,5.849 L39.181,5.849 L39.181,7.032 L35.112,7.032 C35.931,9.099 37.335,10.945 39.324,12.557 L38.466,13.636 C36.386,11.673 34.93,9.476 34.111,7.045 L34.111,15.287 L32.837,15.287 L32.837,7.032 C31.953,9.736 30.458,11.946 28.352,13.688 L27.65,12.531 C29.561,11.088 30.952,9.255 31.823,7.032 L27.858,7.032 L27.858,5.849 Z" id="四苏木" fill="#FFFFFF"></path>
                </g>
                <g id="01-copy-8" transform="translate(343.000000, 117.000000)" fill="#FFFFFF">
                    <path d="M12.272,10.412 C12.168,11.478 12.025,12.167 11.817,12.492 C11.622,12.804 11.193,12.973 10.543,12.973 L8.216,12.973 C7.436,12.973 7.059,12.583 7.059,11.816 L7.059,7.435 L10.491,7.435 L10.491,5.251 L6.89,5.251 L6.89,4.094 L11.7,4.094 L11.7,8.605 L8.281,8.605 L8.281,11.335 C8.281,11.621 8.437,11.764 8.749,11.777 L10.335,11.777 C10.647,11.777 10.842,11.647 10.933,11.387 C11.011,11.153 11.063,10.698 11.102,10.022 L12.272,10.412 Z M1.43,9.567 L2.535,9.697 C2.509,10.464 2.431,11.205 2.327,11.907 C2.665,12.453 3.029,12.869 3.445,13.181 L3.445,8.878 L0.871,8.878 L0.871,7.734 L3.146,7.734 L3.146,6.096 L1.105,6.096 L1.105,4.978 L3.146,4.978 L3.146,3.288 L4.368,3.288 L4.368,4.978 L6.292,4.978 L6.292,6.096 L4.368,6.096 L4.368,7.734 L6.461,7.734 L6.461,8.878 L4.641,8.878 L4.641,10.438 L6.37,10.438 L6.37,11.556 L4.641,11.556 L4.641,13.727 C5.473,13.896 6.942,13.987 9.074,13.987 C10.608,13.987 11.765,13.961 12.519,13.909 L12.311,15.092 L9.347,15.092 C6.292,15.092 4.381,14.91 3.614,14.572 C3.029,14.299 2.509,13.857 2.067,13.233 C1.885,13.987 1.651,14.689 1.378,15.352 L0.429,14.52 C1.027,13.038 1.352,11.387 1.43,9.567 Z M17.862,12.531 L17.862,13.792 C16.653,14.234 15.288,14.611 13.754,14.897 L13.572,13.597 C15.21,13.337 16.64,12.973 17.862,12.531 Z M15.535,3.275 L16.679,3.717 C16.081,5.251 15.483,6.486 14.859,7.448 C15.301,7.396 15.73,7.331 16.159,7.253 C16.393,6.746 16.653,6.2 16.913,5.628 L17.992,6.031 C16.952,8.189 16.094,9.762 15.392,10.737 C16.029,10.568 16.666,10.36 17.316,10.1 L17.316,11.205 C16.133,11.647 15.015,11.959 13.975,12.115 L13.65,10.997 C13.858,10.906 14.04,10.789 14.196,10.646 C14.573,10.204 15.041,9.45 15.613,8.371 C15.002,8.462 14.378,8.553 13.728,8.657 L13.429,7.539 C13.624,7.461 13.793,7.318 13.936,7.084 C14.547,5.94 15.08,4.679 15.535,3.275 Z M20.527,10.282 C21.853,10.659 23.062,11.114 24.167,11.647 L23.556,12.583 C22.36,12.011 21.138,11.569 19.877,11.231 L20.527,10.282 Z M18.954,12.362 C21.034,12.908 22.932,13.558 24.648,14.338 L23.998,15.365 C22.139,14.533 20.228,13.87 18.252,13.389 L18.954,12.362 Z M20.046,3.288 L21.294,3.444 C21.19,3.808 21.086,4.159 20.956,4.484 L24.531,4.484 L24.531,5.485 C24.011,6.499 23.387,7.396 22.659,8.15 C23.543,8.735 24.531,9.242 25.61,9.684 L24.96,10.802 C23.79,10.282 22.737,9.671 21.788,8.956 C20.735,9.827 19.513,10.503 18.122,10.971 L17.511,9.879 C18.759,9.489 19.877,8.93 20.839,8.176 C20.371,7.76 19.942,7.344 19.552,6.902 C19.253,7.253 18.928,7.591 18.59,7.903 L17.81,6.889 C18.902,5.901 19.656,4.705 20.046,3.288 Z M21.684,7.435 C22.217,6.902 22.698,6.317 23.114,5.667 L20.397,5.667 C20.319,5.784 20.254,5.901 20.189,6.018 C20.631,6.525 21.138,6.993 21.684,7.435 Z M31.681,3.418 L32.903,3.418 L32.903,4.562 L37.856,4.562 L37.856,5.719 L32.903,5.719 L32.903,7.097 L37.037,7.097 L37.037,11.504 L28.171,11.504 L28.171,7.097 L31.681,7.097 L31.681,3.418 Z M35.802,10.36 L35.802,8.254 L29.393,8.254 L29.393,10.36 L35.802,10.36 Z M28.145,11.933 L29.172,12.44 C28.704,13.558 28.145,14.52 27.521,15.326 L26.507,14.585 C27.131,13.844 27.677,12.96 28.145,11.933 Z M31.239,12.349 C31.499,13.181 31.733,14.091 31.941,15.066 L30.693,15.352 C30.537,14.312 30.329,13.389 30.082,12.596 L31.239,12.349 Z M33.943,12.18 C34.32,13.064 34.645,14.013 34.931,15.04 L33.709,15.326 C33.462,14.234 33.15,13.259 32.786,12.414 L33.943,12.18 Z M36.543,11.894 C37.362,12.96 37.986,13.883 38.428,14.676 L37.401,15.391 C36.946,14.533 36.335,13.571 35.555,12.531 L36.543,11.894 Z M43.16,4.536 C44.239,4.536 45.084,4.757 45.695,5.225 C46.345,5.706 46.709,6.447 46.8,7.461 L45.396,7.461 C45.266,6.863 45.032,6.421 44.668,6.161 C44.304,5.888 43.784,5.758 43.082,5.758 C42.471,5.758 42.003,5.849 41.678,6.031 C41.275,6.239 41.08,6.577 41.08,7.045 C41.08,7.461 41.301,7.786 41.769,8.033 C41.977,8.15 42.51,8.345 43.381,8.605 C44.629,8.995 45.448,9.294 45.812,9.515 C46.605,9.996 47.008,10.659 47.008,11.517 C47.008,12.349 46.683,12.999 46.033,13.48 C45.383,13.948 44.473,14.182 43.303,14.182 C42.172,14.182 41.288,13.948 40.651,13.506 C39.884,12.96 39.468,12.102 39.39,10.932 L40.794,10.932 C40.898,11.66 41.158,12.193 41.574,12.505 C41.951,12.791 42.523,12.934 43.303,12.934 C44.005,12.934 44.564,12.804 44.98,12.57 C45.396,12.336 45.604,12.011 45.604,11.595 C45.604,11.075 45.305,10.672 44.72,10.373 C44.512,10.269 43.901,10.061 42.874,9.749 C41.73,9.385 41.028,9.138 40.742,8.982 C40.027,8.553 39.676,7.929 39.676,7.123 C39.676,6.304 40.014,5.667 40.703,5.199 C41.353,4.757 42.172,4.536 43.16,4.536 Z M52.338,3.34 L53.534,3.34 L48.997,15.3 L47.788,15.3 L52.338,3.34 Z M54.821,4.718 L61.126,4.718 L61.126,5.927 L56.238,5.927 L56.238,8.631 L60.853,8.631 L60.853,9.84 L56.238,9.84 L56.238,14 L54.821,14 L54.821,4.718 Z" id="起终点S/F"></path>
                </g>
                <circle id="Oval-11" fill="url(#linearGradient-4)" cx="321.5" cy="129.5" r="5.5"></circle>
            </g>
        </g>
    </g>
</svg>