<?xml version="1.0" encoding="UTF-8"?>
<svg width="640px" height="298px" viewBox="0 0 640 298" version="1.1" xmlns="http://www.w3.org/2000/svg" xmlns:xlink="http://www.w3.org/1999/xlink">
    <!-- Generator: Sketch 49.3 (51167) - http://www.bohemiancoding.com/sketch -->
    <title>海拔图</title>
    <desc>Created with Sketch.</desc>
    <defs>
        <linearGradient x1="50%" y1="0%" x2="50%" y2="100%" id="linearGradient-1">
            <stop stop-color="#FE74B4" offset="0%"></stop>
            <stop stop-color="#EC348A" offset="100%"></stop>
        </linearGradient>
    </defs>
    <g id="Page-1" stroke="none" stroke-width="1" fill="none" fill-rule="evenodd">
        <g id="Artboard-Copy-5" transform="translate(-607.000000, -1283.000000)">
            <g id="海拔图" transform="translate(607.000000, 1283.000000)">
                <g id="Group-36">
                    <path d="M4.48740176,175.5 L639.503279,175.5" id="Line-10" stroke="#FFFFFF" opacity="0.400000006" stroke-linecap="square"></path>
                    <path d="M49,58 L68.5,58 L68.5,63.85 L49,63.85 L49,58 Z M49,71 L68.5,71 L68.5,76.85 L49,76.85 L49,71 Z M49,84 L68.5,84 L68.5,89.85 L49,89.85 L49,84 Z M49,97 L68.5,97 L68.5,102.85 L49,102.85 L49,97 Z M49,110 L68.5,110 L68.5,115.85 L49,115.85 L49,110 Z M49,123 L68.5,123 L68.5,128.85 L49,128.85 L49,123 Z M49,136 L68.5,136 L68.5,141.85 L49,141.85 L49,136 Z M49,149 L68.5,149 L68.5,154.85 L49,154.85 L49,149 Z M49,162 L68.5,162 L68.5,167.85 L49,167.85 L49,162 Z" id="Line-11" fill="url(#linearGradient-1)" fill-rule="nonzero"></path>
                    <path d="M94,58 L113.5,58 L113.5,63.85 L94,63.85 L94,58 Z M94,46 L113.5,46 L113.5,51.85 L94,51.85 L94,46 Z M94,71 L113.5,71 L113.5,76.85 L94,76.85 L94,71 Z M94,84 L113.5,84 L113.5,89.85 L94,89.85 L94,84 Z M94,97 L113.5,97 L113.5,102.85 L94,102.85 L94,97 Z M94,110 L113.5,110 L113.5,115.85 L94,115.85 L94,110 Z M94,123 L113.5,123 L113.5,128.85 L94,128.85 L94,123 Z M94,136 L113.5,136 L113.5,141.85 L94,141.85 L94,136 Z M94,149 L113.5,149 L113.5,154.85 L94,154.85 L94,149 Z M94,162 L113.5,162 L113.5,167.85 L94,167.85 L94,162 Z" id="Line-11-Copy" fill="url(#linearGradient-1)" fill-rule="nonzero"></path>
                    <path d="M60.28,197.676 C60.208,198.648 60.064,199.284 59.872,199.572 C59.692,199.86 59.32,200.016 58.756,200.016 L56.62,200.016 C55.936,200.016 55.6,199.668 55.6,198.984 L55.6,195.084 L58.864,195.084 L58.864,192.768 L55.396,192.768 L55.396,191.964 L59.704,191.964 L59.704,195.912 L56.464,195.912 L56.464,198.672 C56.464,198.996 56.632,199.164 56.968,199.176 L58.6,199.176 C58.936,199.176 59.164,199.044 59.272,198.792 C59.356,198.564 59.416,198.096 59.464,197.4 L60.28,197.676 Z M50.452,196.908 L51.232,197.004 C51.208,197.688 51.148,198.336 51.052,198.96 C51.412,199.632 51.82,200.136 52.3,200.472 L52.3,196.14 L49.84,196.14 L49.84,195.348 L52.036,195.348 L52.036,193.584 L50.056,193.584 L50.056,192.792 L52.036,192.792 L52.036,191.172 L52.9,191.172 L52.9,192.792 L54.82,192.792 L54.82,193.584 L52.9,193.584 L52.9,195.348 L54.976,195.348 L54.976,196.14 L53.128,196.14 L53.128,197.832 L54.832,197.832 L54.832,198.624 L53.128,198.624 L53.128,200.88 C53.872,201.084 55.348,201.192 57.544,201.192 C58.876,201.192 59.872,201.168 60.52,201.132 L60.376,201.972 L57.736,201.972 C54.928,201.972 53.164,201.804 52.468,201.48 C51.856,201.192 51.316,200.676 50.86,199.956 C50.668,200.76 50.428,201.504 50.116,202.2 L49.456,201.612 C50.056,200.22 50.392,198.648 50.452,196.908 Z M66.376,191.22 L67.228,191.22 L67.228,192.384 L71.884,192.384 L71.884,193.2 L67.228,193.2 L67.228,194.724 L71.056,194.724 L71.056,198.576 L63.112,198.576 L63.112,194.724 L66.376,194.724 L66.376,191.22 Z M70.192,197.772 L70.192,195.54 L63.976,195.54 L63.976,197.772 L70.192,197.772 Z M63.088,199.104 L63.82,199.452 C63.364,200.496 62.848,201.396 62.248,202.164 L61.54,201.648 C62.14,200.94 62.656,200.088 63.088,199.104 Z M65.704,199.452 C65.944,200.244 66.16,201.108 66.352,202.032 L65.488,202.224 C65.32,201.24 65.128,200.376 64.9,199.62 L65.704,199.452 Z M68.212,199.332 C68.572,200.148 68.884,201.048 69.148,202.008 L68.296,202.2 C68.056,201.18 67.756,200.28 67.396,199.5 L68.212,199.332 Z M70.672,199.092 C71.44,200.1 72.016,200.976 72.424,201.72 L71.704,202.224 C71.284,201.408 70.708,200.52 69.976,199.536 L70.672,199.092 Z" id="起点" fill="#FFFFFF"></path>
                    <path d="M52.6,209.264 C53.632,209.264 54.4,209.732 54.904,210.68 C55.312,211.436 55.528,212.444 55.528,213.716 C55.528,214.976 55.312,215.984 54.904,216.752 C54.4,217.688 53.632,218.168 52.6,218.168 C51.568,218.168 50.8,217.688 50.296,216.752 C49.876,215.984 49.672,214.976 49.672,213.716 C49.672,212.444 49.876,211.436 50.296,210.68 C50.8,209.732 51.568,209.264 52.6,209.264 Z M52.6,209.912 C51.772,209.912 51.172,210.332 50.812,211.184 C50.548,211.808 50.416,212.66 50.416,213.716 C50.416,214.772 50.548,215.612 50.812,216.248 C51.172,217.088 51.772,217.52 52.6,217.52 C53.416,217.52 54.016,217.088 54.388,216.248 C54.652,215.612 54.796,214.772 54.796,213.716 C54.796,212.66 54.652,211.808 54.388,211.184 C54.016,210.332 53.416,209.912 52.6,209.912 Z M63.472,211.628 C64.456,211.628 65.104,212.048 65.416,212.9 C65.632,212.48 65.908,212.168 66.244,211.952 C66.556,211.736 66.94,211.628 67.372,211.628 C68.02,211.628 68.548,211.832 68.932,212.24 C69.304,212.648 69.496,213.212 69.496,213.944 L69.496,218 L68.776,218 L68.776,214.04 C68.776,213.452 68.656,213.008 68.416,212.72 C68.152,212.408 67.732,212.252 67.18,212.252 C66.724,212.252 66.352,212.42 66.052,212.768 C65.74,213.104 65.596,213.524 65.596,214.052 L65.596,218 L64.864,218 L64.864,214.04 C64.864,212.84 64.348,212.252 63.316,212.252 C62.848,212.252 62.464,212.432 62.152,212.816 C61.828,213.188 61.672,213.644 61.672,214.184 L61.672,218 L60.952,218 L60.952,211.796 L61.672,211.796 L61.672,212.732 C62.116,211.988 62.716,211.628 63.472,211.628 Z" id="0-m" fill="#FFFFFF" opacity="0.600000024"></path>
                    <path d="M94.044,193.944 C94.74,194.808 95.388,195.636 95.976,196.428 C96.456,195.528 96.84,194.556 97.128,193.524 L97.98,193.668 C97.62,194.964 97.14,196.14 96.54,197.196 C97.272,198.228 97.896,199.188 98.412,200.064 L97.632,200.592 C97.152,199.764 96.624,198.9 96.024,198.012 C95.28,199.092 94.404,200.016 93.372,200.796 L92.796,200.064 C93.864,199.248 94.764,198.312 95.484,197.232 C94.836,196.308 94.116,195.36 93.336,194.376 L94.044,193.944 Z M91.908,191.676 L99.672,191.676 L99.672,196.476 C99.672,198.444 99.732,199.704 99.876,200.256 C100.008,200.796 100.164,201.072 100.356,201.072 C100.512,201.072 100.644,200.52 100.752,199.428 L101.52,199.8 C101.376,200.7 101.22,201.312 101.052,201.648 C100.872,201.936 100.668,202.08 100.452,202.08 C99.876,202.08 99.468,201.696 99.204,200.952 C98.916,200.22 98.784,198.732 98.784,196.476 L98.784,192.516 L92.772,192.516 L92.772,196.332 C92.748,198.66 92.256,200.616 91.308,202.2 L90.588,201.612 C91.428,200.208 91.872,198.444 91.908,196.332 L91.908,191.676 Z M103.056,192.744 L105.876,192.744 C106.104,192.24 106.332,191.7 106.548,191.136 L107.412,191.328 C107.22,191.82 107.016,192.288 106.812,192.744 L112.932,192.744 L112.932,193.584 L106.392,193.584 C105.852,194.604 105.264,195.504 104.616,196.296 L107.712,196.296 L107.712,194.532 L108.588,194.532 L108.588,196.296 L112.284,196.296 L112.284,197.088 L108.588,197.088 L108.588,198.852 L113.136,198.852 L113.136,199.692 L108.588,199.692 L108.588,202.272 L107.712,202.272 L107.712,199.692 L102.876,199.692 L102.876,198.852 L107.712,198.852 L107.712,197.088 L103.716,197.088 L103.524,196.296 C104.22,195.576 104.868,194.664 105.456,193.584 L103.056,193.584 L103.056,192.744 Z M119.628,193.56 L121.824,193.56 L121.824,191.208 L122.688,191.208 L122.688,193.56 L125.22,193.56 L125.22,194.388 L122.892,194.388 C123.516,196.344 124.404,197.964 125.556,199.248 L124.992,200.016 C124.08,198.792 123.312,197.22 122.688,195.3 L122.688,202.152 L121.824,202.152 L121.824,195.324 C121.152,197.304 120.324,198.9 119.316,200.1 L118.824,199.284 C120.012,198.06 120.948,196.428 121.62,194.388 L119.628,194.388 L119.628,193.56 Z M114.804,193.56 L116.664,193.56 L116.664,191.208 L117.54,191.208 L117.54,193.56 L119.172,193.56 L119.172,194.388 L117.54,194.388 L117.54,195.084 C118.176,195.684 118.824,196.356 119.496,197.112 L118.992,197.868 C118.428,197.04 117.948,196.38 117.54,195.9 L117.54,202.152 L116.664,202.152 L116.664,195.876 C116.22,197.16 115.632,198.312 114.888,199.344 L114.516,198.396 C115.5,197.232 116.196,195.9 116.628,194.388 L114.804,194.388 L114.804,193.56 Z" id="风车林" fill="#FFFFFF"></path>
                    <path d="M93.708,209.264 C94.476,209.264 95.112,209.48 95.616,209.936 C96.12,210.38 96.372,210.968 96.372,211.712 C96.372,212.456 96.084,213.128 95.52,213.728 C95.244,214.016 94.656,214.472 93.744,215.096 C92.52,215.924 91.848,216.668 91.716,217.328 L96.384,217.328 L96.384,218 L90.816,218 C90.816,217.28 91.092,216.596 91.668,215.96 C92.016,215.564 92.616,215.072 93.468,214.484 C94.212,213.956 94.692,213.572 94.92,213.344 C95.388,212.84 95.628,212.288 95.628,211.7 C95.628,211.136 95.448,210.692 95.1,210.38 C94.752,210.068 94.284,209.912 93.696,209.912 C93.072,209.912 92.58,210.116 92.22,210.536 C91.836,210.956 91.644,211.568 91.644,212.36 L90.9,212.36 C90.9,211.4 91.164,210.644 91.692,210.092 C92.196,209.54 92.868,209.264 93.708,209.264 Z M98.748,216.8 C98.916,216.8 99.06,216.848 99.18,216.968 C99.3,217.076 99.36,217.22 99.36,217.4 C99.36,217.568 99.288,217.712 99.168,217.832 C99.048,217.94 98.916,218 98.748,218 C98.568,218 98.424,217.94 98.316,217.82 C98.196,217.7 98.136,217.568 98.136,217.4 C98.136,217.22 98.196,217.076 98.316,216.968 C98.424,216.848 98.568,216.8 98.748,216.8 Z M103.98,209.264 C104.772,209.264 105.42,209.468 105.912,209.888 C106.392,210.308 106.632,210.872 106.632,211.568 C106.632,212.552 106.164,213.2 105.24,213.512 C105.732,213.668 106.116,213.92 106.392,214.268 C106.668,214.616 106.812,215.036 106.812,215.54 C106.812,216.308 106.536,216.944 106.008,217.436 C105.468,217.916 104.772,218.168 103.92,218.168 C103.152,218.168 102.516,217.964 102.012,217.568 C101.388,217.088 101.052,216.356 100.98,215.396 L101.724,215.396 C101.76,216.128 102.012,216.68 102.492,217.064 C102.876,217.376 103.344,217.532 103.908,217.532 C104.568,217.532 105.096,217.34 105.504,216.968 C105.888,216.596 106.08,216.128 106.08,215.564 C106.08,215.024 105.888,214.604 105.528,214.292 C105.168,213.98 104.688,213.836 104.076,213.836 L103.32,213.836 L103.32,213.236 L104.004,213.236 C104.616,213.236 105.084,213.092 105.42,212.816 C105.732,212.528 105.9,212.132 105.9,211.604 C105.9,211.1 105.732,210.692 105.408,210.38 C105.06,210.068 104.58,209.912 103.98,209.912 C103.38,209.912 102.9,210.08 102.552,210.428 C102.192,210.764 101.976,211.232 101.904,211.856 L101.172,211.856 C101.244,211.052 101.544,210.416 102.06,209.948 C102.552,209.492 103.188,209.264 103.98,209.264 Z M112.248,209.264 L112.968,209.264 L112.968,214.928 L116.412,211.796 L117.396,211.796 L114.672,214.256 L117.672,218 L116.724,218 L114.156,214.724 L112.968,215.804 L112.968,218 L112.248,218 L112.248,209.264 Z M120.948,211.628 C121.932,211.628 122.58,212.048 122.892,212.9 C123.108,212.48 123.384,212.168 123.72,211.952 C124.032,211.736 124.416,211.628 124.848,211.628 C125.496,211.628 126.024,211.832 126.408,212.24 C126.78,212.648 126.972,213.212 126.972,213.944 L126.972,218 L126.252,218 L126.252,214.04 C126.252,213.452 126.132,213.008 125.892,212.72 C125.628,212.408 125.208,212.252 124.656,212.252 C124.2,212.252 123.828,212.42 123.528,212.768 C123.216,213.104 123.072,213.524 123.072,214.052 L123.072,218 L122.34,218 L122.34,214.04 C122.34,212.84 121.824,212.252 120.792,212.252 C120.324,212.252 119.94,212.432 119.628,212.816 C119.304,213.188 119.148,213.644 119.148,214.184 L119.148,218 L118.428,218 L118.428,211.796 L119.148,211.796 L119.148,212.732 C119.592,211.988 120.192,211.628 120.948,211.628 Z" id="2.3-km" fill="#FFFFFF" opacity="0.600000024"></path>
                    <path d="M152,65.2121461 L171.5,65.2121461 L171.5,70.6780673 L152,70.6780673 L152,65.2121461 Z M152,54 L171.5,54 L171.5,59.4659212 L152,59.4659212 L152,54 Z M152,77.3586377 L171.5,77.3586377 L171.5,82.8245589 L152,82.8245589 L152,77.3586377 Z M152,89.5051293 L171.5,89.5051293 L171.5,94.9710505 L152,94.9710505 L152,89.5051293 Z M152,101.651621 L171.5,101.651621 L171.5,107.117542 L152,107.117542 L152,101.651621 Z M152,113.798112 L171.5,113.798112 L171.5,119.264034 L152,119.264034 L152,113.798112 Z M152,125.944604 L171.5,125.944604 L171.5,131.410525 L152,131.410525 L152,125.944604 Z M152,138.091096 L171.5,138.091096 L171.5,143.557017 L152,143.557017 L152,138.091096 Z M152,150.237587 L171.5,150.237587 L171.5,155.703508 L152,155.703508 L152,150.237587 Z M152,162.384079 L171.5,162.384079 L171.5,167.85 L152,167.85 L152,162.384079 Z" id="Line-11-Copy-2" fill="url(#linearGradient-1)" fill-rule="nonzero"></path>
                    <polygon id="Line-11-Copy-8" fill="url(#linearGradient-1)" fill-rule="nonzero" points="380 162 399.5 162 399.5 167.85 380 167.85"></polygon>
                    <path d="M470,149 L489.5,149 L489.5,154.85 L470,154.85 L470,149 Z M470,162 L489.5,162 L489.5,167.85 L470,167.85 L470,162 Z" id="Line-11-Copy-10" fill="url(#linearGradient-1)" fill-rule="nonzero"></path>
                    <path d="M526,110 L545.5,110 L545.5,115.85 L526,115.85 L526,110 Z M526,123 L545.5,123 L545.5,128.85 L526,128.85 L526,123 Z M526,136 L545.5,136 L545.5,141.85 L526,141.85 L526,136 Z M526,149 L545.5,149 L545.5,154.85 L526,154.85 L526,149 Z M526,162 L545.5,162 L545.5,167.85 L526,167.85 L526,162 Z" id="Line-11-Copy-12" fill="url(#linearGradient-1)" fill-rule="nonzero"></path>
                    <path d="M578,71 L597.5,71 L597.5,76.85 L578,76.85 L578,71 Z M578,84 L597.5,84 L597.5,89.85 L578,89.85 L578,84 Z M578,97 L597.5,97 L597.5,102.85 L578,102.85 L578,97 Z M578,110 L597.5,110 L597.5,115.85 L578,115.85 L578,110 Z M578,123 L597.5,123 L597.5,128.85 L578,128.85 L578,123 Z M578,136 L597.5,136 L597.5,141.85 L578,141.85 L578,136 Z M578,149 L597.5,149 L597.5,154.85 L578,154.85 L578,149 Z M578,162 L597.5,162 L597.5,167.85 L578,167.85 L578,162 Z" id="Line-11-Copy-14" fill="url(#linearGradient-1)" fill-rule="nonzero"></path>
                    <g id="Group-26" transform="translate(148.000000, 188.000000)" fill="#FFFFFF">
                        <path d="M2.568,6.532 C2.136,7.348 1.668,8.068 1.164,8.704 L0.576,8.008 C1.512,6.892 2.268,5.416 2.868,3.592 L3.684,3.772 C3.468,4.456 3.228,5.092 2.964,5.692 L5.844,5.692 L5.844,3.172 L6.72,3.172 L6.72,5.692 L10.656,5.692 L10.656,6.532 L6.72,6.532 L6.72,9.568 L11.388,9.568 L11.388,10.42 L6.72,10.42 L6.72,14.14 L5.844,14.14 L5.844,10.42 L0.72,10.42 L0.72,9.568 L5.844,9.568 L5.844,6.532 L2.568,6.532 Z M14.4,3.808 L21.66,3.808 L21.66,11.164 L14.4,11.164 L14.4,3.808 Z M20.796,10.336 L20.796,7.78 L15.276,7.78 L15.276,10.336 L20.796,10.336 Z M15.276,7.024 L20.796,7.024 L20.796,4.648 L15.276,4.648 L15.276,7.024 Z M12.696,12.952 L23.316,12.952 L23.316,13.804 L12.696,13.804 L12.696,12.952 Z M25.392,3.268 C26.28,3.904 27.036,4.54 27.636,5.188 L27.024,5.8 C26.484,5.188 25.74,4.54 24.792,3.856 L25.392,3.268 Z M25.2,6.184 C26.016,6.808 26.712,7.42 27.264,8.044 L26.664,8.644 C26.16,8.056 25.476,7.432 24.6,6.772 L25.2,6.184 Z M26.7,9.328 L27.456,9.616 C26.904,11.188 26.292,12.664 25.62,14.044 L24.768,13.672 C25.512,12.256 26.148,10.816 26.7,9.328 Z M34.992,4.924 C34.992,9.1 34.932,11.692 34.812,12.676 C34.692,13.66 34.14,14.164 33.156,14.164 C32.844,14.164 32.304,14.14 31.536,14.116 L31.332,13.312 C31.98,13.336 32.556,13.36 33.036,13.36 C33.588,13.36 33.9,13.012 33.972,12.328 C34.056,11.62 34.104,9.436 34.128,5.764 L29.568,5.764 C29.112,6.652 28.548,7.444 27.876,8.14 L27.336,7.432 C28.464,6.256 29.232,4.804 29.64,3.088 L30.504,3.184 C30.36,3.796 30.168,4.372 29.952,4.924 L34.992,4.924 Z M31.812,8.62 C32.352,9.532 32.868,10.528 33.36,11.608 L32.604,11.992 C32.46,11.656 32.328,11.332 32.196,11.044 C31.02,11.308 29.712,11.512 28.284,11.644 L28.14,10.876 C28.764,10.516 29.544,9.16 30.492,6.808 L31.284,7.072 C30.612,8.644 29.928,9.892 29.232,10.816 C30.168,10.72 31.044,10.564 31.872,10.348 C31.632,9.844 31.38,9.376 31.128,8.944 L31.812,8.62 Z M41.472,5.98 C40.92,4.972 40.26,4.204 39.492,3.652 L40.212,3.196 C41.28,3.94 42.18,5.296 42.924,7.24 C44.052,10.108 45.552,12.136 47.448,13.324 L46.908,14.02 C44.964,12.844 43.38,10.66 42.144,7.492 C42.072,7.3 42.012,7.132 41.952,6.988 C41.16,10.048 39.504,12.4 36.984,14.032 L36.468,13.3 C39.036,11.62 40.704,9.172 41.472,5.98 Z M58.356,4.624 L58.356,14.008 L57.48,14.008 L57.48,13.24 L50.52,13.24 L50.52,14.008 L49.656,14.008 L49.656,4.624 L58.356,4.624 Z M50.52,12.4 L57.48,12.4 L57.48,5.464 L50.52,5.464 L50.52,12.4 Z" id="牛旦沟入口"></path>
                        <path d="M4.728,21.432 L5.436,21.432 L5.436,27.384 L6.888,27.384 L6.888,27.996 L5.436,27.996 L5.436,30 L4.728,30 L4.728,27.996 L0.312,27.996 L0.312,27.288 L4.728,21.432 Z M4.692,22.428 L0.972,27.384 L4.728,27.384 L4.728,22.428 L4.692,22.428 Z M8.748,28.8 C8.916,28.8 9.06,28.848 9.18,28.968 C9.3,29.076 9.36,29.22 9.36,29.4 C9.36,29.568 9.288,29.712 9.168,29.832 C9.048,29.94 8.916,30 8.748,30 C8.568,30 8.424,29.94 8.316,29.82 C8.196,29.7 8.136,29.568 8.136,29.4 C8.136,29.22 8.196,29.076 8.316,28.968 C8.424,28.848 8.568,28.8 8.748,28.8 Z M14.028,21.264 C15.552,21.264 16.44,22.008 16.68,23.52 L15.948,23.52 C15.744,22.44 15.096,21.9 14.016,21.9 C13.284,21.9 12.708,22.26 12.3,22.992 C11.892,23.688 11.7,24.564 11.7,25.644 L11.7,26.064 L11.748,26.064 C11.94,25.56 12.252,25.164 12.684,24.876 C13.092,24.588 13.572,24.444 14.124,24.444 C14.94,24.444 15.588,24.696 16.08,25.224 C16.572,25.74 16.824,26.412 16.824,27.252 C16.824,28.092 16.56,28.788 16.032,29.34 C15.504,29.892 14.832,30.168 14.016,30.168 C12.972,30.168 12.192,29.772 11.676,28.98 C11.208,28.26 10.98,27.252 10.98,25.932 C10.98,24.588 11.232,23.484 11.748,22.632 C12.3,21.72 13.056,21.264 14.028,21.264 Z M14.004,25.068 C13.404,25.068 12.9,25.272 12.492,25.704 C12.072,26.112 11.868,26.64 11.868,27.264 C11.868,27.888 12.048,28.416 12.42,28.848 C12.816,29.304 13.344,29.532 13.992,29.532 C14.616,29.532 15.132,29.316 15.516,28.884 C15.9,28.452 16.092,27.9 16.092,27.252 C16.092,26.592 15.9,26.064 15.528,25.668 C15.144,25.26 14.628,25.068 14.004,25.068 Z M22.248,21.264 L22.968,21.264 L22.968,26.928 L26.412,23.796 L27.396,23.796 L24.672,26.256 L27.672,30 L26.724,30 L24.156,26.724 L22.968,27.804 L22.968,30 L22.248,30 L22.248,21.264 Z M30.948,23.628 C31.932,23.628 32.58,24.048 32.892,24.9 C33.108,24.48 33.384,24.168 33.72,23.952 C34.032,23.736 34.416,23.628 34.848,23.628 C35.496,23.628 36.024,23.832 36.408,24.24 C36.78,24.648 36.972,25.212 36.972,25.944 L36.972,30 L36.252,30 L36.252,26.04 C36.252,25.452 36.132,25.008 35.892,24.72 C35.628,24.408 35.208,24.252 34.656,24.252 C34.2,24.252 33.828,24.42 33.528,24.768 C33.216,25.104 33.072,25.524 33.072,26.052 L33.072,30 L32.34,30 L32.34,26.04 C32.34,24.84 31.824,24.252 30.792,24.252 C30.324,24.252 29.94,24.432 29.628,24.816 C29.304,25.188 29.148,25.644 29.148,26.184 L29.148,30 L28.428,30 L28.428,23.796 L29.148,23.796 L29.148,24.732 C29.592,23.988 30.192,23.628 30.948,23.628 Z" id="4.6-km" opacity="0.600000024"></path>
                    </g>
                    <g id="Group-26-Copy-2" transform="translate(312.000000, 188.000000)"></g>
                    <g id="Group-26-Copy-3" transform="translate(374.000000, 188.000000)" fill="#FFFFFF">
                        <path d="M10.908,3.964 L10.908,14.02 L10.032,14.02 L10.032,13.324 L1.968,13.324 L1.968,14.02 L1.092,14.02 L1.092,3.964 L10.908,3.964 Z M1.968,12.544 L10.032,12.544 L10.032,10.456 L8.028,10.456 C7.26,10.456 6.876,10.084 6.876,9.352 L6.876,4.744 L5.124,4.744 L5.124,7.312 C5.088,9.004 4.392,10.24 3.036,11.02 L2.328,10.396 C3.6,9.748 4.248,8.728 4.272,7.312 L4.272,4.744 L1.968,4.744 L1.968,12.544 Z M7.728,4.744 L7.728,9.16 C7.728,9.484 7.896,9.652 8.256,9.652 L10.032,9.652 L10.032,4.744 L7.728,4.744 Z M21.96,9.076 C22.656,10.132 23.184,11.056 23.556,11.848 L22.896,12.328 C22.5,11.476 21.96,10.528 21.288,9.496 L21.96,9.076 Z M14.256,9.196 L15.024,9.496 C14.592,10.648 14.016,11.536 13.296,12.136 L12.648,11.572 C13.368,10.972 13.896,10.18 14.256,9.196 Z M17.016,6.256 L17.904,6.256 L17.904,7.396 L21.228,7.396 C21.18,9.004 21.12,10.312 21.024,11.32 C20.904,12.304 20.724,13 20.484,13.384 C20.22,13.756 19.824,13.96 19.272,13.996 L17.568,13.996 L17.34,13.18 C17.868,13.192 18.372,13.204 18.852,13.204 C19.416,13.204 19.788,12.892 19.968,12.28 C20.148,11.656 20.268,10.3 20.328,8.236 L17.856,8.236 C17.736,9.7 17.412,10.888 16.86,11.824 C16.212,12.856 15.168,13.66 13.716,14.236 L13.236,13.468 C14.652,12.892 15.636,12.148 16.188,11.212 C16.62,10.396 16.872,9.412 16.968,8.236 L13.716,8.236 L13.716,7.396 L17.016,7.396 L17.016,6.256 Z M12.78,4.468 L15.492,4.468 L15.492,3.244 L16.368,3.244 L16.368,4.468 L19.512,4.468 L19.512,3.244 L20.388,3.244 L20.388,4.468 L23.22,4.468 L23.22,5.296 L20.388,5.296 L20.388,6.388 L19.512,6.388 L19.512,5.296 L16.368,5.296 L16.368,6.376 L15.492,6.376 L15.492,5.296 L12.78,5.296 L12.78,4.468 Z M24.828,5.608 L29.532,5.608 L29.532,3.208 L30.42,3.208 L30.42,5.608 L35.208,5.608 L35.208,6.436 L31.212,6.436 C31.98,8.44 33.324,10.228 35.268,11.8 L34.668,12.556 C32.652,10.732 31.26,8.692 30.492,6.436 L30.42,6.436 L30.42,14.152 L29.532,14.152 L29.532,6.436 L29.448,6.436 C28.608,8.944 27.18,10.996 25.164,12.592 L24.684,11.788 C26.556,10.396 27.912,8.62 28.74,6.436 L24.828,6.436 L24.828,5.608 Z" id="四苏木"></path>
                        <path d="M0.432,21.432 L5.964,21.432 L5.964,22.044 L2.724,30 L1.932,30 L5.196,22.116 L0.432,22.116 L0.432,21.432 Z M8.064,28.8 C8.232,28.8 8.376,28.848 8.496,28.968 C8.616,29.076 8.676,29.22 8.676,29.4 C8.676,29.568 8.604,29.712 8.484,29.832 C8.364,29.94 8.232,30 8.064,30 C7.884,30 7.74,29.94 7.632,29.82 C7.512,29.7 7.452,29.568 7.452,29.4 C7.452,29.22 7.512,29.076 7.632,28.968 C7.74,28.848 7.884,28.8 8.064,28.8 Z M13.104,21.264 C14.136,21.264 14.916,21.648 15.432,22.44 C15.9,23.16 16.14,24.18 16.14,25.5 C16.14,26.844 15.876,27.936 15.372,28.8 C14.82,29.712 14.052,30.168 13.092,30.168 C11.556,30.168 10.68,29.412 10.44,27.912 L11.172,27.912 C11.364,28.992 12.012,29.532 13.104,29.532 C13.824,29.532 14.4,29.16 14.82,28.44 C15.216,27.744 15.42,26.856 15.42,25.788 L15.42,25.368 L15.372,25.368 C15.168,25.86 14.856,26.256 14.436,26.556 C14.016,26.844 13.536,26.988 12.996,26.988 C12.18,26.988 11.52,26.724 11.028,26.196 C10.536,25.68 10.296,25.008 10.296,24.18 C10.296,23.34 10.56,22.644 11.088,22.092 C11.616,21.54 12.288,21.264 13.104,21.264 Z M13.128,21.9 C12.492,21.9 11.988,22.116 11.604,22.548 C11.22,22.98 11.028,23.52 11.028,24.18 C11.028,24.828 11.208,25.356 11.592,25.764 C11.976,26.16 12.48,26.364 13.116,26.364 C13.704,26.364 14.208,26.148 14.628,25.728 C15.036,25.308 15.252,24.792 15.252,24.168 C15.252,23.544 15.06,23.016 14.7,22.584 C14.292,22.128 13.776,21.9 13.128,21.9 Z M21.564,21.264 L22.284,21.264 L22.284,26.928 L25.728,23.796 L26.712,23.796 L23.988,26.256 L26.988,30 L26.04,30 L23.472,26.724 L22.284,27.804 L22.284,30 L21.564,30 L21.564,21.264 Z M30.264,23.628 C31.248,23.628 31.896,24.048 32.208,24.9 C32.424,24.48 32.7,24.168 33.036,23.952 C33.348,23.736 33.732,23.628 34.164,23.628 C34.812,23.628 35.34,23.832 35.724,24.24 C36.096,24.648 36.288,25.212 36.288,25.944 L36.288,30 L35.568,30 L35.568,26.04 C35.568,25.452 35.448,25.008 35.208,24.72 C34.944,24.408 34.524,24.252 33.972,24.252 C33.516,24.252 33.144,24.42 32.844,24.768 C32.532,25.104 32.388,25.524 32.388,26.052 L32.388,30 L31.656,30 L31.656,26.04 C31.656,24.84 31.14,24.252 30.108,24.252 C29.64,24.252 29.256,24.432 28.944,24.816 C28.62,25.188 28.464,25.644 28.464,26.184 L28.464,30 L27.744,30 L27.744,23.796 L28.464,23.796 L28.464,24.732 C28.908,23.988 29.508,23.628 30.264,23.628 Z" id="7.9-km" opacity="0.600000024"></path>
                    </g>
                    <g id="Group-26-Copy-4" transform="translate(467.000000, 188.000000)" fill="#FFFFFF">
                        <path d="M10.656,3.256 L11.076,3.976 C9.24,4.372 6.804,4.576 3.768,4.576 L3.516,3.808 C6.396,3.808 8.772,3.616 10.656,3.256 Z M3.492,10.84 L6.732,10.84 C6.744,10.612 6.756,10.288 6.756,9.868 C5.94,9.916 5.064,9.976 4.14,10.024 L3.936,9.424 C4.776,9.208 5.7,8.776 6.732,8.116 C6.048,8.152 5.196,8.188 4.188,8.224 L4.08,7.576 C4.368,7.552 4.644,7.444 4.92,7.264 C5.328,7 5.748,6.64 6.18,6.196 L6.924,6.484 C6.408,6.94 5.916,7.324 5.436,7.612 C6.216,7.576 6.948,7.54 7.632,7.492 C8.064,7.18 8.496,6.844 8.928,6.496 L9.684,6.868 C8.328,7.936 7.104,8.752 6,9.304 C7.356,9.208 8.544,9.088 9.552,8.968 C9.336,8.632 9.132,8.332 8.928,8.056 L9.648,7.708 C10.164,8.404 10.656,9.16 11.112,10 L10.368,10.372 C10.224,10.084 10.068,9.82 9.924,9.568 C9.24,9.652 8.472,9.724 7.608,9.796 C7.596,10.324 7.584,10.672 7.56,10.84 L11.148,10.84 L11.148,11.632 L7.944,11.632 C8.544,12.496 9.696,13.084 11.388,13.396 L10.956,14.152 C9.096,13.72 7.86,12.952 7.26,11.836 C6.684,13 5.46,13.804 3.564,14.236 L3.108,13.48 C4.884,13.156 6.012,12.544 6.492,11.632 L3.492,11.632 L3.492,10.84 Z M9.96,4.48 L10.764,4.708 C10.56,5.428 10.296,6.052 9.984,6.592 L9.204,6.316 C9.492,5.836 9.744,5.224 9.96,4.48 Z M7.548,4.768 C7.692,5.2 7.812,5.692 7.92,6.232 L7.152,6.328 C7.032,5.764 6.9,5.284 6.768,4.876 L7.548,4.768 Z M4.788,4.9 C5.076,5.356 5.34,5.836 5.556,6.34 L4.836,6.652 C4.596,6.088 4.332,5.596 4.056,5.188 L4.788,4.9 Z M1.392,3.292 C2.16,3.844 2.796,4.408 3.324,4.972 L2.712,5.584 C2.232,5.056 1.596,4.48 0.78,3.88 L1.392,3.292 Z M1.176,6.28 C1.92,6.856 2.532,7.42 3.036,7.996 L2.412,8.608 C1.968,8.056 1.356,7.48 0.564,6.868 L1.176,6.28 Z M2.388,9.328 L3.144,9.628 C2.652,11.212 2.112,12.712 1.524,14.116 L0.708,13.756 C1.356,12.316 1.908,10.84 2.388,9.328 Z M16.044,5.944 C16.74,6.808 17.388,7.636 17.976,8.428 C18.456,7.528 18.84,6.556 19.128,5.524 L19.98,5.668 C19.62,6.964 19.14,8.14 18.54,9.196 C19.272,10.228 19.896,11.188 20.412,12.064 L19.632,12.592 C19.152,11.764 18.624,10.9 18.024,10.012 C17.28,11.092 16.404,12.016 15.372,12.796 L14.796,12.064 C15.864,11.248 16.764,10.312 17.484,9.232 C16.836,8.308 16.116,7.36 15.336,6.376 L16.044,5.944 Z M13.908,3.676 L21.672,3.676 L21.672,8.476 C21.672,10.444 21.732,11.704 21.876,12.256 C22.008,12.796 22.164,13.072 22.356,13.072 C22.512,13.072 22.644,12.52 22.752,11.428 L23.52,11.8 C23.376,12.7 23.22,13.312 23.052,13.648 C22.872,13.936 22.668,14.08 22.452,14.08 C21.876,14.08 21.468,13.696 21.204,12.952 C20.916,12.22 20.784,10.732 20.784,8.476 L20.784,4.516 L14.772,4.516 L14.772,8.332 C14.748,10.66 14.256,12.616 13.308,14.2 L12.588,13.612 C13.428,12.208 13.872,10.444 13.908,8.332 L13.908,3.676 Z M27.924,10.168 L32.136,10.168 L32.136,13.396 L27.924,13.396 L27.924,10.168 Z M31.344,12.652 L31.344,10.9 L28.716,10.9 L28.716,12.652 L31.344,12.652 Z M28.92,5.296 L29.652,5.452 C29.532,5.692 29.4,5.932 29.28,6.16 L32.376,6.16 L32.376,6.772 C31.92,7.432 31.368,8.008 30.744,8.512 C31.512,8.872 32.424,9.172 33.468,9.424 L33.096,10.192 C31.896,9.832 30.888,9.436 30.072,8.992 C29.148,9.568 28.08,10.012 26.88,10.324 L26.472,9.604 C27.552,9.364 28.512,9.004 29.34,8.548 C28.896,8.248 28.524,7.936 28.224,7.612 C27.948,7.9 27.66,8.176 27.36,8.428 L26.844,7.804 C27.684,7.156 28.38,6.328 28.92,5.296 Z M30,8.128 C30.54,7.756 31.008,7.336 31.416,6.88 L28.812,6.88 C28.752,6.952 28.704,7.024 28.656,7.084 C29.016,7.468 29.46,7.816 30,8.128 Z M33.684,14.164 L32.88,14.164 L32.664,13.36 L33.504,13.384 C33.816,13.384 33.984,13.168 33.984,12.736 L33.984,4.636 L29.376,4.636 L29.376,3.844 L34.824,3.844 L34.824,12.988 C34.824,13.768 34.44,14.164 33.684,14.164 Z M25.2,5.068 L26.04,5.068 L26.04,14.212 L25.2,14.212 L25.2,5.068 Z M26.856,3.088 C27.384,3.688 27.852,4.336 28.26,5.044 L27.492,5.44 C27.06,4.684 26.592,4.012 26.076,3.436 L26.856,3.088 Z" id="溪风阁"></path>
                        <path d="M2.748,21.432 L3.348,21.432 L3.348,30 L2.604,30 L2.604,22.344 C2.052,22.944 1.368,23.364 0.552,23.604 L0.552,22.86 C0.948,22.74 1.344,22.56 1.728,22.32 C2.112,22.068 2.46,21.768 2.748,21.432 Z M8.352,21.264 C9.384,21.264 10.152,21.732 10.656,22.68 C11.064,23.436 11.28,24.444 11.28,25.716 C11.28,26.976 11.064,27.984 10.656,28.752 C10.152,29.688 9.384,30.168 8.352,30.168 C7.32,30.168 6.552,29.688 6.048,28.752 C5.628,27.984 5.424,26.976 5.424,25.716 C5.424,24.444 5.628,23.436 6.048,22.68 C6.552,21.732 7.32,21.264 8.352,21.264 Z M8.352,21.912 C7.524,21.912 6.924,22.332 6.564,23.184 C6.3,23.808 6.168,24.66 6.168,25.716 C6.168,26.772 6.3,27.612 6.564,28.248 C6.924,29.088 7.524,29.52 8.352,29.52 C9.168,29.52 9.768,29.088 10.14,28.248 C10.404,27.612 10.548,26.772 10.548,25.716 C10.548,24.66 10.404,23.808 10.14,23.184 C9.768,22.332 9.168,21.912 8.352,21.912 Z M13.5,28.8 C13.668,28.8 13.812,28.848 13.932,28.968 C14.052,29.076 14.112,29.22 14.112,29.4 C14.112,29.568 14.04,29.712 13.92,29.832 C13.8,29.94 13.668,30 13.5,30 C13.32,30 13.176,29.94 13.068,29.82 C12.948,29.7 12.888,29.568 12.888,29.4 C12.888,29.22 12.948,29.076 13.068,28.968 C13.176,28.848 13.32,28.8 13.5,28.8 Z M16.392,21.432 L21.24,21.432 L21.24,22.104 L17.004,22.104 L16.704,25.26 L16.74,25.26 C16.992,24.96 17.304,24.732 17.688,24.576 C18.036,24.42 18.408,24.348 18.804,24.348 C19.62,24.348 20.28,24.6 20.784,25.104 C21.3,25.632 21.564,26.352 21.564,27.276 C21.564,28.116 21.264,28.824 20.688,29.376 C20.124,29.904 19.428,30.168 18.588,30.168 C17.844,30.168 17.22,29.964 16.704,29.556 C16.116,29.112 15.792,28.5 15.732,27.732 L16.464,27.732 C16.524,28.308 16.764,28.764 17.184,29.088 C17.556,29.376 18.024,29.532 18.588,29.532 C19.236,29.532 19.776,29.316 20.196,28.896 C20.616,28.464 20.832,27.924 20.832,27.276 C20.832,26.544 20.628,25.968 20.232,25.56 C19.848,25.164 19.32,24.972 18.66,24.972 C18.228,24.972 17.832,25.068 17.484,25.26 C17.124,25.464 16.848,25.752 16.656,26.112 L15.96,26.112 L16.392,21.432 Z M27,21.264 L27.72,21.264 L27.72,26.928 L31.164,23.796 L32.148,23.796 L29.424,26.256 L32.424,30 L31.476,30 L28.908,26.724 L27.72,27.804 L27.72,30 L27,30 L27,21.264 Z M35.7,23.628 C36.684,23.628 37.332,24.048 37.644,24.9 C37.86,24.48 38.136,24.168 38.472,23.952 C38.784,23.736 39.168,23.628 39.6,23.628 C40.248,23.628 40.776,23.832 41.16,24.24 C41.532,24.648 41.724,25.212 41.724,25.944 L41.724,30 L41.004,30 L41.004,26.04 C41.004,25.452 40.884,25.008 40.644,24.72 C40.38,24.408 39.96,24.252 39.408,24.252 C38.952,24.252 38.58,24.42 38.28,24.768 C37.968,25.104 37.824,25.524 37.824,26.052 L37.824,30 L37.092,30 L37.092,26.04 C37.092,24.84 36.576,24.252 35.544,24.252 C35.076,24.252 34.692,24.432 34.38,24.816 C34.056,25.188 33.9,25.644 33.9,26.184 L33.9,30 L33.18,30 L33.18,23.796 L33.9,23.796 L33.9,24.732 C34.344,23.988 34.944,23.628 35.7,23.628 Z" id="10.5-km" opacity="0.600000024"></path>
                    </g>
                    <g id="Group-26-Copy-5" transform="translate(520.000000, 188.000000)" fill="#FFFFFF">
                        <path d="M1.368,4.24 L3.828,4.24 L3.828,3.22 L4.656,3.22 L4.656,4.24 L7.296,4.24 L7.296,3.208 L8.124,3.208 L8.124,4.24 L10.68,4.24 L10.68,5.008 L8.124,5.008 L8.124,6.088 L11.316,6.088 L11.316,6.868 L6.42,6.868 L6.42,7.792 L9.948,7.792 L9.948,11.98 L2.052,11.98 L2.052,7.792 L5.58,7.792 L5.58,6.868 L0.696,6.868 L0.696,6.088 L3.828,6.088 L3.828,5.008 L1.368,5.008 L1.368,4.24 Z M7.296,6.088 L7.296,5.008 L4.656,5.008 L4.656,6.088 L7.296,6.088 Z M9.108,11.236 L9.108,10.228 L6.42,10.228 L6.42,11.236 L9.108,11.236 Z M5.58,11.236 L5.58,10.228 L2.892,10.228 L2.892,11.236 L5.58,11.236 Z M2.892,9.508 L5.58,9.508 L5.58,8.524 L2.892,8.524 L2.892,9.508 Z M6.42,8.524 L6.42,9.508 L9.108,9.508 L9.108,8.524 L6.42,8.524 Z M7.44,12.124 C8.856,12.484 10.152,12.94 11.328,13.468 L10.872,14.188 C9.624,13.576 8.34,13.096 7.02,12.748 L7.44,12.124 Z M4.344,12.052 L4.848,12.628 C3.84,13.252 2.568,13.768 1.044,14.176 L0.684,13.42 C2.16,13.072 3.384,12.616 4.344,12.052 Z M21.684,14.02 L19.512,14.02 C18.756,14.02 18.384,13.612 18.384,12.82 L18.384,10.936 C17.856,11.188 17.328,11.428 16.788,11.644 L16.308,10.924 C17.052,10.624 17.736,10.312 18.384,9.988 L18.384,6.484 L19.26,6.484 L19.26,9.508 C20.568,8.74 21.636,7.9 22.476,6.988 L23.076,7.6 C21.996,8.704 20.724,9.652 19.26,10.468 L19.26,12.64 C19.26,13.036 19.416,13.24 19.752,13.24 L21.528,13.24 C21.84,13.24 22.068,13.144 22.212,12.976 C22.38,12.772 22.488,12.172 22.548,11.188 L23.376,11.44 C23.28,12.664 23.088,13.42 22.824,13.684 C22.584,13.9 22.2,14.02 21.684,14.02 Z M14.58,9.604 C14.052,10.18 13.476,10.732 12.84,11.248 L12.588,10.384 C13.98,9.208 14.988,7.876 15.624,6.376 L16.404,6.736 C16.14,7.336 15.828,7.912 15.468,8.464 L15.468,14.236 L14.58,14.236 L14.58,9.604 Z M12.828,4.288 L15.42,4.288 L15.42,3.172 L16.272,3.172 L16.272,4.288 L19.74,4.288 L19.74,3.172 L20.592,3.172 L20.592,4.288 L23.184,4.288 L23.184,5.104 L20.592,5.104 L20.592,6.16 L19.74,6.16 L19.74,5.104 L16.272,5.104 L16.272,6.16 L15.42,6.16 L15.42,5.104 L12.828,5.104 L12.828,4.288 Z M25.392,3.268 C26.28,3.904 27.036,4.54 27.636,5.188 L27.024,5.8 C26.484,5.188 25.74,4.54 24.792,3.856 L25.392,3.268 Z M25.2,6.184 C26.016,6.808 26.712,7.42 27.264,8.044 L26.664,8.644 C26.16,8.056 25.476,7.432 24.6,6.772 L25.2,6.184 Z M26.7,9.328 L27.456,9.616 C26.904,11.188 26.292,12.664 25.62,14.044 L24.768,13.672 C25.512,12.256 26.148,10.816 26.7,9.328 Z M34.992,4.924 C34.992,9.1 34.932,11.692 34.812,12.676 C34.692,13.66 34.14,14.164 33.156,14.164 C32.844,14.164 32.304,14.14 31.536,14.116 L31.332,13.312 C31.98,13.336 32.556,13.36 33.036,13.36 C33.588,13.36 33.9,13.012 33.972,12.328 C34.056,11.62 34.104,9.436 34.128,5.764 L29.568,5.764 C29.112,6.652 28.548,7.444 27.876,8.14 L27.336,7.432 C28.464,6.256 29.232,4.804 29.64,3.088 L30.504,3.184 C30.36,3.796 30.168,4.372 29.952,4.924 L34.992,4.924 Z M31.812,8.62 C32.352,9.532 32.868,10.528 33.36,11.608 L32.604,11.992 C32.46,11.656 32.328,11.332 32.196,11.044 C31.02,11.308 29.712,11.512 28.284,11.644 L28.14,10.876 C28.764,10.516 29.544,9.16 30.492,6.808 L31.284,7.072 C30.612,8.644 29.928,9.892 29.232,10.816 C30.168,10.72 31.044,10.564 31.872,10.348 C31.632,9.844 31.38,9.376 31.128,8.944 L31.812,8.62 Z M42.636,11.584 C43.236,12.328 43.68,12.988 43.992,13.54 L43.308,14.02 C42.996,13.408 42.552,12.724 42,11.98 L42.636,11.584 Z M40.512,9.688 L40.512,12.916 C40.944,12.796 41.376,12.664 41.796,12.52 L41.952,13.324 C41.268,13.528 40.452,13.744 39.504,13.96 L39.312,13.18 C39.54,13.12 39.66,13.012 39.66,12.844 L39.66,6.496 C41.94,6.376 44.112,6.112 46.152,5.728 L46.596,6.448 C45.72,6.616 44.796,6.748 43.836,6.868 C43.908,7.624 43.98,8.296 44.076,8.872 L46.992,8.872 L46.992,9.688 L44.22,9.688 C44.292,10.072 44.376,10.408 44.46,10.696 C44.688,11.488 44.964,12.1 45.288,12.544 C45.6,12.94 45.876,13.144 46.104,13.144 C46.296,13.12 46.476,12.556 46.656,11.476 L47.376,11.944 C47.028,13.348 46.632,14.056 46.188,14.056 C45.804,14.056 45.396,13.816 44.988,13.36 C44.544,12.88 44.16,12.172 43.824,11.26 C43.668,10.852 43.524,10.324 43.404,9.688 L40.512,9.688 Z M42.996,6.964 C42.18,7.048 41.352,7.12 40.512,7.18 L40.512,8.872 L43.26,8.872 C43.164,8.296 43.068,7.66 42.996,6.964 Z M42.336,3.172 C42.528,3.508 42.72,3.868 42.9,4.276 L47.316,4.276 L47.316,5.116 L38.436,5.116 L38.436,7.84 C38.388,10.456 37.98,12.556 37.188,14.14 L36.54,13.564 C37.2,12.196 37.548,10.288 37.572,7.84 L37.572,4.276 L42.012,4.276 C41.844,3.928 41.652,3.604 41.436,3.316 L42.336,3.172 Z" id="黄花沟底"></path>
                        <path d="M2.748,21.432 L3.348,21.432 L3.348,30 L2.604,30 L2.604,22.344 C2.052,22.944 1.368,23.364 0.552,23.604 L0.552,22.86 C0.948,22.74 1.344,22.56 1.728,22.32 C2.112,22.068 2.46,21.768 2.748,21.432 Z M8.46,21.264 C9.228,21.264 9.864,21.48 10.368,21.936 C10.872,22.38 11.124,22.968 11.124,23.712 C11.124,24.456 10.836,25.128 10.272,25.728 C9.996,26.016 9.408,26.472 8.496,27.096 C7.272,27.924 6.6,28.668 6.468,29.328 L11.136,29.328 L11.136,30 L5.568,30 C5.568,29.28 5.844,28.596 6.42,27.96 C6.768,27.564 7.368,27.072 8.22,26.484 C8.964,25.956 9.444,25.572 9.672,25.344 C10.14,24.84 10.38,24.288 10.38,23.7 C10.38,23.136 10.2,22.692 9.852,22.38 C9.504,22.068 9.036,21.912 8.448,21.912 C7.824,21.912 7.332,22.116 6.972,22.536 C6.588,22.956 6.396,23.568 6.396,24.36 L5.652,24.36 C5.652,23.4 5.916,22.644 6.444,22.092 C6.948,21.54 7.62,21.264 8.46,21.264 Z M13.5,28.8 C13.668,28.8 13.812,28.848 13.932,28.968 C14.052,29.076 14.112,29.22 14.112,29.4 C14.112,29.568 14.04,29.712 13.92,29.832 C13.8,29.94 13.668,30 13.5,30 C13.32,30 13.176,29.94 13.068,29.82 C12.948,29.7 12.888,29.568 12.888,29.4 C12.888,29.22 12.948,29.076 13.068,28.968 C13.176,28.848 13.32,28.8 13.5,28.8 Z M19.776,21.432 L20.484,21.432 L20.484,27.384 L21.936,27.384 L21.936,27.996 L20.484,27.996 L20.484,30 L19.776,30 L19.776,27.996 L15.36,27.996 L15.36,27.288 L19.776,21.432 Z M19.74,22.428 L16.02,27.384 L19.776,27.384 L19.776,22.428 L19.74,22.428 Z M27,21.264 L27.72,21.264 L27.72,26.928 L31.164,23.796 L32.148,23.796 L29.424,26.256 L32.424,30 L31.476,30 L28.908,26.724 L27.72,27.804 L27.72,30 L27,30 L27,21.264 Z M35.7,23.628 C36.684,23.628 37.332,24.048 37.644,24.9 C37.86,24.48 38.136,24.168 38.472,23.952 C38.784,23.736 39.168,23.628 39.6,23.628 C40.248,23.628 40.776,23.832 41.16,24.24 C41.532,24.648 41.724,25.212 41.724,25.944 L41.724,30 L41.004,30 L41.004,26.04 C41.004,25.452 40.884,25.008 40.644,24.72 C40.38,24.408 39.96,24.252 39.408,24.252 C38.952,24.252 38.58,24.42 38.28,24.768 C37.968,25.104 37.824,25.524 37.824,26.052 L37.824,30 L37.092,30 L37.092,26.04 C37.092,24.84 36.576,24.252 35.544,24.252 C35.076,24.252 34.692,24.432 34.38,24.816 C34.056,25.188 33.9,25.644 33.9,26.184 L33.9,30 L33.18,30 L33.18,23.796 L33.9,23.796 L33.9,24.732 C34.344,23.988 34.944,23.628 35.7,23.628 Z" id="12.4-km" opacity="0.600000024"></path>
                    </g>
                    <g id="Group-26-Copy-6" transform="translate(576.000000, 188.000000)" fill="#FFFFFF">
                        <path d="M4.452,11.824 L4.452,12.7 C3.348,13.108 2.088,13.444 0.684,13.708 L0.564,12.808 C2.04,12.568 3.336,12.232 4.452,11.824 Z M2.532,3.16 L3.336,3.472 C2.748,4.984 2.148,6.184 1.524,7.096 C2.04,7.036 2.556,6.952 3.072,6.856 C3.312,6.364 3.564,5.836 3.828,5.284 L4.584,5.56 C3.516,7.744 2.64,9.292 1.944,10.204 C2.616,10.036 3.3,9.82 3.972,9.556 L3.972,10.336 C2.916,10.732 1.896,11.008 0.936,11.152 L0.708,10.36 C0.852,10.3 0.984,10.216 1.092,10.12 C1.536,9.628 2.064,8.8 2.688,7.624 C2.028,7.744 1.368,7.864 0.708,7.96 L0.504,7.168 C0.636,7.12 0.756,7.012 0.852,6.856 C1.5,5.776 2.052,4.552 2.532,3.16 Z M6.912,9.616 C8.112,9.988 9.216,10.444 10.2,10.972 L9.768,11.632 C8.688,11.056 7.596,10.612 6.468,10.276 L6.912,9.616 Z M5.46,11.656 C7.38,12.16 9.132,12.76 10.716,13.48 L10.26,14.2 C8.544,13.432 6.78,12.82 4.98,12.376 L5.46,11.656 Z M6.6,3.16 L7.476,3.268 C7.368,3.64 7.248,4 7.116,4.336 L10.56,4.336 L10.56,5.044 C10.044,6.028 9.432,6.88 8.712,7.612 C9.564,8.212 10.512,8.74 11.568,9.172 L11.124,9.952 C10.02,9.472 9.012,8.872 8.112,8.176 C7.116,9.004 5.964,9.64 4.644,10.096 L4.224,9.328 C5.448,8.944 6.516,8.38 7.452,7.636 C6.936,7.204 6.456,6.724 6.024,6.22 C5.724,6.604 5.388,6.964 5.028,7.3 L4.488,6.592 C5.52,5.656 6.228,4.504 6.6,3.16 Z M8.052,7.108 C8.628,6.544 9.132,5.896 9.576,5.176 L6.72,5.176 C6.636,5.32 6.552,5.452 6.48,5.584 C6.948,6.136 7.476,6.64 8.052,7.108 Z M17.376,3.22 L18.228,3.22 L18.228,4.384 L22.884,4.384 L22.884,5.2 L18.228,5.2 L18.228,6.724 L22.056,6.724 L22.056,10.576 L14.112,10.576 L14.112,6.724 L17.376,6.724 L17.376,3.22 Z M21.192,9.772 L21.192,7.54 L14.976,7.54 L14.976,9.772 L21.192,9.772 Z M14.088,11.104 L14.82,11.452 C14.364,12.496 13.848,13.396 13.248,14.164 L12.54,13.648 C13.14,12.94 13.656,12.088 14.088,11.104 Z M16.704,11.452 C16.944,12.244 17.16,13.108 17.352,14.032 L16.488,14.224 C16.32,13.24 16.128,12.376 15.9,11.62 L16.704,11.452 Z M19.212,11.332 C19.572,12.148 19.884,13.048 20.148,14.008 L19.296,14.2 C19.056,13.18 18.756,12.28 18.396,11.5 L19.212,11.332 Z M21.672,11.092 C22.44,12.1 23.016,12.976 23.424,13.72 L22.704,14.224 C22.284,13.408 21.708,12.52 20.976,11.536 L21.672,11.092 Z" id="终点"></path>
                        <path d="M2.748,21.432 L3.348,21.432 L3.348,30 L2.604,30 L2.604,22.344 C2.052,22.944 1.368,23.364 0.552,23.604 L0.552,22.86 C0.948,22.74 1.344,22.56 1.728,22.32 C2.112,22.068 2.46,21.768 2.748,21.432 Z M6.096,21.432 L10.944,21.432 L10.944,22.104 L6.708,22.104 L6.408,25.26 L6.444,25.26 C6.696,24.96 7.008,24.732 7.392,24.576 C7.74,24.42 8.112,24.348 8.508,24.348 C9.324,24.348 9.984,24.6 10.488,25.104 C11.004,25.632 11.268,26.352 11.268,27.276 C11.268,28.116 10.968,28.824 10.392,29.376 C9.828,29.904 9.132,30.168 8.292,30.168 C7.548,30.168 6.924,29.964 6.408,29.556 C5.82,29.112 5.496,28.5 5.436,27.732 L6.168,27.732 C6.228,28.308 6.468,28.764 6.888,29.088 C7.26,29.376 7.728,29.532 8.292,29.532 C8.94,29.532 9.48,29.316 9.9,28.896 C10.32,28.464 10.536,27.924 10.536,27.276 C10.536,26.544 10.332,25.968 9.936,25.56 C9.552,25.164 9.024,24.972 8.364,24.972 C7.932,24.972 7.536,25.068 7.188,25.26 C6.828,25.464 6.552,25.752 6.36,26.112 L5.664,26.112 L6.096,21.432 Z M16.704,21.264 L17.424,21.264 L17.424,26.928 L20.868,23.796 L21.852,23.796 L19.128,26.256 L22.128,30 L21.18,30 L18.612,26.724 L17.424,27.804 L17.424,30 L16.704,30 L16.704,21.264 Z M25.404,23.628 C26.388,23.628 27.036,24.048 27.348,24.9 C27.564,24.48 27.84,24.168 28.176,23.952 C28.488,23.736 28.872,23.628 29.304,23.628 C29.952,23.628 30.48,23.832 30.864,24.24 C31.236,24.648 31.428,25.212 31.428,25.944 L31.428,30 L30.708,30 L30.708,26.04 C30.708,25.452 30.588,25.008 30.348,24.72 C30.084,24.408 29.664,24.252 29.112,24.252 C28.656,24.252 28.284,24.42 27.984,24.768 C27.672,25.104 27.528,25.524 27.528,26.052 L27.528,30 L26.796,30 L26.796,26.04 C26.796,24.84 26.28,24.252 25.248,24.252 C24.78,24.252 24.396,24.432 24.084,24.816 C23.76,25.188 23.604,25.644 23.604,26.184 L23.604,30 L22.884,30 L22.884,23.796 L23.604,23.796 L23.604,24.732 C24.048,23.988 24.648,23.628 25.404,23.628 Z" id="15-km" opacity="0.600000024"></path>
                    </g>
                    <path d="M5.748,158.432 L6.348,158.432 L6.348,167 L5.604,167 L5.604,159.344 C5.052,159.944 4.368,160.364 3.552,160.604 L3.552,159.86 C3.948,159.74 4.344,159.56 4.728,159.32 C5.112,159.068 5.46,158.768 5.748,158.432 Z M11.352,158.264 C12.228,158.264 12.912,158.492 13.404,158.948 C13.848,159.356 14.076,159.86 14.076,160.484 C14.076,160.94 13.956,161.336 13.728,161.672 C13.488,162.008 13.128,162.26 12.672,162.404 L12.672,162.452 C13.14,162.548 13.536,162.8 13.872,163.208 C14.208,163.616 14.376,164.108 14.376,164.66 C14.376,165.404 14.112,166.004 13.608,166.46 C13.08,166.928 12.324,167.168 11.352,167.168 C10.368,167.168 9.624,166.928 9.096,166.46 C8.58,166.004 8.328,165.404 8.328,164.66 C8.328,164.108 8.496,163.616 8.832,163.208 C9.156,162.8 9.564,162.548 10.044,162.452 L10.044,162.404 C9.576,162.26 9.216,162.008 8.976,161.672 C8.736,161.336 8.628,160.94 8.628,160.484 C8.628,159.86 8.844,159.356 9.3,158.948 C9.78,158.492 10.464,158.264 11.352,158.264 Z M11.352,158.888 C10.68,158.888 10.164,159.056 9.804,159.392 C9.492,159.68 9.336,160.052 9.336,160.508 C9.336,160.976 9.48,161.36 9.768,161.648 C10.116,161.984 10.644,162.152 11.352,162.152 C12.048,162.152 12.576,161.984 12.936,161.648 C13.224,161.36 13.368,160.976 13.368,160.508 C13.368,160.052 13.212,159.68 12.9,159.392 C12.528,159.056 12.012,158.888 11.352,158.888 Z M11.352,162.752 C10.608,162.752 10.032,162.932 9.624,163.316 C9.24,163.652 9.048,164.108 9.048,164.66 C9.048,165.212 9.228,165.668 9.612,166.004 C10.008,166.364 10.584,166.556 11.352,166.556 C12.108,166.556 12.696,166.364 13.104,166.004 C13.464,165.668 13.656,165.212 13.656,164.66 C13.656,164.108 13.464,163.652 13.08,163.316 C12.672,162.932 12.096,162.752 11.352,162.752 Z M18.552,158.264 C19.584,158.264 20.352,158.732 20.856,159.68 C21.264,160.436 21.48,161.444 21.48,162.716 C21.48,163.976 21.264,164.984 20.856,165.752 C20.352,166.688 19.584,167.168 18.552,167.168 C17.52,167.168 16.752,166.688 16.248,165.752 C15.828,164.984 15.624,163.976 15.624,162.716 C15.624,161.444 15.828,160.436 16.248,159.68 C16.752,158.732 17.52,158.264 18.552,158.264 Z M18.552,158.912 C17.724,158.912 17.124,159.332 16.764,160.184 C16.5,160.808 16.368,161.66 16.368,162.716 C16.368,163.772 16.5,164.612 16.764,165.248 C17.124,166.088 17.724,166.52 18.552,166.52 C19.368,166.52 19.968,166.088 20.34,165.248 C20.604,164.612 20.748,163.772 20.748,162.716 C20.748,161.66 20.604,160.808 20.34,160.184 C19.968,159.332 19.368,158.912 18.552,158.912 Z M25.752,158.264 C26.784,158.264 27.552,158.732 28.056,159.68 C28.464,160.436 28.68,161.444 28.68,162.716 C28.68,163.976 28.464,164.984 28.056,165.752 C27.552,166.688 26.784,167.168 25.752,167.168 C24.72,167.168 23.952,166.688 23.448,165.752 C23.028,164.984 22.824,163.976 22.824,162.716 C22.824,161.444 23.028,160.436 23.448,159.68 C23.952,158.732 24.72,158.264 25.752,158.264 Z M25.752,158.912 C24.924,158.912 24.324,159.332 23.964,160.184 C23.7,160.808 23.568,161.66 23.568,162.716 C23.568,163.772 23.7,164.612 23.964,165.248 C24.324,166.088 24.924,166.52 25.752,166.52 C26.568,166.52 27.168,166.088 27.54,165.248 C27.804,164.612 27.948,163.772 27.948,162.716 C27.948,161.66 27.804,160.808 27.54,160.184 C27.168,159.332 26.568,158.912 25.752,158.912 Z" id="1800" fill="#FFFFFF"></path>
                    <path d="M5.748,135.432 L6.348,135.432 L6.348,144 L5.604,144 L5.604,136.344 C5.052,136.944 4.368,137.364 3.552,137.604 L3.552,136.86 C3.948,136.74 4.344,136.56 4.728,136.32 C5.112,136.068 5.46,135.768 5.748,135.432 Z M11.352,135.264 C12.228,135.264 12.912,135.492 13.404,135.948 C13.848,136.356 14.076,136.86 14.076,137.484 C14.076,137.94 13.956,138.336 13.728,138.672 C13.488,139.008 13.128,139.26 12.672,139.404 L12.672,139.452 C13.14,139.548 13.536,139.8 13.872,140.208 C14.208,140.616 14.376,141.108 14.376,141.66 C14.376,142.404 14.112,143.004 13.608,143.46 C13.08,143.928 12.324,144.168 11.352,144.168 C10.368,144.168 9.624,143.928 9.096,143.46 C8.58,143.004 8.328,142.404 8.328,141.66 C8.328,141.108 8.496,140.616 8.832,140.208 C9.156,139.8 9.564,139.548 10.044,139.452 L10.044,139.404 C9.576,139.26 9.216,139.008 8.976,138.672 C8.736,138.336 8.628,137.94 8.628,137.484 C8.628,136.86 8.844,136.356 9.3,135.948 C9.78,135.492 10.464,135.264 11.352,135.264 Z M11.352,135.888 C10.68,135.888 10.164,136.056 9.804,136.392 C9.492,136.68 9.336,137.052 9.336,137.508 C9.336,137.976 9.48,138.36 9.768,138.648 C10.116,138.984 10.644,139.152 11.352,139.152 C12.048,139.152 12.576,138.984 12.936,138.648 C13.224,138.36 13.368,137.976 13.368,137.508 C13.368,137.052 13.212,136.68 12.9,136.392 C12.528,136.056 12.012,135.888 11.352,135.888 Z M11.352,139.752 C10.608,139.752 10.032,139.932 9.624,140.316 C9.24,140.652 9.048,141.108 9.048,141.66 C9.048,142.212 9.228,142.668 9.612,143.004 C10.008,143.364 10.584,143.556 11.352,143.556 C12.108,143.556 12.696,143.364 13.104,143.004 C13.464,142.668 13.656,142.212 13.656,141.66 C13.656,141.108 13.464,140.652 13.08,140.316 C12.672,139.932 12.096,139.752 11.352,139.752 Z M16.296,135.432 L21.144,135.432 L21.144,136.104 L16.908,136.104 L16.608,139.26 L16.644,139.26 C16.896,138.96 17.208,138.732 17.592,138.576 C17.94,138.42 18.312,138.348 18.708,138.348 C19.524,138.348 20.184,138.6 20.688,139.104 C21.204,139.632 21.468,140.352 21.468,141.276 C21.468,142.116 21.168,142.824 20.592,143.376 C20.028,143.904 19.332,144.168 18.492,144.168 C17.748,144.168 17.124,143.964 16.608,143.556 C16.02,143.112 15.696,142.5 15.636,141.732 L16.368,141.732 C16.428,142.308 16.668,142.764 17.088,143.088 C17.46,143.376 17.928,143.532 18.492,143.532 C19.14,143.532 19.68,143.316 20.1,142.896 C20.52,142.464 20.736,141.924 20.736,141.276 C20.736,140.544 20.532,139.968 20.136,139.56 C19.752,139.164 19.224,138.972 18.564,138.972 C18.132,138.972 17.736,139.068 17.388,139.26 C17.028,139.464 16.752,139.752 16.56,140.112 L15.864,140.112 L16.296,135.432 Z M25.752,135.264 C26.784,135.264 27.552,135.732 28.056,136.68 C28.464,137.436 28.68,138.444 28.68,139.716 C28.68,140.976 28.464,141.984 28.056,142.752 C27.552,143.688 26.784,144.168 25.752,144.168 C24.72,144.168 23.952,143.688 23.448,142.752 C23.028,141.984 22.824,140.976 22.824,139.716 C22.824,138.444 23.028,137.436 23.448,136.68 C23.952,135.732 24.72,135.264 25.752,135.264 Z M25.752,135.912 C24.924,135.912 24.324,136.332 23.964,137.184 C23.7,137.808 23.568,138.66 23.568,139.716 C23.568,140.772 23.7,141.612 23.964,142.248 C24.324,143.088 24.924,143.52 25.752,143.52 C26.568,143.52 27.168,143.088 27.54,142.248 C27.804,141.612 27.948,140.772 27.948,139.716 C27.948,138.66 27.804,137.808 27.54,137.184 C27.168,136.332 26.568,135.912 25.752,135.912 Z" id="1850" fill="#FFFFFF"></path>
                    <path d="M5.748,113.432 L6.348,113.432 L6.348,122 L5.604,122 L5.604,114.344 C5.052,114.944 4.368,115.364 3.552,115.604 L3.552,114.86 C3.948,114.74 4.344,114.56 4.728,114.32 C5.112,114.068 5.46,113.768 5.748,113.432 Z M11.244,113.264 C12.276,113.264 13.056,113.648 13.572,114.44 C14.04,115.16 14.28,116.18 14.28,117.5 C14.28,118.844 14.016,119.936 13.512,120.8 C12.96,121.712 12.192,122.168 11.232,122.168 C9.696,122.168 8.82,121.412 8.58,119.912 L9.312,119.912 C9.504,120.992 10.152,121.532 11.244,121.532 C11.964,121.532 12.54,121.16 12.96,120.44 C13.356,119.744 13.56,118.856 13.56,117.788 L13.56,117.368 L13.512,117.368 C13.308,117.86 12.996,118.256 12.576,118.556 C12.156,118.844 11.676,118.988 11.136,118.988 C10.32,118.988 9.66,118.724 9.168,118.196 C8.676,117.68 8.436,117.008 8.436,116.18 C8.436,115.34 8.7,114.644 9.228,114.092 C9.756,113.54 10.428,113.264 11.244,113.264 Z M11.268,113.9 C10.632,113.9 10.128,114.116 9.744,114.548 C9.36,114.98 9.168,115.52 9.168,116.18 C9.168,116.828 9.348,117.356 9.732,117.764 C10.116,118.16 10.62,118.364 11.256,118.364 C11.844,118.364 12.348,118.148 12.768,117.728 C13.176,117.308 13.392,116.792 13.392,116.168 C13.392,115.544 13.2,115.016 12.84,114.584 C12.432,114.128 11.916,113.9 11.268,113.9 Z M18.552,113.264 C19.584,113.264 20.352,113.732 20.856,114.68 C21.264,115.436 21.48,116.444 21.48,117.716 C21.48,118.976 21.264,119.984 20.856,120.752 C20.352,121.688 19.584,122.168 18.552,122.168 C17.52,122.168 16.752,121.688 16.248,120.752 C15.828,119.984 15.624,118.976 15.624,117.716 C15.624,116.444 15.828,115.436 16.248,114.68 C16.752,113.732 17.52,113.264 18.552,113.264 Z M18.552,113.912 C17.724,113.912 17.124,114.332 16.764,115.184 C16.5,115.808 16.368,116.66 16.368,117.716 C16.368,118.772 16.5,119.612 16.764,120.248 C17.124,121.088 17.724,121.52 18.552,121.52 C19.368,121.52 19.968,121.088 20.34,120.248 C20.604,119.612 20.748,118.772 20.748,117.716 C20.748,116.66 20.604,115.808 20.34,115.184 C19.968,114.332 19.368,113.912 18.552,113.912 Z M25.752,113.264 C26.784,113.264 27.552,113.732 28.056,114.68 C28.464,115.436 28.68,116.444 28.68,117.716 C28.68,118.976 28.464,119.984 28.056,120.752 C27.552,121.688 26.784,122.168 25.752,122.168 C24.72,122.168 23.952,121.688 23.448,120.752 C23.028,119.984 22.824,118.976 22.824,117.716 C22.824,116.444 23.028,115.436 23.448,114.68 C23.952,113.732 24.72,113.264 25.752,113.264 Z M25.752,113.912 C24.924,113.912 24.324,114.332 23.964,115.184 C23.7,115.808 23.568,116.66 23.568,117.716 C23.568,118.772 23.7,119.612 23.964,120.248 C24.324,121.088 24.924,121.52 25.752,121.52 C26.568,121.52 27.168,121.088 27.54,120.248 C27.804,119.612 27.948,118.772 27.948,117.716 C27.948,116.66 27.804,115.808 27.54,115.184 C27.168,114.332 26.568,113.912 25.752,113.912 Z" id="1900" fill="#FFFFFF"></path>
                    <path d="M5.748,90.432 L6.348,90.432 L6.348,99 L5.604,99 L5.604,91.344 C5.052,91.944 4.368,92.364 3.552,92.604 L3.552,91.86 C3.948,91.74 4.344,91.56 4.728,91.32 C5.112,91.068 5.46,90.768 5.748,90.432 Z M11.244,90.264 C12.276,90.264 13.056,90.648 13.572,91.44 C14.04,92.16 14.28,93.18 14.28,94.5 C14.28,95.844 14.016,96.936 13.512,97.8 C12.96,98.712 12.192,99.168 11.232,99.168 C9.696,99.168 8.82,98.412 8.58,96.912 L9.312,96.912 C9.504,97.992 10.152,98.532 11.244,98.532 C11.964,98.532 12.54,98.16 12.96,97.44 C13.356,96.744 13.56,95.856 13.56,94.788 L13.56,94.368 L13.512,94.368 C13.308,94.86 12.996,95.256 12.576,95.556 C12.156,95.844 11.676,95.988 11.136,95.988 C10.32,95.988 9.66,95.724 9.168,95.196 C8.676,94.68 8.436,94.008 8.436,93.18 C8.436,92.34 8.7,91.644 9.228,91.092 C9.756,90.54 10.428,90.264 11.244,90.264 Z M11.268,90.9 C10.632,90.9 10.128,91.116 9.744,91.548 C9.36,91.98 9.168,92.52 9.168,93.18 C9.168,93.828 9.348,94.356 9.732,94.764 C10.116,95.16 10.62,95.364 11.256,95.364 C11.844,95.364 12.348,95.148 12.768,94.728 C13.176,94.308 13.392,93.792 13.392,93.168 C13.392,92.544 13.2,92.016 12.84,91.584 C12.432,91.128 11.916,90.9 11.268,90.9 Z M16.296,90.432 L21.144,90.432 L21.144,91.104 L16.908,91.104 L16.608,94.26 L16.644,94.26 C16.896,93.96 17.208,93.732 17.592,93.576 C17.94,93.42 18.312,93.348 18.708,93.348 C19.524,93.348 20.184,93.6 20.688,94.104 C21.204,94.632 21.468,95.352 21.468,96.276 C21.468,97.116 21.168,97.824 20.592,98.376 C20.028,98.904 19.332,99.168 18.492,99.168 C17.748,99.168 17.124,98.964 16.608,98.556 C16.02,98.112 15.696,97.5 15.636,96.732 L16.368,96.732 C16.428,97.308 16.668,97.764 17.088,98.088 C17.46,98.376 17.928,98.532 18.492,98.532 C19.14,98.532 19.68,98.316 20.1,97.896 C20.52,97.464 20.736,96.924 20.736,96.276 C20.736,95.544 20.532,94.968 20.136,94.56 C19.752,94.164 19.224,93.972 18.564,93.972 C18.132,93.972 17.736,94.068 17.388,94.26 C17.028,94.464 16.752,94.752 16.56,95.112 L15.864,95.112 L16.296,90.432 Z M25.752,90.264 C26.784,90.264 27.552,90.732 28.056,91.68 C28.464,92.436 28.68,93.444 28.68,94.716 C28.68,95.976 28.464,96.984 28.056,97.752 C27.552,98.688 26.784,99.168 25.752,99.168 C24.72,99.168 23.952,98.688 23.448,97.752 C23.028,96.984 22.824,95.976 22.824,94.716 C22.824,93.444 23.028,92.436 23.448,91.68 C23.952,90.732 24.72,90.264 25.752,90.264 Z M25.752,90.912 C24.924,90.912 24.324,91.332 23.964,92.184 C23.7,92.808 23.568,93.66 23.568,94.716 C23.568,95.772 23.7,96.612 23.964,97.248 C24.324,98.088 24.924,98.52 25.752,98.52 C26.568,98.52 27.168,98.088 27.54,97.248 C27.804,96.612 27.948,95.772 27.948,94.716 C27.948,93.66 27.804,92.808 27.54,92.184 C27.168,91.332 26.568,90.912 25.752,90.912 Z" id="1950" fill="#FFFFFF"></path>
                    <path d="M6.708,67.264 C7.476,67.264 8.112,67.48 8.616,67.936 C9.12,68.38 9.372,68.968 9.372,69.712 C9.372,70.456 9.084,71.128 8.52,71.728 C8.244,72.016 7.656,72.472 6.744,73.096 C5.52,73.924 4.848,74.668 4.716,75.328 L9.384,75.328 L9.384,76 L3.816,76 C3.816,75.28 4.092,74.596 4.668,73.96 C5.016,73.564 5.616,73.072 6.468,72.484 C7.212,71.956 7.692,71.572 7.92,71.344 C8.388,70.84 8.628,70.288 8.628,69.7 C8.628,69.136 8.448,68.692 8.1,68.38 C7.752,68.068 7.284,67.912 6.696,67.912 C6.072,67.912 5.58,68.116 5.22,68.536 C4.836,68.956 4.644,69.568 4.644,70.36 L3.9,70.36 C3.9,69.4 4.164,68.644 4.692,68.092 C5.196,67.54 5.868,67.264 6.708,67.264 Z M13.8,67.264 C14.832,67.264 15.6,67.732 16.104,68.68 C16.512,69.436 16.728,70.444 16.728,71.716 C16.728,72.976 16.512,73.984 16.104,74.752 C15.6,75.688 14.832,76.168 13.8,76.168 C12.768,76.168 12,75.688 11.496,74.752 C11.076,73.984 10.872,72.976 10.872,71.716 C10.872,70.444 11.076,69.436 11.496,68.68 C12,67.732 12.768,67.264 13.8,67.264 Z M13.8,67.912 C12.972,67.912 12.372,68.332 12.012,69.184 C11.748,69.808 11.616,70.66 11.616,71.716 C11.616,72.772 11.748,73.612 12.012,74.248 C12.372,75.088 12.972,75.52 13.8,75.52 C14.616,75.52 15.216,75.088 15.588,74.248 C15.852,73.612 15.996,72.772 15.996,71.716 C15.996,70.66 15.852,69.808 15.588,69.184 C15.216,68.332 14.616,67.912 13.8,67.912 Z M21,67.264 C22.032,67.264 22.8,67.732 23.304,68.68 C23.712,69.436 23.928,70.444 23.928,71.716 C23.928,72.976 23.712,73.984 23.304,74.752 C22.8,75.688 22.032,76.168 21,76.168 C19.968,76.168 19.2,75.688 18.696,74.752 C18.276,73.984 18.072,72.976 18.072,71.716 C18.072,70.444 18.276,69.436 18.696,68.68 C19.2,67.732 19.968,67.264 21,67.264 Z M21,67.912 C20.172,67.912 19.572,68.332 19.212,69.184 C18.948,69.808 18.816,70.66 18.816,71.716 C18.816,72.772 18.948,73.612 19.212,74.248 C19.572,75.088 20.172,75.52 21,75.52 C21.816,75.52 22.416,75.088 22.788,74.248 C23.052,73.612 23.196,72.772 23.196,71.716 C23.196,70.66 23.052,69.808 22.788,69.184 C22.416,68.332 21.816,67.912 21,67.912 Z M28.2,67.264 C29.232,67.264 30,67.732 30.504,68.68 C30.912,69.436 31.128,70.444 31.128,71.716 C31.128,72.976 30.912,73.984 30.504,74.752 C30,75.688 29.232,76.168 28.2,76.168 C27.168,76.168 26.4,75.688 25.896,74.752 C25.476,73.984 25.272,72.976 25.272,71.716 C25.272,70.444 25.476,69.436 25.896,68.68 C26.4,67.732 27.168,67.264 28.2,67.264 Z M28.2,67.912 C27.372,67.912 26.772,68.332 26.412,69.184 C26.148,69.808 26.016,70.66 26.016,71.716 C26.016,72.772 26.148,73.612 26.412,74.248 C26.772,75.088 27.372,75.52 28.2,75.52 C29.016,75.52 29.616,75.088 29.988,74.248 C30.252,73.612 30.396,72.772 30.396,71.716 C30.396,70.66 30.252,69.808 29.988,69.184 C29.616,68.332 29.016,67.912 28.2,67.912 Z" id="2000" fill="#FFFFFF"></path>
                    <path d="M6.708,45.264 C7.476,45.264 8.112,45.48 8.616,45.936 C9.12,46.38 9.372,46.968 9.372,47.712 C9.372,48.456 9.084,49.128 8.52,49.728 C8.244,50.016 7.656,50.472 6.744,51.096 C5.52,51.924 4.848,52.668 4.716,53.328 L9.384,53.328 L9.384,54 L3.816,54 C3.816,53.28 4.092,52.596 4.668,51.96 C5.016,51.564 5.616,51.072 6.468,50.484 C7.212,49.956 7.692,49.572 7.92,49.344 C8.388,48.84 8.628,48.288 8.628,47.7 C8.628,47.136 8.448,46.692 8.1,46.38 C7.752,46.068 7.284,45.912 6.696,45.912 C6.072,45.912 5.58,46.116 5.22,46.536 C4.836,46.956 4.644,47.568 4.644,48.36 L3.9,48.36 C3.9,47.4 4.164,46.644 4.692,46.092 C5.196,45.54 5.868,45.264 6.708,45.264 Z M13.8,45.264 C14.832,45.264 15.6,45.732 16.104,46.68 C16.512,47.436 16.728,48.444 16.728,49.716 C16.728,50.976 16.512,51.984 16.104,52.752 C15.6,53.688 14.832,54.168 13.8,54.168 C12.768,54.168 12,53.688 11.496,52.752 C11.076,51.984 10.872,50.976 10.872,49.716 C10.872,48.444 11.076,47.436 11.496,46.68 C12,45.732 12.768,45.264 13.8,45.264 Z M13.8,45.912 C12.972,45.912 12.372,46.332 12.012,47.184 C11.748,47.808 11.616,48.66 11.616,49.716 C11.616,50.772 11.748,51.612 12.012,52.248 C12.372,53.088 12.972,53.52 13.8,53.52 C14.616,53.52 15.216,53.088 15.588,52.248 C15.852,51.612 15.996,50.772 15.996,49.716 C15.996,48.66 15.852,47.808 15.588,47.184 C15.216,46.332 14.616,45.912 13.8,45.912 Z M18.744,45.432 L23.592,45.432 L23.592,46.104 L19.356,46.104 L19.056,49.26 L19.092,49.26 C19.344,48.96 19.656,48.732 20.04,48.576 C20.388,48.42 20.76,48.348 21.156,48.348 C21.972,48.348 22.632,48.6 23.136,49.104 C23.652,49.632 23.916,50.352 23.916,51.276 C23.916,52.116 23.616,52.824 23.04,53.376 C22.476,53.904 21.78,54.168 20.94,54.168 C20.196,54.168 19.572,53.964 19.056,53.556 C18.468,53.112 18.144,52.5 18.084,51.732 L18.816,51.732 C18.876,52.308 19.116,52.764 19.536,53.088 C19.908,53.376 20.376,53.532 20.94,53.532 C21.588,53.532 22.128,53.316 22.548,52.896 C22.968,52.464 23.184,51.924 23.184,51.276 C23.184,50.544 22.98,49.968 22.584,49.56 C22.2,49.164 21.672,48.972 21.012,48.972 C20.58,48.972 20.184,49.068 19.836,49.26 C19.476,49.464 19.2,49.752 19.008,50.112 L18.312,50.112 L18.744,45.432 Z M28.2,45.264 C29.232,45.264 30,45.732 30.504,46.68 C30.912,47.436 31.128,48.444 31.128,49.716 C31.128,50.976 30.912,51.984 30.504,52.752 C30,53.688 29.232,54.168 28.2,54.168 C27.168,54.168 26.4,53.688 25.896,52.752 C25.476,51.984 25.272,50.976 25.272,49.716 C25.272,48.444 25.476,47.436 25.896,46.68 C26.4,45.732 27.168,45.264 28.2,45.264 Z M28.2,45.912 C27.372,45.912 26.772,46.332 26.412,47.184 C26.148,47.808 26.016,48.66 26.016,49.716 C26.016,50.772 26.148,51.612 26.412,52.248 C26.772,53.088 27.372,53.52 28.2,53.52 C29.016,53.52 29.616,53.088 29.988,52.248 C30.252,51.612 30.396,50.772 30.396,49.716 C30.396,48.66 30.252,47.808 29.988,47.184 C29.616,46.332 29.016,45.912 28.2,45.912 Z" id="2050" fill="#FFFFFF"></path>
                    <path d="M6.708,22.264 C7.476,22.264 8.112,22.48 8.616,22.936 C9.12,23.38 9.372,23.968 9.372,24.712 C9.372,25.456 9.084,26.128 8.52,26.728 C8.244,27.016 7.656,27.472 6.744,28.096 C5.52,28.924 4.848,29.668 4.716,30.328 L9.384,30.328 L9.384,31 L3.816,31 C3.816,30.28 4.092,29.596 4.668,28.96 C5.016,28.564 5.616,28.072 6.468,27.484 C7.212,26.956 7.692,26.572 7.92,26.344 C8.388,25.84 8.628,25.288 8.628,24.7 C8.628,24.136 8.448,23.692 8.1,23.38 C7.752,23.068 7.284,22.912 6.696,22.912 C6.072,22.912 5.58,23.116 5.22,23.536 C4.836,23.956 4.644,24.568 4.644,25.36 L3.9,25.36 C3.9,24.4 4.164,23.644 4.692,23.092 C5.196,22.54 5.868,22.264 6.708,22.264 Z M12.948,22.432 L13.548,22.432 L13.548,31 L12.804,31 L12.804,23.344 C12.252,23.944 11.568,24.364 10.752,24.604 L10.752,23.86 C11.148,23.74 11.544,23.56 11.928,23.32 C12.312,23.068 12.66,22.768 12.948,22.432 Z M18.552,22.264 C19.584,22.264 20.352,22.732 20.856,23.68 C21.264,24.436 21.48,25.444 21.48,26.716 C21.48,27.976 21.264,28.984 20.856,29.752 C20.352,30.688 19.584,31.168 18.552,31.168 C17.52,31.168 16.752,30.688 16.248,29.752 C15.828,28.984 15.624,27.976 15.624,26.716 C15.624,25.444 15.828,24.436 16.248,23.68 C16.752,22.732 17.52,22.264 18.552,22.264 Z M18.552,22.912 C17.724,22.912 17.124,23.332 16.764,24.184 C16.5,24.808 16.368,25.66 16.368,26.716 C16.368,27.772 16.5,28.612 16.764,29.248 C17.124,30.088 17.724,30.52 18.552,30.52 C19.368,30.52 19.968,30.088 20.34,29.248 C20.604,28.612 20.748,27.772 20.748,26.716 C20.748,25.66 20.604,24.808 20.34,24.184 C19.968,23.332 19.368,22.912 18.552,22.912 Z M25.752,22.264 C26.784,22.264 27.552,22.732 28.056,23.68 C28.464,24.436 28.68,25.444 28.68,26.716 C28.68,27.976 28.464,28.984 28.056,29.752 C27.552,30.688 26.784,31.168 25.752,31.168 C24.72,31.168 23.952,30.688 23.448,29.752 C23.028,28.984 22.824,27.976 22.824,26.716 C22.824,25.444 23.028,24.436 23.448,23.68 C23.952,22.732 24.72,22.264 25.752,22.264 Z M25.752,22.912 C24.924,22.912 24.324,23.332 23.964,24.184 C23.7,24.808 23.568,25.66 23.568,26.716 C23.568,27.772 23.7,28.612 23.964,29.248 C24.324,30.088 24.924,30.52 25.752,30.52 C26.568,30.52 27.168,30.088 27.54,29.248 C27.804,28.612 27.948,27.772 27.948,26.716 C27.948,25.66 27.804,24.808 27.54,24.184 C27.168,23.332 26.568,22.912 25.752,22.912 Z" id="2100" fill="#FFFFFF"></path>
                    <path d="M5.124,1.852 C4.692,2.572 4.2,3.22 3.624,3.772 L3.204,3.268 C4.056,2.452 4.728,1.408 5.232,0.148 L5.868,0.304 C5.736,0.628 5.592,0.94 5.448,1.24 L11.136,1.24 L11.136,1.852 L5.124,1.852 Z M3.06,5.824 L4.392,5.824 C4.488,4.9 4.548,3.964 4.572,3.004 L10.512,3.004 C10.476,4.06 10.44,5.008 10.404,5.824 L11.484,5.824 L11.484,6.436 L10.38,6.436 C10.332,7.432 10.296,8.224 10.26,8.8 L11.292,8.8 L11.292,9.388 L10.212,9.388 C10.164,9.736 10.128,9.964 10.104,10.06 C9.984,10.444 9.756,10.72 9.42,10.912 C9.096,11.068 8.616,11.152 7.968,11.152 L6.984,11.152 L6.792,10.564 C7.188,10.576 7.548,10.588 7.872,10.588 C8.232,10.588 8.556,10.552 8.844,10.492 C9.132,10.396 9.348,10.204 9.492,9.892 C9.516,9.82 9.552,9.652 9.588,9.388 L3.864,9.388 C4.056,8.428 4.212,7.444 4.332,6.436 L3.06,6.436 L3.06,5.824 Z M4.944,6.436 C4.848,7.3 4.728,8.08 4.584,8.8 L9.636,8.8 C9.684,8.212 9.72,7.42 9.768,6.436 L4.944,6.436 Z M9.792,5.824 C9.816,5.152 9.852,4.396 9.876,3.58 L5.148,3.58 C5.112,4.372 5.064,5.128 5.004,5.824 L9.792,5.824 Z M6.828,3.928 C7.44,4.336 7.956,4.744 8.364,5.152 L7.944,5.572 C7.56,5.188 7.044,4.768 6.408,4.324 L6.828,3.928 Z M6.732,6.772 C7.332,7.216 7.824,7.66 8.232,8.116 L7.812,8.536 C7.44,8.104 6.936,7.648 6.312,7.168 L6.732,6.772 Z M1.284,0.472 C2.028,0.964 2.664,1.456 3.168,1.948 L2.7,2.404 C2.244,1.936 1.608,1.444 0.816,0.928 L1.284,0.472 Z M1.104,3.4 C1.848,3.904 2.472,4.408 2.976,4.912 L2.52,5.38 C2.052,4.9 1.428,4.384 0.648,3.844 L1.104,3.4 Z M2.496,6.832 L3.06,7.048 C2.556,8.452 1.98,9.772 1.356,11.008 L0.744,10.744 C1.416,9.472 1.992,8.164 2.496,6.832 Z M12.708,2.5 L14.172,2.5 L14.172,0.244 L14.82,0.244 L14.82,2.5 L16.248,2.5 L16.248,3.136 L14.82,3.136 L14.82,6.004 C15.384,5.788 15.924,5.548 16.452,5.284 L16.452,5.944 C15.924,6.196 15.372,6.424 14.82,6.64 L14.82,10.12 C14.82,10.72 14.532,11.032 13.98,11.032 L12.888,11.032 L12.744,10.42 C13.092,10.444 13.428,10.456 13.752,10.456 C14.028,10.456 14.172,10.288 14.172,9.952 L14.172,6.88 C13.692,7.048 13.2,7.192 12.708,7.336 L12.54,6.688 C13.092,6.556 13.644,6.4 14.172,6.232 L14.172,3.136 L12.708,3.136 L12.708,2.5 Z M16.824,2.212 L18.228,2.212 C18.252,1.588 18.276,0.928 18.288,0.232 L18.936,0.232 C18.924,0.928 18.9,1.588 18.876,2.212 L23.304,2.212 L23.304,2.848 L18.84,2.848 C18.792,3.52 18.744,4.132 18.696,4.684 L22.692,4.684 L22.692,5.248 C22.38,6.736 21.804,7.996 20.988,9.028 C21.696,9.664 22.548,10.18 23.556,10.576 L23.22,11.176 C22.176,10.744 21.288,10.192 20.556,9.508 C19.884,10.18 19.104,10.744 18.192,11.176 L17.856,10.588 C18.72,10.18 19.464,9.652 20.088,9.028 C19.368,8.236 18.84,7.3 18.48,6.22 C18.42,6.58 18.36,6.904 18.288,7.192 C17.88,8.74 17.22,10.06 16.308,11.152 L15.888,10.636 C16.728,9.628 17.316,8.404 17.676,6.988 C17.916,6.004 18.096,4.624 18.204,2.848 L16.824,2.848 L16.824,2.212 Z M18.768,5.296 C19.104,6.592 19.68,7.672 20.508,8.56 C21.24,7.648 21.756,6.568 22.068,5.296 L18.768,5.296 Z M21.036,0.196 C21.612,0.724 22.056,1.18 22.368,1.588 L21.864,1.936 C21.552,1.504 21.108,1.036 20.532,0.52 L21.036,0.196 Z M28.872,1.432 L29.844,1.432 L33.204,9.076 L33.24,9.076 L36.576,1.432 L37.548,1.432 L37.548,10 L36.816,10 L36.816,2.644 L36.78,2.644 L33.564,10 L32.856,10 L29.652,2.644 L29.604,2.644 L29.604,10 L28.872,10 L28.872,1.432 Z" id="海拔-M" fill="#FFFFFF" opacity="0.600000024"></path>
                    <polyline id="Path-11" stroke="#F4BF3E" stroke-width="2" points="57 59 103 50 131 44 163 59 390 166 482 151 537 110 588 71"></polyline>
                </g>
                <g id="Group-37" transform="translate(39.000000, 263.000000)" fill="#FFFFFF">
                    <path d="M5.484,34.128 L4.404,34.128 L4.272,33.516 C4.608,33.54 4.944,33.564 5.268,33.564 C5.568,33.564 5.724,33.396 5.724,33.06 L5.724,31.296 C4.224,31.368 2.844,31.416 1.584,31.44 L1.44,30.804 C1.632,30.804 1.836,30.816 2.04,30.816 C3.372,30.504 4.716,30.024 6.084,29.376 C4.812,29.436 3.576,29.496 2.364,29.568 L2.244,28.992 C2.532,28.992 2.748,28.968 2.868,28.92 C3.564,28.572 4.284,28.128 5.028,27.6 L1.956,27.6 L1.956,23.712 L10.044,23.712 L10.044,27.6 L5.94,27.6 C5.184,28.188 4.404,28.68 3.6,29.076 C4.752,29.028 5.892,28.968 7.008,28.908 C7.464,28.668 7.92,28.404 8.352,28.14 L8.904,28.512 C7.176,29.568 5.352,30.36 3.432,30.888 C5.388,30.816 7.368,30.72 9.36,30.576 C9.072,30.276 8.772,29.976 8.436,29.676 L8.94,29.352 C9.816,30.144 10.488,30.852 10.956,31.452 L10.44,31.812 C10.248,31.56 10.032,31.308 9.804,31.056 C8.58,31.14 7.44,31.212 6.372,31.26 L6.372,33.216 C6.372,33.816 6.072,34.128 5.484,34.128 Z M7.704,31.896 C8.952,32.304 10.092,32.808 11.124,33.408 L10.764,33.948 C9.66,33.288 8.532,32.772 7.368,32.388 L7.704,31.896 Z M4.08,31.908 L4.476,32.352 C3.576,32.988 2.424,33.516 1.02,33.948 L0.732,33.348 C2.076,32.988 3.192,32.508 4.08,31.908 Z M9.408,27.06 L9.408,25.92 L6.324,25.92 L6.324,27.06 L9.408,27.06 Z M6.324,25.392 L9.408,25.392 L9.408,24.252 L6.324,24.252 L6.324,25.392 Z M5.676,27.06 L5.676,25.92 L2.592,25.92 L2.592,27.06 L5.676,27.06 Z M2.592,25.392 L5.676,25.392 L5.676,24.252 L2.592,24.252 L2.592,25.392 Z M16.332,26.904 L19.656,26.904 L19.656,23.208 L20.328,23.208 L20.328,26.904 L23.496,26.904 L23.496,27.552 L20.328,27.552 L20.328,34.2 L19.656,34.2 L19.656,27.552 L16.332,27.552 L16.332,26.904 Z M13.848,23.352 C14.676,23.988 15.372,24.624 15.948,25.26 L15.504,25.716 C14.976,25.116 14.268,24.468 13.38,23.796 L13.848,23.352 Z M12.564,26.964 L15.036,26.964 L15.036,32.484 C15.516,32.1 16.032,31.644 16.596,31.104 L16.764,31.776 C16.044,32.484 15.264,33.12 14.424,33.672 L14.172,33.096 C14.316,32.952 14.4,32.808 14.4,32.664 L14.4,27.6 L12.564,27.6 L12.564,26.964 Z M32.616,24.552 L31.356,24.552 L31.356,27.468 L32.616,27.468 L32.616,24.552 Z M33.192,27.468 L34.392,27.468 L34.392,24.552 L33.192,24.552 L33.192,27.468 Z M34.98,23.94 L34.98,28.08 L31.356,28.08 L31.356,30.384 C31.356,30.72 31.536,30.888 31.884,30.888 L34.128,30.888 C34.38,30.876 34.56,30.756 34.656,30.528 C34.728,30.324 34.788,29.88 34.824,29.208 L35.412,29.4 C35.364,30.06 35.292,30.54 35.196,30.828 C35.028,31.26 34.716,31.476 34.284,31.476 L31.68,31.476 C31.068,31.476 30.768,31.164 30.768,30.564 L30.768,23.94 L34.98,23.94 Z M29.796,23.232 L30.228,23.712 C29.988,23.808 29.76,23.904 29.52,23.988 C29.52,25.908 29.544,27.672 29.604,29.28 C29.664,30.852 30.048,31.908 30.768,32.448 C31.656,33.132 33.216,33.48 35.46,33.492 L35.22,34.092 C32.82,34.044 31.14,33.612 30.204,32.784 C29.7,32.28 29.352,31.548 29.172,30.588 C29.028,29.832 28.944,27.696 28.932,24.18 C28.596,24.276 28.236,24.372 27.876,24.444 L27.876,34.008 L27.252,34.008 L27.252,24.552 C26.868,24.612 26.484,24.66 26.076,24.708 L26.076,28.152 C26.028,30.48 25.668,32.46 24.984,34.092 L24.54,33.636 C25.14,32.088 25.464,30.264 25.488,28.152 L25.488,24.18 C27.276,24.012 28.716,23.7 29.796,23.232 Z M42.276,23.34 L42.6,23.88 C41.88,24.192 41.136,24.444 40.344,24.66 L40.344,27.852 L43.8,27.852 L43.8,23.34 L44.448,23.34 L44.448,27.852 L47.292,27.852 L47.292,28.5 L44.448,28.5 L44.448,34.164 L43.8,34.164 L43.8,28.5 L40.332,28.5 C40.212,31.068 39.24,32.952 37.392,34.164 L36.9,33.732 C38.652,32.628 39.576,30.876 39.684,28.5 L36.696,28.5 L36.696,27.852 L39.696,27.852 L39.696,24.816 C38.88,24.996 38.028,25.128 37.14,25.2 L36.936,24.6 C39.012,24.42 40.788,24 42.276,23.34 Z" id="累计爬升" opacity="0.600000024"></path>
                    <path d="M4.24,14 L4.24,11.88 L0.18,11.88 L0.18,9.96 L3.12,-0.24 L5.28,-0.24 L2.22,9.96 L4.24,9.96 L4.24,5.9 L6.28,5.9 L6.28,9.96 L7.26,9.96 L7.26,11.88 L6.28,11.88 L6.28,14 L4.24,14 Z M8.58,14 L12.16,1.68 L9.92,1.68 L9.92,3.32 L8.12,3.32 L8.12,-0.24 L14.2,-0.24 L14.2,1.8 L10.74,14 L8.58,14 Z M19.6,2.68 C19.6,2.3999986 19.500001,2.1633343 19.3,1.97 C19.099999,1.7766657 18.866668,1.68 18.6,1.68 C18.333332,1.68 18.100001,1.7766657 17.9,1.97 C17.699999,2.1633343 17.6,2.3999986 17.6,2.68 L17.6,4.76 C17.6,5.0400014 17.699999,5.2766657 17.9,5.47 C18.100001,5.6633343 18.333332,5.76 18.6,5.76 C18.866668,5.76 19.099999,5.6633343 19.3,5.47 C19.500001,5.2766657 19.6,5.0400014 19.6,4.76 L19.6,2.68 Z M15.56,3.48 C15.56,3.0933314 15.5733332,2.7633347 15.6,2.49 C15.6266668,2.2166653 15.673333,1.980001 15.74,1.78 C15.806667,1.579999 15.8833329,1.4000008 15.97,1.24 C16.0566671,1.0799992 16.166666,0.9133342 16.3,0.74 C16.566668,0.3933316 16.899998,0.1233343 17.3,-0.07 C17.700002,-0.2633343 18.133331,-0.36 18.6,-0.36 C19.066669,-0.36 19.499998,-0.2633343 19.9,-0.07 C20.300002,0.1233343 20.633332,0.3933316 20.9,0.74 C21.033334,0.9133342 21.1466662,1.0799992 21.24,1.24 C21.3333338,1.4000008 21.413333,1.579999 21.48,1.78 C21.546667,1.980001 21.5899999,2.2166653 21.61,2.49 C21.6300001,2.7633347 21.64,3.0933314 21.64,3.48 C21.64,3.9066688 21.6333334,4.2666652 21.62,4.56 C21.6066666,4.8533348 21.566667,5.1133322 21.5,5.34 C21.433333,5.5666678 21.3300007,5.7699991 21.19,5.95 C21.0499993,6.1300009 20.8600012,6.319999 20.62,6.52 C20.8600012,6.7066676 21.0499993,6.8933324 21.19,7.08 C21.3300007,7.2666676 21.433333,7.4866654 21.5,7.74 C21.566667,7.9933346 21.6066666,8.3033315 21.62,8.67 C21.6333334,9.0366685 21.64,9.486664 21.64,10.02 C21.64,10.4600022 21.6300001,10.8233319 21.61,11.11 C21.5899999,11.3966681 21.5600002,11.6466656 21.52,11.86 C21.4799998,12.0733344 21.4233337,12.2533326 21.35,12.4 C21.2766663,12.5466674 21.1866672,12.6999992 21.08,12.86 C20.8533322,13.2066684 20.5333354,13.5033321 20.12,13.75 C19.7066646,13.9966679 19.200003,14.12 18.6,14.12 C17.999997,14.12 17.4933354,13.9966679 17.08,13.75 C16.6666646,13.5033321 16.3466678,13.2066684 16.12,12.86 C16.0133328,12.6999992 15.9233337,12.5466674 15.85,12.4 C15.7766663,12.2533326 15.7200002,12.0733344 15.68,11.86 C15.6399998,11.6466656 15.6100001,11.3966681 15.59,11.11 C15.5699999,10.8233319 15.56,10.4600022 15.56,10.02 C15.56,9.486664 15.5666666,9.0366685 15.58,8.67 C15.5933334,8.3033315 15.633333,7.9933346 15.7,7.74 C15.766667,7.4866654 15.8699993,7.2666676 16.01,7.08 C16.1500007,6.8933324 16.3399988,6.7066676 16.58,6.52 C16.3399988,6.319999 16.1500007,6.1300009 16.01,5.95 C15.8699993,5.7699991 15.766667,5.5666678 15.7,5.34 C15.633333,5.1133322 15.5933334,4.8533348 15.58,4.56 C15.5666666,4.2666652 15.56,3.9066688 15.56,3.48 Z M19.6,8.28 C19.6,7.9999986 19.500001,7.7633343 19.3,7.57 C19.099999,7.3766657 18.866668,7.28 18.6,7.28 C18.333332,7.28 18.100001,7.3766657 17.9,7.57 C17.699999,7.7633343 17.6,7.9999986 17.6,8.28 L17.6,11.08 C17.6,11.3600014 17.699999,11.5966657 17.9,11.79 C18.100001,11.9833343 18.333332,12.08 18.6,12.08 C18.866668,12.08 19.099999,11.9833343 19.3,11.79 C19.500001,11.5966657 19.6,11.3600014 19.6,11.08 L19.6,8.28 Z M26.88,14 L26.88,3.86 L28.92,3.86 L28.92,4.84 L28.96,4.84 C29.1733344,4.5199984 29.4299985,4.2566677 29.73,4.05 C30.0300015,3.8433323 30.413331,3.74 30.88,3.74 C31.3200022,3.74 31.6866652,3.8466656 31.98,4.06 C32.2733348,4.2733344 32.5133324,4.5066654 32.7,4.76 C32.9533346,4.4799986 33.2333318,4.240001 33.54,4.04 C33.8466682,3.839999 34.2733306,3.74 34.82,3.74 C35.0733346,3.74 35.333332,3.7833329 35.6,3.87 C35.866668,3.9566671 36.1066656,4.099999 36.32,4.3 C36.5333344,4.500001 36.706666,4.7566651 36.84,5.07 C36.973334,5.3833349 37.04,5.7666644 37.04,6.22 L37.04,14 L35,14 L35,6.98 C35,6.6066648 34.9133342,6.3133344 34.74,6.1 C34.5666658,5.8866656 34.3200016,5.78 34,5.78 C33.6133314,5.78 33.3466674,5.8999988 33.2,6.14 C33.0533326,6.3800012 32.98,6.7266644 32.98,7.18 L32.98,14 L30.94,14 L30.94,6.98 C30.94,6.6066648 30.8533342,6.3133344 30.68,6.1 C30.5066658,5.8866656 30.2600016,5.78 29.94,5.78 C29.5533314,5.78 29.2866674,5.8999988 29.14,6.14 C28.9933326,6.3800012 28.92,6.7266644 28.92,7.18 L28.92,14 L26.88,14 Z" id="478-m"></path>
                </g>
                <g id="Group-37-Copy" transform="translate(119.000000, 263.000000)" fill="#FFFFFF">
                    <path d="M0.744,27.948 L11.28,27.948 L11.28,28.5 L5.832,28.5 L5.832,32.472 C6.096,32.424 6.348,32.388 6.588,32.352 L6.588,32.88 C6.348,32.916 6.096,32.952 5.832,33 L5.832,34.188 L5.208,34.188 L5.208,33.072 C4.02,33.216 2.58,33.324 0.888,33.42 L0.804,32.844 L1.956,32.796 L1.956,28.5 L0.744,28.5 L0.744,27.948 Z M2.568,32.76 C3.528,32.7 4.416,32.628 5.208,32.544 L5.208,31.596 L2.568,31.596 L2.568,32.76 Z M2.568,31.092 L5.208,31.092 L5.208,30.048 L2.568,30.048 L2.568,31.092 Z M2.568,29.544 L5.208,29.544 L5.208,28.5 L2.568,28.5 L2.568,29.544 Z M2.352,23.712 L9.732,23.712 L9.732,27.024 L2.352,27.024 L2.352,23.712 Z M9.096,26.52 L9.096,25.596 L2.964,25.596 L2.964,26.52 L9.096,26.52 Z M2.964,25.116 L9.096,25.116 L9.096,24.216 L2.964,24.216 L2.964,25.116 Z M6.948,30 L6.564,30 L6.564,29.436 L10.584,29.436 L10.584,29.964 C10.332,30.924 9.888,31.764 9.264,32.46 C9.84,32.904 10.512,33.288 11.28,33.624 L10.944,34.152 C10.104,33.756 9.408,33.324 8.856,32.868 C8.28,33.384 7.596,33.816 6.78,34.164 L6.444,33.66 C7.212,33.324 7.86,32.928 8.4,32.46 C7.68,31.728 7.188,30.912 6.948,30 Z M8.808,32.064 C9.348,31.452 9.732,30.768 9.972,30 L7.524,30 C7.764,30.78 8.184,31.464 8.808,32.064 Z M18.024,23.16 C18.168,23.496 18.3,23.868 18.432,24.288 L23.268,24.288 L23.268,24.912 L12.72,24.912 L12.72,24.288 L17.748,24.288 C17.616,23.916 17.472,23.58 17.316,23.28 L18.024,23.16 Z M21.372,34.14 L20.352,34.14 L20.196,33.552 L21.168,33.576 C21.708,33.576 21.984,33.36 21.984,32.928 L21.984,29.484 L14.016,29.484 L14.016,34.164 L13.404,34.164 L13.404,28.896 L22.596,28.896 L22.596,33.06 C22.596,33.78 22.188,34.14 21.372,34.14 Z M14.748,25.836 L21.264,25.836 L21.264,28.044 L14.748,28.044 L14.748,25.836 Z M20.64,27.516 L20.64,26.364 L15.372,26.364 L15.372,27.516 L20.64,27.516 Z M15.72,30.384 L20.304,30.384 L20.304,32.7 L15.72,32.7 L15.72,30.384 Z M19.704,32.184 L19.704,30.912 L16.308,30.912 L16.308,32.184 L19.704,32.184 Z M29.124,24.852 C28.692,25.572 28.2,26.22 27.624,26.772 L27.204,26.268 C28.056,25.452 28.728,24.408 29.232,23.148 L29.868,23.304 C29.736,23.628 29.592,23.94 29.448,24.24 L35.136,24.24 L35.136,24.852 L29.124,24.852 Z M27.06,28.824 L28.392,28.824 C28.488,27.9 28.548,26.964 28.572,26.004 L34.512,26.004 C34.476,27.06 34.44,28.008 34.404,28.824 L35.484,28.824 L35.484,29.436 L34.38,29.436 C34.332,30.432 34.296,31.224 34.26,31.8 L35.292,31.8 L35.292,32.388 L34.212,32.388 C34.164,32.736 34.128,32.964 34.104,33.06 C33.984,33.444 33.756,33.72 33.42,33.912 C33.096,34.068 32.616,34.152 31.968,34.152 L30.984,34.152 L30.792,33.564 C31.188,33.576 31.548,33.588 31.872,33.588 C32.232,33.588 32.556,33.552 32.844,33.492 C33.132,33.396 33.348,33.204 33.492,32.892 C33.516,32.82 33.552,32.652 33.588,32.388 L27.864,32.388 C28.056,31.428 28.212,30.444 28.332,29.436 L27.06,29.436 L27.06,28.824 Z M28.944,29.436 C28.848,30.3 28.728,31.08 28.584,31.8 L33.636,31.8 C33.684,31.212 33.72,30.42 33.768,29.436 L28.944,29.436 Z M33.792,28.824 C33.816,28.152 33.852,27.396 33.876,26.58 L29.148,26.58 C29.112,27.372 29.064,28.128 29.004,28.824 L33.792,28.824 Z M30.828,26.928 C31.44,27.336 31.956,27.744 32.364,28.152 L31.944,28.572 C31.56,28.188 31.044,27.768 30.408,27.324 L30.828,26.928 Z M30.732,29.772 C31.332,30.216 31.824,30.66 32.232,31.116 L31.812,31.536 C31.44,31.104 30.936,30.648 30.312,30.168 L30.732,29.772 Z M25.284,23.472 C26.028,23.964 26.664,24.456 27.168,24.948 L26.7,25.404 C26.244,24.936 25.608,24.444 24.816,23.928 L25.284,23.472 Z M25.104,26.4 C25.848,26.904 26.472,27.408 26.976,27.912 L26.52,28.38 C26.052,27.9 25.428,27.384 24.648,26.844 L25.104,26.4 Z M26.496,29.832 L27.06,30.048 C26.556,31.452 25.98,32.772 25.356,34.008 L24.744,33.744 C25.416,32.472 25.992,31.164 26.496,29.832 Z M36.708,25.5 L38.172,25.5 L38.172,23.244 L38.82,23.244 L38.82,25.5 L40.248,25.5 L40.248,26.136 L38.82,26.136 L38.82,29.004 C39.384,28.788 39.924,28.548 40.452,28.284 L40.452,28.944 C39.924,29.196 39.372,29.424 38.82,29.64 L38.82,33.12 C38.82,33.72 38.532,34.032 37.98,34.032 L36.888,34.032 L36.744,33.42 C37.092,33.444 37.428,33.456 37.752,33.456 C38.028,33.456 38.172,33.288 38.172,32.952 L38.172,29.88 C37.692,30.048 37.2,30.192 36.708,30.336 L36.54,29.688 C37.092,29.556 37.644,29.4 38.172,29.232 L38.172,26.136 L36.708,26.136 L36.708,25.5 Z M40.824,25.212 L42.228,25.212 C42.252,24.588 42.276,23.928 42.288,23.232 L42.936,23.232 C42.924,23.928 42.9,24.588 42.876,25.212 L47.304,25.212 L47.304,25.848 L42.84,25.848 C42.792,26.52 42.744,27.132 42.696,27.684 L46.692,27.684 L46.692,28.248 C46.38,29.736 45.804,30.996 44.988,32.028 C45.696,32.664 46.548,33.18 47.556,33.576 L47.22,34.176 C46.176,33.744 45.288,33.192 44.556,32.508 C43.884,33.18 43.104,33.744 42.192,34.176 L41.856,33.588 C42.72,33.18 43.464,32.652 44.088,32.028 C43.368,31.236 42.84,30.3 42.48,29.22 C42.42,29.58 42.36,29.904 42.288,30.192 C41.88,31.74 41.22,33.06 40.308,34.152 L39.888,33.636 C40.728,32.628 41.316,31.404 41.676,29.988 C41.916,29.004 42.096,27.624 42.204,25.848 L40.824,25.848 L40.824,25.212 Z M42.768,28.296 C43.104,29.592 43.68,30.672 44.508,31.56 C45.24,30.648 45.756,29.568 46.068,28.296 L42.768,28.296 Z M45.036,23.196 C45.612,23.724 46.056,24.18 46.368,24.588 L45.864,24.936 C45.552,24.504 45.108,24.036 44.532,23.52 L45.036,23.196 Z" id="最高海拔" opacity="0.600000024"></path>
                    <path d="M0.68,14 L0.68,12.08 L4.36,5.14 C4.5466676,4.7933316 4.6533332,4.4900013 4.68,4.23 C4.7066668,3.9699987 4.72,3.6466686 4.72,3.26 C4.72,3.0866658 4.7166667,2.9033343 4.71,2.71 C4.7033333,2.5166657 4.666667,2.3466674 4.6,2.2 C4.533333,2.0533326 4.433334,1.9300005 4.3,1.83 C4.166666,1.7299995 3.9733346,1.68 3.72,1.68 C3.4133318,1.68 3.1700009,1.7666658 2.99,1.94 C2.8099991,2.1133342 2.72,2.366665 2.72,2.7 L2.72,3.86 L0.68,3.86 L0.68,2.74 C0.68,2.3133312 0.7599992,1.9133352 0.92,1.54 C1.0800008,1.1666648 1.2999986,0.8400014 1.58,0.56 C1.846668,0.2799986 2.1666648,0.0566675 2.54,-0.11 C2.9133352,-0.2766675 3.3133312,-0.36 3.74,-0.36 C4.273336,-0.36 4.7299981,-0.2633343 5.11,-0.07 C5.4900019,0.1233343 5.8066654,0.386665 6.06,0.72 C6.3000012,1.053335 6.4766661,1.4333312 6.59,1.86 C6.7033339,2.2866688 6.76,2.7399976 6.76,3.22 C6.76,3.5666684 6.7533334,3.8566655 6.74,4.09 C6.7266666,4.3233345 6.7000002,4.5466656 6.66,4.76 C6.6199998,4.9733344 6.5533338,5.1866656 6.46,5.4 C6.3666662,5.6133344 6.2400008,5.8733318 6.08,6.18 L3.08,11.96 L6.76,11.96 L6.76,14 L0.68,14 Z M8.12,2.7 C8.12,2.2199976 8.2033325,1.7933352 8.37,1.42 C8.5366675,1.0466648 8.7599986,0.726668 9.04,0.46 C9.3200014,0.193332 9.6433315,-0.0099993 10.01,-0.15 C10.3766685,-0.2900007 10.759998,-0.36 11.16,-0.36 C11.560002,-0.36 11.9433315,-0.2900007 12.31,-0.15 C12.6766685,-0.0099993 12.9999986,0.193332 13.28,0.46 C13.5600014,0.726668 13.7833325,1.0466648 13.95,1.42 C14.1166675,1.7933352 14.2,2.2199976 14.2,2.7 L14.2,11.06 C14.2,11.5400024 14.1166675,11.9666648 13.95,12.34 C13.7833325,12.7133352 13.5600014,13.033332 13.28,13.3 C12.9999986,13.566668 12.6766685,13.7699993 12.31,13.91 C11.9433315,14.0500007 11.560002,14.12 11.16,14.12 C10.759998,14.12 10.3766685,14.0500007 10.01,13.91 C9.6433315,13.7699993 9.3200014,13.566668 9.04,13.3 C8.7599986,13.033332 8.5366675,12.7133352 8.37,12.34 C8.2033325,11.9666648 8.12,11.5400024 8.12,11.06 L8.12,2.7 Z M10.16,11.06 C10.16,11.3533348 10.2533324,11.5966657 10.44,11.79 C10.6266676,11.9833343 10.8666652,12.08 11.16,12.08 C11.4533348,12.08 11.6933324,11.9833343 11.88,11.79 C12.0666676,11.5966657 12.16,11.3533348 12.16,11.06 L12.16,2.7 C12.16,2.4066652 12.0666676,2.1633343 11.88,1.97 C11.6933324,1.7766657 11.4533348,1.68 11.16,1.68 C10.8666652,1.68 10.6266676,1.7766657 10.44,1.97 C10.2533324,2.1633343 10.16,2.4066652 10.16,2.7 L10.16,11.06 Z M21.64,-0.24 L21.64,1.68 L17.6,1.68 L17.6,5.52 C17.7866676,5.3333324 18.0266652,5.1766673 18.32,5.05 C18.6133348,4.9233327 18.9399982,4.86 19.3,4.86 C19.9933368,4.86 20.5566645,5.0699979 20.99,5.49 C21.4233355,5.9100021 21.64,6.5399958 21.64,7.38 L21.64,11.06 C21.64,11.5400024 21.5566675,11.9666648 21.39,12.34 C21.2233325,12.7133352 21.0000014,13.033332 20.72,13.3 C20.4399986,13.566668 20.1166685,13.7699993 19.75,13.91 C19.3833315,14.0500007 19.000002,14.12 18.6,14.12 C18.199998,14.12 17.8166685,14.0500007 17.45,13.91 C17.0833315,13.7699993 16.7600014,13.566668 16.48,13.3 C16.1999986,13.033332 15.9766675,12.7133352 15.81,12.34 C15.6433325,11.9666648 15.56,11.5400024 15.56,11.06 L15.56,10.46 L17.6,10.46 L17.6,10.98 C17.6,11.3266684 17.6966657,11.5966657 17.89,11.79 C18.0833343,11.9833343 18.3333318,12.08 18.64,12.08 C18.9466682,12.08 19.1833325,11.9866676 19.35,11.8 C19.5166675,11.6133324 19.6,11.353335 19.6,11.02 L19.6,7.68 C19.6,7.3999986 19.5100009,7.160001 19.33,6.96 C19.1499991,6.759999 18.9200014,6.66 18.64,6.66 C18.4666658,6.66 18.3200006,6.6899997 18.2,6.75 C18.0799994,6.8100003 17.9800004,6.8799996 17.9,6.96 C17.8199996,7.0400004 17.7600002,7.1266662 17.72,7.22 C17.653333,7.3400006 17.6133334,7.4133332 17.6,7.44 L15.8,7.44 L15.8,-0.24 L21.64,-0.24 Z M28.34,-0.24 L26.02,5.74 L26.06,5.78 C26.126667,5.7266664 26.2299993,5.6833335 26.37,5.65 C26.5100007,5.6166665 26.6933322,5.6 26.92,5.6 C27.2800018,5.6 27.6133318,5.6866658 27.92,5.86 C28.2266682,6.0333342 28.4666658,6.253332 28.64,6.52 C28.7333338,6.6666674 28.8066664,6.8133326 28.86,6.96 C28.9133336,7.1066674 28.9599998,7.2999988 29,7.54 C29.0266668,7.7800012 29.0466666,8.0833315 29.06,8.45 C29.0733334,8.8166685 29.08,9.2799972 29.08,9.84 C29.08,10.306669 29.0733334,10.6899985 29.06,10.99 C29.0466666,11.2900015 29.0266668,11.539999 29,11.74 C28.9599998,11.9533344 28.9100003,12.1333326 28.85,12.28 C28.7899997,12.4266674 28.7133338,12.5799992 28.62,12.74 C28.353332,13.1800022 27.9966689,13.5199988 27.55,13.76 C27.1033311,14.0000012 26.6000028,14.12 26.04,14.12 C25.4799972,14.12 24.9800022,13.9966679 24.54,13.75 C24.0999978,13.5033321 23.746668,13.1666688 23.48,12.74 C23.3733328,12.5799992 23.2900003,12.4266674 23.23,12.28 C23.1699997,12.1333326 23.1266668,11.9533344 23.1,11.74 C23.0599998,11.539999 23.0333334,11.2900015 23.02,10.99 C23.0066666,10.6899985 23,10.306669 23,9.84 C23,9.3999978 23.0066666,9.0366681 23.02,8.75 C23.0333334,8.4633319 23.0533332,8.2133344 23.08,8 C23.1066668,7.799999 23.1466664,7.6166675 23.2,7.45 C23.2533336,7.2833325 23.313333,7.1066676 23.38,6.92 L26.06,-0.24 L28.34,-0.24 Z M27.04,8.42 C27.04,8.1133318 26.940001,7.8666676 26.74,7.68 C26.539999,7.4933324 26.306668,7.4 26.04,7.4 C25.773332,7.4 25.540001,7.4933324 25.34,7.68 C25.139999,7.8666676 25.04,8.1133318 25.04,8.42 L25.04,11.06 C25.04,11.3666682 25.139999,11.6133324 25.34,11.8 C25.540001,11.9866676 25.773332,12.08 26.04,12.08 C26.306668,12.08 26.539999,11.9866676 26.74,11.8 C26.940001,11.6133324 27.04,11.3666682 27.04,11.06 L27.04,8.42 Z M34.32,14 L34.32,3.86 L36.36,3.86 L36.36,4.84 L36.4,4.84 C36.6133344,4.5199984 36.8699985,4.2566677 37.17,4.05 C37.4700015,3.8433323 37.853331,3.74 38.32,3.74 C38.7600022,3.74 39.1266652,3.8466656 39.42,4.06 C39.7133348,4.2733344 39.9533324,4.5066654 40.14,4.76 C40.3933346,4.4799986 40.6733318,4.240001 40.98,4.04 C41.2866682,3.839999 41.7133306,3.74 42.26,3.74 C42.5133346,3.74 42.773332,3.7833329 43.04,3.87 C43.306668,3.9566671 43.5466656,4.099999 43.76,4.3 C43.9733344,4.500001 44.146666,4.7566651 44.28,5.07 C44.413334,5.3833349 44.48,5.7666644 44.48,6.22 L44.48,14 L42.44,14 L42.44,6.98 C42.44,6.6066648 42.3533342,6.3133344 42.18,6.1 C42.0066658,5.8866656 41.7600016,5.78 41.44,5.78 C41.0533314,5.78 40.7866674,5.8999988 40.64,6.14 C40.4933326,6.3800012 40.42,6.7266644 40.42,7.18 L40.42,14 L38.38,14 L38.38,6.98 C38.38,6.6066648 38.2933342,6.3133344 38.12,6.1 C37.9466658,5.8866656 37.7000016,5.78 37.38,5.78 C36.9933314,5.78 36.7266674,5.8999988 36.58,6.14 C36.4333326,6.3800012 36.36,6.7266644 36.36,7.18 L36.36,14 L34.32,14 Z" id="2056-m"></path>
                </g>
                <g id="Group-37-Copy-2" transform="translate(203.000000, 263.000000)" fill="#FFFFFF">
                    <path d="M0.744,27.948 L11.28,27.948 L11.28,28.5 L5.832,28.5 L5.832,32.472 C6.096,32.424 6.348,32.388 6.588,32.352 L6.588,32.88 C6.348,32.916 6.096,32.952 5.832,33 L5.832,34.188 L5.208,34.188 L5.208,33.072 C4.02,33.216 2.58,33.324 0.888,33.42 L0.804,32.844 L1.956,32.796 L1.956,28.5 L0.744,28.5 L0.744,27.948 Z M2.568,32.76 C3.528,32.7 4.416,32.628 5.208,32.544 L5.208,31.596 L2.568,31.596 L2.568,32.76 Z M2.568,31.092 L5.208,31.092 L5.208,30.048 L2.568,30.048 L2.568,31.092 Z M2.568,29.544 L5.208,29.544 L5.208,28.5 L2.568,28.5 L2.568,29.544 Z M2.352,23.712 L9.732,23.712 L9.732,27.024 L2.352,27.024 L2.352,23.712 Z M9.096,26.52 L9.096,25.596 L2.964,25.596 L2.964,26.52 L9.096,26.52 Z M2.964,25.116 L9.096,25.116 L9.096,24.216 L2.964,24.216 L2.964,25.116 Z M6.948,30 L6.564,30 L6.564,29.436 L10.584,29.436 L10.584,29.964 C10.332,30.924 9.888,31.764 9.264,32.46 C9.84,32.904 10.512,33.288 11.28,33.624 L10.944,34.152 C10.104,33.756 9.408,33.324 8.856,32.868 C8.28,33.384 7.596,33.816 6.78,34.164 L6.444,33.66 C7.212,33.324 7.86,32.928 8.4,32.46 C7.68,31.728 7.188,30.912 6.948,30 Z M8.808,32.064 C9.348,31.452 9.732,30.768 9.972,30 L7.524,30 C7.764,30.78 8.184,31.464 8.808,32.064 Z M17.076,28.332 L17.076,32.952 C17.508,32.784 17.916,32.616 18.3,32.424 L18.408,33 C17.808,33.252 17.1,33.516 16.308,33.78 L16.14,33.216 C16.332,33.144 16.44,33.024 16.44,32.832 L16.44,24.768 C18.984,24.384 20.952,23.952 22.32,23.472 L22.68,24 C22.08,24.216 21.36,24.42 20.544,24.612 C20.556,25.8 20.592,26.832 20.652,27.72 L23.304,27.72 L23.304,28.332 L20.7,28.332 C20.748,28.908 20.82,29.4 20.904,29.832 C21.096,30.912 21.36,31.752 21.672,32.352 C21.948,32.88 22.176,33.144 22.344,33.144 C22.536,33.132 22.716,32.436 22.872,31.044 L23.412,31.344 C23.196,33.048 22.872,33.9 22.464,33.9 C22.104,33.9 21.732,33.576 21.336,32.94 C20.916,32.244 20.58,31.284 20.316,30.048 C20.22,29.544 20.136,28.968 20.076,28.332 L17.076,28.332 Z M19.908,24.756 C19.056,24.924 18.108,25.104 17.076,25.272 L17.076,27.72 L20.028,27.72 C19.956,26.832 19.908,25.836 19.908,24.756 Z M19.092,31.572 C19.788,32.4 20.316,33.132 20.688,33.756 L20.196,34.104 C19.776,33.396 19.26,32.664 18.636,31.896 L19.092,31.572 Z M15.312,23.232 L15.912,23.508 C15.6,24.444 15.204,25.308 14.748,26.124 L14.748,34.2 L14.1,34.2 L14.1,27.144 C13.668,27.768 13.176,28.368 12.636,28.932 L12.432,28.26 C13.764,26.772 14.724,25.104 15.312,23.232 Z M29.124,24.852 C28.692,25.572 28.2,26.22 27.624,26.772 L27.204,26.268 C28.056,25.452 28.728,24.408 29.232,23.148 L29.868,23.304 C29.736,23.628 29.592,23.94 29.448,24.24 L35.136,24.24 L35.136,24.852 L29.124,24.852 Z M27.06,28.824 L28.392,28.824 C28.488,27.9 28.548,26.964 28.572,26.004 L34.512,26.004 C34.476,27.06 34.44,28.008 34.404,28.824 L35.484,28.824 L35.484,29.436 L34.38,29.436 C34.332,30.432 34.296,31.224 34.26,31.8 L35.292,31.8 L35.292,32.388 L34.212,32.388 C34.164,32.736 34.128,32.964 34.104,33.06 C33.984,33.444 33.756,33.72 33.42,33.912 C33.096,34.068 32.616,34.152 31.968,34.152 L30.984,34.152 L30.792,33.564 C31.188,33.576 31.548,33.588 31.872,33.588 C32.232,33.588 32.556,33.552 32.844,33.492 C33.132,33.396 33.348,33.204 33.492,32.892 C33.516,32.82 33.552,32.652 33.588,32.388 L27.864,32.388 C28.056,31.428 28.212,30.444 28.332,29.436 L27.06,29.436 L27.06,28.824 Z M28.944,29.436 C28.848,30.3 28.728,31.08 28.584,31.8 L33.636,31.8 C33.684,31.212 33.72,30.42 33.768,29.436 L28.944,29.436 Z M33.792,28.824 C33.816,28.152 33.852,27.396 33.876,26.58 L29.148,26.58 C29.112,27.372 29.064,28.128 29.004,28.824 L33.792,28.824 Z M30.828,26.928 C31.44,27.336 31.956,27.744 32.364,28.152 L31.944,28.572 C31.56,28.188 31.044,27.768 30.408,27.324 L30.828,26.928 Z M30.732,29.772 C31.332,30.216 31.824,30.66 32.232,31.116 L31.812,31.536 C31.44,31.104 30.936,30.648 30.312,30.168 L30.732,29.772 Z M25.284,23.472 C26.028,23.964 26.664,24.456 27.168,24.948 L26.7,25.404 C26.244,24.936 25.608,24.444 24.816,23.928 L25.284,23.472 Z M25.104,26.4 C25.848,26.904 26.472,27.408 26.976,27.912 L26.52,28.38 C26.052,27.9 25.428,27.384 24.648,26.844 L25.104,26.4 Z M26.496,29.832 L27.06,30.048 C26.556,31.452 25.98,32.772 25.356,34.008 L24.744,33.744 C25.416,32.472 25.992,31.164 26.496,29.832 Z M36.708,25.5 L38.172,25.5 L38.172,23.244 L38.82,23.244 L38.82,25.5 L40.248,25.5 L40.248,26.136 L38.82,26.136 L38.82,29.004 C39.384,28.788 39.924,28.548 40.452,28.284 L40.452,28.944 C39.924,29.196 39.372,29.424 38.82,29.64 L38.82,33.12 C38.82,33.72 38.532,34.032 37.98,34.032 L36.888,34.032 L36.744,33.42 C37.092,33.444 37.428,33.456 37.752,33.456 C38.028,33.456 38.172,33.288 38.172,32.952 L38.172,29.88 C37.692,30.048 37.2,30.192 36.708,30.336 L36.54,29.688 C37.092,29.556 37.644,29.4 38.172,29.232 L38.172,26.136 L36.708,26.136 L36.708,25.5 Z M40.824,25.212 L42.228,25.212 C42.252,24.588 42.276,23.928 42.288,23.232 L42.936,23.232 C42.924,23.928 42.9,24.588 42.876,25.212 L47.304,25.212 L47.304,25.848 L42.84,25.848 C42.792,26.52 42.744,27.132 42.696,27.684 L46.692,27.684 L46.692,28.248 C46.38,29.736 45.804,30.996 44.988,32.028 C45.696,32.664 46.548,33.18 47.556,33.576 L47.22,34.176 C46.176,33.744 45.288,33.192 44.556,32.508 C43.884,33.18 43.104,33.744 42.192,34.176 L41.856,33.588 C42.72,33.18 43.464,32.652 44.088,32.028 C43.368,31.236 42.84,30.3 42.48,29.22 C42.42,29.58 42.36,29.904 42.288,30.192 C41.88,31.74 41.22,33.06 40.308,34.152 L39.888,33.636 C40.728,32.628 41.316,31.404 41.676,29.988 C41.916,29.004 42.096,27.624 42.204,25.848 L40.824,25.848 L40.824,25.212 Z M42.768,28.296 C43.104,29.592 43.68,30.672 44.508,31.56 C45.24,30.648 45.756,29.568 46.068,28.296 L42.768,28.296 Z M45.036,23.196 C45.612,23.724 46.056,24.18 46.368,24.588 L45.864,24.936 C45.552,24.504 45.108,24.036 44.532,23.52 L45.036,23.196 Z" id="最低海拔" opacity="0.600000024"></path>
                    <path d="M3.1,14 L3.1,1.92 L1.06,3.42 L1.06,1.26 L3.1,-0.24 L5.14,-0.24 L5.14,14 L3.1,14 Z M8.58,14 L12.16,1.68 L9.92,1.68 L9.92,3.32 L8.12,3.32 L8.12,-0.24 L14.2,-0.24 L14.2,1.8 L10.74,14 L8.58,14 Z M16.3,14 L18.62,8.02 L18.58,7.98 C18.513333,8.0333336 18.4100007,8.0766665 18.27,8.11 C18.1299993,8.1433335 17.9466678,8.16 17.72,8.16 C17.3599982,8.16 17.0266682,8.0733342 16.72,7.9 C16.4133318,7.7266658 16.1733342,7.506668 16,7.24 C15.9066662,7.106666 15.8333336,6.9633341 15.78,6.81 C15.7266664,6.6566659 15.6866668,6.4600012 15.66,6.22 C15.6199998,5.9799988 15.5933334,5.6766685 15.58,5.31 C15.5666666,4.9433315 15.56,4.4800028 15.56,3.92 C15.56,3.453331 15.5666666,3.0700015 15.58,2.77 C15.5933334,2.4699985 15.6199998,2.2133344 15.66,2 C15.6866668,1.799999 15.7299997,1.6266674 15.79,1.48 C15.8500003,1.3333326 15.9266662,1.1800008 16.02,1.02 C16.286668,0.5799978 16.6433311,0.2400012 17.09,0 C17.5366689,-0.2400012 18.0399972,-0.36 18.6,-0.36 C19.1600028,-0.36 19.6599978,-0.2366679 20.1,0.01 C20.5400022,0.2566679 20.893332,0.5933312 21.16,1.02 C21.2533338,1.1800008 21.333333,1.3333326 21.4,1.48 C21.466667,1.6266674 21.5199998,1.799999 21.56,2 C21.5866668,2.2133344 21.6066666,2.4699985 21.62,2.77 C21.6333334,3.0700015 21.64,3.453331 21.64,3.92 C21.64,4.3600022 21.6333334,4.7233319 21.62,5.01 C21.6066666,5.2966681 21.5866668,5.539999 21.56,5.74 C21.5199998,5.9533344 21.4766669,6.1433325 21.43,6.31 C21.3833331,6.4766675 21.326667,6.6533324 21.26,6.84 L18.58,14 L16.3,14 Z M17.6,5.34 C17.6,5.6466682 17.699999,5.8933324 17.9,6.08 C18.100001,6.2666676 18.333332,6.36 18.6,6.36 C18.866668,6.36 19.099999,6.2666676 19.3,6.08 C19.500001,5.8933324 19.6,5.6466682 19.6,5.34 L19.6,2.7 C19.6,2.3933318 19.500001,2.1466676 19.3,1.96 C19.099999,1.7733324 18.866668,1.68 18.6,1.68 C18.333332,1.68 18.100001,1.7733324 17.9,1.96 C17.699999,2.1466676 17.6,2.3933318 17.6,2.7 L17.6,5.34 Z M23,2.7 C23,2.2199976 23.0833325,1.7933352 23.25,1.42 C23.4166675,1.0466648 23.6399986,0.726668 23.92,0.46 C24.2000014,0.193332 24.5233315,-0.0099993 24.89,-0.15 C25.2566685,-0.2900007 25.639998,-0.36 26.04,-0.36 C26.440002,-0.36 26.8233315,-0.2900007 27.19,-0.15 C27.5566685,-0.0099993 27.8799986,0.193332 28.16,0.46 C28.4400014,0.726668 28.6633325,1.0466648 28.83,1.42 C28.9966675,1.7933352 29.08,2.2199976 29.08,2.7 L29.08,11.06 C29.08,11.5400024 28.9966675,11.9666648 28.83,12.34 C28.6633325,12.7133352 28.4400014,13.033332 28.16,13.3 C27.8799986,13.566668 27.5566685,13.7699993 27.19,13.91 C26.8233315,14.0500007 26.440002,14.12 26.04,14.12 C25.639998,14.12 25.2566685,14.0500007 24.89,13.91 C24.5233315,13.7699993 24.2000014,13.566668 23.92,13.3 C23.6399986,13.033332 23.4166675,12.7133352 23.25,12.34 C23.0833325,11.9666648 23,11.5400024 23,11.06 L23,2.7 Z M25.04,11.06 C25.04,11.3533348 25.1333324,11.5966657 25.32,11.79 C25.5066676,11.9833343 25.7466652,12.08 26.04,12.08 C26.3333348,12.08 26.5733324,11.9833343 26.76,11.79 C26.9466676,11.5966657 27.04,11.3533348 27.04,11.06 L27.04,2.7 C27.04,2.4066652 26.9466676,2.1633343 26.76,1.97 C26.5733324,1.7766657 26.3333348,1.68 26.04,1.68 C25.7466652,1.68 25.5066676,1.7766657 25.32,1.97 C25.1333324,2.1633343 25.04,2.4066652 25.04,2.7 L25.04,11.06 Z M34.32,14 L34.32,3.86 L36.36,3.86 L36.36,4.84 L36.4,4.84 C36.6133344,4.5199984 36.8699985,4.2566677 37.17,4.05 C37.4700015,3.8433323 37.853331,3.74 38.32,3.74 C38.7600022,3.74 39.1266652,3.8466656 39.42,4.06 C39.7133348,4.2733344 39.9533324,4.5066654 40.14,4.76 C40.3933346,4.4799986 40.6733318,4.240001 40.98,4.04 C41.2866682,3.839999 41.7133306,3.74 42.26,3.74 C42.5133346,3.74 42.773332,3.7833329 43.04,3.87 C43.306668,3.9566671 43.5466656,4.099999 43.76,4.3 C43.9733344,4.500001 44.146666,4.7566651 44.28,5.07 C44.413334,5.3833349 44.48,5.7666644 44.48,6.22 L44.48,14 L42.44,14 L42.44,6.98 C42.44,6.6066648 42.3533342,6.3133344 42.18,6.1 C42.0066658,5.8866656 41.7600016,5.78 41.44,5.78 C41.0533314,5.78 40.7866674,5.8999988 40.64,6.14 C40.4933326,6.3800012 40.42,6.7266644 40.42,7.18 L40.42,14 L38.38,14 L38.38,6.98 C38.38,6.6066648 38.2933342,6.3133344 38.12,6.1 C37.9466658,5.8866656 37.7000016,5.78 37.38,5.78 C36.9933314,5.78 36.7266674,5.8999988 36.58,6.14 C36.4333326,6.3800012 36.36,6.7266644 36.36,7.18 L36.36,14 L34.32,14 Z" id="1790-m"></path>
                </g>
            </g>
        </g>
    </g>
</svg>