<?xml version="1.0" encoding="UTF-8"?>
<svg width="13px" height="13px" viewBox="0 0 13 13" version="1.1" xmlns="http://www.w3.org/2000/svg" xmlns:xlink="http://www.w3.org/1999/xlink">
    <!-- Generator: Sketch 49.3 (51167) - http://www.bohemiancoding.com/sketch -->
    <title>Shape</title>
    <desc>Created with Sketch.</desc>
    <defs></defs>
    <g id="Page-1" stroke="none" stroke-width="1" fill="none" fill-rule="evenodd">
        <g id="Artboard-Copy-10" transform="translate(-1179.000000, -940.000000)" fill="#FFFFFF" fill-rule="nonzero">
            <g id="Group-11" transform="translate(241.000000, 916.000000)">
                <g id="Group-20" transform="translate(913.000000, 14.000000)">
                    <g id="支付" transform="translate(25.000000, 10.000000)">
                        <path d="M9.53128105,8.96953931 C9.24833677,8.98366457 8.96701859,8.91460775 8.7231011,8.77492463 C8.54422828,8.66663098 8.40275613,8.50811419 8.31982419,8.31977741 C8.20924826,8.10789853 8.15070806,7.87404702 8.15070806,7.63705657 C8.14745583,7.28235563 8.29380632,6.94177994 8.55561109,6.69380318 C8.80928528,6.43640957 9.1637787,6.29358751 9.53128105,6.30457383 L12.9672654,6.30457383 L12.9672654,4.28937024 C12.9705177,3.9346693 12.8257933,3.59566309 12.5639885,3.34768633 C12.3103143,3.09029272 11.9558209,2.94904013 11.5866924,2.95845697 L1.38118465,2.95845697 C1.0136823,2.95531803 0.660814998,3.09500114 0.403888575,3.34768633 C0.137205453,3.59252414 -0.010771158,3.9346693 0.000611658414,4.28937024 L0.000611658414,11.6988532 C-0.00264057479,11.8777731 0.0331339904,12.0535541 0.101430888,12.2199183 C0.185988951,12.3705877 0.299817113,12.5024235 0.438037024,12.6091477 C0.709598497,12.8618328 1.0722225,13.0015159 1.44785543,12.9999465 L11.6517371,12.9999465 C11.8371144,13.001516 12.0192395,12.968557 12.1916078,12.9026391 C12.3574717,12.8351518 12.5054483,12.736275 12.6290332,12.6091477 C12.737983,12.4804508 12.8290455,12.3391983 12.8989685,12.1869594 C12.9688915,12.0221647 13.00304,11.8448142 12.9997878,11.6674637 L12.9997878,8.96953931 L9.53128105,8.96953931 Z M9.97033254,0.554024038 C9.80934699,0.37824304 9.61583912,0.235420979 9.39793949,0.130266275 C9.17190929,0.0502231422 8.93287015,0.00627789278 8.69057877,0 C8.35885099,0.00627789278 8.03362767,0.0973073381 7.74743114,0.26053255 C7.51327035,0.390798826 7.1750381,0.554024038 6.77013507,0.781597651 C6.3327097,1.00760179 5.92943278,1.20378594 5.4903813,1.43135955 C5.01880749,1.6918921 4.48056289,1.95085518 3.94069218,2.2427772 L10.911854,2.2427772 L9.97033254,0.554024038 Z" id="Shape"></path>
                    </g>
                </g>
            </g>
        </g>
    </g>
</svg>