<?xml version="1.0" encoding="UTF-8"?>
<svg width="90px" height="90px" viewBox="0 0 90 90" version="1.1" xmlns="http://www.w3.org/2000/svg" xmlns:xlink="http://www.w3.org/1999/xlink">
    <!-- Generator: Sketch 49.3 (51167) - http://www.bohemiancoding.com/sketch -->
    <title>已预订</title>
    <desc>Created with Sketch.</desc>
    <defs></defs>
    <g id="Page-1" stroke="none" stroke-width="1" fill="none" fill-rule="evenodd" opacity="0.100000001">
        <g id="Artboard-Copy-10" transform="translate(-652.000000, -239.000000)">
            <g id="Group-17" transform="translate(366.000000, 230.000000)">
                <g id="鸟">
                    <g id="已预订" transform="translate(288.000000, 10.000000)">
                        <path d="M70.3470142,71.5450411 C55.3107995,86.7241995 30.9322787,86.7241995 15.896064,71.5450411 C0.859849301,56.3658828 0.859849301,31.7556045 15.896064,16.5764461 C30.9322787,1.39728774 55.3107995,1.39728774 70.3470142,16.5764461 C85.3832289,31.7556045 85.3832289,56.3658828 70.3470142,71.5450411 Z" id="Oval-3" stroke="#393939" stroke-width="2.8176136" stroke-dasharray="3.38113625049591"></path>
                        <ellipse id="Oval-3-Copy" stroke="#393939" stroke-width="2.88523633" cx="43.1215391" cy="44.0607436" rx="43.0249658" ry="43.433988"></ellipse>
                        <ellipse id="Oval-3-Copy-2" stroke="#393939" stroke-width="1.97727273" opacity="0.400000006" cx="43.1215391" cy="44.0607436" rx="28.6221679" ry="28.8942681"></ellipse>
                        <path d="M31.2366809,42.7255594 L18.7753452,42.7255594 L18.7753452,48.299836 C18.7753452,49.0471122 19.1388849,49.4308486 19.8861611,49.4308486 L30.0248816,49.4308486 C30.3682247,49.4308486 30.6913712,49.3096687 30.9741244,49.0673089 C31.2972708,48.764359 31.4992374,47.5525598 31.6002206,45.4319111 L33.4785095,46.0378107 C33.2361496,48.5825892 32.8928065,50.0973382 32.4888734,50.5618613 C32.0041537,51.0061877 31.3578608,51.2485475 30.5499946,51.2889408 L19.3408515,51.2889408 C17.6645292,51.2889408 16.8364663,50.400288 16.8364663,48.6633758 L16.8364663,38.1409189 L18.7753452,38.1409189 L18.7753452,40.8876639 L29.297802,40.8876639 L29.297802,36.0808602 L15.9074202,36.0808602 L15.9074202,34.2429646 L31.2366809,34.2429646 L31.2366809,42.7255594 Z M51.8574649,45.8762375 L51.8574649,52.0160204 L49.979176,52.0160204 L49.979176,51.1475643 L39.759669,51.1475643 L39.759669,52.0160204 L37.8611835,52.0160204 L37.8611835,45.8762375 L51.8574649,45.8762375 Z M39.759669,49.4914386 L49.979176,49.4914386 L49.979176,47.4919698 L39.759669,47.4919698 L39.759669,49.4914386 Z M37.9015768,39.1507516 C37.2552838,39.8576345 36.5484009,40.5443207 35.7809281,41.2108103 L35.1750284,39.3325215 C37.2148905,37.4542326 38.648853,35.4143706 39.4769158,33.2129352 L41.3552047,33.576475 C41.1532381,34.1217847 40.9108783,34.6468977 40.6685184,35.1518141 L45.071389,35.1518141 C44.7886359,34.5459144 44.4856861,33.9804081 44.1625396,33.4552951 L46.1418117,33.1321486 C46.4245649,33.7380483 46.6871214,34.4045378 46.9698746,35.1518141 L52.6653311,35.1518141 L52.6653311,36.7271531 L46.7477114,36.7271531 L46.7477114,37.8581657 L51.7766783,37.8581657 L51.7766783,39.3527181 L46.7477114,39.3527181 L46.7477114,40.4231408 L51.8170716,40.4231408 L51.8170716,41.9176932 L46.7477114,41.9176932 L46.7477114,43.0689025 L53.0288708,43.0689025 L53.0288708,44.6644382 L37.9015768,44.6644382 L37.9015768,39.1507516 Z M44.8492259,43.0689025 L44.8492259,41.9176932 L39.7192757,41.9176932 L39.7192757,43.0689025 L44.8492259,43.0689025 Z M44.8492259,40.4231408 L44.8492259,39.3527181 L39.7192757,39.3527181 L39.7192757,40.4231408 L44.8492259,40.4231408 Z M44.8492259,37.8581657 L44.8492259,36.7271531 L39.759669,36.7271531 C39.7394723,36.7473497 39.7192757,36.7675464 39.7192757,36.7877431 L39.7192757,37.8581657 L44.8492259,37.8581657 Z M57.7346913,43.4324423 L71.6905794,43.4324423 L71.6905794,45.2501412 L65.6517798,45.2501412 L65.6517798,49.4510453 L73.3870984,49.4510453 L73.3870984,51.2889408 L56.0381723,51.2889408 L56.0381723,49.4510453 L63.712901,49.4510453 L63.712901,45.2501412 L57.7346913,45.2501412 L57.7346913,43.4324423 Z M66.7020058,37.898559 C68.8024578,38.8276051 70.7009433,39.9788144 72.4378556,41.3319903 L71.3472363,42.9679193 C69.5093407,41.4531702 67.6310519,40.2615676 65.6921731,39.3931115 L66.7020058,37.898559 Z M62.2587418,38.019739 L63.4503445,39.3931115 C61.8548088,40.8068773 59.8957333,41.9782832 57.5731181,42.9073293 L56.7450552,41.170417 C58.9666872,40.3625509 60.8045827,39.3123248 62.2587418,38.019739 Z M65.0054868,33.1321486 C65.2478467,33.7380483 65.4700099,34.4045378 65.7123697,35.1316174 L73.4274917,35.1316174 L73.4274917,39.4335048 L71.4684162,39.4335048 L71.4684162,36.908923 L57.9568545,36.908923 L57.9568545,39.4133081 L55.997779,39.4133081 L55.997779,35.1316174 L63.712901,35.1316174 C63.4705411,34.5257178 63.1877879,33.9602115 62.9050348,33.4552951 L65.0054868,33.1321486 Z" id="已售空" fill="#393939" transform="translate(44.667456, 42.574085) rotate(-45.000000) translate(-44.667456, -42.574085) "></path>
                    </g>
                </g>
            </g>
        </g>
    </g>
</svg>