<?xml version="1.0" encoding="UTF-8"?>
<svg width="18px" height="15px" viewBox="0 0 18 15" version="1.1" xmlns="http://www.w3.org/2000/svg" xmlns:xlink="http://www.w3.org/1999/xlink">
    <!-- Generator: Sketch 49.3 (51167) - http://www.bohemiancoding.com/sketch -->
    <title>微信</title>
    <desc>Created with Sketch.</desc>
    <defs></defs>
    <g id="Page-1" stroke="none" stroke-width="1" fill="none" fill-rule="evenodd" opacity="0.600000024">
        <g id="Artboard-Copy-12" transform="translate(-927.000000, -199.000000)" fill="#FFFFFF" fill-rule="nonzero">
            <g id="Group-3" transform="translate(926.000000, 115.000000)">
                <g id="Group-2" transform="translate(2.000000, 33.000000)">
                    <g id="Group-4">
                        <g id="Group-6-Copy">
                            <g transform="translate(0.000000, 52.000000)" id="微信">
                                <g>
                                    <path d="M7.794,4.10351734 C8.2055,4.10351734 8.4805,3.81872494 8.4805,3.3943791 C8.4805,2.96538147 8.206,2.68782518 7.794,2.68782518 C7.382,2.68782518 6.9685,2.96538147 6.9685,3.3943791 C6.969,3.81872494 7.3825,4.10351734 7.794,4.10351734 Z" id="Shape"></path>
                                    <path d="M3.9545,2.68782518 C3.543,2.68782518 3.127,2.96538147 3.127,3.3943791 C3.127,3.81872494 3.543,4.10351734 3.9545,4.10351734 C4.3645,4.10351734 4.639,3.81872494 4.639,3.3943791 C4.6385,2.96538147 4.3645,2.68782518 3.9545,2.68782518 Z" id="Shape"></path>
                                    <path d="M16,8.64313919 C16,6.39994679 13.987,4.48858147 11.516,4.2895886 C11.5195,4.26167791 11.521,4.23273349 11.515,4.20378907 C11.0195,1.81587458 8.5355,0.0156351544 5.7365,0.0156351544 C2.5735,0.0156351544 0,2.29552494 0,5.09796485 C0,6.60152399 0.7425,7.95622613 2.1495,9.02458527 L1.659,10.548819 C1.6275,10.648057 1.656,10.7571154 1.7325,10.8258584 C1.779,10.8672076 1.8375,10.8889159 1.8965,10.8889159 C1.9345,10.8889159 1.973,10.8796124 2.0085,10.8615221 L3.85,9.90894062 L4.077,9.95649216 C4.644,10.0769216 5.1335,10.1813283 5.7365,10.1813283 C5.914,10.1813283 6.094,10.1730584 6.2705,10.1575525 C6.342,10.1513501 6.4025,10.1141359 6.4435,10.0603819 C7.1075,11.777923 8.9375,13.0178812 11.091,13.0178812 C11.6425,13.0178812 12.201,12.8803952 12.702,12.7506622 L14.1215,13.5528361 C14.159,13.5740276 14.2005,13.5848817 14.2415,13.5848817 C14.2975,13.5848817 14.3535,13.5652409 14.3985,13.5275097 C14.4775,13.4613511 14.51,13.3522926 14.4805,13.2525378 L14.118,12.0063772 C15.3335,11.0134803 16,9.82572542 16,8.64313919 Z M6.228,9.64223848 C6.0655,9.65671069 5.9005,9.66394679 5.737,9.66394679 C5.185,9.66394679 4.718,9.56522565 4.178,9.44996485 L3.864,9.38432304 C3.81,9.37243515 3.753,9.38018812 3.7035,9.40654822 L2.324,10.1203382 L2.6825,9.00701188 C2.7175,8.89795344 2.679,8.77907458 2.5885,8.71343278 C1.2025,7.71485036 0.5,6.49815107 0.5,5.09796485 C0.5,2.5808342 2.849,0.532499762 5.7365,0.532499762 C8.289,0.532499762 10.549,2.13788124 11.0155,4.27304893 C8.339,4.30922945 6.1735,6.25419097 6.1735,8.64313919 C6.1735,8.99047221 6.2245,9.32695107 6.3105,9.65154204 C6.2845,9.6448228 6.257,9.63965416 6.228,9.64223848 Z M13.679,11.7029777 C13.5955,11.7681026 13.56,11.8802622 13.59,11.9836352 L13.8265,12.7966632 L12.856,12.247753 C12.819,12.2265615 12.7775,12.2157074 12.736,12.2157074 C12.7155,12.2157074 12.695,12.2182917 12.675,12.2239772 C12.1545,12.3599126 11.616,12.4999829 11.0915,12.4999829 C8.6555,12.4999829 6.674,10.7695202 6.674,8.64262233 C6.674,6.51572447 8.6555,4.78577862 11.0915,4.78577862 C13.481,4.78577862 15.5,6.55190499 15.5,8.64262233 C15.5,9.7032285 14.8535,10.7901948 13.679,11.7029777 Z" id="Shape" stroke="#FFFFFF" stroke-width="0.5"></path>
                                    <path d="M9.578,6.79948314 C9.3035,6.79948314 9.029,7.08530926 9.029,7.36855107 C9.029,7.65386033 9.3035,7.93555154 9.578,7.93555154 C9.9905,7.93555154 10.263,7.65386033 10.263,7.36855107 C10.263,7.0847924 9.9905,6.79948314 9.578,6.79948314 Z" id="Shape"></path>
                                    <path d="M12.594,6.79948314 C12.3235,6.79948314 12.049,7.08530926 12.049,7.36855107 C12.049,7.65386033 12.3235,7.93555154 12.594,7.93555154 C13.005,7.93555154 13.2825,7.65386033 13.2825,7.36855107 C13.2825,7.0847924 13.0055,6.79948314 12.594,6.79948314 Z" id="Shape"></path>
                                </g>
                            </g>
                        </g>
                    </g>
                </g>
            </g>
        </g>
    </g>
</svg>