<?xml version="1.0" encoding="UTF-8"?>
<svg width="75px" height="46px" viewBox="0 0 75 46" version="1.1" xmlns="http://www.w3.org/2000/svg" xmlns:xlink="http://www.w3.org/1999/xlink">
    <!-- Generator: Sketch 49.3 (51167) - http://www.bohemiancoding.com/sketch -->
    <title>Group 7</title>
    <desc>Created with Sketch.</desc>
    <defs>
        <linearGradient x1="38.7139678%" y1="-10.0638216%" x2="50%" y2="100%" id="linearGradient-1">
            <stop stop-color="#F9D65F" offset="0%"></stop>
            <stop stop-color="#FFE69B" offset="15.4065038%"></stop>
            <stop stop-color="#FFB82B" offset="75.2573847%"></stop>
            <stop stop-color="#F1AD31" offset="100%"></stop>
        </linearGradient>
    </defs>
    <g id="Page-1" stroke="none" stroke-width="1" fill="none" fill-rule="evenodd" opacity="0.600000024">
        <g id="Artboard-Copy-5" transform="translate(-1047.000000, -1075.000000)">
            <g id="Group-15-Copy-5" transform="translate(1047.000000, 1076.000000)">
                <g id="Group-12">
                    <g id="Group-7" transform="translate(1.000000, 0.000000)">
                        <path d="M25.7919471,10.168815 C23.7077494,11.4714386 22.361705,12.1227504 21.753814,12.1227504 C20.8419775,12.1227504 20.3209281,12.2530127 19.7998786,13.1648493 C19.4525123,13.7727403 17.1512106,14.7714184 12.8959736,16.1608835 C12.0275578,16.1608835 11.4630876,16.1608835 11.2025629,16.1608835 C10.9420382,16.1608835 10.1170432,15.9872004 8.72757807,15.6398341 C8.29337021,15.1187846 7.81574156,14.8582599 7.29469212,14.8582599 C6.51311797,14.8582599 4.1683955,13.0345869 3.12629662,14.2069481 C2.43156404,14.9885223 1.51972753,15.4661509 0.390787078,15.6398341 L0,18.6358683 L2.08419775,21.6319026 C3.29997977,22.6740015 3.90787078,23.6726796 3.90787078,24.6279369 C3.90787078,25.5831942 3.90787078,26.9292386 3.90787078,28.66607 L6.12233089,31.7923666 L8.20652864,34.2673515 L10.2907264,36.2212869 L12.1143994,38.826534 L13.6775477,40.25942 C14.024914,40.9541526 14.1985972,41.4317812 14.1985972,41.6923059 C14.1985972,42.083093 14.0683348,43.7765037 16.9341067,44.2975531 C18.8446213,44.6449194 20.3643488,44.5580778 21.4932893,44.0370284 L26.0524719,42.6041425 L27.6156202,41.0409941 L31.3932286,39.6081082 L33.347164,38.435747 C36.1260943,37.3936481 37.7326634,36.8725986 38.1668713,36.8725986 C38.6010791,36.8725986 39.9471235,36.3515492 42.2050044,35.3094503 C43.6813112,34.8752425 44.5931477,34.5278762 44.940514,34.2673515 C45.2878803,34.0068267 46.4168207,33.5726189 48.3273353,32.9647279 C51.1062656,32.3568369 52.7996763,31.8357874 53.4075673,31.4015796 C54.3194038,30.7502678 58.7483241,29.2131719 60.4417347,28.2752829 C62.1351454,27.3373939 63.3075066,27.1029217 64.0890808,26.4516099 C64.8706549,25.8002981 66.0430162,25.6700357 66.4338033,25.018724 C66.8245903,24.3674122 69.1693128,24.4976745 69.6903622,23.7161004 C70.2114117,22.9345262 70.7324611,22.2832144 71.2535105,22.2832144 C71.6008768,22.2832144 72.1219263,22.2832144 72.8166589,22.2832144 L72.5561341,20.0687543 C70.7324611,21.1108532 69.6035207,21.6319026 69.1693128,21.6319026 C68.518001,21.6319026 67.085115,22.8042638 65.7824915,22.5437391 C64.4798679,22.2832144 63.3075066,22.2832144 61.614096,18.2450813 C60.4851555,15.5529925 58.4443785,10.0385526 55.4917651,1.70176163 L54.5799286,2.22281107 L53.4075673,3.26490995 C52.7128347,3.00438523 52.3654684,2.65701894 52.3654684,2.22281107 C52.3654684,1.57149928 51.1931072,1.83202399 51.0628449,1.57149928 C50.9325825,1.31097456 51.1931072,-0.121911396 50.4115331,0.00835096347 C49.6299589,0.138613323 49.2391718,0.00835096347 48.7181224,0.399138041 C48.1970729,0.789925119 47.2852364,0.789925119 46.8944494,0.789925119 C46.5036623,0.789925119 45.8523505,0.399138041 45.2010387,0.399138041 C44.5497269,0.399138041 43.1168409,-0.121911396 42.2050044,0.399138041 L41.9444797,1.70176163 C40.8155393,2.83070208 40.0339651,3.52543467 39.5997572,3.78595938 C38.9484454,4.17674646 38.2971336,5.47937005 36.7339853,5.47937005 C35.170837,5.47937005 34.3892629,6.26094421 33.7379511,6.65173129 C33.0866393,7.04251837 29.8300803,8.08461724 29.4392932,8.08461724 C29.0485061,8.08461724 28.5274567,8.2148796 28.266932,8.73592904 C28.0932488,9.08329533 27.2682539,9.56092398 25.7919471,10.168815 Z" id="Path-13-Copy" stroke="#979797"></path>
                        <path d="M12.1338059,36.9336994 C13.9184759,35.0709962 14.8108108,33.6486989 14.8108108,32.6668075 C14.8108108,31.1939704 13.6122749,30 12.1338059,30 C10.655337,30 9.45680106,31.1939704 9.45680106,32.6668075 C9.45680106,33.6486989 10.349136,35.0709962 12.1338059,36.9336994 Z" id="Oval-9-Copy-4" fill="url(#linearGradient-1)"></path>
                        <path d="M21.1338059,11.9336994 C22.9184759,10.0709962 23.8108108,8.64869887 23.8108108,7.66680747 C23.8108108,6.19397037 22.6122749,5 21.1338059,5 C19.655337,5 18.4568011,6.19397037 18.4568011,7.66680747 C18.4568011,8.64869887 19.349136,10.0709962 21.1338059,11.9336994 Z" id="Oval-9-Copy-6" fill="url(#linearGradient-1)"></path>
                    </g>
                </g>
            </g>
        </g>
    </g>
</svg>