<?xml version="1.0" encoding="UTF-8"?>
<svg width="19px" height="18px" viewBox="0 0 19 18" version="1.1" xmlns="http://www.w3.org/2000/svg" xmlns:xlink="http://www.w3.org/1999/xlink">
    <!-- Generator: Sketch 49.3 (51167) - http://www.bohemiancoding.com/sketch -->
    <title>wc</title>
    <desc>Created with Sketch.</desc>
    <defs></defs>
    <g id="Page-1" stroke="none" stroke-width="1" fill="none" fill-rule="evenodd">
        <g id="Artboard-Copy-4" transform="translate(-785.000000, -1787.000000)" stroke="#282739">
            <g id="Group-33-Copy-3" transform="translate(785.000000, 1787.000000)">
                <g id="Group-34">
                    <path d="M6.539,11.5381086 L6.00675955,15.4620925 L3.6188891,15.4620925 L1.40633216,2.63990751 L4.26937348,2.63990751 L4.88690195,6.94335708 L5.45462973,2.63990751 L7.69439964,2.63990751 L8.21713501,6.82244218 L8.80763237,2.63990751 L11.6716678,2.63990751 L9.4591109,15.4620925 L7.07124045,15.4620925 L6.539,11.5381086 Z M14.145,11.5576763 C14.145,11.8304045 14.1937918,12.0138281 14.2731386,12.1186326 C14.3308361,12.1948418 14.3896461,12.2235723 14.495,12.2235723 C14.6290179,12.2235723 14.659266,12.2052522 14.6864546,12.1385174 C14.7754774,11.9200093 14.8285448,11.7048055 14.8468291,11.4916298 L14.8860497,11.0343584 L17.579,11.0343584 L17.579,11.5343584 C17.579,12.6751535 17.3182691,13.6172021 16.7927058,14.3378616 C16.5255565,14.7226165 16.2003808,15.0292585 15.8193856,15.2532253 C15.4236743,15.4858428 14.9790795,15.602 14.495,15.602 C13.8385756,15.602 13.2643793,15.4087259 12.7927168,15.0224858 C12.3452926,14.6560942 12.0038223,14.174077 11.7699185,13.5858789 C11.6276056,13.2309655 11.5322467,12.8298504 11.4821157,12.3828992 C11.4346117,11.9593693 11.411,11.4978564 11.411,10.9980462 L11.411,7.10395376 C11.411,6.60414365 11.4346117,6.14263075 11.4821157,5.71910083 C11.5322467,5.27214956 11.6276056,4.87103448 11.7693886,4.51744824 C12.0038223,3.92792296 12.3452926,3.44590581 12.7927168,3.07951421 C13.2643793,2.69327409 13.8385756,2.5 14.495,2.5 C14.9780841,2.5 15.4242666,2.61565406 15.8245595,2.8468367 C16.2124242,3.07084158 16.5416979,3.37814696 16.8185958,3.77738847 C17.3290178,4.56501941 17.579,5.56796134 17.579,6.77750289 L17.579,7.27750289 L14.845,7.27750289 L14.845,6.77750289 C14.845,6.38656942 14.7884052,6.12493478 14.701801,5.99734553 C14.6406592,5.90726871 14.5877302,5.87842775 14.495,5.87842775 C14.4022698,5.87842775 14.3493408,5.90726871 14.288199,5.99734553 C14.2003156,6.12681947 14.145,6.37129962 14.145,6.73086705 L14.145,11.5576763 Z" id="wc"></path>
                </g>
            </g>
        </g>
    </g>
</svg>