<?xml version="1.0" encoding="UTF-8"?>
<svg width="487px" height="279px" viewBox="0 0 487 279" version="1.1" xmlns="http://www.w3.org/2000/svg" xmlns:xlink="http://www.w3.org/1999/xlink">
    <!-- Generator: Sketch 49.3 (51167) - http://www.bohemiancoding.com/sketch -->
    <title>Group 7</title>
    <desc>Created with Sketch.</desc>
    <defs>
        <linearGradient x1="2.97857406%" y1="37.5607349%" x2="100%" y2="50%" id="linearGradient-1">
            <stop stop-color="#FE74B4" offset="0%"></stop>
            <stop stop-color="#EC3389" offset="100%"></stop>
        </linearGradient>
        <linearGradient x1="50%" y1="0%" x2="50%" y2="100%" id="linearGradient-2">
            <stop stop-color="#81B2FF" offset="0%"></stop>
            <stop stop-color="#1F6DFF" offset="100%"></stop>
        </linearGradient>
        <linearGradient x1="38.7139678%" y1="-10.0638216%" x2="50%" y2="100%" id="linearGradient-3">
            <stop stop-color="#7ECDFF" offset="0%"></stop>
            <stop stop-color="#9ED9FF" offset="15.4065038%"></stop>
            <stop stop-color="#25AAFF" offset="75.2573847%"></stop>
            <stop stop-color="#00609E" offset="100%"></stop>
        </linearGradient>
        <linearGradient x1="38.7139678%" y1="-10.0638216%" x2="50%" y2="100%" id="linearGradient-4">
            <stop stop-color="#F9D65F" offset="0%"></stop>
            <stop stop-color="#FFE69B" offset="15.4065038%"></stop>
            <stop stop-color="#FFB82B" offset="75.2573847%"></stop>
            <stop stop-color="#F1AD31" offset="100%"></stop>
        </linearGradient>
    </defs>
    <g id="Page-1" stroke="none" stroke-width="1" fill="none" fill-rule="evenodd">
        <g id="Artboard-Copy-6" transform="translate(-670.000000, -1279.000000)">
            <g id="Group-7" transform="translate(670.000000, 1276.000000)">
                <path d="M173.726297,74.524262 C159.930233,80.6121125 151.020274,83.6560377 146.996422,83.6560377 C140.960644,83.6560377 137.511628,84.2648227 134.062612,88.5263181 C131.763268,91.3673149 116.530113,96.034667 88.3631485,102.528374 C82.6147883,102.528374 78.8783542,102.528374 77.1538462,102.528374 C75.4293381,102.528374 69.9683959,101.716661 60.7710197,100.093234 C57.8968396,97.6580937 54.7352415,96.4405237 51.2862254,96.4405237 C46.1127013,96.4405237 30.5921288,87.917533 23.6940966,93.3965984 C19.0954085,97.0493087 13.0596303,99.2815205 5.58676208,100.093234 L3,114.09529 L16.7960644,128.097346 C24.8437686,132.967626 28.8676208,137.634978 28.8676208,142.099402 C28.8676208,146.563826 28.8676208,152.854605 28.8676208,160.971738 L43.5259392,175.58258 L57.3220036,187.149495 L71.118068,196.281271 L83.1896243,208.456972 L93.5366726,215.153608 C95.8360167,218.400461 96.9856887,220.632673 96.9856887,221.850243 C96.9856887,223.676598 96.1234347,231.590804 115.093023,234.025944 C127.739416,235.649371 137.799046,235.243514 145.271914,232.808374 L175.450805,226.111738 L185.797853,218.806318 L210.80322,212.109682 L223.73703,206.630617 C242.131783,201.760337 252.766249,199.325196 255.640429,199.325196 C258.514609,199.325196 267.424568,196.890056 282.370304,192.019776 C292.142516,189.990492 298.178295,188.367066 300.477639,187.149495 C302.776983,185.931925 310.249851,183.902642 322.896243,181.061645 C341.290996,178.220648 352.500298,175.785508 356.52415,173.756224 C362.559928,170.712299 391.876565,163.528636 403.085868,159.145383 C414.29517,154.762131 422.055456,153.666318 427.22898,150.622393 C432.402504,147.578467 440.162791,146.969682 442.749553,143.925757 C445.336315,140.881832 460.856887,141.490617 464.305903,137.837907 C467.754919,134.185196 471.203936,131.141271 474.652952,131.141271 C476.952296,131.141271 480.401312,131.141271 485,131.141271 L483.275492,120.791925 C471.203936,125.662206 463.731067,128.097346 460.856887,128.097346 C456.545617,128.097346 447.060823,133.576411 438.438283,132.358841 C429.815742,131.141271 422.055456,131.141271 410.846154,112.268935 C403.373286,99.6873772 389.864639,73.915477 370.320215,34.9532341 L364.284436,37.3883743 L356.52415,42.2586546 C351.925462,41.0410845 349.626118,39.4176577 349.626118,37.3883743 C349.626118,34.344449 341.865832,35.5620191 341.003578,34.344449 C340.141324,33.1268789 341.865832,26.4302434 336.692308,27.0390285 C331.518784,27.6478135 328.932021,27.0390285 325.483005,28.8653836 C322.033989,30.6917388 315.998211,30.6917388 313.411449,30.6917388 C310.824687,30.6917388 306.513417,28.8653836 302.202147,28.8653836 C297.890877,28.8653836 288.406082,26.4302434 282.370304,28.8653836 L280.645796,34.9532341 C273.172928,40.2293711 267.999404,43.4762247 265.125224,44.6937948 C260.813953,46.5201499 256.502683,52.6080004 246.155635,52.6080004 C235.808587,52.6080004 230.635063,56.2607107 226.323792,58.0870658 C222.012522,59.9134209 200.456172,64.7837013 197.86941,64.7837013 C195.282648,64.7837013 191.833631,65.3924863 190.109123,67.8276265 C188.959451,69.4510533 183.498509,71.6832651 173.726297,74.524262 Z" id="Path-13" stroke="url(#linearGradient-1)" stroke-width="2" stroke-dasharray="4"></path>
                <path d="M411.272,46.412 C411.168,47.478 411.025,48.167 410.817,48.492 C410.622,48.804 410.193,48.973 409.543,48.973 L407.216,48.973 C406.436,48.973 406.059,48.583 406.059,47.816 L406.059,43.435 L409.491,43.435 L409.491,41.251 L405.89,41.251 L405.89,40.094 L410.7,40.094 L410.7,44.605 L407.281,44.605 L407.281,47.335 C407.281,47.621 407.437,47.764 407.749,47.777 L409.335,47.777 C409.647,47.777 409.842,47.647 409.933,47.387 C410.011,47.153 410.063,46.698 410.102,46.022 L411.272,46.412 Z M400.43,45.567 L401.535,45.697 C401.509,46.464 401.431,47.205 401.327,47.907 C401.665,48.453 402.029,48.869 402.445,49.181 L402.445,44.878 L399.871,44.878 L399.871,43.734 L402.146,43.734 L402.146,42.096 L400.105,42.096 L400.105,40.978 L402.146,40.978 L402.146,39.288 L403.368,39.288 L403.368,40.978 L405.292,40.978 L405.292,42.096 L403.368,42.096 L403.368,43.734 L405.461,43.734 L405.461,44.878 L403.641,44.878 L403.641,46.438 L405.37,46.438 L405.37,47.556 L403.641,47.556 L403.641,49.727 C404.473,49.896 405.942,49.987 408.074,49.987 C409.608,49.987 410.765,49.961 411.519,49.909 L411.311,51.092 L408.347,51.092 C405.292,51.092 403.381,50.91 402.614,50.572 C402.029,50.299 401.509,49.857 401.067,49.233 C400.885,49.987 400.651,50.689 400.378,51.352 L399.429,50.52 C400.027,49.038 400.352,47.387 400.43,45.567 Z M416.862,48.531 L416.862,49.792 C415.653,50.234 414.288,50.611 412.754,50.897 L412.572,49.597 C414.21,49.337 415.64,48.973 416.862,48.531 Z M414.535,39.275 L415.679,39.717 C415.081,41.251 414.483,42.486 413.859,43.448 C414.301,43.396 414.73,43.331 415.159,43.253 C415.393,42.746 415.653,42.2 415.913,41.628 L416.992,42.031 C415.952,44.189 415.094,45.762 414.392,46.737 C415.029,46.568 415.666,46.36 416.316,46.1 L416.316,47.205 C415.133,47.647 414.015,47.959 412.975,48.115 L412.65,46.997 C412.858,46.906 413.04,46.789 413.196,46.646 C413.573,46.204 414.041,45.45 414.613,44.371 C414.002,44.462 413.378,44.553 412.728,44.657 L412.429,43.539 C412.624,43.461 412.793,43.318 412.936,43.084 C413.547,41.94 414.08,40.679 414.535,39.275 Z M419.527,46.282 C420.853,46.659 422.062,47.114 423.167,47.647 L422.556,48.583 C421.36,48.011 420.138,47.569 418.877,47.231 L419.527,46.282 Z M417.954,48.362 C420.034,48.908 421.932,49.558 423.648,50.338 L422.998,51.365 C421.139,50.533 419.228,49.87 417.252,49.389 L417.954,48.362 Z M419.046,39.288 L420.294,39.444 C420.19,39.808 420.086,40.159 419.956,40.484 L423.531,40.484 L423.531,41.485 C423.011,42.499 422.387,43.396 421.659,44.15 C422.543,44.735 423.531,45.242 424.61,45.684 L423.96,46.802 C422.79,46.282 421.737,45.671 420.788,44.956 C419.735,45.827 418.513,46.503 417.122,46.971 L416.511,45.879 C417.759,45.489 418.877,44.93 419.839,44.176 C419.371,43.76 418.942,43.344 418.552,42.902 C418.253,43.253 417.928,43.591 417.59,43.903 L416.81,42.889 C417.902,41.901 418.656,40.705 419.046,39.288 Z M420.684,43.435 C421.217,42.902 421.698,42.317 422.114,41.667 L419.397,41.667 C419.319,41.784 419.254,41.901 419.189,42.018 C419.631,42.525 420.138,42.993 420.684,43.435 Z M430.681,39.418 L431.903,39.418 L431.903,40.562 L436.856,40.562 L436.856,41.719 L431.903,41.719 L431.903,43.097 L436.037,43.097 L436.037,47.504 L427.171,47.504 L427.171,43.097 L430.681,43.097 L430.681,39.418 Z M434.802,46.36 L434.802,44.254 L428.393,44.254 L428.393,46.36 L434.802,46.36 Z M427.145,47.933 L428.172,48.44 C427.704,49.558 427.145,50.52 426.521,51.326 L425.507,50.585 C426.131,49.844 426.677,48.96 427.145,47.933 Z M430.239,48.349 C430.499,49.181 430.733,50.091 430.941,51.066 L429.693,51.352 C429.537,50.312 429.329,49.389 429.082,48.596 L430.239,48.349 Z M432.943,48.18 C433.32,49.064 433.645,50.013 433.931,51.04 L432.709,51.326 C432.462,50.234 432.15,49.259 431.786,48.414 L432.943,48.18 Z M435.543,47.894 C436.362,48.96 436.986,49.883 437.428,50.676 L436.401,51.391 C435.946,50.533 435.335,49.571 434.555,48.531 L435.543,47.894 Z M442.16,40.536 C443.239,40.536 444.084,40.757 444.695,41.225 C445.345,41.706 445.709,42.447 445.8,43.461 L444.396,43.461 C444.266,42.863 444.032,42.421 443.668,42.161 C443.304,41.888 442.784,41.758 442.082,41.758 C441.471,41.758 441.003,41.849 440.678,42.031 C440.275,42.239 440.08,42.577 440.08,43.045 C440.08,43.461 440.301,43.786 440.769,44.033 C440.977,44.15 441.51,44.345 442.381,44.605 C443.629,44.995 444.448,45.294 444.812,45.515 C445.605,45.996 446.008,46.659 446.008,47.517 C446.008,48.349 445.683,48.999 445.033,49.48 C444.383,49.948 443.473,50.182 442.303,50.182 C441.172,50.182 440.288,49.948 439.651,49.506 C438.884,48.96 438.468,48.102 438.39,46.932 L439.794,46.932 C439.898,47.66 440.158,48.193 440.574,48.505 C440.951,48.791 441.523,48.934 442.303,48.934 C443.005,48.934 443.564,48.804 443.98,48.57 C444.396,48.336 444.604,48.011 444.604,47.595 C444.604,47.075 444.305,46.672 443.72,46.373 C443.512,46.269 442.901,46.061 441.874,45.749 C440.73,45.385 440.028,45.138 439.742,44.982 C439.027,44.553 438.676,43.929 438.676,43.123 C438.676,42.304 439.014,41.667 439.703,41.199 C440.353,40.757 441.172,40.536 442.16,40.536 Z M451.338,39.34 L452.534,39.34 L447.997,51.3 L446.788,51.3 L451.338,39.34 Z M453.821,40.718 L460.126,40.718 L460.126,41.927 L455.238,41.927 L455.238,44.631 L459.853,44.631 L459.853,45.84 L455.238,45.84 L455.238,50 L453.821,50 L453.821,40.718 Z" id="起终点S/F" fill="#FFFFFF"></path>
                <circle id="Oval-11" fill="url(#linearGradient-2)" cx="377.5" cy="48.5" r="5.5"></circle>
                <g id="01-copy-7" transform="translate(0.000000, 95.000000)" fill="url(#linearGradient-3)">
                    <path d="M6.5,20 C7.13729258,16.2461801 7.77926788,13.7770443 8.42592593,12.5925926 C10.3234387,9.11701178 13,10 13,6.37362637 C13,2.85356973 10.0898509,0 6.5,0 C2.91014913,0 1.40101848e-16,2.85356973 0,6.37362637 C0,10 3.06397306,8.88888889 4.5959596,12.5925926 C5.16530383,13.9690292 5.79998397,16.438165 6.5,20 Z" id="Oval-9-Copy-2"></path>
                </g>
                <g id="01-copy-3" transform="translate(108.000000, 213.000000)">
                    <path d="M6.35714286,20.2272727 C6.980429,16.4307958 7.60829496,13.9336016 8.24074074,12.7356902 C10.09655,9.22061418 12.7142857,10.1136364 12.7142857,6.44605395 C12.7142857,2.88599666 9.86809591,0 6.35714286,0 C2.8461898,0 1.37022687e-16,2.88599666 0,6.44605395 C0,10.1136364 2.996633,8.98989899 4.49494949,12.7356902 C5.05178067,14.1277682 5.67251179,16.6249623 6.35714286,20.2272727 Z" id="Oval-9-Copy-2" fill="url(#linearGradient-4)"></path>
                    <path d="M7.44,42.94 L7.44,43.82 C7.44,44.2600022 7.3566675,44.6766647 7.19,45.07 C7.0233325,45.4633353 6.7933348,45.8133318 6.5,46.12 C6.2066652,46.4266682 5.8633353,46.6699991 5.47,46.85 C5.0766647,47.0300009 4.6533356,47.12 4.2,47.12 C3.8133314,47.12 3.420002,47.0666672 3.02,46.96 C2.619998,46.8533328 2.2600016,46.666668 1.94,46.4 C1.6199984,46.133332 1.3566677,45.7900021 1.15,45.37 C0.9433323,44.9499979 0.84,44.4133366 0.84,43.76 L0.84,35.92 C0.84,35.453331 0.9199992,35.020002 1.08,34.62 C1.2400008,34.219998 1.4666652,33.8733348 1.76,33.58 C2.0533348,33.2866652 2.4033313,33.0566675 2.81,32.89 C3.2166687,32.7233325 3.6666642,32.64 4.16,32.64 C5.1200048,32.64 5.899997,32.9533302 6.5,33.58 C6.7933348,33.8866682 7.0233325,34.2499979 7.19,34.67 C7.3566675,35.0900021 7.44,35.5466642 7.44,36.04 L7.44,36.84 L5.4,36.84 L5.4,36.16 C5.4,35.759998 5.2866678,35.4133348 5.06,35.12 C4.8333322,34.8266652 4.5266686,34.68 4.14,34.68 C3.6333308,34.68 3.2966675,34.8366651 3.13,35.15 C2.9633325,35.4633349 2.88,35.8599976 2.88,36.34 L2.88,43.62 C2.88,44.0333354 2.9699991,44.3799986 3.15,44.66 C3.3300009,44.9400014 3.653331,45.08 4.12,45.08 C4.253334,45.08 4.3966659,45.0566669 4.55,45.01 C4.7033341,44.9633331 4.846666,44.8866672 4.98,44.78 C5.1000006,44.6733328 5.1999996,44.5266676 5.28,44.34 C5.3600004,44.1533324 5.4,43.9200014 5.4,43.64 L5.4,42.94 L7.44,42.94 Z M9.1,47 L9.1,32.76 L12.16,32.76 C12.7200028,32.76 13.2133312,32.8333326 13.64,32.98 C14.0666688,33.1266674 14.4533316,33.3866648 14.8,33.76 C15.1466684,34.1333352 15.386666,34.5699975 15.52,35.07 C15.653334,35.5700025 15.72,36.2466624 15.72,37.1 C15.72,37.7400032 15.6833337,38.2799978 15.61,38.72 C15.5366663,39.1600022 15.3800012,39.5733314 15.14,39.96 C14.8599986,40.426669 14.486669,40.7899987 14.02,41.05 C13.553331,41.3100013 12.9400038,41.44 12.18,41.44 L11.14,41.44 L11.14,47 L9.1,47 Z M11.14,34.68 L11.14,39.52 L12.12,39.52 C12.5333354,39.52 12.8533322,39.4600006 13.08,39.34 C13.3066678,39.2199994 13.4733328,39.0533344 13.58,38.84 C13.6866672,38.639999 13.7499999,38.3933348 13.77,38.1 C13.7900001,37.8066652 13.8,37.4800018 13.8,37.12 C13.8,36.786665 13.7933334,36.4700015 13.78,36.17 C13.7666666,35.8699985 13.7066672,35.6066678 13.6,35.38 C13.4933328,35.1533322 13.3333344,34.9800006 13.12,34.86 C12.9066656,34.7399994 12.600002,34.68 12.2,34.68 L11.14,34.68 Z M19.38,47 L19.38,34.92 L17.34,36.42 L17.34,34.26 L19.38,32.76 L21.42,32.76 L21.42,47 L19.38,47 Z" id="CP1" fill="#FFFFFF"></path>
                    <path d="M67.544,68 L67.544,66.464 L70.488,60.912 C70.6373341,60.6346653 70.7226666,60.392001 70.744,60.184 C70.7653334,59.975999 70.776,59.7173349 70.776,59.408 C70.776,59.2693326 70.7733334,59.1226674 70.768,58.968 C70.7626666,58.8133326 70.7333336,58.6773339 70.68,58.56 C70.6266664,58.4426661 70.5466672,58.3440004 70.44,58.264 C70.3333328,58.1839996 70.1786677,58.144 69.976,58.144 C69.7306654,58.144 69.5360007,58.2133326 69.392,58.352 C69.2479993,58.4906674 69.176,58.693332 69.176,58.96 L69.176,59.888 L67.544,59.888 L67.544,58.992 C67.544,58.650665 67.6079994,58.3306682 67.736,58.032 C67.8640006,57.7333318 68.0399989,57.4720011 68.264,57.248 C68.4773344,57.0239989 68.7333318,56.845334 69.032,56.712 C69.3306682,56.578666 69.650665,56.512 69.992,56.512 C70.4186688,56.512 70.7839985,56.5893326 71.088,56.744 C71.3920015,56.8986674 71.6453323,57.109332 71.848,57.376 C72.040001,57.642668 72.1813329,57.946665 72.272,58.288 C72.3626671,58.629335 72.408,58.9919981 72.408,59.376 C72.408,59.6533347 72.4026667,59.8853324 72.392,60.072 C72.3813333,60.2586676 72.3600002,60.4373325 72.328,60.608 C72.2959998,60.7786675 72.242667,60.9493325 72.168,61.12 C72.093333,61.2906675 71.9920006,61.4986654 71.864,61.744 L69.464,66.368 L72.408,66.368 L72.408,68 L67.544,68 Z M73.624,68 L73.624,66.368 L75.256,66.368 L75.256,68 L73.624,68 Z M81.336,56.608 L81.336,58.144 L78.104,58.144 L78.104,61.216 C78.2533341,61.0666659 78.4453322,60.9413338 78.68,60.84 C78.9146678,60.7386662 79.1759986,60.688 79.464,60.688 C80.0186694,60.688 80.4693316,60.8559983 80.816,61.192 C81.1626684,61.5280017 81.336,62.0319966 81.336,62.704 L81.336,65.648 C81.336,66.0320019 81.269334,66.3733318 81.136,66.672 C81.002666,66.9706682 80.8240011,67.2266656 80.6,67.44 C80.3759989,67.6533344 80.1173348,67.8159994 79.824,67.928 C79.5306652,68.0400006 79.2240016,68.096 78.904,68.096 C78.5839984,68.096 78.2773348,68.0400006 77.984,67.928 C77.6906652,67.8159994 77.4320011,67.6533344 77.208,67.44 C76.9839989,67.2266656 76.805334,66.9706682 76.672,66.672 C76.538666,66.3733318 76.472,66.0320019 76.472,65.648 L76.472,65.168 L78.104,65.168 L78.104,65.584 C78.104,65.8613347 78.1813326,66.0773326 78.336,66.232 C78.4906674,66.3866674 78.6906654,66.464 78.936,66.464 C79.1813346,66.464 79.370666,66.3893341 79.504,66.24 C79.637334,66.0906659 79.704,65.882668 79.704,65.616 L79.704,62.944 C79.704,62.7199989 79.6320007,62.5280008 79.488,62.368 C79.3439993,62.2079992 79.1600011,62.128 78.936,62.128 C78.7973326,62.128 78.6800005,62.1519998 78.584,62.2 C78.4879995,62.2480002 78.4080003,62.3039997 78.344,62.368 C78.2799997,62.4320003 78.2320002,62.501333 78.2,62.576 C78.1466664,62.6720005 78.1146667,62.7306666 78.104,62.752 L76.664,62.752 L76.664,56.608 L81.336,56.608 Z M87.288,56.608 L87.288,58.144 L84.056,58.144 L84.056,61.216 C84.2053341,61.0666659 84.3973322,60.9413338 84.632,60.84 C84.8666678,60.7386662 85.1279986,60.688 85.416,60.688 C85.9706694,60.688 86.4213316,60.8559983 86.768,61.192 C87.1146684,61.5280017 87.288,62.0319966 87.288,62.704 L87.288,65.648 C87.288,66.0320019 87.221334,66.3733318 87.088,66.672 C86.954666,66.9706682 86.7760011,67.2266656 86.552,67.44 C86.3279989,67.6533344 86.0693348,67.8159994 85.776,67.928 C85.4826652,68.0400006 85.1760016,68.096 84.856,68.096 C84.5359984,68.096 84.2293348,68.0400006 83.936,67.928 C83.6426652,67.8159994 83.3840011,67.6533344 83.16,67.44 C82.9359989,67.2266656 82.757334,66.9706682 82.624,66.672 C82.490666,66.3733318 82.424,66.0320019 82.424,65.648 L82.424,65.168 L84.056,65.168 L84.056,65.584 C84.056,65.8613347 84.1333326,66.0773326 84.288,66.232 C84.4426674,66.3866674 84.6426654,66.464 84.888,66.464 C85.1333346,66.464 85.322666,66.3893341 85.456,66.24 C85.589334,66.0906659 85.656,65.882668 85.656,65.616 L85.656,62.944 C85.656,62.7199989 85.5840007,62.5280008 85.44,62.368 C85.2959993,62.2079992 85.1120011,62.128 84.888,62.128 C84.7493326,62.128 84.6320005,62.1519998 84.536,62.2 C84.4399995,62.2480002 84.3600003,62.3039997 84.296,62.368 C84.2319997,62.4320003 84.1840002,62.501333 84.152,62.576 C84.0986664,62.6720005 84.0666667,62.7306666 84.056,62.752 L82.616,62.752 L82.616,56.608 L87.288,56.608 Z M88.6,68 L88.6,56.608 L90.232,56.608 L90.232,61.808 L90.264,61.808 L92.648,56.608 L94.28,56.608 L92.056,61.168 L94.696,68 L92.968,68 L91.112,62.944 L90.232,64.592 L90.232,68 L88.6,68 Z M95.416,68 L95.416,56.608 L96.984,56.608 L99.08,62.64 L99.112,62.64 L101.192,56.608 L102.776,56.608 L102.776,68 L101.144,68 L101.144,61.072 L101.112,61.072 L99.496,65.968 L98.68,65.968 L97.08,61.072 L97.048,61.072 L97.048,68 L95.416,68 Z" id="2.55KM" fill="#FFFFFF"></path>
                    <path d="M2.847,60.162 C2.405,61.02 1.911,61.787 1.391,62.45 L0.546,61.436 C1.482,60.318 2.275,58.771 2.951,56.769 L4.121,57.042 C3.887,57.731 3.653,58.368 3.406,58.966 L6.188,58.966 L6.188,56.314 L7.423,56.314 L7.423,58.966 L11.661,58.966 L11.661,60.162 L7.423,60.162 L7.423,63.139 L12.402,63.139 L12.402,64.348 L7.423,64.348 L7.423,68.274 L6.188,68.274 L6.188,64.348 L0.728,64.348 L0.728,63.139 L6.188,63.139 L6.188,60.162 L2.847,60.162 Z M15.496,56.925 L23.569,56.925 L23.569,65.102 L15.496,65.102 L15.496,56.925 Z M22.334,63.919 L22.334,61.462 L16.744,61.462 L16.744,63.919 L22.334,63.919 Z M16.744,60.383 L22.334,60.383 L22.334,58.108 L16.744,58.108 L16.744,60.383 Z M13.715,66.714 L25.298,66.714 L25.298,67.923 L13.715,67.923 L13.715,66.714 Z M27.651,56.366 C28.587,57.042 29.367,57.705 30.004,58.368 L29.133,59.239 C28.574,58.615 27.794,57.939 26.793,57.211 L27.651,56.366 Z M27.43,59.551 C28.288,60.188 29.016,60.838 29.601,61.488 L28.743,62.346 C28.223,61.748 27.495,61.098 26.559,60.396 L27.43,59.551 Z M28.704,62.983 L29.783,63.399 C29.224,65.089 28.6,66.675 27.924,68.17 L26.702,67.624 C27.469,66.116 28.132,64.569 28.704,62.983 Z M38.051,58.121 C38.051,62.801 37.986,65.7 37.856,66.792 C37.713,67.806 37.089,68.313 35.984,68.313 C35.62,68.313 35.022,68.287 34.177,68.248 L33.878,67.104 C34.606,67.143 35.23,67.169 35.776,67.169 C36.296,67.169 36.582,66.857 36.66,66.233 C36.738,65.557 36.79,63.243 36.816,59.317 L32.123,59.317 C31.629,60.253 31.031,61.085 30.316,61.826 L29.536,60.799 C30.732,59.551 31.538,58.03 31.967,56.223 L33.189,56.379 C33.046,56.977 32.864,57.562 32.656,58.121 L38.051,58.121 Z M34.619,62.216 C35.178,63.191 35.711,64.257 36.231,65.401 L35.152,65.947 C35.022,65.622 34.905,65.31 34.788,65.024 C33.527,65.284 32.136,65.492 30.602,65.635 L30.394,64.53 C30.992,64.309 31.824,62.879 32.89,60.253 L34.034,60.643 C33.332,62.164 32.63,63.438 31.902,64.465 C32.76,64.374 33.579,64.231 34.359,64.049 C34.125,63.555 33.891,63.087 33.657,62.671 L34.619,62.216 Z M44.785,59.447 C44.213,58.394 43.511,57.575 42.692,56.99 L43.719,56.34 C44.811,57.107 45.773,58.563 46.618,60.721 C47.853,63.763 49.452,65.908 51.428,67.182 L50.661,68.157 C48.62,66.935 46.917,64.595 45.539,61.124 C45.5,61.033 45.474,60.955 45.448,60.877 C44.564,64.023 42.809,66.454 40.183,68.17 L39.442,67.117 C42.146,65.336 43.927,62.775 44.785,59.447 Z M63.362,57.796 L63.362,68.131 L62.101,68.131 L62.101,67.39 L54.899,67.39 L54.899,68.131 L53.651,68.131 L53.651,57.796 L63.362,57.796 Z M54.899,66.181 L62.101,66.181 L62.101,59.005 L54.899,59.005 L54.899,66.181 Z" id="牛旦沟入口" fill="#FFFFFF"></path>
                </g>
                <g id="01-copy-6" transform="translate(1.000000, 0.000000)">
                    <path d="M164.357143,76.2272727 C164.980429,72.4307958 165.608295,69.9336016 166.240741,68.7356902 C168.09655,65.2206142 170.714286,66.1136364 170.714286,62.4460539 C170.714286,58.8859967 167.868096,56 164.357143,56 C160.84619,56 158,58.8859967 158,62.4460539 C158,66.1136364 160.996633,64.989899 162.494949,68.7356902 C163.051781,70.1277682 163.672512,72.6249623 164.357143,76.2272727 Z" id="Oval-9-Copy-2" fill="url(#linearGradient-3)"></path>
                    <path d="M165.56,29.86 L163.52,29.86 L163.52,29.4 C163.52,28.933331 163.410001,28.5300017 163.19,28.19 C162.969999,27.8499983 162.600003,27.68 162.08,27.68 C161.799999,27.68 161.573334,27.7333328 161.4,27.84 C161.226666,27.9466672 161.086667,28.0799992 160.98,28.24 C160.873333,28.4133342 160.8,28.6099989 160.76,28.83 C160.72,29.0500011 160.7,29.2799988 160.7,29.52 C160.7,29.8000014 160.71,30.0333324 160.73,30.22 C160.75,30.4066676 160.8,30.5733326 160.88,30.72 C160.96,30.8666674 161.076666,30.9933328 161.23,31.1 C161.383334,31.2066672 161.593332,31.3133328 161.86,31.42 L163.42,32.04 C163.873336,32.2133342 164.239999,32.4166655 164.52,32.65 C164.800001,32.8833345 165.019999,33.1533318 165.18,33.46 C165.326667,33.7800016 165.426666,34.1433313 165.48,34.55 C165.533334,34.9566687 165.56,35.4199974 165.56,35.94 C165.56,36.540003 165.500001,37.0966641 165.38,37.61 C165.259999,38.1233359 165.066668,38.5599982 164.8,38.92 C164.519999,39.2933352 164.153336,39.5866656 163.7,39.8 C163.246664,40.0133344 162.693337,40.12 162.04,40.12 C161.546664,40.12 161.086669,40.0333342 160.66,39.86 C160.233331,39.6866658 159.866668,39.4466682 159.56,39.14 C159.253332,38.8333318 159.010001,38.4766687 158.83,38.07 C158.649999,37.6633313 158.56,37.2200024 158.56,36.74 L158.56,35.98 L160.6,35.98 L160.6,36.62 C160.6,36.9933352 160.709999,37.3299985 160.93,37.63 C161.150001,37.9300015 161.519997,38.08 162.04,38.08 C162.386668,38.08 162.656666,38.0300005 162.85,37.93 C163.043334,37.8299995 163.193333,37.6866676 163.3,37.5 C163.406667,37.3133324 163.47,37.0900013 163.49,36.83 C163.51,36.5699987 163.52,36.2800016 163.52,35.96 C163.52,35.5866648 163.506667,35.2800012 163.48,35.04 C163.453333,34.7999988 163.4,34.6066674 163.32,34.46 C163.226666,34.3133326 163.103334,34.1933338 162.95,34.1 C162.796666,34.0066662 162.593335,33.9066672 162.34,33.8 L160.88,33.2 C159.999996,32.8399982 159.410001,32.3633363 159.11,31.77 C158.809999,31.1766637 158.66,30.4333378 158.66,29.54 C158.66,29.006664 158.733333,28.5000024 158.88,28.02 C159.026667,27.5399976 159.246665,27.1266684 159.54,26.78 C159.820001,26.4333316 160.176664,26.1566677 160.61,25.95 C161.043336,25.7433323 161.559997,25.64 162.16,25.64 C162.666669,25.64 163.129998,25.7333324 163.55,25.92 C163.970002,26.1066676 164.333332,26.3533318 164.64,26.66 C165.253336,27.3000032 165.56,28.0333292 165.56,28.86 L165.56,29.86 Z M167.08,40 L167.08,25.76 L170.14,25.76 C170.700003,25.76 171.193331,25.8333326 171.62,25.98 C172.046669,26.1266674 172.433332,26.3866648 172.78,26.76 C173.126668,27.1333352 173.366666,27.5699975 173.5,28.07 C173.633334,28.5700025 173.7,29.2466624 173.7,30.1 C173.7,30.7400032 173.663334,31.2799978 173.59,31.72 C173.516666,32.1600022 173.360001,32.5733314 173.12,32.96 C172.839999,33.426669 172.466669,33.7899987 172,34.05 C171.533331,34.3100013 170.920004,34.44 170.16,34.44 L169.12,34.44 L169.12,40 L167.08,40 Z M169.12,27.68 L169.12,32.52 L170.1,32.52 C170.513335,32.52 170.833332,32.4600006 171.06,32.34 C171.286668,32.2199994 171.453333,32.0533344 171.56,31.84 C171.666667,31.639999 171.73,31.3933348 171.75,31.1 C171.77,30.8066652 171.78,30.4800018 171.78,30.12 C171.78,29.786665 171.773333,29.4700015 171.76,29.17 C171.746667,28.8699985 171.686667,28.6066678 171.58,28.38 C171.473333,28.1533322 171.313334,27.9800006 171.1,27.86 C170.886666,27.7399994 170.580002,27.68 170.18,27.68 L169.12,27.68 Z M174.94,40 L174.94,38.08 L178.62,31.14 C178.806668,30.7933316 178.913333,30.4900013 178.94,30.23 C178.966667,29.9699987 178.98,29.6466686 178.98,29.26 C178.98,29.0866658 178.976667,28.9033343 178.97,28.71 C178.963333,28.5166657 178.926667,28.3466674 178.86,28.2 C178.793333,28.0533326 178.693334,27.9300005 178.56,27.83 C178.426666,27.7299995 178.233335,27.68 177.98,27.68 C177.673332,27.68 177.430001,27.7666658 177.25,27.94 C177.069999,28.1133342 176.98,28.366665 176.98,28.7 L176.98,29.86 L174.94,29.86 L174.94,28.74 C174.94,28.3133312 175.019999,27.9133352 175.18,27.54 C175.340001,27.1666648 175.559999,26.8400014 175.84,26.56 C176.106668,26.2799986 176.426665,26.0566675 176.8,25.89 C177.173335,25.7233325 177.573331,25.64 178,25.64 C178.533336,25.64 178.989998,25.7366657 179.37,25.93 C179.750002,26.1233343 180.066665,26.386665 180.32,26.72 C180.560001,27.053335 180.736666,27.4333312 180.85,27.86 C180.963334,28.2866688 181.02,28.7399976 181.02,29.22 C181.02,29.5666684 181.013333,29.8566655 181,30.09 C180.986667,30.3233345 180.96,30.5466656 180.92,30.76 C180.88,30.9733344 180.813334,31.1866656 180.72,31.4 C180.626666,31.6133344 180.500001,31.8733318 180.34,32.18 L177.34,37.96 L181.02,37.96 L181.02,40 L174.94,40 Z" id="SP2" fill="#FFFFFF"></path>
                    <path d="M189.392,15 L189.392,13.304 L186.144,13.304 L186.144,11.768 L188.496,3.608 L190.224,3.608 L187.776,11.768 L189.392,11.768 L189.392,8.52 L191.024,8.52 L191.024,11.768 L191.808,11.768 L191.808,13.304 L191.024,13.304 L191.024,15 L189.392,15 Z M192.624,15 L192.624,13.368 L194.256,13.368 L194.256,15 L192.624,15 Z M200.336,3.608 L200.336,5.144 L197.104,5.144 L197.104,8.216 C197.253334,8.06666592 197.445332,7.94133384 197.68,7.84 C197.914668,7.73866616 198.175999,7.688 198.464,7.688 C199.018669,7.688 199.469332,7.85599832 199.816,8.192 C200.162668,8.52800168 200.336,9.03199664 200.336,9.704 L200.336,12.648 C200.336,13.0320019 200.269334,13.3733318 200.136,13.672 C200.002666,13.9706682 199.824001,14.2266656 199.6,14.44 C199.375999,14.6533344 199.117335,14.8159994 198.824,14.928 C198.530665,15.0400006 198.224002,15.096 197.904,15.096 C197.583998,15.096 197.277335,15.0400006 196.984,14.928 C196.690665,14.8159994 196.432001,14.6533344 196.208,14.44 C195.983999,14.2266656 195.805334,13.9706682 195.672,13.672 C195.538666,13.3733318 195.472,13.0320019 195.472,12.648 L195.472,12.168 L197.104,12.168 L197.104,12.584 C197.104,12.8613347 197.181333,13.0773326 197.336,13.232 C197.490667,13.3866674 197.690665,13.464 197.936,13.464 C198.181335,13.464 198.370666,13.3893341 198.504,13.24 C198.637334,13.0906659 198.704,12.882668 198.704,12.616 L198.704,9.944 C198.704,9.71999888 198.632001,9.5280008 198.488,9.368 C198.343999,9.2079992 198.160001,9.128 197.936,9.128 C197.797333,9.128 197.68,9.15199976 197.584,9.2 C197.488,9.24800024 197.408,9.30399968 197.344,9.368 C197.28,9.43200032 197.232,9.50133296 197.2,9.576 C197.146666,9.67200048 197.114667,9.73066656 197.104,9.752 L195.664,9.752 L195.664,3.608 L200.336,3.608 Z M201.648,15 L201.648,3.608 L203.28,3.608 L203.28,8.808 L203.312,8.808 L205.696,3.608 L207.328,3.608 L205.104,8.168 L207.744,15 L206.016,15 L204.16,9.944 L203.28,11.592 L203.28,15 L201.648,15 Z M208.464,15 L208.464,3.608 L210.032,3.608 L212.128,9.64 L212.16,9.64 L214.24,3.608 L215.824,3.608 L215.824,15 L214.192,15 L214.192,8.072 L214.16,8.072 L212.544,12.968 L211.728,12.968 L210.128,8.072 L210.096,8.072 L210.096,15 L208.464,15 Z" id="4.5KM" fill="#FFFFFF"></path>
                    <path d="M161.224,3.379 L162.472,3.379 L162.472,4.237 L164.734,4.237 L164.734,5.368 L162.472,5.368 L162.472,6.33 L164.409,6.33 L164.409,7.409 L162.472,7.409 L162.472,8.397 L164.539,8.397 L164.539,8.488 C165.215,7.136 165.683,5.394 165.943,3.236 L167.165,3.444 C167.087,4.068 166.983,4.666 166.866,5.225 L170.246,5.225 L170.246,6.408 L169.466,6.408 C169.401,8.514 169.011,10.308 168.309,11.803 C168.946,12.843 169.7,13.649 170.584,14.247 L169.856,15.313 C169.024,14.715 168.309,13.935 167.685,12.947 C167.035,13.922 166.229,14.741 165.267,15.417 L164.604,14.338 C165.618,13.688 166.424,12.83 167.022,11.79 C166.554,10.854 166.138,9.788 165.8,8.605 C165.605,9.008 165.397,9.385 165.189,9.723 L164.539,8.93 L164.539,9.528 L161.445,9.528 C161.393,9.905 161.354,10.256 161.302,10.594 L164.37,10.594 C164.344,12.804 164.214,14.13 163.967,14.572 C163.707,15.014 163.265,15.235 162.641,15.235 C162.368,15.235 162.03,15.209 161.64,15.183 L161.341,14.091 L162.381,14.156 C162.719,14.143 162.94,14 163.031,13.74 C163.122,13.48 163.174,12.778 163.2,11.66 L161.107,11.66 C161.003,12.128 160.886,12.544 160.769,12.895 C160.405,13.831 159.885,14.676 159.183,15.43 L158.403,14.429 C158.975,13.805 159.417,13.103 159.703,12.349 C159.95,11.634 160.145,10.698 160.288,9.528 L158.663,9.528 L158.663,8.397 L161.224,8.397 L161.224,7.409 L159.261,7.409 L159.261,6.33 L161.224,6.33 L161.224,5.368 L158.884,5.368 L158.884,4.237 L161.224,4.237 L161.224,3.379 Z M166.593,6.408 C166.541,6.564 166.502,6.733 166.45,6.889 C166.749,8.254 167.139,9.45 167.607,10.49 C168.036,9.294 168.27,7.942 168.322,6.408 L166.593,6.408 Z M179.346,7.214 L179.346,11.387 L174.718,11.387 L174.718,13.506 C174.718,13.844 174.913,14.013 175.316,14.013 L181.296,14.013 C181.569,13.987 181.751,13.883 181.855,13.675 C181.933,13.506 181.998,13.038 182.076,12.271 L183.246,12.648 C183.168,13.428 183.064,13.987 182.947,14.325 C182.765,14.858 182.336,15.144 181.686,15.17 L174.809,15.17 C173.925,15.17 173.483,14.767 173.483,13.987 L173.483,7.604 C173.197,7.942 172.898,8.267 172.599,8.553 L171.741,7.513 C172.885,6.473 173.86,5.043 174.666,3.223 L175.914,3.509 C175.745,3.899 175.576,4.263 175.407,4.627 L182.518,4.627 C182.518,8.033 182.44,10.139 182.31,10.945 C182.18,11.751 181.647,12.167 180.698,12.167 C180.542,12.167 180.269,12.141 179.879,12.115 L179.58,11.01 C179.944,11.049 180.256,11.075 180.516,11.075 C180.854,11.075 181.062,10.841 181.114,10.399 C181.192,9.931 181.231,8.41 181.257,5.81 L174.757,5.81 C174.445,6.317 174.133,6.785 173.795,7.214 L179.346,7.214 Z M174.718,10.269 L178.098,10.269 L178.098,8.332 L174.718,8.332 L174.718,10.269 Z" id="敖包" fill="#FFFFFF"></path>
                    <path d="M7.56,68.86 L5.52,68.86 L5.52,68.4 C5.52,67.933331 5.4100011,67.5300017 5.19,67.19 C4.9699989,66.8499983 4.6000026,66.68 4.08,66.68 C3.7999986,66.68 3.5733342,66.7333328 3.4,66.84 C3.2266658,66.9466672 3.0866672,67.0799992 2.98,67.24 C2.8733328,67.4133342 2.8000002,67.6099989 2.76,67.83 C2.7199998,68.0500011 2.7,68.2799988 2.7,68.52 C2.7,68.8000014 2.7099999,69.0333324 2.73,69.22 C2.7500001,69.4066676 2.7999996,69.5733326 2.88,69.72 C2.9600004,69.8666674 3.0766659,69.9933328 3.23,70.1 C3.3833341,70.2066672 3.593332,70.3133328 3.86,70.42 L5.42,71.04 C5.8733356,71.2133342 6.2399986,71.4166655 6.52,71.65 C6.8000014,71.8833345 7.0199992,72.1533318 7.18,72.46 C7.3266674,72.7800016 7.4266664,73.1433313 7.48,73.55 C7.5333336,73.9566687 7.56,74.4199974 7.56,74.94 C7.56,75.540003 7.5000006,76.0966641 7.38,76.61 C7.2599994,77.1233359 7.066668,77.5599982 6.8,77.92 C6.5199986,78.2933352 6.1533356,78.5866656 5.7,78.8 C5.2466644,79.0133344 4.6933366,79.12 4.04,79.12 C3.5466642,79.12 3.0866688,79.0333342 2.66,78.86 C2.2333312,78.6866658 1.8666682,78.4466682 1.56,78.14 C1.2533318,77.8333318 1.0100009,77.4766687 0.83,77.07 C0.6499991,76.6633313 0.56,76.2200024 0.56,75.74 L0.56,74.98 L2.6,74.98 L2.6,75.62 C2.6,75.9933352 2.7099989,76.3299985 2.93,76.63 C3.1500011,76.9300015 3.5199974,77.08 4.04,77.08 C4.3866684,77.08 4.6566657,77.0300005 4.85,76.93 C5.0433343,76.8299995 5.1933328,76.6866676 5.3,76.5 C5.4066672,76.3133324 5.4699999,76.0900013 5.49,75.83 C5.5100001,75.5699987 5.52,75.2800016 5.52,74.96 C5.52,74.5866648 5.5066668,74.2800012 5.48,74.04 C5.4533332,73.7999988 5.4000004,73.6066674 5.32,73.46 C5.2266662,73.3133326 5.1033341,73.1933338 4.95,73.1 C4.7966659,73.0066662 4.5933346,72.9066672 4.34,72.8 L2.88,72.2 C1.9999956,71.8399982 1.4100015,71.3633363 1.11,70.77 C0.8099985,70.1766637 0.66,69.4333378 0.66,68.54 C0.66,68.006664 0.7333326,67.5000024 0.88,67.02 C1.0266674,66.5399976 1.2466652,66.1266684 1.54,65.78 C1.8200014,65.4333316 2.1766645,65.1566677 2.61,64.95 C3.0433355,64.7433323 3.559997,64.64 4.16,64.64 C4.6666692,64.64 5.1299979,64.7333324 5.55,64.92 C5.9700021,65.1066676 6.3333318,65.3533318 6.64,65.66 C7.2533364,66.3000032 7.56,67.0333292 7.56,67.86 L7.56,68.86 Z M9.08,79 L9.08,64.76 L12.14,64.76 C12.7000028,64.76 13.1933312,64.8333326 13.62,64.98 C14.0466688,65.1266674 14.4333316,65.3866648 14.78,65.76 C15.1266684,66.1333352 15.366666,66.5699975 15.5,67.07 C15.633334,67.5700025 15.7,68.2466624 15.7,69.1 C15.7,69.7400032 15.6633337,70.2799978 15.59,70.72 C15.5166663,71.1600022 15.3600012,71.5733314 15.12,71.96 C14.8399986,72.426669 14.466669,72.7899987 14,73.05 C13.533331,73.3100013 12.9200038,73.44 12.16,73.44 L11.12,73.44 L11.12,79 L9.08,79 Z M11.12,66.68 L11.12,71.52 L12.1,71.52 C12.5133354,71.52 12.8333322,71.4600006 13.06,71.34 C13.2866678,71.2199994 13.4533328,71.0533344 13.56,70.84 C13.6666672,70.639999 13.7299999,70.3933348 13.75,70.1 C13.7700001,69.8066652 13.78,69.4800018 13.78,69.12 C13.78,68.786665 13.7733334,68.4700015 13.76,68.17 C13.7466666,67.8699985 13.6866672,67.6066678 13.58,67.38 C13.4733328,67.1533322 13.3133344,66.9800006 13.1,66.86 C12.8866656,66.7399994 12.580002,66.68 12.18,66.68 L11.12,66.68 Z M19.36,79 L19.36,66.92 L17.32,68.42 L17.32,66.26 L19.36,64.76 L21.4,64.76 L21.4,79 L19.36,79 Z" id="SP1" fill="#FFFFFF"></path>
                    <path d="M95.48,47.408 C95.9706691,47.408 96.3093324,47.3493339 96.496,47.232 C96.6826676,47.1146661 96.776,46.8426688 96.776,46.416 L96.776,44.944 C96.776,44.7093322 96.7040007,44.5173341 96.56,44.368 C96.4159993,44.2186659 96.2213346,44.144 95.976,44.144 C95.6879986,44.144 95.4826673,44.2346658 95.36,44.416 C95.2373327,44.5973342 95.176,44.7733325 95.176,44.944 L95.176,45.872 L93.544,45.872 L93.544,44.928 C93.544,44.5973317 93.6079994,44.2826682 93.736,43.984 C93.8640006,43.6853318 94.0399989,43.4293344 94.264,43.216 C94.4880011,43.0026656 94.7493318,42.8320006 95.048,42.704 C95.3466682,42.5759994 95.666665,42.512 96.008,42.512 C96.4560022,42.512 96.8266652,42.5999991 97.12,42.776 C97.4133348,42.9520009 97.6346659,43.1306658 97.784,43.312 C97.8906672,43.4400006 97.9839996,43.5679994 98.064,43.696 C98.1440004,43.8240006 98.2106664,43.9786658 98.264,44.16 C98.3600005,44.5120018 98.408,45.0346632 98.408,45.728 C98.408,46.1226686 98.4000001,46.4426654 98.384,46.688 C98.3679999,46.9333346 98.3280003,47.1359992 98.264,47.296 C98.189333,47.4666675 98.085334,47.6106661 97.952,47.728 C97.818666,47.8453339 97.6346678,47.9733326 97.4,48.112 C97.6560013,48.2720008 97.850666,48.4213326 97.984,48.56 C98.117334,48.6986674 98.2159997,48.8586658 98.28,49.04 C98.3440003,49.232001 98.3813333,49.4586654 98.392,49.72 C98.4026667,49.9813346 98.408,50.3146646 98.408,50.72 C98.408,51.0933352 98.4000001,51.4026654 98.384,51.648 C98.3679999,51.8933346 98.3440002,52.0959992 98.312,52.256 C98.2799998,52.4266675 98.2373336,52.5706661 98.184,52.688 C98.1306664,52.8053339 98.0613338,52.9279994 97.976,53.056 C97.7733323,53.3546682 97.5146682,53.6026657 97.2,53.8 C96.8853318,53.9973343 96.4720026,54.096 95.96,54.096 C95.7039987,54.096 95.4320014,54.0533338 95.144,53.968 C94.8559986,53.8826662 94.5946678,53.744001 94.36,53.552 C94.1253322,53.359999 93.9306674,53.1093349 93.776,52.8 C93.6213326,52.4906651 93.544,52.1120022 93.544,51.664 L93.544,50.736 L95.176,50.736 L95.176,51.584 C95.176,51.8400013 95.2479993,52.0506658 95.392,52.216 C95.5360007,52.3813342 95.7306654,52.464 95.976,52.464 C96.2213346,52.464 96.4159993,52.3813342 96.56,52.216 C96.7040007,52.0506658 96.776,51.8293347 96.776,51.552 L96.776,49.92 C96.776,49.4719978 96.6906675,49.1786674 96.52,49.04 C96.4239995,48.9546662 96.2933342,48.9013334 96.128,48.88 C95.9626658,48.8586666 95.746668,48.848 95.48,48.848 L95.48,47.408 Z M99.624,54 L99.624,52.368 L101.256,52.368 L101.256,54 L99.624,54 Z M107.336,42.608 L107.336,44.144 L104.104,44.144 L104.104,47.216 C104.253334,47.0666659 104.445332,46.9413338 104.68,46.84 C104.914668,46.7386662 105.175999,46.688 105.464,46.688 C106.018669,46.688 106.469332,46.8559983 106.816,47.192 C107.162668,47.5280017 107.336,48.0319966 107.336,48.704 L107.336,51.648 C107.336,52.0320019 107.269334,52.3733318 107.136,52.672 C107.002666,52.9706682 106.824001,53.2266656 106.6,53.44 C106.375999,53.6533344 106.117335,53.8159994 105.824,53.928 C105.530665,54.0400006 105.224002,54.096 104.904,54.096 C104.583998,54.096 104.277335,54.0400006 103.984,53.928 C103.690665,53.8159994 103.432001,53.6533344 103.208,53.44 C102.983999,53.2266656 102.805334,52.9706682 102.672,52.672 C102.538666,52.3733318 102.472,52.0320019 102.472,51.648 L102.472,51.168 L104.104,51.168 L104.104,51.584 C104.104,51.8613347 104.181333,52.0773326 104.336,52.232 C104.490667,52.3866674 104.690665,52.464 104.936,52.464 C105.181335,52.464 105.370666,52.3893341 105.504,52.24 C105.637334,52.0906659 105.704,51.882668 105.704,51.616 L105.704,48.944 C105.704,48.7199989 105.632001,48.5280008 105.488,48.368 C105.343999,48.2079992 105.160001,48.128 104.936,48.128 C104.797333,48.128 104.68,48.1519998 104.584,48.2 C104.488,48.2480002 104.408,48.3039997 104.344,48.368 C104.28,48.4320003 104.232,48.501333 104.2,48.576 C104.146666,48.6720005 104.114667,48.7306666 104.104,48.752 L102.664,48.752 L102.664,42.608 L107.336,42.608 Z M112.696,42.608 L110.84,47.392 L110.872,47.424 C110.925334,47.3813331 111.007999,47.3466668 111.12,47.32 C111.232001,47.2933332 111.378666,47.28 111.56,47.28 C111.848001,47.28 112.114665,47.3493326 112.36,47.488 C112.605335,47.6266674 112.797333,47.8026656 112.936,48.016 C113.010667,48.1333339 113.069333,48.2506661 113.112,48.368 C113.154667,48.4853339 113.192,48.639999 113.224,48.832 C113.245333,49.024001 113.261333,49.2666652 113.272,49.56 C113.282667,49.8533348 113.288,50.2239978 113.288,50.672 C113.288,51.0453352 113.282667,51.3519988 113.272,51.592 C113.261333,51.8320012 113.245333,52.0319992 113.224,52.192 C113.192,52.3626675 113.152,52.5066661 113.104,52.624 C113.056,52.7413339 112.994667,52.8639994 112.92,52.992 C112.706666,53.3440018 112.421335,53.615999 112.064,53.808 C111.706665,54.000001 111.304002,54.096 110.856,54.096 C110.407998,54.096 110.008002,53.9973343 109.656,53.8 C109.303998,53.6026657 109.021334,53.333335 108.808,52.992 C108.722666,52.8639994 108.656,52.7413339 108.608,52.624 C108.56,52.5066661 108.525333,52.3626675 108.504,52.192 C108.472,52.0319992 108.450667,51.8320012 108.44,51.592 C108.429333,51.3519988 108.424,51.0453352 108.424,50.672 C108.424,50.3199982 108.429333,50.0293345 108.44,49.8 C108.450667,49.5706655 108.466667,49.3706675 108.488,49.2 C108.509333,49.0399992 108.541333,48.893334 108.584,48.76 C108.626667,48.626666 108.674666,48.4853341 108.728,48.336 L110.872,42.608 L112.696,42.608 Z M111.656,49.536 C111.656,49.2906654 111.576001,49.0933341 111.416,48.944 C111.255999,48.7946659 111.069334,48.72 110.856,48.72 C110.642666,48.72 110.456001,48.7946659 110.296,48.944 C110.135999,49.0933341 110.056,49.2906654 110.056,49.536 L110.056,51.648 C110.056,51.8933346 110.135999,52.0906659 110.296,52.24 C110.456001,52.3893341 110.642666,52.464 110.856,52.464 C111.069334,52.464 111.255999,52.3893341 111.416,52.24 C111.576001,52.0906659 111.656,51.8933346 111.656,51.648 L111.656,49.536 Z M114.6,54 L114.6,42.608 L116.232,42.608 L116.232,47.808 L116.264,47.808 L118.648,42.608 L120.28,42.608 L118.056,47.168 L120.696,54 L118.968,54 L117.112,48.944 L116.232,50.592 L116.232,54 L114.6,54 Z M121.416,54 L121.416,42.608 L122.984,42.608 L125.08,48.64 L125.112,48.64 L127.192,42.608 L128.776,42.608 L128.776,54 L127.144,54 L127.144,47.072 L127.112,47.072 L125.496,51.968 L124.68,51.968 L123.08,47.072 L123.048,47.072 L123.048,54 L121.416,54 Z" id="3.56KM" fill="#FFFFFF"></path>
                    <path d="M5.785,54.196 L3.874,54.196 L3.575,52.909 C4.199,52.961 4.771,53 5.317,53 C5.811,53 6.071,52.74 6.071,52.233 L6.071,42.535 L7.358,42.535 L7.358,52.558 C7.358,53.65 6.825,54.196 5.785,54.196 Z M2.574,45.551 L3.809,46.045 C3.211,48.606 2.418,50.569 1.443,51.921 L0.364,50.972 C1.352,49.62 2.093,47.813 2.574,45.551 Z M10.4,45.226 C11.336,47.514 12.064,49.503 12.571,51.219 L11.453,51.986 C10.907,50.179 10.179,48.164 9.269,45.928 L10.4,45.226 Z M15.912,44.303 L17.017,44.602 C16.653,46.214 16.185,47.618 15.613,48.827 L14.521,48.45 C15.054,47.358 15.522,45.98 15.912,44.303 Z M23.725,44.29 L24.791,44.797 C24.063,46.227 23.218,47.449 22.23,48.489 L21.294,47.839 C22.23,46.851 23.049,45.668 23.725,44.29 Z M18.889,42.366 L20.137,42.366 L20.137,46.656 C20.566,49.373 22.36,51.583 25.519,53.286 L24.765,54.274 C22.152,52.805 20.41,50.842 19.539,48.385 C18.85,50.673 17.134,52.649 14.391,54.339 L13.637,53.351 C16.939,51.479 18.681,49.256 18.889,46.656 L18.889,42.366 Z M27.079,43.913 L30.082,43.913 C30.316,43.38 30.55,42.821 30.771,42.249 L32.006,42.522 C31.811,43.016 31.616,43.471 31.421,43.913 L37.908,43.913 L37.908,45.109 L30.836,45.109 C30.316,46.097 29.744,46.968 29.133,47.748 L32.032,47.748 L32.032,46.006 L33.293,46.006 L33.293,47.748 L37.206,47.748 L37.206,48.879 L33.293,48.879 L33.293,50.53 L38.103,50.53 L38.103,51.726 L33.293,51.726 L33.293,54.417 L32.032,54.417 L32.032,51.726 L26.91,51.726 L26.91,50.53 L32.032,50.53 L32.032,48.879 L27.846,48.879 L27.56,47.748 C28.249,47.046 28.886,46.175 29.471,45.109 L27.079,45.109 L27.079,43.913 Z M46.956,42.327 L48.204,42.327 L48.204,44.511 L51.363,44.511 L51.363,45.707 L48.204,45.707 L48.204,47.969 L50.83,47.969 L50.83,54.261 L49.634,54.261 L49.634,53.468 L46.254,53.468 L46.254,54.274 L45.071,54.274 L45.071,47.969 L46.956,47.969 L46.956,42.327 Z M46.254,52.324 L49.634,52.324 L49.634,49.048 L46.254,49.048 L46.254,52.324 Z M39.689,44.394 L41.665,44.394 C41.509,43.744 41.327,43.159 41.145,42.626 L42.393,42.431 C42.549,43.003 42.692,43.666 42.848,44.394 L44.876,44.394 L44.876,45.59 L39.689,45.59 L39.689,44.394 Z M41.054,46.175 C41.353,47.67 41.626,49.386 41.873,51.31 L40.846,51.557 C40.612,49.815 40.326,48.138 39.975,46.526 L41.054,46.175 Z M44.629,51.271 L44.629,52.48 C43.16,52.883 41.587,53.221 39.897,53.494 L39.611,52.311 C40.547,52.194 41.457,52.038 42.354,51.843 C42.744,50.049 43.017,48.138 43.186,46.123 L44.382,46.292 C44.187,48.203 43.888,49.971 43.498,51.583 C43.888,51.479 44.265,51.375 44.629,51.271 Z M60.658,42.249 L61.854,42.665 C61.607,43.107 61.347,43.497 61.061,43.861 L64.35,43.861 L64.35,45.057 L52.637,45.057 L52.637,43.861 L56.017,43.861 C55.783,43.393 55.523,42.964 55.25,42.574 L56.55,42.366 C56.823,42.808 57.083,43.302 57.343,43.861 L59.696,43.861 C60.06,43.354 60.372,42.821 60.658,42.249 Z M57.187,54.261 L56.173,54.261 L55.848,53.052 L56.784,53.091 C57.07,53.091 57.226,52.883 57.226,52.48 L57.226,51.609 L54.678,51.609 L54.678,54.365 L53.469,54.365 L53.469,45.863 L58.422,45.863 L58.422,52.753 C58.422,53.754 58.006,54.261 57.187,54.261 Z M54.678,50.517 L57.226,50.517 L57.226,49.308 L54.678,49.308 L54.678,50.517 Z M54.678,48.216 L57.226,48.216 L57.226,47.007 L54.678,47.007 L54.678,48.216 Z M62.257,54.222 L60.502,54.222 L60.242,53.039 C60.788,53.091 61.308,53.117 61.828,53.117 C62.14,53.117 62.296,52.935 62.296,52.584 L62.296,45.59 L63.531,45.59 L63.531,52.896 C63.531,53.78 63.102,54.222 62.257,54.222 Z M59.618,46.565 L60.814,46.565 L60.814,52.116 L59.618,52.116 L59.618,46.565 Z M70.902,49.997 L72.124,49.997 L72.124,52.688 L74.893,52.688 L74.893,50.543 L76.102,50.543 L76.102,54.365 L74.893,54.365 L74.893,53.832 L68.159,53.832 L68.159,54.365 L66.937,54.365 L66.937,50.543 L68.159,50.543 L68.159,52.688 L70.902,52.688 L70.902,49.997 Z M73.385,42.444 C74.36,43.497 75.686,44.472 77.376,45.369 L76.713,46.409 C76.115,46.071 75.556,45.733 75.049,45.382 C75.01,46.422 74.945,47.267 74.854,47.917 C74.75,48.554 74.581,49.009 74.347,49.269 C74.1,49.516 73.71,49.646 73.19,49.672 L71.487,49.672 L71.188,48.541 C71.682,48.567 72.163,48.593 72.618,48.593 C73.073,48.593 73.372,48.45 73.515,48.19 C73.658,47.93 73.749,47.345 73.801,46.461 L70.954,46.461 C70.512,48.281 69.225,49.412 67.106,49.88 L66.573,48.749 C68.302,48.411 69.355,47.657 69.732,46.461 L67.964,46.461 L67.964,45.616 C67.444,45.902 66.924,46.11 66.391,46.266 L65.663,45.278 C67.327,44.784 68.666,43.861 69.654,42.496 L70.629,43.146 C69.966,44.056 69.225,44.784 68.419,45.33 L74.984,45.33 C74.022,44.654 73.203,43.926 72.501,43.146 L73.385,42.444 Z M89.362,43.796 L89.362,54.131 L88.101,54.131 L88.101,53.39 L80.899,53.39 L80.899,54.131 L79.651,54.131 L79.651,43.796 L89.362,43.796 Z M80.899,52.181 L88.101,52.181 L88.101,45.005 L80.899,45.005 L80.899,52.181 Z" id="小火车站前岔口" fill="#FFFFFF"></path>
                </g>
            </g>
        </g>
    </g>
</svg>