<?xml version="1.0" encoding="UTF-8"?>
<svg width="107px" height="45px" viewBox="0 0 107 45" version="1.1" xmlns="http://www.w3.org/2000/svg" xmlns:xlink="http://www.w3.org/1999/xlink">
    <!-- Generator: Sketch 49.3 (51167) - http://www.bohemiancoding.com/sketch -->
    <title>Group 28</title>
    <desc>Created with Sketch.</desc>
    <defs>
        <linearGradient x1="38.7139678%" y1="-10.0638216%" x2="50%" y2="100%" id="linearGradient-1">
            <stop stop-color="#F9D65F" offset="0%"></stop>
            <stop stop-color="#FFE69B" offset="15.4065038%"></stop>
            <stop stop-color="#FFB82B" offset="75.2573847%"></stop>
            <stop stop-color="#F1AD31" offset="100%"></stop>
        </linearGradient>
    </defs>
    <g id="Page-1" stroke="none" stroke-width="1" fill="none" fill-rule="evenodd" opacity="0.600000024">
        <g id="Artboard-Copy-5" transform="translate(-652.000000, -1074.000000)">
            <g id="Group-15" transform="translate(653.000000, 1074.000000)">
                <g id="Group-12">
                    <g id="Group-28">
                        <path d="M2.42037471,39.7154346 C3.71988238,40.0460984 4.36963622,40.4318728 4.36963622,40.8727578 C4.36963622,41.5340853 5.23597466,41.8096384 5.8857285,41.2034215 C6.53548234,40.5972046 6.31889773,41.5891959 6.31889773,41.8096384 C6.31889773,42.0300809 6.75206695,44.1793953 8.70132846,43.6833997 C10.65059,43.1874041 11.0837592,44.1793953 11.733513,43.1874041 C12.3832669,42.1954128 11.3003438,42.4158553 13.0330207,41.8096384 C14.7656976,41.2034215 13.8993591,40.7074259 14.1159438,40.0460984 C14.3325284,39.3847709 14.1159438,36.9047927 15.4154514,36.4087971 C16.7149591,35.9128015 16.4983745,35.5821377 16.9315437,34.5901464 C17.3647129,33.5981552 16.0652053,32.7714958 17.3647129,32.7714958 C18.6642206,32.7714958 19.7471437,32.440832 20.8300667,33.1021595 C21.9129898,33.7634871 20.6134821,33.5981552 22.346159,34.0941508 C24.0788359,34.5901464 24.0788359,35.0861421 24.9451744,35.0861421 C25.8115128,35.0861421 27.1110205,35.2514739 27.5441897,35.5821377 C27.9773589,35.9128015 28.6271128,36.0781333 29.2768666,36.0781333 C29.9266204,36.0781333 29.2768666,36.2434652 31.0095435,36.4087971 C32.7422204,36.574129 33.3919742,36.7394608 34.2583127,36.4087971 C35.1246511,36.0781333 35.1246511,35.7474696 37.2904973,35.4168058 C39.4563434,35.0861421 37.7236665,34.2594827 39.672928,34.2594827 C40.9724357,34.2594827 43.6436459,34.2043721 47.6865586,34.0941508 C48.8416766,34.0941508 49.6358201,33.9288189 50.0689894,33.5981552 C50.7187432,33.1021595 52.0182509,31.7795045 52.6680047,31.7795045 C53.3177586,31.7795045 53.3177586,31.6141727 53.9675124,30.9528451 C54.6172662,30.2915176 54.6172662,30.1261858 55.4836047,30.1261858 C56.3499431,30.1261858 57.2162816,29.6301901 57.6494508,29.4648583 C58.08262,29.2995264 62.1977276,29.6301901 63.2806507,29.2995264 C64.3635738,28.9688626 68.0455122,27.9768714 68.695266,27.9768714 C69.3450198,27.9768714 69.5616045,27.6462076 69.9947737,27.4808757 C70.4279429,27.3155438 70.4279429,27.150212 71.510866,27.3155438 C72.593789,27.4808757 72.3772044,27.4808757 73.0269583,27.150212 C73.6767121,26.8195482 73.4601275,26.1582207 74.9762198,26.1582207 C76.492312,26.1582207 77.3586505,26.3235526 78.0084043,25.9928888 C78.6581582,25.6622251 78.4415736,25.6622251 79.0913274,25.1662294 C79.7410812,24.6702338 80.3908351,24.0089063 81.4737581,24.1742382 C82.5566812,24.3395701 83.6396042,23.3475788 83.6396042,23.3475788 C83.6396042,23.3475788 85.3722811,23.1822469 85.3722811,22.8515832 C85.3722811,22.5209194 85.8054504,22.6862513 84.7225273,21.8595919 C83.6396042,21.0329325 83.8561889,21.0329325 83.206435,20.371605 C82.5566812,19.7102775 82.5566812,18.5529544 82.5566812,18.0569587" id="Path-3" stroke="#979797" stroke-linecap="round" stroke-linejoin="round"></path>
                        <path d="M85.4908053,22.8220203 C88.2336714,22.4895829 89.7494658,22.1571454 90.0381885,21.824708 C90.4712726,21.3260518 90.9043568,21.3260518 91.5539829,21.3260518 C92.2036091,21.3260518 92.4201512,21.6584892 93.2863194,20.9936143 C94.1524877,20.3287394 94.3690297,19.8300833 95.0186559,19.8300833 C95.6682821,19.8300833 96.3179083,19.4976458 97.8337027,19.4976458 C99.3494971,19.4976458 98.6998709,19.1652084 99.9991233,19.1652084 C101.298376,19.1652084 102.164544,19.1652084 103.247254,19.1652084 C104.329964,19.1652084 104.546507,18.3341147 103.89688,17.1705836 C103.247254,16.0070526 102.81417,16.33949 102.81417,15.3421777 C102.81417,14.3448653 101.948002,14.1786466 102.597628,13.0151155 C103.247254,11.8515844 103.680338,8.52720993 102.81417,7.52989758 C101.948002,6.53258522 102.164544,5.86771032 101.73146,5.36905414 C101.298376,4.87039797 101.948002,3.87308562 100.648749,4.20552307 C99.3494971,4.53796052 99.7825812,4.53796052 98.2667868,4.70417924 C96.7509924,4.87039797 96.7509924,4.37174179 95.8848241,4.87039797 C95.0186559,5.36905414 94.3690297,5.03661669 93.9359456,5.53527287 C93.5028615,6.03392905 93.0697774,5.36905414 92.2036091,6.3663665 C91.3374409,7.36367885 90.4712726,8.02855375 89.8216465,8.02855375 C89.1720203,8.02855375 88.7389362,8.3609912 87.4396838,8.3609912 C86.1404314,8.3609912 86.3569735,7.36367885 85.4908053,7.6961163 C84.624637,8.02855375 85.0577211,8.19477248 83.9750108,8.19477248 C82.8923005,8.19477248 82.4592164,7.86233503 82.0261323,7.86233503 C81.5930482,7.86233503 81.3765061,7.19746012 81.1599641,8.02855375 C80.943422,8.85964738 80.943422,9.0258661 80.5103379,9.19208483 C80.0772538,9.35830355 79.2110855,10.0231785 78.7780014,9.19208483 C78.3449173,8.3609912 78.9945435,7.86233503 78.3449173,8.02855375 C77.6952911,8.19477248 77.478749,8.69342865 77.478749,8.69342865 C77.478749,8.69342865 77.6952911,8.52720993 77.262207,9.0258661 C76.8291229,9.52452228 75.7464126,11.1867095 74.8802443,10.6880534 C74.0140761,10.1893972 74.2306181,10.1893972 73.580992,9.69074101 C72.9313658,9.19208483 72.4982817,9.0258661 71.6321134,9.35830355 C70.7659452,9.69074101 69.6832349,9.85695973 69.4666928,10.0231785 C69.2501508,10.1893972 67.9508984,10.6880534 67.9508984,10.8542721 C67.9508984,11.0204908 66.8681881,10.6880534 66.0020199,11.1867095 C65.1358516,11.6853657 64.4862254,11.519147 64.2696834,12.0178032 C64.0531413,12.5164593 63.8365993,12.0178032 63.4035151,12.5164593 C62.970431,13.0151155 62.753889,13.1148712 62.753889,13.4805402 C62.753889,13.8462091 63.4035151,14.8435215 62.1042628,14.8435215 C61.2380945,14.8435215 59.9388422,15.0097402 58.2065057,15.3421777 C57.6290602,15.4529902 57.3403375,15.6192089 57.3403375,15.8408338 C57.3403375,16.1732713 54.7418328,15.6746151 53.8756645,15.6746151 C53.0094963,15.6746151 52.143328,14.6773028 51.4937019,14.8435215 C50.8440757,15.0097402 50.8440757,14.8435215 50.6275336,14.511084 C50.4109916,14.1786466 50.1944495,14.0124279 49.1117392,14.0124279 C48.0290289,14.0124279 47.3794027,12.3502406 46.5132345,12.1840219 C45.6470662,12.0178032 45.2139821,11.3529283 44.780898,11.6853657 C44.3478139,12.0178032 44.5643559,11.519147 44.1312718,12.0178032 C43.6981877,12.5164593 44.3478139,12.3502406 43.2651036,12.1840219 C42.1823933,12.0178032 41.9658512,12.1840219 41.7493092,11.519147 C41.6049478,11.0758971 41.3884057,10.6880534 41.099683,10.3556159 C41.099683,10.1339909 40.9553216,10.0231785 40.6665989,10.0231785 C40.2335147,10.0231785 39.5838886,9.69074101 39.1508044,9.69074101 C38.7177203,9.69074101 38.5011783,9.35830355 37.63501,9.19208483 C36.7688418,9.0258661 36.3357577,9.0258661 36.1192156,9.0258661 C35.9026735,9.0258661 36.3357577,8.02855375 35.4695894,8.02855375 C34.8921439,8.02855375 34.3868791,7.91774127 33.953795,7.6961163 C32.5101813,6.92042892 31.7883744,6.53258522 31.7883744,6.53258522 C31.7883744,6.53258522 31.427471,6.3663665 30.7056641,6.03392905 L29.1898697,5.53527287 C28.7567856,5.42446039 28.3237014,5.36905414 27.8906173,5.36905414 C27.2409911,5.36905414 27.8906173,5.03661669 26.807907,4.87039797 C26.0861002,4.75958548 25.5086547,4.59336676 25.0755705,4.37174179 C24.6424864,4.15011682 24.281583,4.15011682 23.9928602,4.37174179 C23.7041375,4.59336676 23.2710534,4.53796052 22.6936079,4.20552307 C22.1161624,3.87308562 21.6108976,3.81767937 21.1778135,4.03930434 C20.7447293,4.26092931 20.3838259,4.31633555 20.0951032,4.20552307 L17.7131405,3.87308562 C17.2800564,3.54064817 16.4860688,3.48524192 15.3311778,3.70686689 C13.5988414,4.03930434 13.8153834,4.20552307 13.1657572,4.03930434 C12.5161311,3.87308562 12.7326731,3.37442944 11.8665049,3.37442944 C11.0003366,3.37442944 11.0003366,2.54333581 10.5672525,2.87577326 C10.1341684,3.20821071 10.1341684,3.37442944 10.1341684,4.03930434 C10.1341684,4.70417924 10.5672525,4.03930434 10.5672525,5.03661669 C10.5672525,6.03392905 10.3507105,5.53527287 10.7837946,6.20014777 C11.2168787,6.86502267 12.0830469,7.6961163 12.5161311,8.85964738 C12.8048538,9.63533476 12.7326731,10.0231785 12.299589,10.0231785 C13.1657572,10.1339909 13.8153834,10.6880534 14.2484675,11.6853657 C14.8980937,13.1813342 15.3311778,14.1786466 15.3311778,14.3448653 C15.3311778,14.511084 15.764262,15.0097402 14.6815517,15.6746151 C13.9597448,16.1178651 13.6710221,16.6719275 13.8153834,17.3368024 C13.8153834,18.2233022 13.5988414,18.6665522 13.1657572,18.6665522 C12.5161311,18.6665522 11.8665049,19.4976458 11.2168787,20.8273956 C10.7837946,21.7138955 10.2063491,22.3787704 9.48454223,22.8220203 C9.19581948,22.9328328 8.90709673,23.1544578 8.61837399,23.4868952 C8.18528987,23.9855514 6.45295339,23.9855514 6.45295339,24.4842076 C6.45295339,24.9828637 5.80332721,24.816645 5.80332721,25.1490825 C5.80332721,25.3707074 5.37024309,25.7031449 4.50407485,26.1463948 C4.07099073,26.7004572 3.63790661,26.9774884 3.20482249,26.9774884 C2.77173837,26.9774884 2.55519631,27.1437072 2.55519631,27.4761446 C1.68902807,27.6977696 1.32812463,27.9748008 1.47248601,28.3072383 C1.61684738,28.6396757 1.25594395,29.1937381 0.389775708,29.9694255 C-0.043308412,30.1910505 -0.115489099,30.5234879 0.173233648,30.9667379 C0.606317768,31.6316128 1.25594395,31.9640502 1.25594395,32.4627064 C1.25594395,32.9613626 3.85444867,33.1275813 3.85444867,33.6262375 C3.85444867,34.1248936 4.28753279,34.4573311 4.07099073,35.122206 C3.92662935,35.5654559 4.35971347,36.0641121 5.37024309,36.6181745 C4.07099073,37.6154869 3.42136455,38.2803618 3.42136455,38.6127992 C3.42136455,39.1114554 2.12211219,38.6127992 2.33865425,39.942549" id="Path-4" stroke="#979797" stroke-linecap="round" stroke-linejoin="round"></path>
                        <path d="M86.1338059,7.44104329 C87.9184759,5.44204469 88.8108108,3.91567684 88.8108108,2.86193973 C88.8108108,1.28133406 87.6122749,0 86.1338059,0 C84.655337,0 83.4568011,1.28133406 83.4568011,2.86193973 C83.4568011,3.91567684 84.349136,5.44204469 86.1338059,7.44104329 Z" id="Oval-9-Copy" fill="url(#linearGradient-1)"></path>
                        <path d="M102.642003,18.6301676 C104.426673,16.631169 105.319008,15.1048012 105.319008,14.0510641 C105.319008,12.4704584 104.120472,11.1891244 102.642003,11.1891244 C101.163534,11.1891244 99.9649978,12.4704584 99.9649978,14.0510641 C99.9649978,15.1048012 100.857333,16.631169 102.642003,18.6301676 Z" id="Oval-9-Copy-3" fill="url(#linearGradient-1)"></path>
                        <path d="M14.0190518,38.2111353 C15.8037218,36.2121367 16.6960567,34.6857688 16.6960567,33.6320317 C16.6960567,32.051426 15.4975208,30.770092 14.0190518,30.770092 C12.5405829,30.770092 11.342047,32.051426 11.342047,33.6320317 C11.342047,34.6857688 12.2343819,36.2121367 14.0190518,38.2111353 Z" id="Oval-9-Copy-5" fill="url(#linearGradient-1)"></path>
                    </g>
                </g>
            </g>
        </g>
    </g>
</svg>