<?xml version="1.0" encoding="UTF-8"?>
<svg width="65px" height="53px" viewBox="0 0 65 53" version="1.1" xmlns="http://www.w3.org/2000/svg" xmlns:xlink="http://www.w3.org/1999/xlink">
    <!-- Generator: Sketch 49.3 (51167) - http://www.bohemiancoding.com/sketch -->
    <title>Group 6</title>
    <desc>Created with Sketch.</desc>
    <defs>
        <linearGradient x1="38.7139678%" y1="-10.0638216%" x2="50%" y2="100%" id="linearGradient-1">
            <stop stop-color="#F9D65F" offset="0%"></stop>
            <stop stop-color="#FFE69B" offset="15.4065038%"></stop>
            <stop stop-color="#FFB82B" offset="75.2573847%"></stop>
            <stop stop-color="#F1AD31" offset="100%"></stop>
        </linearGradient>
    </defs>
    <g id="Page-1" stroke="none" stroke-width="1" fill="none" fill-rule="evenodd" opacity="0.600000024">
        <g id="Artboard-Copy-4" transform="translate(-854.000000, -1072.000000)">
            <g id="Group-15-Copy-4" transform="translate(855.000000, 1073.000000)">
                <g id="Group-6">
                    <path d="M0.870439177,13.0529968 C1.86522681,13.4674917 2.56986805,14.1721329 2.98436289,15.1669205 C3.60610516,16.659102 5.72002888,15.1669205 6.83916496,15.1669205 C7.95830105,15.1669205 8.45569486,14.4415546 10.0722248,14.4415546 C11.6887547,14.4415546 10.8183155,13.5503906 12.8078907,13.0529968 C14.797466,12.555603 13.8026784,10.8147247 15.2948598,10.8147247 C16.7870413,10.8147247 17.0357382,9.32254321 18.0305258,8.70080094 C19.0253134,8.07905867 18.0305258,8.32775558 19.5227073,7.58166485 C21.0148887,6.83557413 20.6418433,5.09469578 22.7557671,5.09469578 C24.8696908,5.09469578 24.1236001,4.34860505 24.8696908,3.60251433 C25.6157815,2.85642361 30.5897197,-0.998378463 33.5740825,0.245106076 C36.5584454,1.48859061 37.6775815,2.11033288 37.6775815,2.85642361 C37.6775815,3.60251433 41.4080351,4.09990815 41.656732,5.09469578 C41.905429,6.08948341 41.656732,7.24827356 42.1541259,7.58166485 C42.6515197,7.91505615 43.6463073,8.99453816 44.7654434,7.91505615 C45.8845795,6.83557413 45.8845795,6.75087975 46.8793671,7.33296795 C47.8741547,7.91505615 46.7550187,8.24844744 49.2419877,7.91505615 C51.7289568,7.58166485 51.1072145,7.62670517 51.3559115,7.91505615 C51.6046084,8.20340712 52.8480929,8.4917581 53.2211383,8.20340712 C53.5941836,7.91505615 53.967229,7.20861949 54.7133197,8.20340712 C55.4594104,9.19819476 54.9620166,9.57124012 56.0811527,9.94428548 C57.2002888,10.3173308 58.070728,10.8147247 58.4437733,11.6851638 C58.8168187,12.555603 59.9359548,12.1825576 59.189864,13.0529968 C58.4437733,13.923436 57.6976826,13.923436 57.6976826,14.6695267 C57.6976826,15.4156174 57.0759403,14.9182236 56.0811527,15.1669205 C55.0863651,15.4156174 54.7133197,14.9182236 53.8428805,15.5399659 C52.9724414,16.1617082 52.8480929,15.7886628 51.8533053,16.2860566 C50.8585176,16.7834504 50.2367754,17.1564958 49.86373,17.1564958 C49.4906846,17.1564958 48.1228517,17.2808443 48.1228517,17.5295412 C48.1228517,17.7782381 47.6254578,18.026935 47.6254578,18.5243288 C47.6254578,19.0217226 47.6254578,19.2704195 47.6254578,19.8921618 C47.6254578,20.5139041 47.8741547,21.6330401 48.1228517,22.2547824 C48.3715486,22.8765247 48.7445939,23.1252216 48.9932908,23.7469639 C49.2419877,24.3687061 49.2419877,24.617403 49.2419877,25.1147969 C49.2419877,25.6121907 49.3663362,25.985236 49.86373,26.4826298 C50.3611238,26.9800237 50.3611238,28.3478567 50.8585176,28.9695989 C51.3559115,29.5913412 50.8585176,30.088735 51.3559115,30.7104773 C51.8533053,31.3322195 53.3454867,31.5809165 53.8428805,31.3322195 C54.3402743,31.0835226 54.2159259,30.8348257 56.0811527,30.3374319 C57.9463795,29.8400381 58.070728,29.7156896 58.8168187,29.2182958 C59.5629094,28.720902 58.9411671,27.8504628 60.1846517,28.0991597 C61.4281362,28.3478567 61.92553,27.353069 62.6716208,27.9748113 C63.4177115,28.5965536 62.7959692,29.4669927 62.2985754,30.088735 C61.8011816,30.7104773 61.1794393,29.7156896 61.1794393,31.7052649 C61.1794393,33.0316484 61.1794393,33.5704917 61.1794393,33.3217948 C61.3452372,33.8191886 61.3866867,34.3165824 61.3037878,34.8139763 C61.1794393,35.560067 61.3037878,36.6792031 61.4281362,37.0522484 C61.5524847,37.4252938 62.1742269,37.7983391 62.4229238,38.5444299 C62.5887218,39.0418237 62.5058228,39.7879144 62.1742269,40.782702 L60.6820455,43.0209742 C60.1017527,43.3525701 59.6043589,43.518368 59.189864,43.518368 C58.5681218,43.518368 58.3194249,43.0209742 57.6976826,43.518368 C57.2831878,43.8499639 56.1640517,43.8499639 54.3402743,43.518368 C53.7599816,43.601267 53.3040372,43.9328629 52.9724414,44.5131557 C52.6408455,45.0934484 52.1849011,45.9638876 51.6046084,47.1244732 C51.3559115,47.621867 51.1072145,47.9120134 50.8585176,47.9949124 C50.4854723,48.1192608 50.7341692,49.2383969 50.1124269,49.2383969 C49.4906846,49.2383969 48.3715486,49.8601392 48.1228517,50.4818814 C47.9570537,50.8963763 46.7964681,51.0621742 44.6410949,50.9792753 C42.6515197,50.8134773 41.5738331,50.6476794 41.4080351,50.4818814 C41.1593382,50.2331845 38.5480207,48.3679577 37.3045362,48.3679577 C36.4755465,48.3679577 35.8538042,47.8291144 35.4393094,46.7514278 C34.8590166,46.254034 34.1958248,46.254034 33.4497341,46.7514278 C32.330598,47.4975185 32.7036434,45.7566402 33.0766887,45.1348979 C33.3253856,44.7204031 33.4497341,43.4769185 33.4497341,41.4044443 C33.78133,39.580667 33.6569815,38.9589247 33.0766887,39.5392175 C32.2062496,40.4096567 31.9575526,40.9070505 31.2114619,40.782702 C30.4653712,40.6583536 28.7244928,40.5340051 27.7297052,38.5444299 C26.7349176,36.5548546 25.3670846,35.3113701 25.1183877,35.3113701 C24.8696908,35.3113701 24.4966454,33.9435371 24.4966454,33.3217948 C24.4966454,32.9073 24.206499,31.8296134 23.6262062,30.088735 C23.7091052,29.3426443 23.5847568,28.803801 23.2531609,28.4722051 C22.7557671,27.9748113 22.2583732,26.4826298 21.636631,26.2339329 C21.0148887,25.985236 20.7661918,24.7295937 19.5227073,25.1147969 C18.6937176,25.371599 17.7818289,25.7446443 16.7870413,26.2339329 C16.2067485,26.3997309 15.7508042,26.1550866 15.4192083,25.5 C14.6731176,25.6576927 13.8855773,25.7365391 13.0565877,25.7365391 C12.3933959,25.7365391 11.9789011,25.7365391 11.8131031,25.7365391 C11.5644062,25.7365391 11.3157093,26.8556752 10.8183155,27.1043721 C10.3209217,27.353069 8.58004332,27.353069 8.33134641,27.1043721 C8.0826495,26.8556752 7.33655878,27.2287206 7.08786187,26.4826298 C6.83916496,25.7365391 4.8495897,24.4930546 4.8495897,24.3687061 C4.8495897,24.2443577 2.48696908,22.3791309 2.11392372,21.5086917 C1.74087835,20.6382525 1.88165075e-17,17.6538896 0,17.4051927 C0,17.1564958 0.124348454,15.1461958 0.124348454,14.7938752 C0.124348454,14.5589948 0.373045362,13.978702 0.870439177,13.0529968 Z" id="Path-12-Copy" stroke="#979797"></path>
                    <path d="M46.1338059,8.93369943 C47.9184759,7.07099619 48.8108108,5.64869887 48.8108108,4.66680747 C48.8108108,3.19397037 47.6122749,2 46.1338059,2 C44.655337,2 43.4568011,3.19397037 43.4568011,4.66680747 C43.4568011,5.64869887 44.349136,7.07099619 46.1338059,8.93369943 Z" id="Oval-9-Copy" fill="url(#linearGradient-1)"></path>
                    <path d="M33.1338059,40.9336994 C34.9184759,39.0709962 35.8108108,37.6486989 35.8108108,36.6668075 C35.8108108,35.1939704 34.6122749,34 33.1338059,34 C31.655337,34 30.4568011,35.1939704 30.4568011,36.6668075 C30.4568011,37.6486989 31.349136,39.0709962 33.1338059,40.9336994 Z" id="Oval-9-Copy-4" fill="url(#linearGradient-1)"></path>
                </g>
            </g>
        </g>
    </g>
</svg>