<?xml version="1.0" encoding="UTF-8"?>
<svg width="13px" height="13px" viewBox="0 0 13 13" version="1.1" xmlns="http://www.w3.org/2000/svg" xmlns:xlink="http://www.w3.org/1999/xlink">
    <!-- Generator: Sketch 49.3 (51167) - http://www.bohemiancoding.com/sketch -->
    <title>Combined Shape</title>
    <desc>Created with Sketch.</desc>
    <defs></defs>
    <g id="Page-1" stroke="none" stroke-width="1" fill="none" fill-rule="evenodd">
        <g id="Artboard-Copy-10" transform="translate(-369.000000, -805.000000)" fill="#444B5A">
            <g id="Group-22" transform="translate(369.000000, 803.000000)">
                <path d="M6.5,2 C10.1020833,2 13,4.89791667 13,8.5 C13,12.1020833 10.1020833,15 6.5,15 C2.89791667,15 0,12.1020833 0,8.5 C0,4.89791667 2.89791667,2 6.5,2 Z M6.68055556,5.27934028 C6.18177083,5.27934028 5.80034722,5.66076389 5.80034722,6.15954861 C5.80034722,6.65833333 6.18177083,7.03975694 6.68055556,7.03975694 C7.17934028,7.03975694 7.56076389,6.65833333 7.56076389,6.15954861 C7.56076389,5.66076389 7.17934028,5.27934028 6.68055556,5.27934028 Z M8.14756944,11.4407986 L8.14756944,10.8539931 C8.14756944,10.6779514 8.00086806,10.53125 7.85416667,10.53125 C7.678125,10.53125 7.56076389,10.4138889 7.56076389,10.2671875 L7.56076389,7.91996528 C7.56076389,7.74392361 7.4140625,7.59722222 7.26736111,7.59722222 L5.50694444,7.59722222 C5.33090278,7.59722222 5.21354167,7.77326389 5.21354167,7.91996528 L5.21354167,8.50677083 C5.21354167,8.6828125 5.36024306,8.77083333 5.50694444,8.77083333 C5.68298611,8.77083333 5.80034722,8.946875 5.80034722,9.09357639 L5.80034722,10.2671875 C5.80034722,10.4432292 5.65364583,10.53125 5.50694444,10.53125 C5.33090278,10.53125 5.21354167,10.7072917 5.21354167,10.8539931 L5.21354167,11.4407986 C5.21354167,11.6168403 5.36024306,11.7048611 5.50694444,11.7048611 L7.85416667,11.7048611 C8.03020833,11.7048611 8.14756944,11.5875 8.14756944,11.4407986 Z" id="Combined-Shape"></path>
            </g>
        </g>
    </g>
</svg>