<?xml version="1.0" encoding="UTF-8"?>
<svg width="23px" height="24px" viewBox="0 0 23 24" version="1.1" xmlns="http://www.w3.org/2000/svg" xmlns:xlink="http://www.w3.org/1999/xlink">
    <!-- Generator: Sketch 49.3 (51167) - http://www.bohemiancoding.com/sketch -->
    <title>Combined Shape</title>
    <desc>Created with Sketch.</desc>
    <defs></defs>
    <g id="Page-1" stroke="none" stroke-width="1" fill="none" fill-rule="evenodd" opacity="0.5">
        <g id="Artboard-Copy-9" transform="translate(-51.000000, -711.000000)" stroke="#FFFFFF" stroke-width="2">
            <g id="Group-5">
                <path d="M72.9673345,728.906926 C72.9888879,729.0961 73,729.288949 73,729.484718 C73,731.969999 71.209139,733.984718 69,733.984718 C59.9792715,733.984718 52.5995605,726.958686 52.0347485,718.080505 C52.0118284,717.88557 52,717.686698 52,717.484718 C52,717.425636 52.0010121,717.36682 52.0030178,717.308291 C52.0010089,717.200675 52,717.092814 52,716.984718 L52.0244128,716.984718 C52.2334931,714.856927 53.7612788,713.176261 55.6679665,713 L59.6391419,719.355209 C59.1679813,720.513484 58.2727456,721.40781 57.176911,721.786778 C58.7013017,725.036653 61.5836232,727.522911 65.0931435,728.514821 C65.3076236,727.416402 65.8787865,726.468351 66.6630982,725.832145 L72.9673345,728.906926 Z" id="Combined-Shape"></path>
            </g>
        </g>
    </g>
</svg>