<?xml version="1.0" encoding="UTF-8"?>
<svg width="210px" height="97px" viewBox="0 0 210 97" version="1.1" xmlns="http://www.w3.org/2000/svg" xmlns:xlink="http://www.w3.org/1999/xlink">
    <!-- Generator: Sketch 49.3 (51167) - http://www.bohemiancoding.com/sketch -->
    <title>Group 20</title>
    <desc>Created with Sketch.</desc>
    <defs>
        <linearGradient x1="50%" y1="17.9551681%" x2="50%" y2="77.4543895%" id="linearGradient-1">
            <stop stop-color="#5EF1FF" offset="0%"></stop>
            <stop stop-color="#3E797F" offset="43.9930172%"></stop>
            <stop stop-color="#2B2A3E" stop-opacity="0" offset="100%"></stop>
        </linearGradient>
        <linearGradient x1="100%" y1="0%" x2="5.25775833%" y2="100%" id="linearGradient-2">
            <stop stop-color="#FFFFFF" offset="0%"></stop>
            <stop stop-color="#FFFFFF" stop-opacity="0" offset="100%"></stop>
        </linearGradient>
        <linearGradient x1="50%" y1="-10.3474315%" x2="50%" y2="68.8089464%" id="linearGradient-3">
            <stop stop-color="#6CFFB2" offset="0%"></stop>
            <stop stop-color="#2B2A3E" stop-opacity="0" offset="100%"></stop>
        </linearGradient>
        <linearGradient x1="50%" y1="0%" x2="50%" y2="73.9300064%" id="linearGradient-4">
            <stop stop-color="#6CFFB2" offset="0%"></stop>
            <stop stop-color="#00CF64" stop-opacity="0" offset="100%"></stop>
        </linearGradient>
        <linearGradient x1="50%" y1="-12.8253718%" x2="50%" y2="77.136907%" id="linearGradient-5">
            <stop stop-color="#6CFFB2" offset="0%"></stop>
            <stop stop-color="#00CF64" stop-opacity="0" offset="100%"></stop>
        </linearGradient>
        <rect id="path-6" x="0" y="0" width="5.55376064" height="10.2803223" rx="2.77688032"></rect>
        <linearGradient x1="50%" y1="0%" x2="50%" y2="100%" id="linearGradient-8">
            <stop stop-color="#83E7C1" offset="0%"></stop>
            <stop stop-color="#4CCB8D" offset="100%"></stop>
        </linearGradient>
        <rect id="path-9" x="0" y="0" width="6.5298066" height="12.4098827" rx="3.2649033"></rect>
        <rect id="path-11" x="0" y="0" width="12.7016575" height="22.972973" rx="6.35082873"></rect>
    </defs>
    <g id="Page-1" stroke="none" stroke-width="1" fill="none" fill-rule="evenodd">
        <g id="Artboard-Copy-3" transform="translate(-1015.000000, -1257.000000)">
            <g id="01-copy-2" transform="translate(555.000000, 1194.000000)">
                <g id="Group-20" transform="translate(457.000000, 63.000000)">
                    <path d="M15.2400728,88.9003117 C15.7237111,89.0403428 16.2058232,89.1796665 16.6864091,89.3182829 C15.796202,89.5537843 14.9007322,89.8305729 14,90.1486486 C14.4144232,89.7290829 14.8277808,89.3129706 15.2400728,88.9003117 Z M24.204302,80.3190159 C51.2753933,55.6317307 73.380405,47.0389056 90.519337,54.5405405 C119.38674,67.1756757 129.779006,59.1351351 134.39779,54.5405405 C136.527228,52.4222549 149.455953,53.8536457 160.510429,57.9254793 C149.201908,63.686071 145.791595,70.6750834 129.779006,70.6750834 C111.443446,70.6750834 112.428848,61.9995927 98.0438953,58.7378991 C79.870607,54.6172253 55.2574092,61.8109309 24.204302,80.3190159 Z" id="Combined-Shape" fill="url(#linearGradient-1)" opacity="0.900000036"></path>
                    <path d="M144.790055,59.1351351 C143.25046,61.4324324 139.016575,62.5810811 132.088398,62.5810811" id="Path-5" stroke="#FFFFFF" stroke-width="1.15441984" opacity="0.600000024"></path>
                    <path d="M108.994475,61.4324324 C115.922652,63.7297297 119.771639,64.4954955 120.541436,63.7297297" id="Path-6" stroke="#FFFFFF" stroke-width="1.15441984" opacity="0.200000003"></path>
                    <path d="M133.224991,59.1162669 C136.398399,60.1685298 138.161404,60.5192841 138.514005,60.1685298" id="Path-6-Copy" stroke="#FFFFFF" stroke-width="0.577209919" opacity="0.200000003" transform="translate(135.869498, 59.708165) rotate(-27.000000) translate(-135.869498, -59.708165) "></path>
                    <path d="M142.46256,62.5622128 C145.635968,63.6144757 147.398973,63.96523 147.751574,63.6144757" id="Path-6-Copy-2" stroke="#FFFFFF" stroke-width="0.577209919" opacity="0.300000012" transform="translate(145.107067, 63.154111) rotate(-38.000000) translate(-145.107067, -63.154111) "></path>
                    <path d="M147.147157,57.1095739 C150.320565,58.1618368 152.08357,58.5125911 152.436171,58.1618368" id="Path-6-Copy-3" stroke="#FFFFFF" stroke-width="0.577209919" opacity="0.300000012" transform="translate(149.791664, 57.701472) scale(1, -1) rotate(-6.000000) translate(-149.791664, -57.701472) "></path>
                    <path d="M43.1767956,68.048048 C60.8821363,57.3273273 75.5082873,53.4984985 87.0552486,56.5615616" id="Path-7" stroke="url(#linearGradient-2)" stroke-width="1.15441984" opacity="0.600000024" transform="translate(65.116022, 61.794294) rotate(-3.000000) translate(-65.116022, -61.794294) "></path>
                    <path d="M14,111.756757 C-17.0032598,107.417624 15.6960368,85.1707183 17.5128487,84.0277131 C51.7404586,62.4942043 78.5841409,53.9336357 98.0438953,58.3460072 C112.428848,61.6077008 111.443446,70.2831915 129.779006,70.2831915 C148.114565,70.2831915 149.926162,61.1192778 165.993322,55.1291431 C190.817158,45.8743571 214.101869,110.516038 215.637843,111.756757 C224.266341,118.726629 45.0032598,116.09589 14,111.756757 Z" id="Path-4" fill="url(#linearGradient-3)"></path>
                    <path d="M26,45 C29.3888217,30.8848952 31.8299295,22.9518081 33.3233235,21.2007387 C35.5634145,18.5741346 51.7418493,8.85198799 65.7631595,15.9221208 C79.7844697,22.9922537 99.8623221,19.4247055 120.769838,10.2315912 C141.677354,1.03847683 155.925277,37.1201877 161.898853,42.8111633" id="Path-4-Copy" fill="url(#linearGradient-4)" opacity="0.300000012"></path>
                    <path d="M80.1270718,49.6477661 C83.6116578,44.6864028 86.1006478,41.3301864 87.5940417,39.579117 C89.8341327,36.9525129 106.012568,27.2303664 120.033878,34.3004992 C134.055188,41.370632 154.13304,37.8030839 175.040556,28.6099695 C195.948072,19.4168552 210.052348,41.7679538 216.025924,47.4589293" id="Path-4-Copy-2" fill="url(#linearGradient-5)" opacity="0.699999988"></path>
                    <g id="Group-19" opacity="0.900000036" transform="translate(177.121547, 43.054054)">
                        <rect id="Rectangle-10" fill="#4CCB8D" opacity="0.699999988" x="2.41467854" y="3.58615894" width="1" height="11.7147859" rx="0.5"></rect>
                        <g id="Rectangle-11-Copy-8">
                            <mask id="mask-7" fill="white">
                                <use xlink:href="#path-6"></use>
                            </mask>
                            <use id="Mask" fill="#1D6D46" xlink:href="#path-6"></use>
                            <rect fill="url(#linearGradient-8)" mask="url(#mask-7)" x="-1" y="0" width="5.55376064" height="10.2803223" rx="2.77688032"></rect>
                        </g>
                    </g>
                    <g id="Group-19-Copy" opacity="0.5" transform="translate(106.685083, 0.484466)">
                        <rect id="Rectangle-10" fill="#4CCB8D" opacity="0.699999988" x="2.83904635" y="4.32902886" width="1" height="14.1414943" rx="0.5"></rect>
                        <g id="Rectangle-11-Copy-9">
                            <mask id="mask-10" fill="white">
                                <use xlink:href="#path-9"></use>
                            </mask>
                            <use id="Mask" fill="#1D6D46" xlink:href="#path-9"></use>
                            <rect fill="url(#linearGradient-8)" mask="url(#mask-10)" x="-1" y="0" width="6.5298066" height="12.4098827" rx="3.2649033"></rect>
                        </g>
                    </g>
                    <g id="Group-19-Copy-2" transform="translate(91.674033, 43.054054)">
                        <rect id="Rectangle-10" fill="#4CCB8D" opacity="0.699999988" x="6.35082873" y="8.61486486" width="1.58770718" height="27.2804054" rx="0.793853591"></rect>
                        <g id="Rectangle-11-Copy-7">
                            <mask id="mask-12" fill="white">
                                <use xlink:href="#path-11"></use>
                            </mask>
                            <use id="Mask" fill="#1D6D46" xlink:href="#path-11"></use>
                            <rect fill="url(#linearGradient-8)" mask="url(#mask-12)" x="-2" y="-1" width="12.7016575" height="22.972973" rx="6.35082873"></rect>
                        </g>
                    </g>
                    <g id="Group-24" opacity="0.699999988" transform="translate(115.922652, 20.675676)">
                        <rect id="Rectangle-10" fill="#4CCB8D" x="6.69261868" y="7.39729718" width="1" height="13.7543494" rx="0.5"></rect>
                        <path d="M9.7625729,4.5514445 L9.7625729,4.5514445 C10.0776387,4.75875475 10.1786586,5.17446241 9.99386631,5.50324167 L8.82187044,7.58843704 C8.54427617,8.08232809 8.02180025,8.38801519 7.45524316,8.38801519 L7.45524316,8.38801519 C7.1765781,8.38801519 6.95067543,8.16211252 6.95067543,7.88344747 C6.95067543,7.78779243 6.97786591,7.69410797 7.02907692,7.61331615 L8.84469908,4.74894309 C9.03934655,4.44186214 9.4460778,4.3507168 9.75315875,4.54536427 C9.75631399,4.54736427 9.75945216,4.54939108 9.7625729,4.5514445 Z" id="Rectangle-11-Copy-3" fill="#217651" transform="translate(8.517946, 6.415524) rotate(-319.000000) translate(-8.517946, -6.415524) "></path>
                        <g id="Group-23" fill="url(#linearGradient-8)">
                            <path d="M7.28768569,0.366055414 L7.28768569,0.366055414 C7.61913945,0.366055414 7.88783581,0.634751772 7.88783581,0.966205528 C7.88783581,1.0224413 7.87993182,1.07839798 7.86435578,1.1324336 L6.19805132,6.91309342 C6.06722624,7.36694523 5.65188756,7.67947161 5.17955645,7.67947161 L5.17955645,7.67947161 C4.8481027,7.67947161 4.57940634,7.41077525 4.57940634,7.07932149 C4.57940634,7.02308572 4.58731032,6.96712904 4.60288637,6.91309342 L6.26919082,1.1324336 C6.40001591,0.678581786 6.81535459,0.366055414 7.28768569,0.366055414 Z" id="Rectangle-11" transform="translate(6.233621, 4.022764) rotate(-16.000000) translate(-6.233621, -4.022764) "></path>
                            <path d="M4.54564696,5.46249343 L4.54564696,5.46249343 C4.88653382,5.46249343 5.16287722,5.73883683 5.16287722,6.07972369 C5.16287722,6.1319663 5.15624458,6.18399754 5.14313837,6.23456945 L3.99546656,10.6630024 C3.87765176,11.1176053 3.46741427,11.4350784 2.99779301,11.4350784 L2.99779301,11.4350784 C2.65690615,11.4350784 2.38056275,11.158735 2.38056275,10.8178482 C2.38056275,10.7656056 2.3871954,10.7135743 2.4003016,10.6630024 L3.54797342,6.23456945 C3.66578821,5.77996655 4.0760257,5.46249343 4.54564696,5.46249343 Z" id="Rectangle-11-Copy" transform="translate(3.771720, 8.448786) rotate(-130.000000) translate(-3.771720, -8.448786) "></path>
                            <path d="M11.0919179,5.80762249 L11.0919179,5.80762249 C11.3590057,5.80762249 11.5755231,6.02413994 11.5755231,6.29122775 C11.5755231,6.36908634 11.5567246,6.44579392 11.5207255,6.5148303 L8.47302499,12.3594731 C8.24637924,12.7941167 7.79685465,13.0666809 7.30666761,13.0666809 L7.30666761,13.0666809 C7.0395798,13.0666809 6.82306235,12.8501635 6.82306235,12.5830757 C6.82306235,12.5052171 6.84186087,12.4285095 6.87786003,12.3594731 L9.92556049,6.5148303 C10.1522062,6.08018672 10.6017308,5.80762249 11.0919179,5.80762249 Z" id="Rectangle-11-Copy-2" transform="translate(9.199293, 9.437152) rotate(-265.000000) translate(-9.199293, -9.437152) "></path>
                        </g>
                    </g>
                    <g id="Group-24-Copy-2" opacity="0.800000012" transform="translate(156.337017, 39.608108)">
                        <rect id="Rectangle-10" fill="#4CCB8D" opacity="0.699999988" x="9.23756906" y="10.2102102" width="1" height="18.9846096" rx="0.5"></rect>
                        <path d="M13.474911,6.28218713 L13.474911,6.28218713 C13.9097844,6.56832964 14.0492184,7.14211524 13.7941566,7.59591684 L12.1764949,10.4740333 C11.793342,11.1557325 11.0721882,11.5776609 10.2901909,11.5776609 L10.2901909,11.5776609 C9.90555999,11.5776609 9.59375506,11.265856 9.59375506,10.8812251 C9.59375506,10.7491961 9.63128506,10.619887 9.70196968,10.508373 L12.2080044,6.55478698 C12.476669,6.13093473 13.0380648,6.00513025 13.461917,6.27379481 C13.4662721,6.27655533 13.4706036,6.27935287 13.474911,6.28218713 Z" id="Rectangle-11-Copy-3" fill="#217651" transform="translate(11.756999, 8.855106) rotate(-319.000000) translate(-11.756999, -8.855106) "></path>
                        <g id="Group-23" fill="url(#linearGradient-8)">
                            <path d="M10.0589176,0.505252477 L10.0589176,0.505252477 C10.5164107,0.505252477 10.8872822,0.876123923 10.8872822,1.33361704 C10.8872822,1.41123715 10.8763726,1.48847204 10.8548736,1.56305537 L8.5549364,9.54188203 C8.37436347,10.1683166 7.80108716,10.5996849 7.14914636,10.5996849 L7.14914636,10.5996849 C6.69165324,10.5996849 6.32078179,10.2288135 6.32078179,9.77132036 C6.32078179,9.69370025 6.33169137,9.61646536 6.35319039,9.54188203 L8.65312757,1.56305537 C8.83370049,0.936620837 9.40697681,0.505252477 10.0589176,0.505252477 Z" id="Rectangle-11" transform="translate(8.604032, 5.552469) rotate(-16.000000) translate(-8.604032, -5.552469) "></path>
                            <path d="M6.274185,7.53967359 L6.274185,7.53967359 C6.74469827,7.53967359 7.12612464,7.92109996 7.12612464,8.39161323 C7.12612464,8.46372173 7.11696985,8.5355385 7.09887985,8.60534099 L5.51479175,14.7177399 C5.35217643,15.3452112 4.7859411,15.7834073 4.1377406,15.7834073 L4.1377406,15.7834073 C3.66722732,15.7834073 3.28580095,15.401981 3.28580095,14.9314677 C3.28580095,14.8593592 3.29495574,14.7875424 3.31304574,14.7177399 L4.89713385,8.60534099 C5.05974917,7.97786975 5.6259845,7.53967359 6.274185,7.53967359 Z" id="Rectangle-11-Copy" transform="translate(5.205963, 11.661540) rotate(-130.000000) translate(-5.205963, -11.661540) "></path>
                            <path d="M15.3097558,8.01604221 L15.3097558,8.01604221 C15.678407,8.01604221 15.9772578,8.31489308 15.9772578,8.6835443 C15.9772578,8.79100958 15.951311,8.89688616 15.9016227,8.99217447 L11.6949967,17.0593145 C11.3821661,17.6592366 10.7617043,18.0354467 10.0851176,18.0354467 L10.0851176,18.0354467 C9.71646641,18.0354467 9.41761554,17.7365959 9.41761554,17.3679446 C9.41761554,17.2604794 9.44356243,17.1546028 9.49325071,17.0593145 L13.6998767,8.99217447 C14.0127072,8.39225233 14.6331691,8.01604221 15.3097558,8.01604221 Z" id="Rectangle-11-Copy-2" transform="translate(12.697437, 13.025744) rotate(-265.000000) translate(-12.697437, -13.025744) "></path>
                        </g>
                    </g>
                    <g id="Group-24-Copy" transform="translate(59.342541, 29.270270)">
                        <rect id="Rectangle-10" fill="#4CCB8D" opacity="0.699999988" x="12.542389" y="13.8630009" width="1.30171315" height="25.7765174" rx="0.650856573"></rect>
                        <path d="M18.2956766,8.52969373 L18.2956766,8.52969373 C18.8861297,8.91820619 19.0754474,9.69726854 18.7291351,10.3134216 L16.532741,14.2212091 C16.0125118,15.146792 15.033359,15.7196689 13.9715953,15.7196689 L13.9715953,15.7196689 C13.4493595,15.7196689 13.0260036,15.2963131 13.0260036,14.7740772 C13.0260036,14.5948136 13.0769603,14.4192431 13.172933,14.2678341 L16.5755233,8.89981852 C16.9403049,8.32432948 17.7025449,8.15351737 18.2780339,8.51829899 C18.2839471,8.52204711 18.2898282,8.5258455 18.2956766,8.52969373 Z" id="Rectangle-11-Copy-3" fill="#217651" transform="translate(15.963167, 12.023096) rotate(-319.000000) translate(-15.963167, -12.023096) "></path>
                        <g id="Group-23" fill="url(#linearGradient-8)">
                            <path d="M13.6575821,0.686010906 L13.6575821,0.686010906 C14.2787473,0.686010906 14.7823012,1.18956481 14.7823012,1.81073003 C14.7823012,1.91611941 14.7674887,2.02098574 14.7382982,2.12225191 L11.6155386,12.9555726 C11.3703642,13.8061195 10.5919933,14.3918136 9.70681509,14.3918136 L9.70681509,14.3918136 C9.08564987,14.3918136 8.58209597,13.8882597 8.58209597,13.2670945 C8.58209597,13.1617051 8.59690854,13.0568387 8.62609902,12.9555726 L11.7488586,2.12225191 C11.994033,1.27170502 12.7724039,0.686010906 13.6575821,0.686010906 Z" id="Rectangle-11" transform="translate(11.682199, 7.538912) rotate(-16.000000) translate(-11.682199, -7.538912) "></path>
                            <path d="M8.51882877,10.2370568 L8.51882877,10.2370568 C9.15767222,10.2370568 9.67555717,10.7549418 9.67555717,11.3937852 C9.67555717,11.4916911 9.66312717,11.589201 9.63856532,11.6839759 L7.48775604,19.9831383 C7.26696369,20.8350927 6.49815278,21.4300574 5.61805296,21.4300574 L5.61805296,21.4300574 C4.97920951,21.4300574 4.46132457,20.9121724 4.46132457,20.273329 C4.46132457,20.175423 4.47375457,20.0779132 4.49831642,19.9831383 L6.6491257,11.6839759 C6.86991805,10.8320214 7.63872895,10.2370568 8.51882877,10.2370568 Z" id="Rectangle-11-Copy" transform="translate(7.068441, 15.833557) rotate(-130.000000) translate(-7.068441, -15.833557) "></path>
                            <path d="M20.7869529,10.8838504 L20.7869529,10.8838504 C21.2874922,10.8838504 21.6932596,11.2896178 21.6932596,11.7901571 C21.6932596,11.936069 21.65803,12.0798239 21.5905653,12.2092024 L15.8789826,23.1624313 C15.4542342,23.9769807 14.6117968,24.4877833 13.6931554,24.4877833 L13.6931554,24.4877833 C13.192616,24.4877833 12.7868487,24.0820159 12.7868487,23.5814765 C12.7868487,23.4355646 12.8220783,23.2918098 12.889543,23.1624313 L18.6011257,12.2092024 C19.0258741,11.3946529 19.8683115,10.8838504 20.7869529,10.8838504 Z" id="Rectangle-11-Copy-2" transform="translate(17.240054, 17.685817) rotate(-265.000000) translate(-17.240054, -17.685817) "></path>
                        </g>
                    </g>
                </g>
            </g>
        </g>
    </g>
</svg>