<?xml version="1.0" encoding="UTF-8"?>
<svg width="19px" height="18px" viewBox="0 0 19 18" version="1.1" xmlns="http://www.w3.org/2000/svg" xmlns:xlink="http://www.w3.org/1999/xlink">
    <!-- Generator: Sketch 49.3 (51167) - http://www.bohemiancoding.com/sketch -->
    <title>Group 29</title>
    <desc>Created with Sketch.</desc>
    <defs></defs>
    <g id="Page-1" stroke="none" stroke-width="1" fill="none" fill-rule="evenodd">
        <g id="Artboard-Copy-4" transform="translate(-912.000000, -1787.000000)" stroke="#282739">
            <g id="Group-33-Copy-5" transform="translate(912.000000, 1787.000000)">
                <g id="Group-34">
                    <g id="Group-29" transform="translate(2.000000, 1.000000)">
                        <path d="M2.25,0.65625 C1.875,1.3125 -4.40625,8.25 6,14.34375 C10.375,15.71875 13.34375,15.0625 14.90625,12.375 C14.96875,11.625 14.53125,11.34375 13.59375,11.53125 C9.78125,11.53125 6.6875,9.46875 4.3125,5.34375 C3.8125,3.03125 3.6875,1.53125 3.9375,0.84375 C3.75,-0.28125 2.625,-6.6516237e-14 2.25,0.65625 Z" id="Path-8"></path>
                        <path d="M1.99166482,4.63394292 C2.46641627,10.2122725 5.37426891,13.179469 10.7152227,13.5355326" id="Path-9" opacity="0.5" transform="translate(6.353444, 9.084738) rotate(-3.000000) translate(-6.353444, -9.084738) "></path>
                        <path d="M1.32352941,2.20588235 L3.75,2.75735294" id="Path-10" opacity="0.5"></path>
                    </g>
                </g>
            </g>
        </g>
    </g>
</svg>