<?xml version="1.0" encoding="UTF-8"?>
<svg width="250px" height="196px" viewBox="0 0 250 196" version="1.1" xmlns="http://www.w3.org/2000/svg" xmlns:xlink="http://www.w3.org/1999/xlink">
    <!-- Generator: Sketch 49.3 (51167) - http://www.bohemiancoding.com/sketch -->
    <title>Group 7</title>
    <desc>Created with Sketch.</desc>
    <defs>
        <linearGradient x1="50%" y1="0%" x2="50%" y2="100%" id="linearGradient-1">
            <stop stop-color="#F7D24C" offset="0%"></stop>
            <stop stop-color="#EE9E26" offset="100%"></stop>
        </linearGradient>
        <path d="M3.97738331e-06,131.328525 C4.27001157,129.102219 7.14285714,124.941086 7.14285714,120.175182 C7.14285714,115.409279 4.27001157,111.248146 3.9773833e-06,109.02184 L0,2.86 C-1.93437173e-16,1.28046562 1.28046562,2.90155759e-16 2.86,0 L247.14,0 C248.719534,-2.90155759e-16 250,1.28046562 250,2.86 L250,109.021827 C245.729988,111.248146 242.857143,115.409279 242.857143,120.175182 C242.857143,124.941086 245.729988,129.102219 249.999996,131.328525 L250,193.14 C250,194.719534 248.719534,196 247.14,196 L232.514224,196 C232.739096,195.306611 232.857143,194.588941 232.857143,193.854015 C232.857143,187.92804 225.182024,183.124088 215.714286,183.124088 C206.246547,183.124088 198.571429,187.92804 198.571429,193.854015 C198.571429,194.588941 198.689475,195.306611 198.914348,196 L186.799938,196 C187.024811,195.306611 187.142857,194.588941 187.142857,193.854015 C187.142857,187.92804 179.467739,183.124088 170,183.124088 C160.532261,183.124088 152.857143,187.92804 152.857143,193.854015 C152.857143,194.588941 152.975189,195.306611 153.200062,196 L142.514224,196 C142.739096,195.306611 142.857143,194.588941 142.857143,193.854015 C142.857143,187.92804 135.182024,183.124088 125.714286,183.124088 C116.246547,183.124088 108.571429,187.92804 108.571429,193.854015 C108.571429,194.588941 108.689475,195.306611 108.914348,196 L96.7999379,196 C97.0248105,195.306611 97.1428571,194.588941 97.1428571,193.854015 C97.1428571,187.92804 89.4677386,183.124088 80,183.124088 C70.5322614,183.124088 62.8571429,187.92804 62.8571429,193.854015 C62.8571429,194.588941 62.9751895,195.306611 63.2000621,196 L49.6570807,196 C49.8819534,195.306611 50,194.588941 50,193.854015 C50,187.92804 42.3248814,183.124088 32.8571429,183.124088 C23.3894043,183.124088 15.7142857,187.92804 15.7142857,193.854015 C15.7142857,194.588941 15.8323323,195.306611 16.057205,196 L2.86,196 C1.28046562,196 1.51813399e-14,194.719534 -4.4408921e-16,193.14 L-2.99829154e-16,131.328538 Z" id="path-2"></path>
    </defs>
    <g id="Page-1" stroke="none" stroke-width="1" fill="none" fill-rule="evenodd">
        <g id="Artboard-2-Copy-3" transform="translate(-433.000000, -80.000000)">
            <g id="Group-5" transform="translate(0.000000, 80.000000)">
                <g id="已开售" transform="translate(433.000000, 0.000000)">
                    <g id="Group-7">
                        <mask id="mask-3" fill="white">
                            <use xlink:href="#path-2"></use>
                        </mask>
                        <use id="Combined-Shape" fill="url(#linearGradient-1)" xlink:href="#path-2"></use>
                        <path d="M25,122 L225,122" id="Line-5" stroke="#FFFFFF" stroke-width="1.43" opacity="0.349999994" stroke-linecap="square" stroke-dasharray="7.15" mask="url(#mask-3)"></path>
                    </g>
                </g>
            </g>
        </g>
    </g>
</svg>