<?xml version="1.0" encoding="UTF-8"?>
<svg width="83px" height="83px" viewBox="0 0 83 83" version="1.1" xmlns="http://www.w3.org/2000/svg" xmlns:xlink="http://www.w3.org/1999/xlink">
    <!-- Generator: Sketch 49.3 (51167) - http://www.bohemiancoding.com/sketch -->
    <title>已预订</title>
    <desc>Created with Sketch.</desc>
    <defs></defs>
    <g id="Page-1" stroke="none" stroke-width="1" fill="none" fill-rule="evenodd" opacity="0.100000001">
        <g id="Artboard-Copy" transform="translate(-356.000000, -4.000000)">
            <g id="Group-14" transform="translate(240.000000, 0.000000)">
                <g id="Bitmap">
                    <g id="已停售" transform="translate(32.000000, -44.000000)">
                        <g id="已预订" transform="translate(86.000000, 49.000000)">
                            <path d="M64.6869096,65.7885436 C50.8605053,79.7463904 28.4434747,79.7463904 14.6170703,65.7885436 C0.790666024,51.8306968 0.790666024,29.2005559 14.6170703,15.2427091 C28.4434747,1.28486229 50.8605053,1.28486229 64.6869096,15.2427091 C78.5133139,29.2005559 78.5133139,51.8306968 64.6869096,65.7885436 Z" id="Oval-3" stroke="#393939" stroke-width="2.59090906" stroke-dasharray="3.109090761704878"></path>
                            <ellipse id="Oval-3-Copy" stroke="#393939" stroke-width="2.65309088" cx="39.65199" cy="40.5156263" rx="39.5631869" ry="39.9392993"></ellipse>
                            <ellipse id="Oval-3-Copy-2" stroke="#393939" stroke-width="1.81818182" opacity="0.400000006" cx="39.65199" cy="40.5156263" rx="26.3192348" ry="26.569442"></ellipse>
                            <path d="M28.7233847,39.9775259 L17.2646852,39.9775259 L17.2646852,45.1032975 C17.2646852,45.790448 17.5989747,46.1433091 18.2861252,46.1433091 L27.6090865,46.1433091 C27.9248043,46.1433091 28.2219505,46.0318793 28.4819534,45.8090196 C28.7790996,45.5304451 28.964816,44.4161469 29.0576741,42.4661251 L30.7848363,43.0232742 C30.5619767,45.3633004 30.2462589,46.7561731 29.8748261,47.1833207 C29.4291069,47.5918967 28.8348145,47.8147563 28.0919491,47.8518996 L17.784691,47.8518996 C16.2432452,47.8518996 15.4818081,47.0347476 15.4818081,45.4375869 L15.4818081,35.7617645 L17.2646852,35.7617645 L17.2646852,38.287507 L26.9405076,38.287507 L26.9405076,33.8674576 L14.6275129,33.8674576 L14.6275129,32.1774387 L28.7233847,32.1774387 L28.7233847,39.9775259 Z M35.9106079,31.1745704 L37.5449119,31.9360075 C37.1363359,33.2917369 36.6349017,34.5731798 36.0034661,35.7989078 L36.0034661,48.4647636 L34.2391606,48.4647636 L34.2391606,38.696083 C33.7748697,39.3275186 33.2920072,39.9403826 32.790573,40.534675 L32.1962807,38.6589397 C33.8677279,36.5046299 35.1120275,34.0160307 35.9106079,31.1745704 Z M43.2464042,31.1745704 C43.3949772,31.6202896 43.562122,32.1217238 43.7292667,32.6788729 L48.9107532,32.6788729 L48.9107532,34.2388903 L37.3591955,34.2388903 L37.3591955,32.6788729 L41.9649613,32.6788729 C41.8163882,32.2517253 41.6492434,31.8431493 41.4635271,31.4717165 L43.2464042,31.1745704 Z M38.4734937,35.0560423 L47.5364521,35.0560423 L47.5364521,38.7703695 L38.4734937,38.7703695 L38.4734937,35.0560423 Z M45.8278616,37.4517834 L45.8278616,36.3560569 L40.2006558,36.3560569 L40.2006558,37.4517834 L45.8278616,37.4517834 Z M49.0036114,39.5875215 L49.0036114,42.986131 L47.9264565,42.986131 L47.9264565,43.9704277 L44.0821278,43.9704277 L44.0821278,46.5890284 C44.0821278,47.7404698 43.4506921,48.3161905 42.2249642,48.3161905 L40.1635126,48.3161905 L39.7735082,46.6076 C40.4049438,46.6633149 41.0178078,46.7004582 41.6121002,46.7004582 C42.0578194,46.7004582 42.2992507,46.5147418 42.2992507,46.1618807 L42.2992507,43.9704277 L38.3992071,43.9704277 L38.3992071,42.986131 L37.0991926,42.986131 L37.0991926,39.5875215 L49.0036114,39.5875215 Z M38.7892115,42.4846968 L47.3135925,42.4846968 L47.3135925,41.1103957 L38.7892115,41.1103957 L38.7892115,42.4846968 Z M66.2566613,42.8747011 L66.2566613,48.5204785 L64.5294992,48.5204785 L64.5294992,47.7218982 L55.1322513,47.7218982 L55.1322513,48.5204785 L53.3865175,48.5204785 L53.3865175,42.8747011 L66.2566613,42.8747011 Z M55.1322513,46.199024 L64.5294992,46.199024 L64.5294992,44.360432 L55.1322513,44.360432 L55.1322513,46.199024 Z M53.4236608,36.6903463 C52.8293684,37.3403536 52.1793611,37.9717892 51.473639,38.5846532 L50.9164899,36.857491 C52.7922251,35.1303289 54.1108113,33.2545936 54.8722484,31.2302853 L56.5994105,31.5645747 C56.4136942,32.0660089 56.1908345,32.5488714 55.9679749,33.0131623 L60.0165916,33.0131623 C59.7565887,32.4560133 59.4780141,31.9360075 59.180868,31.4531449 L61.0008883,31.1559987 C61.2608912,31.7131478 61.5023225,32.3260118 61.7623254,33.0131623 L66.9995268,33.0131623 L66.9995268,34.46175 L61.5580374,34.46175 L61.5580374,35.5017616 L66.1823748,35.5017616 L66.1823748,36.8760627 L61.5580374,36.8760627 L61.5580374,37.8603594 L66.219518,37.8603594 L66.219518,39.2346605 L61.5580374,39.2346605 L61.5580374,40.2932437 L67.3338162,40.2932437 L67.3338162,41.760403 L53.4236608,41.760403 L53.4236608,36.6903463 Z M59.8123036,40.2932437 L59.8123036,39.2346605 L55.095108,39.2346605 L55.095108,40.2932437 L59.8123036,40.2932437 Z M59.8123036,37.8603594 L59.8123036,36.8760627 L55.095108,36.8760627 L55.095108,37.8603594 L59.8123036,37.8603594 Z M59.8123036,35.5017616 L59.8123036,34.46175 L55.1322513,34.46175 C55.1136796,34.4803216 55.095108,34.4988932 55.095108,34.5174649 L55.095108,35.5017616 L59.8123036,35.5017616 Z" id="已停售" fill="#393939" transform="translate(40.980665, 39.838239) rotate(-45.000000) translate(-40.980665, -39.838239) "></path>
                        </g>
                    </g>
                </g>
            </g>
        </g>
    </g>
</svg>