<?xml version="1.0" encoding="UTF-8"?>
<svg width="250px" height="146px" viewBox="0 0 250 146" version="1.1" xmlns="http://www.w3.org/2000/svg" xmlns:xlink="http://www.w3.org/1999/xlink">
    <!-- Generator: Sketch 52.2 (67145) - http://www.bohemiancoding.com/sketch -->
    <title>Combined Shape</title>
    <desc>Created with Sketch.</desc>
    <defs>
        <linearGradient x1="50%" y1="0%" x2="50%" y2="100%" id="linearGradient-1">
            <stop stop-color="#F7D24C" offset="0%"></stop>
            <stop stop-color="#EE9E26" offset="100%"></stop>
        </linearGradient>
        <path d="M3.97738331e-06,91.328525 C4.27001157,89.1022186 7.14285714,84.9410864 7.14285714,80.1751825 C7.14285714,75.4092786 4.27001157,71.2481464 3.9773833e-06,69.02184 L0,2.86 C-1.93437173e-16,1.28046562 1.28046562,-1.53933451e-16 2.86,-4.4408921e-16 L247.14,4.4408921e-16 C248.719534,1.53933451e-16 250,1.28046562 250,2.86 L250,69.0218379 C245.729988,71.2481464 242.857143,75.4092786 242.857143,80.1751825 C242.857143,84.9410864 245.729988,89.1022186 249.999996,91.328525 L250,143.14 C250,144.719534 248.719534,146 247.14,146 L232.514224,146 C232.739096,145.306611 232.857143,144.588941 232.857143,143.854015 C232.857143,137.92804 225.182024,133.124088 215.714286,133.124088 C206.246547,133.124088 198.571429,137.92804 198.571429,143.854015 C198.571429,144.588941 198.689475,145.306611 198.914348,146 L186.799938,146 C187.024811,145.306611 187.142857,144.588941 187.142857,143.854015 C187.142857,137.92804 179.467739,133.124088 170,133.124088 C160.532261,133.124088 152.857143,137.92804 152.857143,143.854015 C152.857143,144.588941 152.975189,145.306611 153.200062,146 L142.514224,146 C142.739096,145.306611 142.857143,144.588941 142.857143,143.854015 C142.857143,137.92804 135.182024,133.124088 125.714286,133.124088 C116.246547,133.124088 108.571429,137.92804 108.571429,143.854015 C108.571429,144.588941 108.689475,145.306611 108.914348,146 L96.7999379,146 C97.0248105,145.306611 97.1428571,144.588941 97.1428571,143.854015 C97.1428571,137.92804 89.4677386,133.124088 80,133.124088 C70.5322614,133.124088 62.8571429,137.92804 62.8571429,143.854015 C62.8571429,144.588941 62.9751895,145.306611 63.2000621,146 L49.6570807,146 C49.8819534,145.306611 50,144.588941 50,143.854015 C50,137.92804 42.3248814,133.124088 32.8571429,133.124088 C23.3894043,133.124088 15.7142857,137.92804 15.7142857,143.854015 C15.7142857,144.588941 15.8323323,145.306611 16.057205,146 L2.86,146 C1.28046562,146 -2.50652037e-16,144.719534 -4.4408921e-16,143.14 L-2.80067852e-16,91.3285271 Z" id="path-2"></path>
    </defs>
    <g id="Page-1" stroke="none" stroke-width="1" fill="none" fill-rule="evenodd">
        <g id="mweb-全部赛事" transform="translate(-433.000000, -80.000000)">
            <g id="Group-5" transform="translate(0.000000, 80.000000)">
                <g id="已开售-copy" transform="translate(433.000000, 0.000000)">
                    <mask id="mask-3" fill="white">
                        <use xlink:href="#path-2"></use>
                    </mask>
                    <use id="Combined-Shape" fill="url(#linearGradient-1)" xlink:href="#path-2"></use>
                </g>
            </g>
        </g>
    </g>
</svg>