<?xml version="1.0" encoding="UTF-8"?>
<svg width="135px" height="81px" viewBox="0 0 135 81" version="1.1" xmlns="http://www.w3.org/2000/svg" xmlns:xlink="http://www.w3.org/1999/xlink">
    <!-- Generator: Sketch 49.3 (51167) - http://www.bohemiancoding.com/sketch -->
    <title>鸟</title>
    <desc>Created with Sketch.</desc>
    <defs></defs>
    <g id="Page-1" stroke="none" stroke-width="1" fill="none" fill-rule="evenodd" opacity="0.0399999991">
        <g id="Artboard-Copy-8" transform="translate(-623.000000, -260.000000)" fill="#191919" fill-rule="nonzero">
            <g id="鸟" transform="translate(623.000000, 260.000000)">
                <path d="M128.592277,55.2356139 C128.592277,55.2356139 119.218925,55.0987773 112.996161,53.0043251 C110.810803,52.272469 112.425711,51.8563263 108.490619,52.3929567 L105.285255,55.7373482 C107.099465,56.8676243 107.311881,57.7228532 106.399654,60.8812238 C103.763236,70.0605434 91.6816153,75.2846526 72.9877777,76.1379581 C49.2335215,75.5774225 37.721667,62.4662481 32.4088081,57.0289156 C22.127737,46.3152673 18.6024509,33.2986145 18.6024509,33.2986145 L8.99824239,27.6491578 C8.99824239,27.6491578 19.0946277,23.1056597 20.0086312,21.9997011 C24.0890675,11.9652899 31.7456057,4.90364076 43.3407874,4.90364076 C52.6148291,4.90364076 58.8013939,9.84803166 65.5474803,16.776691 C68.3424924,19.6429787 71.3174093,23.708785 74.103952,27.1830065 C70.8361607,26.1810492 67.704015,25.5295639 64.750408,25.664065 C55.3721391,25.664065 47.7799404,33.6330125 47.7799404,43.4517273 C47.7799404,51.3654455 52.1525682,56.4697539 59.4363197,59.7352858 C60.3612514,60.148406 64.393194,60.5615262 66.6820959,60.3631406 C68.7625433,60.1897592 70.8156704,59.4430654 71.5437587,59.1487842 C73.0790278,58.5209294 77.5987758,54.8714032 78.2076107,54.3236445 C78.8165821,53.7749242 80.8305043,49.7801465 79.7960179,48.8997759 C78.7619413,48.0188558 75.965973,48.8746342 75.1466346,49.661857 C74.3114504,50.4486676 72.829456,52.6996026 71.7803532,53.5269421 C70.7330262,54.3531826 69.3966495,55.3135119 67.9373311,55.7656498 C66.4780127,56.2177877 62.2672581,56.3781173 60.3204074,55.5261857 C55.7762076,53.5284534 53.3519331,50.1675755 53.3519331,44.8526541 C53.3519331,37.271273 58.6658848,31.3267108 65.8978643,31.3267108 C73.5539927,30.9662095 85.479068,37.029336 90.8617305,38.6686278 C96.2415244,40.3081943 109.940376,40.0685928 109.940376,40.0685928 C109.940376,40.0685928 103.912816,47.9703585 93.1257709,53.101045 C92.4896157,54.4055267 93.5241021,55.8461581 95.1120996,55.9390311 C96.5839854,56.0320416 99.1519651,54.7125848 99.1519651,54.7125848 C112.720771,47.2907091 125.571052,30.6602505 125.571052,30.6602505 C125.571052,30.6602505 114.839194,35.9893227 98.862369,34.6062561 C93.1324644,34.1093303 87.4864334,32.0363104 82.0880617,30.0086279 C73.5522168,19.3242428 68.4838754,9.20533915 55.9499652,3.18493977 C36.7662731,-5.65132657 23.5568664,5.39658234 16.6801886,18.0277295 C15.1572136,20.8269727 0,27.9816323 0,27.9816323 C0,27.9816323 14.4537137,34.0572609 15.3416263,37.5367031 C17.5956947,46.2784478 22.7746837,55.0184064 28.684493,61.0546052 C37.1632383,69.7027899 46.0012466,76.6582395 61.4369916,79.5770087 C61.4369916,79.5770087 67.4645518,80.4970839 69.7710754,80.6978051 C69.8366443,80.6978051 73.8515117,80.9630978 74.4077547,80.9771112 C89.3767309,81.5630632 106.749901,70.7700056 116.791646,63.3887962 C120.248494,63.2548447 125.35563,73.9312614 125.35563,73.9312614 C125.35563,73.9312614 128.598697,69.469096 129.222831,65.1224723 C129.871827,60.7659568 135,54.9285558 135,54.9285558 L128.600063,55.2376747 L128.592277,55.2356139 Z M29.7856412,21.7540546 C29.7856412,25.1980511 32.5764187,28.0010038 35.996931,28.0010038 C39.4174434,28.0010038 42.2082208,25.1942043 42.2082208,21.7540546 C42.2082208,18.3100581 39.4174434,15.5071054 35.996931,15.5071054 C32.5650807,15.5071054 29.7856412,18.3047 29.7856412,21.7540546 Z M38.4639619,23.5011945 C38.4639619,25.4541389 36.969127,27.0379267 35.0961779,27.0379267 C33.2357962,27.0379267 31.7283939,25.4527651 31.7283939,23.5011945 C31.7283939,21.5482501 33.238255,19.9633632 35.0961779,19.9633632 C36.9541007,19.9633632 38.4639619,21.5464641 38.4639619,23.5011945 Z" id="Shape"></path>
            </g>
        </g>
    </g>
</svg>